<svg width="154" height="41" viewBox="0 0 154 41" fill="none" xmlns="http://www.w3.org/2000/svg">
<g clip-path="url(#clip0_0_820)">
<path d="M47.6187 31.2845C47.6193 31.4187 47.5811 31.5502 47.5086 31.6634C47.4345 31.767 47.3343 31.8495 47.2182 31.9026C46.9843 31.7442 46.7363 31.6074 46.4773 31.4939C46.1433 31.3607 45.7857 31.2962 45.426 31.3045C45.0833 31.305 44.7438 31.3692 44.4248 31.4939C44.1257 31.6193 43.8588 31.8101 43.6438 32.0522C43.4027 32.3109 43.2246 32.6213 43.1232 32.9594C42.9882 33.3574 42.9238 33.7757 42.9329 34.1956C42.8742 34.9771 43.1259 35.7504 43.6338 36.3491C43.875 36.5916 44.1643 36.7815 44.4831 36.9068C44.802 37.0321 45.1435 37.09 45.4861 37.0768C45.8453 37.0797 46.2019 37.0154 46.5374 36.8874C46.8092 36.7851 47.068 36.6513 47.3083 36.4886C47.4096 36.5553 47.4978 36.6398 47.5686 36.7379C47.6495 36.8475 47.6917 36.9807 47.6888 37.1167C47.6896 37.2308 47.6546 37.3424 47.5887 37.4357C47.517 37.5551 47.4129 37.6519 47.2883 37.7149C47.0519 37.8511 46.7997 37.9582 46.5374 38.0339C45.6473 38.2523 44.7132 38.2142 43.8441 37.9243C43.398 37.767 42.9915 37.5153 42.6526 37.1865C42.2938 36.8353 42.017 36.4098 41.8416 35.9403C41.4479 34.8102 41.4479 33.581 41.8416 32.451C42.0196 31.9821 42.2922 31.5546 42.6426 31.1948C42.9795 30.8636 43.3818 30.6056 43.824 30.4371C44.2845 30.2632 44.7733 30.1753 45.2658 30.1779C45.6024 30.1691 45.9388 30.2026 46.267 30.2776C46.5232 30.3256 46.7722 30.406 47.008 30.5169C47.1907 30.6033 47.3541 30.7253 47.4885 30.8758C47.5795 30.9922 47.6257 31.1372 47.6187 31.2845Z" fill="white"/>
<path d="M51.1331 38.0739C50.9467 38.0907 50.7599 38.0451 50.6025 37.9443C50.5384 37.8851 50.4889 37.8121 50.4576 37.7309C50.4264 37.6497 50.4143 37.5624 50.4222 37.4757V29.849L50.6726 29.7892C50.7891 29.7783 50.9064 29.7783 51.023 29.7892C51.2136 29.7768 51.4031 29.8257 51.5637 29.9288C51.6253 29.9893 51.6726 30.0628 51.702 30.1439C51.7315 30.2249 51.7424 30.3115 51.7339 30.3973V38.0141C51.6531 38.0459 51.5692 38.0693 51.4836 38.0839C51.3667 38.0913 51.2494 38.088 51.1331 38.0739Z" fill="white"/>
<path d="M56.9603 31.9524C57.6166 31.9191 58.2661 32.0974 58.8126 32.4609C59.0486 32.6509 59.2341 32.8957 59.3529 33.1739C59.4716 33.452 59.5198 33.755 59.4934 34.056V36.9871C59.5039 37.1472 59.4578 37.3059 59.3632 37.4357C59.2641 37.5515 59.1455 37.6494 59.0128 37.7248C58.7487 37.8719 58.4658 37.9826 58.1718 38.0538C57.7822 38.151 57.3818 38.1979 56.9803 38.1934C56.3085 38.234 55.6406 38.0669 55.0679 37.7149C54.8444 37.5569 54.6647 37.3451 54.5457 37.0993C54.4266 36.8535 54.3721 36.5817 54.3871 36.3091C54.3717 36.0717 54.4115 35.8338 54.5036 35.6142C54.5956 35.3946 54.7374 35.1991 54.9177 35.043C55.363 34.7139 55.8959 34.5232 56.4496 34.4947L58.1918 34.3252V34.0461C58.2049 33.8921 58.1787 33.7374 58.1157 33.5962C58.0527 33.455 57.9549 33.332 57.8313 33.2385C57.5305 33.0567 57.1815 32.9698 56.8301 32.9893C56.4913 32.9864 56.1539 33.0334 55.8289 33.1289C55.5434 33.2119 55.2654 33.3186 54.9978 33.4479C54.9145 33.3768 54.8435 33.2926 54.7876 33.1986C54.7551 33.1023 54.7482 32.9993 54.7676 32.8996C54.7639 32.7742 54.8027 32.6513 54.8777 32.5506C54.9619 32.4404 55.0768 32.3572 55.2081 32.3114C55.4603 32.185 55.7304 32.0976 56.0091 32.0521C56.3229 31.9929 56.641 31.9596 56.9603 31.9524ZM56.9603 37.1665C57.2201 37.171 57.4794 37.1408 57.7312 37.0768C57.8944 37.0402 58.0502 36.9761 58.1918 36.8874V35.2923L56.8301 35.4318C56.5261 35.4469 56.2305 35.5359 55.969 35.691C55.871 35.753 55.7919 35.8406 55.7407 35.9444C55.6895 36.0482 55.668 36.1641 55.6787 36.2792C55.6717 36.4045 55.6964 36.5295 55.7507 36.6428C55.8049 36.756 55.8869 36.8539 55.9891 36.9273C56.2842 37.1131 56.6325 37.1972 56.9803 37.1665H56.9603Z" fill="white"/>
<path d="M66.7824 36.3789C66.7935 36.6333 66.7429 36.8866 66.6348 37.1174C66.5267 37.3482 66.3644 37.5497 66.1616 37.7048C65.6264 38.0574 64.9898 38.2255 64.3494 38.1834C64.0472 38.1843 63.7456 38.1576 63.4483 38.1036C63.2035 38.0633 62.9648 37.993 62.7374 37.8943C62.5694 37.811 62.417 37.6998 62.2868 37.5653C62.1835 37.45 62.1265 37.301 62.1266 37.1465C62.1268 37.0245 62.1578 36.9046 62.2167 36.7976C62.2767 36.6881 62.367 36.5981 62.4771 36.5384C62.7287 36.6966 62.9933 36.8333 63.268 36.9472C63.5861 37.0749 63.9263 37.1392 64.2693 37.1366C64.57 37.1589 64.8704 37.0893 65.1303 36.9372C65.2263 36.8798 65.3049 36.7975 65.3578 36.6993C65.4107 36.601 65.4359 36.4903 65.4307 36.3789C65.4364 36.2862 65.4214 36.1935 65.3868 36.1073C65.3521 36.0211 65.2988 35.9436 65.2305 35.8804C65.0538 35.7355 64.8441 35.6362 64.6197 35.5913L63.7687 35.362C63.3076 35.2649 62.8777 35.056 62.5171 34.7538C62.3831 34.6115 62.2794 34.4436 62.2123 34.2602C62.1452 34.0769 62.116 33.8819 62.1266 33.6871C62.1239 33.4495 62.1753 33.2143 62.2768 32.9992C62.3758 32.7802 62.5271 32.5885 62.7174 32.4409C62.9372 32.2782 63.1848 32.1566 63.4483 32.082C63.7736 31.989 64.1111 31.9453 64.4495 31.9524C64.7248 31.9487 64.9998 31.9721 65.2705 32.0222C65.488 32.0585 65.6999 32.1221 65.9013 32.2116C66.0619 32.2745 66.2058 32.3734 66.3218 32.5007C66.4156 32.6052 66.4688 32.7395 66.472 32.8796C66.4741 33.0018 66.443 33.1224 66.3819 33.2285C66.3246 33.3189 66.2497 33.3968 66.1616 33.4578C65.9475 33.3383 65.7229 33.2382 65.4908 33.1587C65.1706 33.0404 64.831 32.9829 64.4896 32.9892C64.2034 32.9736 63.9186 33.0393 63.6685 33.1787C63.5893 33.2219 63.5214 33.2829 63.47 33.3569C63.4187 33.4309 63.3853 33.5157 63.3727 33.6048C63.3601 33.6938 63.3685 33.7846 63.3972 33.8698C63.426 33.9551 63.4743 34.0325 63.5384 34.0959C63.7066 34.232 63.9062 34.3245 64.1191 34.365L64.84 34.5445C65.3578 34.6531 65.8398 34.8896 66.2417 35.2324C66.4101 35.3729 66.5457 35.5483 66.639 35.7463C66.7324 35.9443 66.7813 36.1601 66.7824 36.3789Z" fill="white"/>
<path d="M73.771 36.3789C73.7821 36.6333 73.7315 36.8866 73.6234 37.1174C73.5154 37.3482 73.3531 37.5497 73.1502 37.7048C72.615 38.0574 71.9784 38.2255 71.338 38.1834C71.0358 38.1843 70.7342 38.1576 70.4369 38.1036C70.1922 38.0633 69.9534 37.993 69.726 37.8943C69.5565 37.8136 69.4037 37.702 69.2755 37.5653C69.1693 37.451 69.1088 37.3021 69.1052 37.1465C69.1089 37.0237 69.1433 36.9038 69.2054 36.7976C69.2643 36.6906 69.3506 36.6012 69.4557 36.5384C69.712 36.6944 69.9798 36.831 70.2567 36.9472C70.5748 37.0749 70.9149 37.1392 71.2579 37.1366C71.5586 37.1589 71.859 37.0893 72.119 36.9372C72.215 36.8798 72.2935 36.7975 72.3464 36.6993C72.3993 36.601 72.4245 36.4903 72.4193 36.3789C72.4224 36.2865 72.4062 36.1945 72.3717 36.1087C72.3373 36.0229 72.2853 35.9452 72.2191 35.8804C72.0425 35.7355 71.8327 35.6362 71.6083 35.5913L70.7573 35.362C70.2962 35.2649 69.8663 35.056 69.5057 34.7538C69.3704 34.612 69.2652 34.4444 69.1964 34.2611C69.1276 34.0778 69.0966 33.8826 69.1052 33.6871C69.1026 33.4495 69.1539 33.2143 69.2554 32.9992C69.3583 32.7797 69.5129 32.5882 69.706 32.4409C69.9258 32.2782 70.1735 32.1566 70.4369 32.082C70.7622 31.989 71.0997 31.9453 71.4381 31.9524C71.7101 31.9482 71.9819 31.9716 72.2491 32.0222C72.4701 32.0571 72.6856 32.1208 72.8899 32.2116C73.0506 32.2745 73.1945 32.3734 73.3104 32.5007C73.4042 32.6052 73.4575 32.7395 73.4606 32.8796C73.4627 33.0018 73.4316 33.1224 73.3705 33.2285C73.3133 33.3189 73.2383 33.3968 73.1502 33.4578C72.9351 33.3402 72.7108 33.2402 72.4794 33.1587C72.159 33.0413 71.8196 32.9839 71.4782 32.9892C71.1919 32.9725 70.9069 33.0383 70.6572 33.1787C70.578 33.2219 70.51 33.2829 70.4586 33.3569C70.4073 33.4309 70.374 33.5157 70.3613 33.6048C70.3487 33.6938 70.3571 33.7846 70.3858 33.8698C70.4146 33.9551 70.4629 34.0325 70.527 34.0959C70.6939 34.2342 70.894 34.327 71.1077 34.365L71.8286 34.5445C72.3464 34.6531 72.8285 34.8896 73.2303 35.2324C73.3987 35.3729 73.5343 35.5483 73.6277 35.7463C73.721 35.9443 73.77 36.1601 73.771 36.3789Z" fill="white"/>
<path d="M76.3141 30.3175C76.3109 30.2159 76.3288 30.1148 76.3667 30.0204C76.4046 29.926 76.4617 29.8405 76.5344 29.7691C76.6095 29.6957 76.6988 29.6384 76.797 29.6007C76.8951 29.563 77 29.5457 77.1051 29.5498C77.2103 29.5444 77.3156 29.5612 77.4139 29.599C77.5122 29.6368 77.6015 29.6947 77.6758 29.7691C77.8102 29.9204 77.8844 30.1155 77.8844 30.3175C77.8844 30.5195 77.8102 30.7145 77.6758 30.8658C77.6015 30.9402 77.5122 30.9982 77.4139 31.0359C77.3156 31.0737 77.2103 31.0905 77.1051 31.0851C77 31.0893 76.8951 31.072 76.797 31.0342C76.6988 30.9965 76.6095 30.9392 76.5344 30.8658C76.4617 30.7944 76.4046 30.7089 76.3667 30.6145C76.3288 30.5202 76.3109 30.419 76.3141 30.3175ZM77.7559 37.9741C77.6796 38.0088 77.5986 38.0323 77.5156 38.0439C77.3957 38.0555 77.275 38.0555 77.1551 38.0439C76.9687 38.0607 76.782 38.0151 76.6245 37.9143C76.5604 37.8551 76.5109 37.7821 76.4796 37.7009C76.4484 37.6196 76.4363 37.5323 76.4443 37.4457V32.1618L76.7046 32.102C76.8208 32.0857 76.9388 32.0857 77.055 32.102C77.2428 32.0866 77.4301 32.1358 77.5857 32.2416C77.65 32.3023 77.699 32.3773 77.7286 32.4605C77.7582 32.5437 77.7675 32.6326 77.7559 32.7201V37.9741Z" fill="white"/>
<path d="M82.1013 32.4908H84.4642C84.5092 32.5544 84.5431 32.6252 84.5643 32.7001C84.5767 32.8028 84.5767 32.9065 84.5643 33.0092C84.5643 33.3581 84.4041 33.5276 84.0837 33.5276H82.1013V37.974C82.0244 38.0072 81.9437 38.0307 81.861 38.0438C81.7444 38.0546 81.6271 38.0546 81.5105 38.0438C81.3241 38.0606 81.1374 38.015 80.9799 37.9142C80.9158 37.8551 80.8663 37.7821 80.835 37.7008C80.8038 37.6196 80.7917 37.5323 80.7997 37.4457V31.753C80.7931 31.413 80.8509 31.0748 80.9699 30.7561C81.0704 30.4935 81.2357 30.2604 81.4505 30.0781C81.671 29.8924 81.9313 29.7594 82.2114 29.6893C82.5376 29.6007 82.8745 29.5571 83.2126 29.5597C83.6173 29.5388 84.0215 29.6104 84.3941 29.7691C84.5122 29.8083 84.6151 29.8831 84.6887 29.9831C84.7622 30.0831 84.8027 30.2034 84.8046 30.3274C84.8068 30.4335 84.7864 30.5388 84.7445 30.6364C84.6985 30.7202 84.6412 30.7973 84.5743 30.8657C84.3946 30.7977 84.2106 30.7411 84.0236 30.6963C83.8139 30.6446 83.5989 30.6179 83.3828 30.6165C83.0257 30.5803 82.668 30.6801 82.3816 30.8956C82.2711 31.0179 82.1874 31.1616 82.1357 31.3178C82.084 31.474 82.0654 31.6392 82.0812 31.8029L82.1013 32.4908ZM85.8158 30.3174C85.814 30.1129 85.8931 29.9159 86.0361 29.7691C86.113 29.6954 86.2042 29.638 86.304 29.6003C86.4038 29.5626 86.5102 29.5454 86.6168 29.5498C86.7206 29.5445 86.8243 29.5614 86.9209 29.5992C87.0176 29.637 87.1051 29.695 87.1775 29.7691C87.312 29.9204 87.3862 30.1154 87.3862 30.3174C87.3862 30.5194 87.312 30.7144 87.1775 30.8657C87.1051 30.9399 87.0176 30.9978 86.9209 31.0356C86.8243 31.0734 86.7206 31.0903 86.6168 31.0851C86.5102 31.0894 86.4038 31.0722 86.304 31.0345C86.2042 30.9968 86.113 30.9394 86.0361 30.8657C85.9617 30.7947 85.9021 30.7096 85.8609 30.6155C85.8197 30.5214 85.7975 30.4201 85.7958 30.3174H85.8158ZM87.2676 37.974C87.1876 38.008 87.1035 38.0315 87.0173 38.0438C86.9008 38.055 86.7834 38.055 86.6669 38.0438C86.4775 38.0585 86.2882 38.0131 86.1262 37.9142C86.0657 37.8529 86.0192 37.7793 85.9898 37.6984C85.9604 37.6176 85.9489 37.5314 85.956 37.4457V32.1618L86.2063 32.102C86.326 32.0862 86.4472 32.0862 86.5668 32.102C86.7544 32.0881 86.9412 32.1372 87.0974 32.2415C87.1599 32.3036 87.2076 32.3788 87.2371 32.4616C87.2665 32.5444 87.277 32.6327 87.2676 32.7201V37.974Z" fill="white"/>
<path d="M91.2927 35.731C91.38 36.1552 91.6227 36.5319 91.9735 36.7878C92.3619 37.0325 92.8158 37.1542 93.2751 37.1367C93.616 37.1472 93.9557 37.093 94.2763 36.9772C94.5248 36.8888 94.7604 36.7681 94.9772 36.6183C95.0819 36.6725 95.1697 36.754 95.2315 36.8541C95.2932 36.9542 95.3264 37.0691 95.3276 37.1866C95.3211 37.3356 95.2606 37.4772 95.1574 37.5854C95.0344 37.7185 94.8842 37.8239 94.7169 37.8944C94.506 37.9908 94.2841 38.0611 94.0561 38.1038C93.7856 38.1565 93.5107 38.1832 93.2351 38.1835C92.7858 38.1881 92.3391 38.1173 91.9134 37.9742C91.5391 37.8516 91.197 37.6472 90.9122 37.376C90.6194 37.0974 90.3936 36.7566 90.2514 36.3791C90.0914 35.9416 90.0134 35.4787 90.0211 35.0132C90.0139 34.5608 90.092 34.111 90.2514 33.6873C90.3801 33.3295 90.589 33.0056 90.8621 32.7402C91.1175 32.4782 91.4289 32.2772 91.7733 32.152C92.1309 32.0149 92.5115 31.9472 92.8946 31.9526C93.2672 31.9464 93.6375 32.0106 93.986 32.142C94.3038 32.2613 94.5935 32.4446 94.837 32.6803C95.0776 32.914 95.2653 33.1961 95.3877 33.5078C95.5163 33.8248 95.5842 34.1629 95.588 34.5048C95.6017 34.6745 95.5477 34.8429 95.4378 34.9733C95.3122 35.0773 95.1593 35.143 94.9972 35.1628L91.2927 35.731ZM92.8446 32.9695C92.6327 32.9619 92.4215 32.9989 92.2249 33.0779C92.0282 33.1569 91.8505 33.2762 91.7032 33.4281C91.3839 33.7996 91.2128 34.2751 91.2226 34.764L94.2964 34.3253C94.279 33.9558 94.134 33.6037 93.8859 33.3284C93.7473 33.1991 93.583 33.1003 93.4036 33.0385C93.2242 32.9766 93.0337 32.9531 92.8446 32.9695Z" fill="white"/>
<path d="M100.744 31.9525C100.983 31.9528 101.222 31.9795 101.455 32.0323C101.657 32.0761 101.852 32.1465 102.036 32.2416V29.8489L102.286 29.7891C102.403 29.7777 102.52 29.7777 102.637 29.7891C102.809 29.778 102.98 29.8198 103.127 29.9088C103.192 29.9674 103.242 30.0404 103.273 30.1217C103.304 30.2031 103.316 30.2906 103.307 30.3773V36.9572C103.312 37.1076 103.273 37.256 103.197 37.3859C103.103 37.5141 102.983 37.6225 102.847 37.705C102.604 37.8543 102.341 37.9685 102.066 38.0439C101.7 38.1568 101.318 38.2107 100.934 38.2034C100.494 38.2058 100.055 38.142 99.6329 38.014C99.2613 37.905 98.9191 37.7142 98.6317 37.4557C98.3417 37.1787 98.122 36.837 97.9909 36.4588C97.6906 35.5523 97.6906 34.5738 97.9909 33.6673C98.1176 33.3093 98.3239 32.9844 98.5944 32.7168C98.8648 32.4493 99.1924 32.2459 99.5528 32.122C99.9371 31.9973 100.34 31.94 100.744 31.9525ZM102.046 33.3483C101.892 33.2431 101.724 33.1624 101.545 33.109C101.339 33.0381 101.122 33.0043 100.904 33.0093C100.669 33.0035 100.435 33.0406 100.214 33.119C99.9989 33.1937 99.8062 33.3205 99.6529 33.4878C99.4864 33.6802 99.3604 33.904 99.2825 34.1458C99.1795 34.4679 99.1321 34.805 99.1423 35.1428C99.1184 35.419 99.1504 35.6972 99.2364 35.9609C99.3224 36.2246 99.4606 36.4685 99.6429 36.6781C99.819 36.8394 100.026 36.964 100.251 37.0445C100.476 37.125 100.716 37.1597 100.955 37.1467C101.168 37.1549 101.381 37.128 101.585 37.0669C101.745 37.0195 101.899 36.956 102.046 36.8775V33.3483Z" fill="white"/>
<path d="M110.456 37.8146C110.389 37.7446 110.336 37.6617 110.302 37.5709C110.267 37.48 110.252 37.3832 110.256 37.2862V30.3773H110.526C110.646 30.3615 110.767 30.3615 110.887 30.3773C111.077 30.3649 111.267 30.4139 111.427 30.5169C111.492 30.5795 111.542 30.656 111.574 30.7406C111.605 30.8252 111.616 30.9157 111.608 31.0054V36.9871H114.992C115.042 37.0544 115.082 37.1282 115.112 37.2065C115.128 37.3122 115.128 37.4198 115.112 37.5255C115.122 37.684 115.072 37.8404 114.972 37.9642C114.926 38.0139 114.87 38.053 114.808 38.0789C114.746 38.1047 114.679 38.1166 114.611 38.1137H110.937C110.84 38.0988 110.748 38.0646 110.666 38.0132C110.583 37.9618 110.512 37.8942 110.456 37.8146Z" fill="white"/>
<path d="M117.555 30.3174C117.554 30.2152 117.574 30.1138 117.613 30.0195C117.653 29.9252 117.711 29.8399 117.785 29.7691C117.86 29.6957 117.95 29.6383 118.048 29.6006C118.146 29.5629 118.251 29.5456 118.356 29.5497C118.46 29.5439 118.564 29.5604 118.66 29.5983C118.757 29.6362 118.845 29.6944 118.917 29.7691C119.058 29.9172 119.136 30.1134 119.136 30.3174C119.136 30.5214 119.058 30.7176 118.917 30.8657C118.845 30.9404 118.757 30.9986 118.66 31.0365C118.564 31.0744 118.46 31.0909 118.356 31.0851C118.251 31.0892 118.146 31.0719 118.048 31.0342C117.95 30.9964 117.86 30.9391 117.785 30.8657C117.711 30.7949 117.653 30.7096 117.613 30.6153C117.574 30.521 117.554 30.4196 117.555 30.3174ZM119.007 37.974C118.93 38.0072 118.849 38.0307 118.767 38.0438C118.647 38.0546 118.526 38.0546 118.406 38.0438C118.22 38.0606 118.033 38.015 117.875 37.9142C117.811 37.8551 117.762 37.782 117.731 37.7008C117.699 37.6196 117.687 37.5323 117.695 37.4456V32.1618L117.956 32.1019C118.072 32.0856 118.19 32.0856 118.306 32.1019C118.494 32.0881 118.68 32.1372 118.837 32.2415C118.901 32.3022 118.95 32.3772 118.98 32.4604C119.009 32.5436 119.018 32.6326 119.007 32.7201V37.974Z" fill="white"/>
<path d="M126.406 36.3789C126.417 36.6333 126.366 36.8866 126.258 37.1174C126.15 37.3482 125.988 37.5497 125.785 37.7048C125.25 38.0574 124.613 38.2255 123.973 38.1834C123.671 38.1843 123.369 38.1576 123.072 38.1036C122.827 38.0633 122.588 37.993 122.361 37.8943C122.193 37.811 122.041 37.6998 121.91 37.5653C121.807 37.45 121.75 37.301 121.75 37.1465C121.75 37.0245 121.781 36.9046 121.84 36.7976C121.899 36.6906 121.986 36.6012 122.091 36.5384C122.347 36.6944 122.615 36.831 122.892 36.9472C123.225 37.0814 123.583 37.1459 123.943 37.1366C124.244 37.1589 124.544 37.0893 124.804 36.9372C124.9 36.8798 124.979 36.7975 125.031 36.6993C125.084 36.601 125.11 36.4903 125.104 36.3789C125.107 36.2865 125.091 36.1945 125.057 36.1087C125.022 36.0229 124.97 35.9452 124.904 35.8804C124.727 35.7355 124.518 35.6362 124.293 35.5913L123.442 35.362C122.981 35.2649 122.551 35.056 122.191 34.7538C122.055 34.612 121.95 34.4444 121.881 34.2611C121.813 34.0778 121.782 33.8826 121.79 33.6871C121.788 33.4495 121.839 33.2143 121.94 32.9992C122.043 32.7797 122.198 32.5882 122.391 32.4409C122.611 32.2782 122.858 32.1566 123.122 32.082C123.447 31.989 123.785 31.9453 124.123 31.9524C124.395 31.9482 124.667 31.9716 124.934 32.0222C125.155 32.0571 125.371 32.1208 125.575 32.2116C125.736 32.2745 125.879 32.3734 125.995 32.5007C126.097 32.6088 126.155 32.7512 126.156 32.8995C126.158 33.0218 126.127 33.1423 126.066 33.2484C126.008 33.3388 125.933 33.4168 125.845 33.4777C125.631 33.3582 125.407 33.2581 125.174 33.1787C124.854 33.0604 124.515 33.0029 124.173 33.0092C123.887 32.9924 123.602 33.0582 123.352 33.1986C123.273 33.2418 123.205 33.3029 123.154 33.3768C123.102 33.4508 123.069 33.5357 123.056 33.6247C123.044 33.7138 123.052 33.8045 123.081 33.8898C123.11 33.975 123.158 34.0524 123.222 34.1158C123.389 34.2542 123.589 34.3469 123.803 34.385L124.524 34.5644C125.041 34.673 125.523 34.9096 125.925 35.2523C126.08 35.3961 126.203 35.5707 126.286 35.7648C126.369 35.9588 126.41 36.1681 126.406 36.3789Z" fill="white"/>
<path d="M130.611 36.8873C130.831 37.0192 131.086 37.0817 131.342 37.0667C131.494 37.0652 131.645 37.0451 131.793 37.0069C131.92 36.9807 132.044 36.9406 132.163 36.8873C132.224 36.9579 132.278 37.0348 132.323 37.1166C132.374 37.2078 132.399 37.3114 132.393 37.4157C132.392 37.5267 132.36 37.6352 132.302 37.73C132.244 37.8247 132.161 37.9021 132.063 37.954C131.755 38.116 131.409 38.1918 131.062 38.1733C130.53 38.2019 130.004 38.0508 129.57 37.7447C129.374 37.5742 129.221 37.3594 129.126 37.1183C129.03 36.8773 128.993 36.6169 129.019 36.3589V30.5067L129.27 30.4469C129.382 30.4311 129.497 30.4311 129.61 30.4469C129.801 30.4282 129.993 30.4777 130.151 30.5865C130.21 30.646 130.256 30.7181 130.283 30.7975C130.311 30.877 130.32 30.9616 130.311 31.0451V32.2913H132.253C132.29 32.3577 132.321 32.4279 132.343 32.5007C132.357 32.5965 132.357 32.6939 132.343 32.7898C132.343 33.1487 132.183 33.3381 131.873 33.3381H130.261V36.329C130.272 36.4427 130.309 36.5523 130.37 36.6492C130.431 36.7461 130.513 36.8276 130.611 36.8873Z" fill="white"/>
<path d="M134.936 30.3174C134.933 30.2159 134.951 30.1147 134.989 30.0204C135.027 29.926 135.084 29.8405 135.157 29.7691C135.232 29.6957 135.321 29.6384 135.419 29.6007C135.517 29.563 135.622 29.5456 135.727 29.5498C135.833 29.5438 135.938 29.5602 136.037 29.5981C136.135 29.6359 136.224 29.6942 136.298 29.7691C136.433 29.9204 136.507 30.1154 136.507 30.3174C136.507 30.5195 136.433 30.7145 136.298 30.8658C136.224 30.9407 136.135 30.999 136.037 31.0368C135.938 31.0747 135.833 31.0911 135.727 31.0851C135.524 31.1015 135.322 31.037 135.167 30.9057C135.087 30.8307 135.025 30.739 134.985 30.6373C134.945 30.5356 134.929 30.4264 134.936 30.3174ZM136.378 37.9741C136.301 38.0073 136.221 38.0307 136.138 38.0439C136.018 38.0555 135.897 38.0555 135.778 38.0439C135.591 38.0607 135.404 38.0151 135.247 37.9143C135.183 37.8551 135.133 37.7821 135.102 37.7009C135.071 37.6196 135.059 37.5323 135.067 37.4457V32.1618L135.327 32.102C135.443 32.0856 135.561 32.0856 135.677 32.102C135.865 32.0865 136.052 32.1358 136.208 32.2416C136.272 32.3023 136.321 32.3773 136.351 32.4605C136.381 32.5436 136.39 32.6326 136.378 32.7201V37.9741Z" fill="white"/>
<path d="M143.027 33.2983C142.763 33.0907 142.431 32.9878 142.095 33.0092C141.831 33.0021 141.567 33.0392 141.314 33.1188C141.109 33.1807 140.911 33.2642 140.724 33.3681V37.974C140.644 38.008 140.559 38.0315 140.473 38.0438C140.36 38.0546 140.246 38.0546 140.133 38.0438C139.944 38.0584 139.754 38.0131 139.592 37.9142C139.532 37.8529 139.485 37.7793 139.456 37.6984C139.426 37.6175 139.415 37.5313 139.422 37.4456V33.3282C139.416 33.1681 139.454 33.0094 139.532 32.8696C139.634 32.726 139.763 32.604 139.913 32.5107C140.2 32.3457 140.506 32.2152 140.824 32.1219C141.237 32.0051 141.666 31.9481 142.095 31.9524C142.772 31.9129 143.443 32.1026 143.998 32.4908C144.233 32.6948 144.417 32.9506 144.535 33.238C144.653 33.5253 144.702 33.8361 144.679 34.1457V37.974C144.599 38.0099 144.515 38.0334 144.428 38.0438C144.312 38.055 144.194 38.055 144.078 38.0438C143.891 38.0606 143.705 38.015 143.547 37.9142C143.483 37.855 143.434 37.782 143.402 37.7008C143.371 37.6196 143.359 37.5323 143.367 37.4456V34.1955C143.382 34.0301 143.359 33.8633 143.3 33.7079C143.241 33.5525 143.148 33.4124 143.027 33.2983Z" fill="white"/>
<path d="M151.477 37.4456C151.298 37.5623 151.102 37.6498 150.896 37.7048C150.631 37.7731 150.359 37.8066 150.085 37.8045C149.728 37.8082 149.373 37.7544 149.034 37.645C148.713 37.5446 148.419 37.3743 148.173 37.1465C147.91 36.8939 147.705 36.5879 147.572 36.2493C147.418 35.8141 147.343 35.3549 147.352 34.8934C147.345 34.4581 147.42 34.0255 147.572 33.6173C147.707 33.2716 147.916 32.9588 148.183 32.7001C148.452 32.4487 148.774 32.2582 149.124 32.1418C149.514 32.0097 149.924 31.9456 150.335 31.9524C150.718 31.9497 151.099 32 151.467 32.1019C151.764 32.1884 152.047 32.3159 152.308 32.4808C152.438 32.5599 152.551 32.6651 152.638 32.7898C152.721 32.9173 152.763 33.0668 152.758 33.2185V38.2033C152.764 38.5771 152.689 38.9477 152.538 39.29C152.398 39.5759 152.192 39.8251 151.937 40.0178C151.665 40.2162 151.355 40.3586 151.026 40.4365C150.66 40.5273 150.283 40.5709 149.905 40.5661C149.534 40.5719 149.164 40.5317 148.804 40.4465C148.57 40.388 148.345 40.3009 148.133 40.1873C148.017 40.1276 147.919 40.0377 147.85 39.9271C147.781 39.8164 147.744 39.6893 147.742 39.5592C147.739 39.4336 147.77 39.3095 147.832 39.2003C147.89 39.1099 147.965 39.0319 148.053 38.971C148.291 39.1291 148.551 39.2533 148.824 39.3399C149.146 39.4491 149.484 39.5031 149.825 39.4994C150.253 39.5248 150.677 39.413 151.036 39.1803C151.182 39.0597 151.297 38.9065 151.372 38.7333C151.446 38.56 151.479 38.3716 151.467 38.1834L151.477 37.4456ZM150.265 36.7677C150.511 36.7746 150.756 36.734 150.986 36.6481C151.159 36.5695 151.32 36.469 151.467 36.349V33.3083C151.323 33.2194 151.168 33.149 151.006 33.0989C150.796 33.0349 150.576 33.0046 150.356 33.0092C150.131 32.9984 149.907 33.0335 149.697 33.1124C149.487 33.1913 149.295 33.3122 149.134 33.4678C148.967 33.66 148.841 33.8832 148.762 34.1246C148.683 34.3659 148.653 34.6205 148.673 34.8735C148.666 35.1704 148.707 35.4666 148.794 35.7508C148.861 35.9729 148.977 36.1772 149.134 36.349C149.27 36.4968 149.443 36.6067 149.635 36.668C149.838 36.7366 150.051 36.7703 150.265 36.7677Z" fill="white"/>
<path d="M43.9341 25.2133C43.1298 25.2909 42.3225 25.0978 41.6413 24.665C41.4008 24.3958 41.2202 24.079 41.1115 23.7353C41.0027 23.3916 40.9683 23.0289 41.0105 22.6711V5.24426C40.9927 4.87921 41.1184 4.52162 41.3609 4.2473C41.6413 3.97259 41.9851 3.77061 42.3622 3.65909C42.7902 3.50828 43.2285 3.38834 43.6738 3.30019C44.1644 3.21046 44.675 3.12074 45.1756 3.05095C45.6869 2.97883 46.2016 2.93225 46.7175 2.91138C47.2382 2.91138 47.7188 2.91138 48.1793 2.91138C51.4033 2.91138 53.8764 3.59928 55.5384 4.95514C56.3598 5.61222 57.0164 6.45066 57.456 7.4041C57.8957 8.35754 58.1064 9.3998 58.0716 10.4484C58.0847 11.5137 57.8732 12.57 57.4508 13.5489C57.0464 14.4761 56.4331 15.2982 55.6586 15.9516C54.8138 16.6422 53.8408 17.1605 52.795 17.4769C51.5472 17.8434 50.2512 18.0215 48.9503 18.0053H46.4672V24.984H46.2269L45.436 25.1036C44.9381 25.1712 44.4365 25.2078 43.9341 25.2133ZM48.5899 13.7782C49.6122 13.8306 50.6231 13.543 51.4634 12.9607C51.8297 12.6586 52.1188 12.2743 52.3068 11.8392C52.4948 11.4042 52.5763 10.9309 52.5447 10.4583C52.5447 8.27501 51.2231 7.16839 48.6199 7.16839C48.1927 7.16839 47.8122 7.16839 47.4785 7.16839C47.1447 7.16839 46.811 7.20826 46.4772 7.28802H46.3871V13.7483L48.5899 13.7782Z" fill="white"/>
<path d="M67.5133 25.3128C66.6606 25.3117 65.813 25.1806 65.0002 24.924C63.8753 24.5504 62.8489 23.9304 61.9965 23.1095C60.9908 22.1336 60.1909 20.9677 59.6436 19.68C59.0388 18.465 58.6976 17.1368 58.6423 15.7819C58.6118 14.6421 58.8304 13.5093 59.2831 12.462C59.7259 11.4651 60.374 10.5718 61.1855 9.84004C62.0083 9.10111 62.9403 8.49251 63.9489 8.03554C64.9791 7.56433 66.0834 7.27425 67.2129 7.17816H67.8637C68.663 7.17255 69.4578 7.29715 70.2166 7.54703C71.1562 7.83735 72.0231 8.32331 72.7598 8.97268C73.5227 9.67209 74.1328 10.5205 74.552 11.4651C74.696 11.73 74.7837 12.0217 74.8095 12.3218C74.8353 12.622 74.7988 12.9243 74.7022 13.2098C74.4362 13.771 74.0072 14.2398 73.4706 14.5556L65.4608 19.7299L65.5409 19.8196C65.8542 20.1954 66.2415 20.5034 66.6788 20.7245C67.1162 20.9457 67.5944 21.0754 68.084 21.1057H68.3243C69.2696 21.0901 70.2011 20.8761 71.0577 20.4776C71.9314 20.0886 72.7414 19.571 73.4606 18.9423C73.9999 18.4858 74.4898 17.9746 74.9224 17.4169L75.0426 17.2574H75.2428C75.5628 17.3459 75.8669 17.4838 76.1439 17.6662C76.5044 17.9144 76.7859 18.2604 76.9549 18.6631C77.1694 19.1069 77.2191 19.612 77.0951 20.0888C76.9286 20.6317 76.645 21.1319 76.2641 21.5543C75.7812 22.0841 75.2289 22.5469 74.6221 22.9301C73.8846 23.4073 73.1114 23.8273 72.3092 24.1863C71.1079 24.7347 69.8273 25.0913 68.5145 25.243C68.1741 25.2929 67.8437 25.3128 67.5133 25.3128ZM67.0828 11.176C66.5522 11.1934 66.0308 11.3189 65.5509 11.5448C64.6482 11.9246 63.9298 12.6399 63.5484 13.5387C63.1618 14.5261 63.1618 15.622 63.5484 16.6094V16.729L69.5558 12.7412V12.6614C69.2232 12.0811 68.7051 11.6283 68.084 11.3754C67.7685 11.2379 67.427 11.1699 67.0828 11.176Z" fill="white"/>
<path d="M85.7156 25.5023C84.0649 25.5905 82.4343 25.108 81.0999 24.1364C79.9985 23.2392 79.4478 21.7537 79.4478 19.7099V3.66889L79.6781 3.61905L80.409 3.45953C80.865 3.37797 81.3275 3.33792 81.7907 3.3399C82.5725 3.27556 83.3544 3.46062 84.0235 3.86829C84.278 4.12916 84.4697 4.44417 84.5842 4.78956C84.6987 5.13496 84.7329 5.50172 84.6843 5.8622V8.2549H89.6905L89.7706 8.43435C89.8507 8.62377 89.9308 8.8431 90.0209 9.10231C90.1341 9.4706 90.1915 9.85367 90.1911 10.2388C90.2173 10.5206 90.1874 10.8048 90.1032 11.0751C90.0191 11.3453 89.8822 11.5965 89.7005 11.814C89.5301 11.9753 89.3288 12.1009 89.1086 12.1831C88.8884 12.2653 88.6538 12.3025 88.4189 12.2926H84.6443V19.351C84.6113 19.6522 84.6576 19.9568 84.7787 20.2348C84.8999 20.5127 85.0916 20.7545 85.3351 20.9362C85.8941 21.276 86.5434 21.4393 87.1974 21.4048C87.5914 21.4039 87.9842 21.3604 88.3689 21.2752C88.64 21.2221 88.9075 21.1522 89.1698 21.0658L89.3801 20.996L89.5103 21.1755C89.6436 21.3505 89.7546 21.5414 89.8407 21.7437C89.9824 22.057 90.0542 22.3971 90.0509 22.7407C90.0549 23.1283 89.9662 23.5113 89.7921 23.858C89.618 24.2047 89.3635 24.5052 89.0497 24.7346C88.0481 25.3359 86.8806 25.6047 85.7156 25.5023Z" fill="white"/>
<path d="M98.7718 25.5321C97.8564 25.5392 96.942 25.4692 96.0385 25.3227C95.3051 25.207 94.591 24.9924 93.9158 24.6846C93.3864 24.4412 92.9178 24.0837 92.5442 23.6378C92.2411 23.2181 92.0894 22.7087 92.1136 22.1923C92.096 21.7401 92.2034 21.2918 92.424 20.8962C92.5753 20.6259 92.7717 20.3832 93.0047 20.1784L93.1149 20.0388L93.2951 20.1485C93.9897 20.5205 94.7129 20.8372 95.4577 21.0956C96.4675 21.4312 97.5273 21.593 98.5916 21.5741C100.364 21.5741 101.255 21.0557 101.255 20.0388C101.26 19.8455 101.218 19.6539 101.133 19.4802C101.047 19.3066 100.921 19.1562 100.764 19.0419C100.282 18.7497 99.7487 18.5501 99.1924 18.4537L97.7506 18.1247C96.1624 17.8847 94.6628 17.2428 93.3952 16.2604C92.916 15.8189 92.5415 15.2767 92.2991 14.6731C92.0566 14.0695 91.9522 13.4198 91.9935 12.771C91.9571 11.9913 92.1221 11.2153 92.4727 10.5172C92.8232 9.81904 93.3477 9.22203 93.9959 8.78318C95.6291 7.72497 97.5568 7.20849 99.5027 7.30768C100.318 7.30596 101.132 7.37266 101.936 7.50707C102.628 7.60752 103.302 7.80557 103.938 8.09527C104.437 8.32482 104.875 8.66602 105.22 9.09223C105.531 9.46004 105.698 9.9274 105.69 10.4082C105.696 10.8333 105.6 11.2536 105.41 11.6345C105.281 11.8942 105.108 12.1302 104.899 12.3323L104.749 12.4819L104.559 12.3822C104.355 12.278 104.144 12.1881 103.928 12.113C103.532 11.9578 103.128 11.8246 102.717 11.7142C102.263 11.588 101.801 11.4915 101.335 11.4251C100.888 11.3563 100.436 11.3197 99.9833 11.3154C99.2979 11.2797 98.6133 11.399 97.9809 11.6644C97.7551 11.7515 97.5614 11.905 97.4254 12.1045C97.2895 12.3039 97.2178 12.5399 97.2199 12.781C97.2129 12.951 97.2497 13.1199 97.3268 13.2717C97.404 13.4236 97.5188 13.5532 97.6605 13.6483C98.1137 13.9204 98.6122 14.1094 99.1323 14.2066L100.504 14.5256C102.199 14.7807 103.795 15.4791 105.13 16.5495C105.59 16.9956 105.951 17.5333 106.19 18.1277C106.428 18.722 106.537 19.3596 106.511 19.9989C106.548 20.7836 106.39 21.5651 106.051 22.2745C105.712 22.9839 105.203 23.5993 104.569 24.0665C102.844 25.1597 100.812 25.6734 98.7718 25.5321Z" fill="white"/>
<path d="M112.048 25.2132C111.259 25.2824 110.468 25.1047 109.785 24.7048C109.521 24.4508 109.323 24.1366 109.207 23.7892C109.092 23.4418 109.064 23.0717 109.125 22.7109V1.7648L109.355 1.71495C109.545 1.66511 109.785 1.62523 110.066 1.57538C110.543 1.50431 111.025 1.47097 111.508 1.47568C112.291 1.41035 113.076 1.59169 113.75 1.9941C114.012 2.25048 114.21 2.56435 114.328 2.91059C114.447 3.25683 114.482 3.62581 114.431 3.98802V24.9241H114.191L113.47 25.0438C113.001 25.1334 112.526 25.19 112.048 25.2132Z" fill="white"/>
<path d="M120.989 25.2132C120.2 25.2797 119.41 25.1022 118.726 24.7047C118.466 24.4479 118.271 24.1333 118.156 23.7868C118.041 23.4402 118.01 23.0715 118.066 22.7108V8.08547L118.296 8.02565C118.496 8.02565 118.726 7.93593 118.997 7.89605C119.467 7.82055 119.942 7.78387 120.418 7.78638C121.209 7.71469 122.002 7.89633 122.681 8.3048C122.937 8.56482 123.13 8.87973 123.244 9.22537C123.359 9.57101 123.392 9.93818 123.342 10.2987V24.9241H123.112L122.421 25.0437C121.948 25.1336 121.47 25.1903 120.989 25.2132ZM120.709 5.72268C120.312 5.74159 119.915 5.67776 119.545 5.53527C119.174 5.39278 118.837 5.17477 118.556 4.89521C118.289 4.62505 118.079 4.30383 117.94 3.95088C117.8 3.59794 117.734 3.22057 117.745 2.84147C117.74 2.47207 117.809 2.10539 117.948 1.76297C118.088 1.42055 118.294 1.10932 118.556 0.847559C119.144 0.315837 119.91 0.0212402 120.704 0.0212402C121.498 0.0212402 122.264 0.315837 122.851 0.847559C123.115 1.10883 123.323 1.41975 123.464 1.76213C123.605 2.10451 123.676 2.47145 123.672 2.84147C123.683 3.2321 123.612 3.62063 123.463 3.98226C123.314 4.3439 123.092 4.6707 122.809 4.94181C122.526 5.21291 122.19 5.42238 121.821 5.55683C121.453 5.69128 121.06 5.74776 120.669 5.72268H120.709Z" fill="white"/>
<path d="M133.044 25.5322C132.125 25.5389 131.208 25.4689 130.301 25.3228C129.568 25.2057 128.854 24.9911 128.178 24.6848C127.65 24.4439 127.184 24.0858 126.816 23.638C126.49 23.2272 126.316 22.7163 126.326 22.1924C126.314 21.7408 126.421 21.294 126.636 20.8963C126.788 20.626 126.984 20.3833 127.217 20.1785L127.377 20.039L127.567 20.1486C128.261 20.5225 128.984 20.8393 129.73 21.0957C130.739 21.4328 131.799 21.5947 132.864 21.5743C134.626 21.5743 135.517 21.0559 135.517 20.039C135.525 19.8453 135.484 19.6527 135.399 19.4786C135.313 19.3046 135.185 19.1545 135.027 19.042C134.548 18.7494 134.018 18.5499 133.465 18.4538L132.013 18.1248C130.428 17.8828 128.932 17.241 127.667 16.2605C127.186 15.8204 126.809 15.2787 126.565 14.6749C126.321 14.0712 126.215 13.4208 126.256 12.7711C126.219 11.9914 126.384 11.2155 126.735 10.5173C127.085 9.81917 127.61 9.22216 128.258 8.78331C129.893 7.72762 131.819 7.21136 133.765 7.30781C134.58 7.30566 135.394 7.37237 136.198 7.5072C136.889 7.61171 137.563 7.8096 138.2 8.09541C138.696 8.3305 139.133 8.6708 139.482 9.09236C139.79 9.46159 139.953 9.9288 139.943 10.4083C139.947 10.7646 139.88 11.1181 139.746 11.4484C139.612 11.7787 139.413 12.0792 139.162 12.3325L139.001 12.482L138.811 12.3823C138.61 12.2798 138.403 12.1899 138.19 12.1131C137.791 11.9579 137.383 11.8248 136.969 11.7144C136.515 11.5892 136.053 11.4926 135.587 11.4252C135.14 11.3564 134.688 11.3198 134.236 11.3156C133.55 11.2799 132.866 11.3992 132.233 11.6645C132.008 11.7528 131.815 11.9066 131.679 12.1058C131.544 12.305 131.471 12.5404 131.472 12.7811C131.465 12.9511 131.502 13.12 131.579 13.2719C131.656 13.4237 131.771 13.5533 131.913 13.6485C132.366 13.9205 132.864 14.1096 133.385 14.2068L134.756 14.5258C136.459 14.7831 138.06 15.4926 139.392 16.5795C139.853 17.0256 140.214 17.5634 140.452 18.1577C140.69 18.752 140.8 19.3896 140.774 20.029C140.81 20.8136 140.652 21.5952 140.313 22.3045C139.974 23.0139 139.465 23.6294 138.831 24.0966C137.106 25.1779 135.078 25.681 133.044 25.5322Z" fill="white"/>
<path d="M149.555 25.5023C147.89 25.6015 146.243 25.1184 144.899 24.1364C143.797 23.2392 143.237 21.7537 143.237 19.7099V3.66889L143.477 3.61905L144.208 3.45953C144.664 3.37752 145.126 3.33748 145.59 3.3399C146.371 3.27556 147.153 3.46062 147.822 3.86829C148.077 4.12916 148.269 4.44417 148.383 4.78956C148.498 5.13496 148.532 5.50172 148.483 5.8622V8.2549H153.489L153.569 8.43435C153.65 8.62377 153.73 8.85307 153.81 9.10231C153.931 9.46896 153.992 9.85279 153.99 10.2388C154.016 10.5206 153.986 10.8048 153.902 11.0751C153.818 11.3453 153.681 11.5965 153.499 11.814C153.329 11.9754 153.128 12.1009 152.907 12.1831C152.687 12.2653 152.453 12.3025 152.218 12.2926H148.483V19.351C148.45 19.6532 148.498 19.9587 148.621 20.2369C148.744 20.5151 148.938 20.7563 149.184 20.9362C149.743 21.276 150.392 21.4394 151.046 21.4048C151.44 21.4039 151.833 21.3604 152.218 21.2752C152.489 21.2209 152.756 21.151 153.019 21.0658L153.189 20.9362L153.319 21.1156C153.453 21.2907 153.564 21.4816 153.65 21.6839C153.791 21.9972 153.863 22.3373 153.86 22.6809C153.867 23.0639 153.785 23.4434 153.62 23.7894C153.455 24.1354 153.211 24.4385 152.909 24.6748C151.908 25.3011 150.733 25.5912 149.555 25.5023Z" fill="white"/>
<path d="M35.9443 39.2602C35.676 39.2617 35.4101 39.2096 35.1625 39.1068C34.9148 39.0041 34.6904 38.8528 34.5026 38.662L28.0346 32.1818C24.978 34.6028 21.1865 35.9187 17.2808 35.9141C13.3752 35.9094 9.58679 34.5845 6.53603 32.1563C3.48526 29.728 1.35289 26.3403 0.488063 22.5479C-0.376764 18.7554 0.0772007 14.783 1.77563 11.281C3.47405 7.77893 6.31629 4.95487 9.83696 3.27119C13.3576 1.5875 17.3481 1.14396 21.155 2.01319C24.9618 2.88242 28.3595 5.01291 30.7916 8.05582C33.2238 11.0987 34.5463 14.8737 34.5426 18.7627C34.5584 22.5828 33.2777 26.2962 30.9081 29.3005L37.4362 35.8007C37.6284 35.9866 37.7813 36.2089 37.8857 36.4547C37.99 36.7004 38.0438 36.9645 38.0438 37.2313C38.0438 37.4982 37.99 37.7623 37.8857 38.008C37.7813 38.2537 37.6284 38.4761 37.4362 38.662C37.2425 38.8589 37.01 39.0138 36.7532 39.1167C36.4964 39.2197 36.221 39.2685 35.9443 39.2602ZM17.2513 5.64275C13.7594 5.64275 10.4105 7.02398 7.94134 9.48258C5.47219 11.9412 4.08503 15.2758 4.08503 18.7527C4.08503 22.2297 5.47219 25.5643 7.94134 28.0229C10.4105 30.4815 13.7594 31.8627 17.2513 31.8627C20.3442 31.8597 23.3381 30.7766 25.7117 28.8021C25.982 28.5728 26.2824 28.3036 26.5528 28.0244C28.3941 26.1916 29.6484 23.8562 30.157 21.3137C30.6656 18.7711 30.4057 16.1355 29.4101 13.74C28.4146 11.3444 26.7281 9.29662 24.5639 7.85536C22.3997 6.4141 19.8549 5.64411 17.2513 5.64275Z" fill="white"/>
<path d="M20.7825 25.0627C19.5336 25.0696 18.3223 24.6372 17.3622 23.8419C16.4046 24.6427 15.1926 25.0791 13.942 25.0735C12.5158 25.0735 11.1479 24.5093 10.1394 23.5051C9.13091 22.5009 8.56433 21.1389 8.56433 19.7187V19.2904H10.5433V19.7187C10.5437 20.3356 10.7123 20.9409 11.0312 21.4698C11.3502 21.9987 11.8074 22.4314 12.354 22.7217C12.9007 23.012 13.5163 23.149 14.135 23.1181C14.7538 23.0871 15.3525 22.8894 15.8672 22.546C14.2324 21.2288 13.2429 18.1016 13.1999 17.9517L13.0923 17.6197L13.4043 17.4483C14.6405 16.7587 16.0313 16.3904 17.4483 16.3774C18.8359 16.3553 20.2012 16.7267 21.3848 17.4483L21.6429 17.6304L21.5461 17.9196C21.5461 18.0695 20.5243 21.1859 18.8895 22.5032C19.4525 22.8891 20.1205 23.0946 20.804 23.0922C21.7121 23.0922 22.5831 22.7338 23.2262 22.0954C23.8694 21.457 24.2321 20.5908 24.2349 19.6866V19.2582H26.1386V19.6866C26.1415 20.3898 26.0052 21.0867 25.7375 21.7374C25.4699 22.3882 25.0761 22.98 24.5788 23.4793C24.0814 23.9785 23.4901 24.3753 22.8388 24.647C22.1874 24.9187 21.4887 25.0599 20.7825 25.0627Z" fill="white"/>
<path d="M14.6519 15.3277C15.531 15.3277 16.2437 14.6181 16.2437 13.7427C16.2437 12.8673 15.531 12.1577 14.6519 12.1577C13.7727 12.1577 13.0601 12.8673 13.0601 13.7427C13.0601 14.6181 13.7727 15.3277 14.6519 15.3277Z" fill="white"/>
<path d="M19.9973 15.3277C20.8764 15.3277 21.5891 14.6181 21.5891 13.7427C21.5891 12.8673 20.8764 12.1577 19.9973 12.1577C19.1181 12.1577 18.4055 12.8673 18.4055 13.7427C18.4055 14.6181 19.1181 15.3277 19.9973 15.3277Z" fill="white"/>
</g>
<defs>
<clipPath id="clip0_0_820">
<rect width="154" height="40.5263" fill="white"/>
</clipPath>
</defs>
</svg>
