<svg width="15" height="15" viewBox="0 0 15 15" fill="none" xmlns="http://www.w3.org/2000/svg">
<path d="M3.23245 15H0.226272V5.33494H3.23245V15ZM1.7132 4.04195C0.775789 4.04195 0 3.23384 0 2.2641C0 1.32669 0.775789 0.550903 1.7132 0.550903C2.68294 0.550903 3.45873 1.32669 3.45873 2.2641C3.45873 3.23384 2.68294 4.04195 1.7132 4.04195ZM14.4491 15H11.4752V10.3129C11.4752 9.18155 11.4429 7.75927 9.89131 7.75927C8.33973 7.75927 8.11346 8.95528 8.11346 10.2159V15H5.10728V5.33494H7.98416V6.66024H8.01648C8.4367 5.91678 9.40644 5.10866 10.861 5.10866C13.8995 5.10866 14.4814 7.11278 14.4814 9.69875V15H14.4491Z" fill="#515167"/>
</svg>
