<svg width="23" height="13" viewBox="0 0 23 13" fill="none" xmlns="http://www.w3.org/2000/svg">
<mask id="mask0_10_488" style="mask-type:luminance" maskUnits="userSpaceOnUse" x="0" y="0" width="23" height="13">
<path d="M23 0H0V13H23V0Z" fill="white"/>
</mask>
<g mask="url(#mask0_10_488)">
<path d="M21.5 13C21.1025 12.9986 20.7217 12.8405 20.44 12.56L11.5 3.62L2.56 12.56C2.2757 12.825 1.8996 12.9692 1.511 12.9623C1.1224 12.9555 0.751599 12.7981 0.476799 12.5232C0.201899 12.2484 0.044497 11.8776 0.037697 11.489C0.030797 11.1004 0.175003 10.7243 0.440003 10.44L10.44 0.439999C10.5786 0.299699 10.7436 0.188301 10.9256 0.112301C11.1076 0.0363009 11.3028 -0.00289917 11.5 -0.00289917C11.6972 -0.00289917 11.8924 0.0363009 12.0744 0.112301C12.2564 0.188301 12.4214 0.299699 12.56 0.439999L22.56 10.44C22.7003 10.5786 22.8117 10.7436 22.8877 10.9256C22.9637 11.1076 23.0029 11.3028 23.0029 11.5C23.0029 11.6972 22.9637 11.8924 22.8877 12.0744C22.8117 12.2564 22.7003 12.4214 22.56 12.56C22.2783 12.8405 21.8975 12.9986 21.5 13Z" fill="#070C46"/>
</g>
</svg>
