<svg width="10" height="8" viewBox="0 0 10 8" fill="none" xmlns="http://www.w3.org/2000/svg">
<path d="M9.4997 2.07621e-06L0.499443 1.28938e-06C0.40832 0.000306536 0.319 0.0271614 0.241098 0.0776748C0.163195 0.128188 0.0996608 0.200447 0.0573327 0.286674C0.0150045 0.372901 -0.00451434 0.469831 0.000877348 0.56703C0.00626904 0.664229 0.0363668 0.758016 0.0879312 0.838296L4.58806 7.78401C4.77456 8.07199 5.22358 8.07199 5.41058 7.78401L9.91071 0.838297C9.9628 0.758184 9.99335 0.66435 9.99903 0.566989C10.0047 0.469628 9.98532 0.372465 9.94296 0.286055C9.90059 0.199645 9.83687 0.127294 9.75872 0.0768624C9.68058 0.026431 9.59099 -0.000151568 9.4997 2.07621e-06Z" fill="black"/>
</svg>
