<svg width="23" height="13" viewBox="0 0 23 13" fill="none" xmlns="http://www.w3.org/2000/svg">
<mask id="mask0_10_493" style="mask-type:luminance" maskUnits="userSpaceOnUse" x="0" y="0" width="23" height="13">
<path d="M0 13L23 13V0L0 0V13Z" fill="white"/>
</mask>
<g mask="url(#mask0_10_493)">
<path d="M1.5 0C1.8975 0.0014 2.2784 0.159499 2.56 0.439999L11.5 9.38L20.44 0.439999C20.724 0.174999 21.1 0.0308015 21.489 0.0376015C21.878 0.0445015 22.248 0.201899 22.523 0.476799C22.798 0.751599 22.955 1.1224 22.962 1.511C22.969 1.8996 22.825 2.2757 22.56 2.56L12.56 12.56C12.421 12.7003 12.256 12.8117 12.074 12.8877C11.892 12.9637 11.697 13.0029 11.5 13.0029C11.303 13.0029 11.108 12.9637 10.926 12.8877C10.744 12.8117 10.579 12.7003 10.44 12.56L0.440002 2.56C0.299702 2.4214 0.188297 2.2564 0.112297 2.0744C0.0362971 1.8924 -0.00289917 1.6972 -0.00289917 1.5C-0.00289917 1.3028 0.0362971 1.1076 0.112297 0.925598C0.188297 0.743598 0.299702 0.578599 0.440002 0.439999C0.721702 0.159499 1.1025 0.0014 1.5 0Z" fill="#070C46"/>
</g>
</svg>
