<svg width="22" height="12" viewBox="0 0 22 12" fill="none" xmlns="http://www.w3.org/2000/svg">
<mask id="mask0_10_483" style="mask-type:luminance" maskUnits="userSpaceOnUse" x="0" y="0" width="22" height="12">
<path d="M0 12L22 12V0L0 0V12Z" fill="white"/>
</mask>
<g mask="url(#mask0_10_483)">
<path d="M1 0C1.1316 -0.0008 1.2621 0.0244997 1.3839 0.0741997C1.5057 0.124 1.6166 0.197301 1.71 0.290001L11 9.59L20.29 0.290001C20.4783 0.101701 20.7337 -0.0041008 21 -0.0041008C21.2663 -0.0041008 21.5217 0.101701 21.71 0.290001C21.8983 0.478301 22.0041 0.7337 22.0041 1C22.0041 1.2663 21.8983 1.5217 21.71 1.71L11.71 11.71C11.617 11.8037 11.5064 11.8781 11.3846 11.9289C11.2627 11.9797 11.132 12.0058 11 12.0058C10.868 12.0058 10.7373 11.9797 10.6154 11.9289C10.4936 11.8781 10.383 11.8037 10.29 11.71L0.290001 1.71C0.196301 1.617 0.121898 1.5064 0.0710983 1.3846C0.0202983 1.2627 -0.00579834 1.132 -0.00579834 1C-0.00579834 0.868 0.0202983 0.737298 0.0710983 0.615398C0.121898 0.493598 0.196301 0.383001 0.290001 0.290001C0.383401 0.197301 0.4943 0.124 0.6161 0.0741997C0.7379 0.0244997 0.8684 -0.0008 1 0Z" fill="#070C46"/>
</g>
</svg>
