<svg width="8" height="13" viewBox="0 0 8 13" fill="none" xmlns="http://www.w3.org/2000/svg">
<path d="M0.302889 0.272118C0.460156 0.114818 0.668652 0.0191788 0.890467 0.00258846C1.11228 -0.0140019 1.33269 0.0495588 1.5116 0.181714L1.61563 0.272118L7.1886 5.84496C7.34591 6.00222 7.44155 6.21072 7.45814 6.43253C7.47473 6.65434 7.41117 6.87474 7.27901 7.05365L7.1886 7.15767L1.61563 12.7305C1.44968 12.8952 1.22774 12.9912 0.99411 12.9994C0.760477 13.0077 0.532333 12.9275 0.355211 12.7749C0.178089 12.6223 0.0650165 12.4086 0.0385602 12.1763C0.012104 11.944 0.0742099 11.7103 0.212483 11.5218L0.302889 11.4178L5.21949 6.50132L0.302889 1.58483C0.12895 1.41068 0.03125 1.17461 0.03125 0.928475C0.03125 0.682341 0.12895 0.44627 0.302889 0.272118Z" fill="#515167"/>
</svg>
