<svg width="23" height="23" viewBox="0 0 23 23" fill="none" xmlns="http://www.w3.org/2000/svg">
<path d="M11.156 0C8.95001 0 6.793 0.654299 4.958 1.8802C3.124 3.106 1.694 4.8484 0.849001 6.8869C0.00500143 8.9255 -0.216001 11.1686 0.213999 13.3327C0.644999 15.4968 1.707 17.4847 3.268 19.0449C4.828 20.6051 6.81601 21.6677 8.98001 22.0981C11.144 22.5286 13.387 22.3077 15.426 21.4633C17.464 20.6189 19.206 19.189 20.432 17.3543C21.658 15.5197 22.313 13.3627 22.313 11.1562C22.309 8.1985 21.133 5.3629 19.041 3.2714C16.95 1.18 14.114 0.0035 11.156 0ZM4.97 18.8125C5.612 17.7453 6.519 16.8623 7.603 16.2492C8.687 15.6362 9.91101 15.3141 11.156 15.3141C12.402 15.3141 13.626 15.6362 14.71 16.2492C15.794 16.8623 16.701 17.7453 17.343 18.8125C15.593 20.2313 13.409 21.0055 11.156 21.0055C8.90401 21.0055 6.72 20.2313 4.97 18.8125ZM7.43801 10.2812C7.43801 9.5458 7.656 8.8268 8.064 8.2152C8.473 7.6037 9.054 7.127 9.733 6.8456C10.413 6.5641 11.16 6.4905 11.882 6.634C12.603 6.7774 13.266 7.1316 13.786 7.6517C14.306 8.1718 14.66 8.8344 14.804 9.5558C14.947 10.2771 14.873 11.0248 14.592 11.7044C14.31 12.3839 13.834 12.9647 13.222 13.3733C12.611 13.7819 11.892 14 11.156 14C10.17 14 9.224 13.6082 8.527 12.9108C7.829 12.2134 7.43801 11.2675 7.43801 10.2812ZM18.321 17.8981C17.29 16.2948 15.749 15.0857 13.946 14.4659C14.845 13.8672 15.528 12.9952 15.893 11.9787C16.258 10.9622 16.286 9.8553 15.973 8.8215C15.66 7.7878 15.023 6.8821 14.156 6.2385C13.289 5.5948 12.237 5.2473 11.157 5.2473C10.077 5.2473 9.026 5.5948 8.159 6.2385C7.292 6.8821 6.65401 7.7878 6.34201 8.8215C6.02901 9.8553 6.057 10.9622 6.422 11.9787C6.787 12.9952 7.469 13.8672 8.368 14.4659C6.566 15.0857 5.024 16.2948 3.993 17.8981C2.675 16.4993 1.795 14.7452 1.462 12.8522C1.129 10.9592 1.35801 9.0102 2.12001 7.2456C2.88201 5.481 4.143 3.978 5.749 2.922C7.355 1.8661 9.235 1.3034 11.157 1.3034C13.079 1.3034 14.959 1.8661 16.565 2.922C18.171 3.978 19.433 5.481 20.195 7.2456C20.957 9.0102 21.185 10.9592 20.852 12.8522C20.519 14.7452 19.64 16.4993 18.321 17.8981Z" fill="#070C46"/>
</svg>
