<svg width="24" height="24" viewBox="0 0 24 24" fill="none" xmlns="http://www.w3.org/2000/svg">
<mask id="mask0_5_422" style="mask-type:luminance" maskUnits="userSpaceOnUse" x="0" y="0" width="24" height="24">
<path d="M24 0H0V24H24V0Z" fill="white"/>
</mask>
<g mask="url(#mask0_5_422)">
<path d="M21.229 19.6541C22.46 18.1732 23.317 16.4177 23.726 14.536C24.136 12.6543 24.085 10.7018 23.579 8.8436C23.074 6.9855 22.127 5.2764 20.821 3.861C19.514 2.4455 17.886 1.3653 16.073 0.711699C14.26 0.0581993 12.316 -0.1495 10.406 0.1062C8.496 0.362 6.676 1.0736 5.099 2.181C3.522 3.2884 2.236 4.7589 1.348 6.4681C0.460998 8.1774 -0.00200118 10.075 -1.17737e-06 12.0007C0.000998823 14.8 0.988 17.5096 2.789 19.6541L2.771 19.6687C2.831 19.7407 2.9 19.8024 2.962 19.8735C3.039 19.9618 3.122 20.0449 3.202 20.1307C3.442 20.3912 3.689 20.6415 3.948 20.8763C4.027 20.9483 4.109 21.0151 4.188 21.0837C4.463 21.3202 4.745 21.5448 5.038 21.7539C5.075 21.7796 5.11 21.813 5.147 21.8396V21.8293C7.156 23.242 9.553 24 12.009 24C14.466 24 16.863 23.242 18.871 21.8293V21.8396C18.909 21.813 18.943 21.7796 18.981 21.7539C19.273 21.5439 19.556 21.3202 19.83 21.0837C19.91 21.0151 19.992 20.9474 20.071 20.8763C20.33 20.6406 20.577 20.3912 20.817 20.1307C20.897 20.0449 20.979 19.9618 21.057 19.8735C21.118 19.8024 21.187 19.7407 21.247 19.6678L21.229 19.6541ZM12.009 5.1442C12.772 5.1442 13.518 5.3704 14.153 5.7942C14.788 6.218 15.283 6.8203 15.575 7.5251C15.867 8.2298 15.943 9.0053 15.794 9.7534C15.645 10.5015 15.278 11.1887 14.738 11.7281C14.198 12.2675 13.51 12.6348 12.762 12.7836C12.013 12.9324 11.237 12.856 10.531 12.5641C9.826 12.2722 9.223 11.7779 8.799 11.1437C8.375 10.5094 8.149 9.7638 8.149 9.001C8.149 7.9781 8.555 6.9971 9.279 6.2739C10.003 5.5506 10.985 5.1442 12.009 5.1442ZM5.153 19.6541C5.167 18.5288 5.625 17.4546 6.427 16.6638C7.228 15.8731 8.309 15.4294 9.435 15.4289H14.582C15.708 15.4294 16.789 15.8731 17.591 16.6638C18.392 17.4546 18.85 18.5288 18.865 19.6541C16.983 21.3479 14.541 22.285 12.009 22.285C9.476 22.285 7.034 21.3479 5.153 19.6541Z" fill="#070C46"/>
</g>
</svg>
