<svg width="22" height="12" viewBox="0 0 22 12" fill="none" xmlns="http://www.w3.org/2000/svg">
<mask id="mask0_10_478" style="mask-type:luminance" maskUnits="userSpaceOnUse" x="0" y="0" width="22" height="12">
<path d="M22 0H0V12H22V0Z" fill="white"/>
</mask>
<g mask="url(#mask0_10_478)">
<path d="M21 12C20.8684 12.0008 20.7379 11.9755 20.6161 11.9258C20.4943 11.876 20.3834 11.8027 20.29 11.71L11 2.41L1.71 11.71C1.5217 11.8983 1.2663 12.0041 0.999995 12.0041C0.733695 12.0041 0.478295 11.8983 0.289995 11.71C0.101695 11.5217 -0.00410461 11.2663 -0.00410461 11C-0.00410461 10.7337 0.101695 10.4783 0.289995 10.29L10.29 0.290001C10.383 0.196301 10.4936 0.121898 10.6154 0.0710983C10.7373 0.0202983 10.868 -0.00579834 11 -0.00579834C11.132 -0.00579834 11.2627 0.0202983 11.3846 0.0710983C11.5064 0.121898 11.617 0.196301 11.71 0.290001L21.71 10.29C21.8037 10.383 21.8781 10.4936 21.9289 10.6154C21.9797 10.7373 22.0058 10.868 22.0058 11C22.0058 11.132 21.9797 11.2627 21.9289 11.3846C21.8781 11.5064 21.8037 11.617 21.71 11.71C21.6166 11.8027 21.5057 11.876 21.3839 11.9258C21.2621 11.9755 21.1316 12.0008 21 12Z" fill="#070C46"/>
</g>
</svg>
