<svg width="22" height="21" viewBox="0 0 22 21" fill="none" xmlns="http://www.w3.org/2000/svg">
<path d="M0 20.2959V2.3477C0 1.7251 0.258003 1.1279 0.716003 0.687599C1.174 0.247299 1.796 0 2.444 0H19.556C20.204 0 20.826 0.247299 21.284 0.687599C21.742 1.1279 22 1.7251 22 2.3477V14.0863C22 14.7089 21.742 15.3061 21.284 15.7463C20.826 16.1866 20.204 16.434 19.556 16.434H6.063C5.697 16.434 5.335 16.5131 5.005 16.6655C4.675 16.8179 4.38501 17.0397 4.15601 17.3144L1.30701 20.735C1.21201 20.8491 1.082 20.9321 0.936005 20.9725C0.790005 21.013 0.634997 21.009 0.490997 20.9605C0.347997 20.9123 0.222995 20.8224 0.134995 20.7034C0.0469945 20.5843 0 20.4419 0 20.2959Z" fill="#070C46"/>
<path d="M11.25 9.5C11.94 9.5 12.5 8.9404 12.5 8.25C12.5 7.5596 11.94 7 11.25 7C10.56 7 10 7.5596 10 8.25C10 8.9404 10.56 9.5 11.25 9.5Z" fill="white"/>
<path d="M16.25 9.5C16.94 9.5 17.5 8.9404 17.5 8.25C17.5 7.5596 16.94 7 16.25 7C15.56 7 15 7.5596 15 8.25C15 8.9404 15.56 9.5 16.25 9.5Z" fill="white"/>
<path d="M6.25 9.5C6.94 9.5 7.5 8.9404 7.5 8.25C7.5 7.5596 6.94 7 6.25 7C5.56 7 5 7.5596 5 8.25C5 8.9404 5.56 9.5 6.25 9.5Z" fill="white"/>
</svg>
