<svg width="20" height="20" viewBox="0 0 20 20" fill="none" xmlns="http://www.w3.org/2000/svg">
<path fill-rule="evenodd" clip-rule="evenodd" d="M10.0004 2.3613C5.78159 2.3613 2.36155 5.78135 2.36155 10.0002C2.36155 14.219 5.78159 17.6391 10.0004 17.6391C14.2193 17.6391 17.6393 14.219 17.6393 10.0002C17.6393 5.78135 14.2193 2.3613 10.0004 2.3613ZM0.972656 10.0002C0.972656 5.01429 5.01453 0.972412 10.0004 0.972412C14.9863 0.972412 19.0282 5.01429 19.0282 10.0002C19.0282 14.9861 14.9863 19.028 10.0004 19.028C5.01453 19.028 0.972656 14.9861 0.972656 10.0002ZM9.07451 5.60204C9.45804 5.60204 9.76895 5.91296 9.76895 6.29649V10.2317H13.7041C14.0877 10.2317 14.3986 10.5426 14.3986 10.9261C14.3986 11.3096 14.0877 11.6206 13.7041 11.6206H9.07451C8.69098 11.6206 8.38006 11.3096 8.38006 10.9261V6.29649C8.38006 5.91296 8.69098 5.60204 9.07451 5.60204Z" fill="black"/>
</svg>
