<svg width="20" height="20" viewBox="0 0 20 20" fill="none" xmlns="http://www.w3.org/2000/svg">
<path d="M16.2637 3.14419H14.378V1.7742C14.378 1.51927 14.1542 1.27602 13.8915 1.2877C13.7632 1.28995 13.6407 1.34192 13.55 1.43268C13.4592 1.52343 13.4072 1.64587 13.405 1.7742V3.14419H6.59394V1.7742C6.59394 1.51927 6.37015 1.27602 6.10744 1.2877C5.97911 1.28995 5.85667 1.34192 5.76592 1.43268C5.67516 1.52343 5.62319 1.64587 5.62094 1.7742V3.14419H3.73525C3.09034 3.14497 2.47207 3.4015 2.01605 3.85751C1.56004 4.31353 1.30351 4.9318 1.30273 5.57671V16.2798C1.30273 17.6216 2.39445 18.7123 3.73525 18.7123H16.2627C17.6045 18.7123 18.6952 17.6216 18.6952 16.2798V5.57671C18.6947 4.93189 18.4384 4.31362 17.9825 3.85757C17.5267 3.40153 16.9085 3.14497 16.2637 3.14419ZM3.73525 4.1172H5.62094V4.69322C5.62094 4.94815 5.84473 5.1914 6.10744 5.17972C6.37112 5.16805 6.59394 4.96566 6.59394 4.69322V4.1172H13.405V4.69322C13.405 4.94815 13.6288 5.1914 13.8915 5.17972C14.1552 5.16805 14.378 4.96566 14.378 4.69322V4.1172H16.2627C17.0674 4.1172 17.7222 4.77203 17.7222 5.57671V7.11795H2.27574V5.57671C2.27574 4.77203 2.93057 4.1172 3.73525 4.1172ZM16.2637 17.7393H3.73525C2.93057 17.7393 2.27574 17.0845 2.27574 16.2798V8.09096H17.7222V16.2798C17.7222 16.6667 17.5686 17.0378 17.2951 17.3115C17.0216 17.5851 16.6506 17.739 16.2637 17.7393Z" fill="#515167"/>
</svg>
