<svg width="24" height="23" viewBox="0 0 24 23" fill="none" xmlns="http://www.w3.org/2000/svg">
<path d="M1 21.2959V3.3477C1 2.7251 1.258 2.1279 1.716 1.6876C2.174 1.2473 2.796 1 3.444 1H20.556C21.204 1 21.826 1.2473 22.284 1.6876C22.742 2.1279 23 2.7251 23 3.3477V15.0863C23 15.7089 22.742 16.3061 22.284 16.7463C21.826 17.1866 21.204 17.434 20.556 17.434H7.063C6.697 17.434 6.335 17.5132 6.005 17.6655C5.675 17.8179 5.38501 18.0397 5.15601 18.3144L2.30701 21.735C2.21201 21.8491 2.082 21.9321 1.936 21.9725C1.79 22.0129 1.635 22.0087 1.491 21.9605C1.348 21.9123 1.22299 21.8224 1.13499 21.7034C1.04699 21.5843 1 21.4419 1 21.2959Z" stroke="#070C46" stroke-width="1.4"/>
<path d="M12.25 10.5C12.94 10.5 13.5 9.9404 13.5 9.25C13.5 8.5596 12.94 8 12.25 8C11.56 8 11 8.5596 11 9.25C11 9.9404 11.56 10.5 12.25 10.5Z" fill="#070C46"/>
<path d="M17.25 10.5C17.94 10.5 18.5 9.9404 18.5 9.25C18.5 8.5596 17.94 8 17.25 8C16.56 8 16 8.5596 16 9.25C16 9.9404 16.56 10.5 17.25 10.5Z" fill="#070C46"/>
<path d="M7.25 10.5C7.94 10.5 8.5 9.9404 8.5 9.25C8.5 8.5596 7.94 8 7.25 8C6.56 8 6 8.5596 6 9.25C6 9.9404 6.56 10.5 7.25 10.5Z" fill="#070C46"/>
</svg>
