<?xml version="1.0" encoding="utf-8"?>
<!-- Generator: Adobe Illustrator 26.1.0, SVG Export Plug-In . SVG Version: 6.00 Build 0)  -->
<svg version="1.1" id="Layer_1" xmlns="http://www.w3.org/2000/svg" xmlns:xlink="http://www.w3.org/1999/xlink" x="0px" y="0px"
	 viewBox="0 0 27 27" style="enable-background:new 0 0 27 27;" xml:space="preserve">
<style type="text/css">
	.st0{fill:none;}
</style>
<g>
	<rect x="-29.9" y="-13.9" class="st0" width="27" height="27"/>
</g>
<g>
	<path d="M1.9,25.7c-0.2,0-0.4,0-0.5-0.1c-0.3-0.1-0.6-0.3-0.8-0.6c-0.2-0.3-0.3-0.6-0.3-0.9V3.9c0-0.9,0.4-1.8,1-2.4
		c0.7-0.6,1.6-1,2.5-1h19.2c0.9,0,1.8,0.4,2.5,1c0.7,0.6,1,1.5,1,2.4v13.2c0,0.9-0.4,1.8-1,2.4c-0.7,0.6-1.6,1-2.5,1H7.9
		c-0.3,0-0.6,0.1-0.9,0.2c-0.3,0.1-0.5,0.3-0.7,0.5l-3.2,3.8c-0.2,0.3-0.5,0.4-0.8,0.5C2.2,25.7,2.1,25.7,1.9,25.7z M3.9,2.1
		c-0.5,0-1,0.2-1.4,0.6C2.1,3,1.9,3.5,1.9,3.9v20.2l3.3-3.8c0.3-0.4,0.8-0.7,1.2-0.9c0.5-0.2,1-0.3,1.5-0.3h15.2
		c0.5,0,1-0.2,1.4-0.6c0.4-0.3,0.6-0.8,0.6-1.3V3.9c0-0.5-0.2-1-0.6-1.3c-0.4-0.4-0.9-0.6-1.4-0.6H3.9z"/>
</g>
<g>
	<path d="M13.3,12c0.8,0,1.4-0.6,1.4-1.4s-0.6-1.4-1.4-1.4c-0.8,0-1.4,0.6-1.4,1.4S12.5,12,13.3,12z"/>
</g>
<g>
	<path d="M18.9,12c0.8,0,1.4-0.6,1.4-1.4s-0.6-1.4-1.4-1.4c-0.8,0-1.4,0.6-1.4,1.4S18.1,12,18.9,12z"/>
</g>
<g>
	<path d="M7.7,12c0.8,0,1.4-0.6,1.4-1.4S8.4,9.2,7.7,9.2s-1.4,0.6-1.4,1.4S6.9,12,7.7,12z"/>
</g>
</svg>
