<svg width="18" height="18" viewBox="0 0 18 18" fill="none" xmlns="http://www.w3.org/2000/svg">
<path d="M10 0C10.2549 0.0003 10.5 0.0978966 10.6854 0.272797C10.8707 0.447797 10.9822 0.686999 10.9972 0.941399C11.0121 1.1958 10.9293 1.4464 10.7657 1.6418C10.6021 1.8373 10.3701 1.9629 10.117 1.993L10 2H2V16H16V8C16.0003 7.7451 16.0979 7.5 16.2728 7.3146C16.4478 7.1293 16.687 7.0178 16.9414 7.0028C17.1958 6.9879 17.4464 7.0707 17.6418 7.2343C17.8373 7.3979 17.9629 7.6299 17.993 7.883L18 8V16C18.0002 16.5046 17.8096 16.9906 17.4665 17.3605C17.1234 17.7305 16.6532 17.9572 16.15 17.995L16 18H2C1.4954 18.0002 1.0094 17.8096 0.6395 17.4665C0.2695 17.1234 0.0427993 16.6532 0.00499932 16.15L1.57238e-07 16V2C-0.000199843 1.4954 0.190401 1.0094 0.533501 0.639503C0.876601 0.269503 1.3468 0.0427973 1.85 0.00499725L2 0H10ZM16.243 0.343002C16.423 0.163702 16.6644 0.0595036 16.9184 0.0518036C17.1723 0.0440036 17.4197 0.133201 17.6103 0.301201C17.8008 0.469301 17.9203 0.703597 17.9444 0.956497C17.9685 1.2094 17.8954 1.462 17.74 1.663L17.657 1.758L7.757 11.657C7.577 11.8363 7.3356 11.9405 7.0816 11.9482C6.8277 11.956 6.5803 11.8668 6.3897 11.6988C6.1992 11.5307 6.0797 11.2964 6.0556 11.0435C6.0315 10.7906 6.1046 10.538 6.26 10.337L6.343 10.243L16.243 0.343002Z" fill="#070C46"/>
</svg>
