<svg width="16" height="16" viewBox="0 0 16 16" fill="none" xmlns="http://www.w3.org/2000/svg">
<path d="M14.9926 8C14.9931 7.31565 14.8929 6.63496 14.695 5.97983L14.6145 5.71323H14.336H11.225H10.7827L10.855 6.14955C11.0581 7.37483 11.0581 8.62517 10.855 9.85044L10.7827 10.2868H11.225H14.336H14.6145L14.695 10.0202C14.8929 9.36504 14.9931 8.68435 14.9926 8ZM14.9926 8C14.9926 8.00009 14.9926 8.00019 14.9926 8.00028L14.6176 8L14.9926 7.99971C14.9926 7.99981 14.9926 7.9999 14.9926 8ZM1.00736 8C1.00686 8.68435 1.10715 9.36504 1.30499 10.0202L1.38549 10.2868H1.66397H4.775H5.21728L5.14495 9.85044C4.94186 8.62517 4.94186 7.37483 5.14495 6.14955L5.21728 5.71323H4.775H1.66397H1.38549L1.30499 5.97983C1.10715 6.63496 1.00686 7.31565 1.00736 8ZM1.00736 8C1.00736 7.9999 1.00736 7.99981 1.00736 7.99971L1.38236 8L1.00736 8.00028C1.00736 8.00019 1.00736 8.00009 1.00736 8ZM4.775 9.91176H4.39505C4.39833 9.93221 4.40166 9.95265 4.40505 9.97308L4.775 9.91176ZM4.775 9.91176V9.53676H4.71908C4.73568 9.66198 4.75432 9.787 4.775 9.91176ZM4.775 6.08823V6.46323H4.71908C4.73568 6.33802 4.75432 6.213 4.775 6.08823ZM4.775 6.08823L4.40505 6.02691C4.40166 6.04735 4.39833 6.06779 4.39505 6.08823H4.775ZM7.6261 1.17277C6.63399 2.24195 5.912 3.60662 5.50567 5.10791L5.37766 5.58088H5.86765H10.1324H10.6223L10.4943 5.10791C10.088 3.60662 9.36602 2.24195 8.3739 1.17277C8.32705 1.12108 8.26997 1.07968 8.20624 1.05119C8.14072 1.02191 8.0697 1.00696 7.99793 1.00736L8 1.38235M7.6261 1.17277L7.90294 1.42574C7.9151 1.41201 7.93004 1.40103 7.94678 1.39355C7.96352 1.38607 7.98167 1.38225 8 1.38235M7.6261 1.17277C7.67295 1.12108 7.73004 1.07968 7.79376 1.05119C7.85928 1.02191 7.9303 1.00696 8.00207 1.00736L8 1.38235M7.6261 1.17277L8 1.38235M13.9978 5.58088H14.5872L14.3375 5.04698C13.8743 4.05687 13.1862 3.18867 12.328 2.51163C11.4698 1.83458 10.4653 1.36741 9.3946 1.14738L8.43431 0.95004L9.01776 1.73788C9.80422 2.79985 10.3691 4.00911 10.6788 5.29377L10.748 5.58088H11.0434H13.9978ZM8.37391 14.8272C9.36602 13.758 10.088 12.3934 10.4943 10.8921L10.6223 10.4191H10.1324H5.86765H5.37766L5.50567 10.8921C5.912 12.3934 6.63398 13.758 7.62609 14.8272C7.67294 14.8789 7.73003 14.9203 7.79376 14.9488C7.85866 14.9778 7.92894 14.9927 8 14.9926L8.37391 14.8272ZM5.30073 9.97787L5.35605 10.2868H5.66985H10.3301H10.644L10.6993 9.97787C10.9336 8.6697 10.9336 7.3303 10.6993 6.02212L10.644 5.71323H10.3301H5.66985H5.35605L5.30073 6.02212C5.06643 7.3303 5.06643 8.6697 5.30073 9.97787ZM6.98224 1.73788L7.5657 0.95004L6.6054 1.14738C5.53468 1.36741 4.53018 1.83458 3.672 2.51163C2.81383 3.18867 2.12571 4.05687 1.66254 5.04698L1.41278 5.58088H2.00221H4.95662H5.25195L5.32117 5.29377C5.6309 4.00911 6.19578 2.79985 6.98224 1.73788ZM2.00221 10.4191H1.41278L1.66254 10.953C2.12571 11.9431 2.81383 12.8113 3.672 13.4884C4.53018 14.1654 5.53468 14.6326 6.6054 14.8526L7.5657 15.05L6.98224 14.2621C6.19578 13.2001 5.6309 11.9909 5.32117 10.7062L5.25195 10.4191H4.95662H2.00221ZM9.01776 14.2621L8.43431 15.05L9.3946 14.8526C10.4653 14.6326 11.4698 14.1654 12.328 13.4884C13.1862 12.8113 13.8743 11.9431 14.3375 10.953L14.5872 10.4191H13.9978H11.0434H10.748L10.6788 10.7062C10.3691 11.9909 9.80422 13.2001 9.01776 14.2621ZM4.04156 2.07578C5.21321 1.29291 6.59067 0.875042 7.99979 0.875C9.88881 0.877279 11.6998 1.6287 13.0356 2.96444C14.3713 4.30014 15.1227 6.11105 15.125 8C15.125 9.40919 14.7071 10.7867 13.9242 11.9584C13.1413 13.1301 12.0285 14.0434 10.7266 14.5826C9.4247 15.1219 7.9921 15.263 6.60998 14.9881C5.22787 14.7132 3.95832 14.0346 2.96187 13.0381C1.96542 12.0417 1.28683 10.7721 1.01191 9.39002C0.736989 8.0079 0.878087 6.5753 1.41736 5.27338C1.95664 3.97146 2.86986 2.85868 4.04156 2.07578Z" stroke="#515167" stroke-width="0.75"/>
</svg>
