<svg width="18" height="16" viewBox="0 0 18 16" fill="none" xmlns="http://www.w3.org/2000/svg">
<path d="M1.72656 10.7466C1.01823 9.82665 0.664062 9.36581 0.664062 7.99998C0.664062 6.63331 1.01823 6.17415 1.72656 5.25331C3.14073 3.41665 5.5124 1.33331 8.9974 1.33331C12.4824 1.33331 14.8541 3.41665 16.2682 5.25331C16.9766 6.17498 17.3307 6.63415 17.3307 7.99998C17.3307 9.36665 16.9766 9.82581 16.2682 10.7466C14.8541 12.5833 12.4824 14.6666 8.9974 14.6666C5.5124 14.6666 3.14073 12.5833 1.72656 10.7466Z" stroke="#9A9A9A" stroke-width="1.25"/>
<path d="M11.4974 7.99998C11.4974 8.66302 11.234 9.29891 10.7652 9.76775C10.2963 10.2366 9.66044 10.5 8.9974 10.5C8.33435 10.5 7.69847 10.2366 7.22963 9.76775C6.76079 9.29891 6.4974 8.66302 6.4974 7.99998C6.4974 7.33694 6.76079 6.70105 7.22963 6.23221C7.69847 5.76337 8.33435 5.49998 8.9974 5.49998C9.66044 5.49998 10.2963 5.76337 10.7652 6.23221C11.234 6.70105 11.4974 7.33694 11.4974 7.99998Z" stroke="#9A9A9A" stroke-width="1.25"/>
</svg>
