<svg width="25" height="25" viewBox="0 0 25 25" fill="none" xmlns="http://www.w3.org/2000/svg">
<g clip-path="url(#clip0_99_20)">
<path d="M21.3335 3.78289C19.1668 1.64474 16.1668 0.328947 13.1668 0.164474L13.3335 0L12.5001 0.164474L11.8335 0L12.0001 0.164474C9.66682 0.328947 7.50015 0.986842 5.50015 2.30263C3.50015 3.61842 1.83348 5.59211 0.833484 7.89474C0.000150293 10.0329 -0.166516 12.5 0.166817 14.9671C0.666817 17.4342 1.83348 19.5724 3.66682 21.2171C5.50015 23.0263 7.66682 24.1776 10.0001 24.6711C10.6668 24.8355 11.1668 24.8355 11.8335 24.8355L11.6668 25L12.5001 24.8355L13.3335 25L13.1668 24.8355C14.6668 24.8355 16.0001 24.5066 17.3335 23.8487C19.6668 22.8618 21.5001 21.3816 23.0001 19.2434C24.3335 17.2697 25.1668 14.8026 25.1668 12.3355C25.0002 9.21053 23.6668 6.08553 21.3335 3.78289ZM12.3335 23.3553C10.8335 21.5461 9.66682 19.4079 9.00015 17.1053H16.1668C15.5001 19.4079 14.3335 21.5461 12.8335 23.1908L12.3335 23.3553ZM8.66682 9.375H16.5001C16.8335 11.5132 16.8335 13.6513 16.5001 15.625H8.66682C8.16682 13.6513 8.16682 11.5132 8.66682 9.375ZM17.8335 9.375H23.0001C23.3335 10.3618 23.5002 11.5132 23.5002 12.5C23.5002 13.4868 23.3335 14.6382 23.0001 15.625H17.8335C18.1668 13.6513 18.1668 11.5132 17.8335 9.375ZM17.5001 7.89474C17.0001 5.75658 16.0002 3.61842 14.6668 1.80921C16.3335 2.13816 18.0002 2.96053 19.3335 3.94737C20.6668 4.93421 21.8335 6.41447 22.5001 7.89474H17.5001ZM12.3335 1.64474H12.6668C14.1668 3.28947 15.3335 5.42763 16.0002 7.89474H9.00015C9.66682 5.59211 10.8335 3.28947 12.3335 1.64474ZM7.50015 7.89474H2.50015C3.16682 6.41447 4.33348 4.93421 5.66682 3.94737C7.00015 2.96053 8.66682 2.13816 10.3335 1.80921C9.00015 3.61842 8.00015 5.75658 7.50015 7.89474ZM7.16682 9.375C6.83348 11.5132 6.83348 13.6513 7.16682 15.625H2.00015C1.66682 14.6382 1.50015 13.6513 1.50015 12.5C1.50015 11.5132 1.66682 10.3618 2.00015 9.375H7.16682ZM7.50015 17.1053C8.00015 19.2434 9.00015 21.3816 10.3335 23.1908C8.66682 22.8618 7.00015 22.0395 5.66682 21.0526C4.33348 20.0658 3.16682 18.5855 2.50015 17.1053H7.50015ZM17.5001 17.1053H22.5001C21.8335 18.5855 20.6668 20.0658 19.3335 21.0526C18.0002 22.0395 16.3335 22.8618 14.6668 23.1908C16.0002 21.3816 17.0001 19.2434 17.5001 17.1053Z" fill="black"/>
</g>
<defs>
<clipPath id="clip0_99_20">
<rect width="25" height="25" fill="white"/>
</clipPath>
</defs>
</svg>
