<svg width="17" height="24" viewBox="0 0 17 24" fill="none" xmlns="http://www.w3.org/2000/svg">
<path d="M3.974 23.9314C3.799 23.8574 3.653 23.7271 3.56 23.561C3.467 23.3949 3.43199 23.2026 3.45999 23.0143L5.01999 12.8573H0.880005C0.749005 12.8608 0.618993 12.8341 0.498993 12.7793C0.379993 12.7245 0.274986 12.643 0.191986 12.5412C0.108986 12.4393 0.0510028 12.3198 0.0220028 12.1918C-0.0079972 12.0638 -0.00699012 11.9308 0.0230099 11.803L2.59399 0.660302C2.63999 0.468502 2.75001 0.298202 2.90601 0.178002C3.06201 0.0578024 3.255 -0.00499763 3.452 0.000302365H12.023C12.151 -9.76349e-05 12.277 0.0281012 12.393 0.0830012C12.509 0.137901 12.611 0.218003 12.691 0.317403C12.773 0.418003 12.831 0.5358 12.861 0.662C12.891 0.7882 12.891 0.919502 12.863 1.046L11.38 7.7145H15.451C15.612 7.7142 15.77 7.759 15.906 7.8439C16.042 7.9287 16.152 8.0502 16.223 8.1945C16.284 8.3329 16.308 8.4852 16.291 8.6358C16.275 8.7863 16.219 8.9298 16.129 9.0516L4.98599 23.6229C4.91099 23.7345 4.80999 23.8268 4.69199 23.8923C4.57499 23.9579 4.44299 23.9947 4.30899 24C4.19399 23.9979 4.081 23.9746 3.974 23.9314ZM9.237 9.4288L10.951 1.7146H4.13699L1.95999 11.143H7.026L5.66299 19.9543L13.737 9.4288H9.237Z" fill="#070C46"/>
</svg>
