<svg width="18" height="24" viewBox="0 0 18 24" fill="none" xmlns="http://www.w3.org/2000/svg">
<path d="M4.39002 23.931C4.19602 23.857 4.03501 23.727 3.93201 23.561C3.82901 23.395 3.791 23.203 3.822 23.014L5.54502 12.8573H0.971993C0.826993 12.8608 0.68301 12.8341 0.55201 12.7793C0.42001 12.7245 0.304014 12.643 0.212014 12.5412C0.121014 12.4393 0.055995 12.3198 0.023995 12.1918C-0.00800499 12.0638 -0.00799791 11.9308 0.0250021 11.803L2.86601 0.660298C2.91601 0.468498 3.03702 0.298199 3.20902 0.177999C3.38202 0.0577986 3.59502 -0.00500528 3.81202 0.000294719H13.28C13.421 -0.000105281 13.561 0.0280974 13.689 0.0829974C13.816 0.137897 13.929 0.217995 14.018 0.317395C14.109 0.417995 14.172 0.5358 14.205 0.662C14.238 0.7882 14.239 0.919495 14.207 1.04599L12.57 7.7145H17.067C17.244 7.7142 17.418 7.759 17.569 7.8439C17.719 7.9287 17.841 8.0502 17.919 8.1945C17.987 8.3329 18.013 8.4852 17.994 8.6358C17.976 8.7863 17.914 8.92979 17.815 9.05159L5.507 23.623C5.424 23.734 5.31302 23.827 5.18302 23.892C5.05302 23.958 4.90801 23.995 4.75901 24C4.63201 23.998 4.50702 23.975 4.39002 23.931Z" fill="#070C46"/>
</svg>
