<svg width="16" height="16" viewBox="0 0 16 16" fill="none" xmlns="http://www.w3.org/2000/svg">
<path fill-rule="evenodd" clip-rule="evenodd" d="M1.6 0C2.02435 0 2.43131 0.168571 2.73137 0.468629C3.03143 0.768687 3.2 1.17565 3.2 1.6C3.2 2.02435 3.03143 2.43131 2.73137 2.73137C2.43131 3.03143 2.02435 3.2 1.6 3.2C1.17565 3.2 0.768687 3.03143 0.468629 2.73137C0.168571 2.43131 0 2.02435 0 1.6C0 1.17565 0.168571 0.768687 0.468629 0.468629C0.768687 0.168571 1.17565 0 1.6 0ZM8 0C8.42435 0 8.83131 0.168571 9.13137 0.468629C9.43143 0.768687 9.6 1.17565 9.6 1.6C9.6 2.02435 9.43143 2.43131 9.13137 2.73137C8.83131 3.03143 8.42435 3.2 8 3.2C7.57565 3.2 7.16869 3.03143 6.86863 2.73137C6.56857 2.43131 6.4 2.02435 6.4 1.6C6.4 1.17565 6.56857 0.768687 6.86863 0.468629C7.16869 0.168571 7.57565 0 8 0ZM16 1.6C16 1.17565 15.8314 0.768687 15.5314 0.468629C15.2313 0.168571 14.8243 0 14.4 0C13.9757 0 13.5687 0.168571 13.2686 0.468629C12.9686 0.768687 12.8 1.17565 12.8 1.6C12.8 2.02435 12.9686 2.43131 13.2686 2.73137C13.5687 3.03143 13.9757 3.2 14.4 3.2C14.8243 3.2 15.2313 3.03143 15.5314 2.73137C15.8314 2.43131 16 2.02435 16 1.6ZM1.6 6.4C2.02435 6.4 2.43131 6.56857 2.73137 6.86863C3.03143 7.16869 3.2 7.57565 3.2 8C3.2 8.42435 3.03143 8.83131 2.73137 9.13137C2.43131 9.43143 2.02435 9.6 1.6 9.6C1.17565 9.6 0.768687 9.43143 0.468629 9.13137C0.168571 8.83131 0 8.42435 0 8C0 7.57565 0.168571 7.16869 0.468629 6.86863C0.768687 6.56857 1.17565 6.4 1.6 6.4ZM9.6 8C9.6 7.57565 9.43143 7.16869 9.13137 6.86863C8.83131 6.56857 8.42435 6.4 8 6.4C7.57565 6.4 7.16869 6.56857 6.86863 6.86863C6.56857 7.16869 6.4 7.57565 6.4 8C6.4 8.42435 6.56857 8.83131 6.86863 9.13137C7.16869 9.43143 7.57565 9.6 8 9.6C8.42435 9.6 8.83131 9.43143 9.13137 9.13137C9.43143 8.83131 9.6 8.42435 9.6 8ZM14.4 6.4C14.8243 6.4 15.2313 6.56857 15.5314 6.86863C15.8314 7.16869 16 7.57565 16 8C16 8.42435 15.8314 8.83131 15.5314 9.13137C15.2313 9.43143 14.8243 9.6 14.4 9.6C13.9757 9.6 13.5687 9.43143 13.2686 9.13137C12.9686 8.83131 12.8 8.42435 12.8 8C12.8 7.57565 12.9686 7.16869 13.2686 6.86863C13.5687 6.56857 13.9757 6.4 14.4 6.4ZM3.2 14.4C3.2 13.9757 3.03143 13.5687 2.73137 13.2686C2.43131 12.9686 2.02435 12.8 1.6 12.8C1.17565 12.8 0.768687 12.9686 0.468629 13.2686C0.168571 13.5687 0 13.9757 0 14.4C0 14.8243 0.168571 15.2313 0.468629 15.5314C0.768687 15.8314 1.17565 16 1.6 16C2.02435 16 2.43131 15.8314 2.73137 15.5314C3.03143 15.2313 3.2 14.8243 3.2 14.4ZM8 12.8C8.42435 12.8 8.83131 12.9686 9.13137 13.2686C9.43143 13.5687 9.6 13.9757 9.6 14.4C9.6 14.8243 9.43143 15.2313 9.13137 15.5314C8.83131 15.8314 8.42435 16 8 16C7.57565 16 7.16869 15.8314 6.86863 15.5314C6.56857 15.2313 6.4 14.8243 6.4 14.4C6.4 13.9757 6.56857 13.5687 6.86863 13.2686C7.16869 12.9686 7.57565 12.8 8 12.8ZM16 14.4C16 13.9757 15.8314 13.5687 15.5314 13.2686C15.2313 12.9686 14.8243 12.8 14.4 12.8C13.9757 12.8 13.5687 12.9686 13.2686 13.2686C12.9686 13.5687 12.8 13.9757 12.8 14.4C12.8 14.8243 12.9686 15.2313 13.2686 15.5314C13.5687 15.8314 13.9757 16 14.4 16C14.8243 16 15.2313 15.8314 15.5314 15.5314C15.8314 15.2313 16 14.8243 16 14.4Z" fill="#515167"/>
</svg>
