<svg width="24" height="20" viewBox="0 0 24 20" fill="none" xmlns="http://www.w3.org/2000/svg">
<path d="M11.5789 3.1693L10.9973 3.725C11.0727 3.8026 11.163 3.8643 11.2629 3.9064C11.3629 3.9485 11.4704 3.9703 11.5789 3.9703C11.6875 3.9703 11.795 3.9485 11.8949 3.9064C11.9949 3.8643 12.0852 3.8026 12.1606 3.725L11.5789 3.1693ZM8.8065 16.8711C7.1736 15.5941 5.3888 14.347 3.9724 12.7655C2.5851 11.2138 1.6157 9.4036 1.6157 7.0559H0C0 9.9048 1.1956 12.0784 2.7649 13.8298C4.3052 15.5503 6.2699 16.9288 7.8058 18.1299L8.8065 16.8711ZM1.6157 7.0559C1.6157 4.7583 2.9244 2.8306 4.7113 2.0195C6.4476 1.2319 8.7806 1.4403 10.9973 3.725L12.1606 2.6147C9.5324 -0.0963998 6.4777 -0.544099 4.0392 0.561901C1.6544 1.6444 0 4.1578 0 7.0559H1.6157ZM7.8058 18.1299C8.3584 18.5616 8.9508 19.0211 9.5507 19.3695C10.1507 19.7168 10.8357 20 11.5789 20V18.3971C11.245 18.3971 10.853 18.2688 10.3661 17.9857C9.8782 17.7035 9.373 17.3146 8.8065 16.8711L7.8058 18.1299ZM15.3521 18.1299C16.888 16.9277 18.8527 15.5514 20.393 13.8298C21.9623 12.0773 23.1579 9.9048 23.1579 7.0559H21.5422C21.5422 9.4036 20.5728 11.2138 19.1855 12.7655C17.7691 14.347 15.9843 15.5941 14.3514 16.8711L15.3521 18.1299ZM23.1579 7.0559C23.1579 4.1578 21.5045 1.6444 19.1187 0.561901C16.6801 -0.544099 13.6276 -0.0963984 10.9973 2.6136L12.1606 3.725C14.3773 1.4414 16.7103 1.2319 18.4466 2.0195C20.2335 2.8306 21.5422 4.7573 21.5422 7.0559H23.1579ZM14.3514 16.8711C13.7849 17.3146 13.2797 17.7035 12.7918 17.9857C12.3049 18.2678 11.9129 18.3971 11.5789 18.3971V20C12.3222 20 13.0072 19.7168 13.6071 19.3695C14.2082 19.0211 14.7995 18.5616 15.3521 18.1299L14.3514 16.8711Z" fill="#070C46"/>
</svg>
