<svg width="24" height="20" viewBox="0 0 24 20" fill="none" xmlns="http://www.w3.org/2000/svg">
<path d="M22.154 0H1.84601C1.35701 0 0.886985 0.191601 0.540985 0.532501C0.194985 0.873501 0 1.336 0 1.8182V18.1818C0 18.664 0.194985 19.126 0.540985 19.467C0.886985 19.808 1.35701 20 1.84601 20H22.154C22.643 20 23.113 19.808 23.459 19.467C23.805 19.126 24 18.664 24 18.1818V1.8182C24 1.336 23.805 0.873501 23.459 0.532501C23.113 0.191601 22.643 0 22.154 0ZM15.231 5.4545C15.505 5.4545 15.772 5.5345 16 5.6844C16.228 5.8342 16.405 6.0472 16.51 6.2963C16.615 6.5455 16.642 6.8197 16.589 7.0842C16.535 7.3487 16.403 7.5917 16.21 7.7824C16.016 7.9731 15.769 8.103 15.501 8.1556C15.232 8.2082 14.954 8.1812 14.701 8.078C14.448 7.9748 14.232 7.8 14.08 7.5758C13.927 7.3515 13.846 7.0879 13.846 6.8182C13.846 6.4565 13.992 6.1097 14.252 5.8539C14.511 5.5982 14.864 5.4545 15.231 5.4545ZM1.84601 18.1818V15L7.84601 9.0909L17.077 18.1818H1.84601ZM22.154 18.1818H19.688L15.534 14.0909L17.842 11.8182L22.154 16.0659V18.1818Z" fill="#070C46"/>
</svg>
