<svg width="21" height="21" viewBox="0 0 21 21" fill="none" xmlns="http://www.w3.org/2000/svg">
<path d="M13.364 14.9246L15.091 13.1155C15.323 12.8749 15.617 12.7102 15.937 12.6414C16.257 12.5725 16.59 12.6026 16.894 12.7279L18.997 13.6082C19.305 13.7389 19.568 13.962 19.755 14.2495C19.941 14.5369 20.042 14.8758 20.045 15.2234V19.261C20.044 19.498 19.996 19.731 19.906 19.948C19.816 20.165 19.685 20.36 19.521 20.523C19.356 20.685 19.163 20.81 18.951 20.892C18.739 20.974 18.514 21.01 18.289 20.998C3.547 20.037 0.572991 6.95351 0.00999108 1.94641C-0.0160089 1.70051 0.00799841 1.4516 0.0799984 1.2161C0.152998 0.980504 0.271989 0.763705 0.429989 0.579805C0.586989 0.396005 0.780991 0.249301 0.996991 0.149301C1.21299 0.0494013 1.446 -0.0014983 1.682 1.69683e-06H5.404C5.736 0.0011017 6.061 0.106204 6.335 0.301904C6.61 0.497704 6.823 0.774998 6.946 1.0984L7.785 3.3031C7.909 3.6206 7.94 3.9691 7.876 4.3052C7.812 4.6413 7.654 4.9501 7.423 5.1929L5.697 7.002C5.697 7.002 6.69099 14.0523 13.364 14.9246Z" fill="#070C46"/>
</svg>
