<svg width="22" height="20" viewBox="0 0 22 20" fill="none" xmlns="http://www.w3.org/2000/svg">
<path d="M20.49 0H1.51001C1.10901 0 0.724986 0.171499 0.441986 0.476799C0.158986 0.782099 0 1.1962 0 1.6279V18.3721C0 18.8038 0.158986 19.2179 0.441986 19.5232C0.724986 19.8285 1.10901 20 1.51001 20H20.49C20.891 20 21.275 19.8285 21.558 19.5232C21.841 19.2179 22 18.8038 22 18.3721V1.6279C22 1.1962 21.841 0.782099 21.558 0.476799C21.275 0.171499 20.891 0 20.49 0ZM1.51001 1.3953H20.49C20.547 1.3953 20.602 1.4199 20.643 1.4635C20.683 1.5071 20.706 1.5662 20.706 1.6279V14.136L17.528 10.7093C17.388 10.5581 17.221 10.4382 17.038 10.3564C16.855 10.2746 16.658 10.2324 16.46 10.2324C16.262 10.2324 16.065 10.2746 15.882 10.3564C15.699 10.4382 15.533 10.5581 15.392 10.7093L13.082 13.2L8.185 7.9186C8.045 7.7674 7.87901 7.6475 7.69501 7.5657C7.51201 7.4839 7.31601 7.4417 7.11801 7.4417C6.91901 7.4417 6.72301 7.4839 6.54001 7.5657C6.35701 7.6475 6.18999 7.7674 6.04999 7.9186L1.29401 13.0465V1.6279C1.29401 1.5662 1.31699 1.5071 1.35699 1.4635C1.39799 1.4199 1.45301 1.3953 1.51001 1.3953ZM1.29401 18.3721V15.0198L6.965 8.9058C6.985 8.884 7.008 8.8667 7.035 8.8549C7.061 8.8431 7.08901 8.837 7.11801 8.837C7.14601 8.837 7.17399 8.8431 7.20099 8.8549C7.22699 8.8667 7.251 8.884 7.271 8.9058L16.266 18.6047H1.51001C1.45301 18.6047 1.39799 18.5802 1.35699 18.5365C1.31699 18.4929 1.29401 18.4338 1.29401 18.3721ZM20.49 18.6047H18.096L13.998 14.186L16.307 11.6953C16.327 11.6737 16.351 11.6566 16.377 11.6449C16.403 11.6332 16.431 11.6271 16.46 11.6271C16.488 11.6271 16.516 11.6332 16.542 11.6449C16.568 11.6566 16.592 11.6737 16.612 11.6953L20.71 16.114V18.3721C20.71 18.403 20.704 18.4337 20.693 18.4622C20.682 18.4907 20.666 18.5165 20.646 18.5382C20.625 18.5599 20.601 18.5769 20.574 18.5883C20.547 18.5997 20.519 18.6053 20.49 18.6047ZM12.941 6.7442C12.941 6.5142 13.004 6.2894 13.123 6.0982C13.241 5.907 13.41 5.7579 13.607 5.6699C13.804 5.5819 14.021 5.5589 14.23 5.6037C14.439 5.6486 14.631 5.7593 14.782 5.922C14.933 6.0846 15.036 6.2918 15.077 6.5173C15.119 6.7429 15.098 6.9767 15.016 7.1892C14.934 7.4016 14.796 7.5832 14.619 7.711C14.441 7.8388 14.233 7.907 14.02 7.907C13.734 7.907 13.459 7.7845 13.257 7.5664C13.055 7.3483 12.941 7.0526 12.941 6.7442Z" fill="#070C46"/>
</svg>
