<svg width="20" height="23" viewBox="0 0 20 23" fill="none" xmlns="http://www.w3.org/2000/svg">
<path d="M10 0C12.652 0 15.196 0.997299 17.071 2.7725C18.946 4.5477 20 6.9553 20 9.4658C20 13.4657 17.031 17.8248 11.169 22.59C10.8433 22.855 10.4278 23 9.9981 23C9.5684 23 9.1531 22.853 8.8277 22.588L8.44 22.269C2.8379 17.6287 0 13.3764 0 9.4658C0 6.9553 1.0536 4.5477 2.9289 2.7725C4.8043 0.997299 7.3478 0 10 0ZM10 5.8251C8.9799 5.8251 8.0017 6.2087 7.2804 6.8914C6.5591 7.5742 6.1538 8.5002 6.1538 9.4658C6.1538 10.4314 6.5591 11.3574 7.2804 12.0402C8.0017 12.7229 8.9799 13.1065 10 13.1065C11.02 13.1065 11.998 12.7229 12.72 12.0402C13.441 11.3574 13.846 10.4314 13.846 9.4658C13.846 8.5002 13.441 7.5742 12.72 6.8914C11.998 6.2087 11.02 5.8251 10 5.8251Z" fill="#070C46"/>
</svg>
