<svg width="20" height="11" viewBox="0 0 20 11" fill="none" xmlns="http://www.w3.org/2000/svg">
<path d="M5.00298 1.8364H19C19.6 1.8364 20 1.4699 20 0.920097C20 0.370297 19.6 0.00369979 19 0.00369979H5.00298C4.40298 0.00369979 4.00298 0.370297 4.00298 0.920097C4.00298 1.4699 4.40298 1.8364 5.00298 1.8364ZM19 4.5855H5.00298C4.40298 4.5855 4.00298 4.952 4.00298 5.5019C4.00298 6.0517 4.40298 6.4182 5.00298 6.4182H19C19.6 6.4182 20 6.0517 20 5.5019C20 4.952 19.6 4.5855 19 4.5855ZM19 9.1673H5.00298C4.40298 9.1673 4.00298 9.5338 4.00298 10.0836C4.00298 10.6335 4.40298 11 5.00298 11H19C19.6 11 20 10.6335 20 10.0836C20 9.5338 19.6 9.1673 19 9.1673ZM1.704 0.278602C1.604 0.187002 1.50398 0.0952983 1.40398 0.0952983C1.00398 -0.0879017 0.603978 0.00370213 0.303978 0.278602C0.203978 0.370302 0.103996 0.461897 0.103996 0.553497C0.00399607 0.828397 0.00399607 1.0117 0.103996 1.2866C0.203996 1.3782 0.203978 1.4699 0.303978 1.5615C0.403978 1.6532 0.503996 1.7448 0.603996 1.7448C0.703996 1.8364 0.90399 1.8364 1.00399 1.8364C1.30399 1.8364 1.504 1.7448 1.704 1.5615C1.804 1.4699 1.90398 1.3782 1.90398 1.2866C2.00398 1.0117 2.00398 0.828397 1.90398 0.553497C1.90398 0.461897 1.804 0.370302 1.704 0.278602ZM1.704 4.8604C1.404 4.5855 1.004 4.4939 0.603996 4.6771C0.503996 4.7688 0.403978 4.7688 0.303978 4.8604C0.203978 4.952 0.103996 5.0437 0.103996 5.1353C0.00399607 5.3186 0.00399607 5.5935 0.103996 5.8684C0.203996 5.96 0.203978 6.0517 0.303978 6.1433C0.403978 6.2349 0.503996 6.3266 0.603996 6.3266C0.703996 6.4182 0.90399 6.4182 1.00399 6.4182C1.10399 6.4182 1.30398 6.4182 1.40398 6.3266C1.50398 6.2349 1.604 6.2349 1.704 6.1433C1.804 6.0517 1.90398 5.96 1.90398 5.8684C2.00398 5.6851 2.00398 5.4102 1.90398 5.1353C1.90398 5.0437 1.804 4.952 1.704 4.8604ZM1.704 9.4422C1.604 9.3506 1.50398 9.2589 1.40398 9.2589C1.20398 9.1673 0.903996 9.1673 0.603996 9.2589C0.503996 9.2589 0.403978 9.3506 0.303978 9.4422C0.203978 9.5338 0.103996 9.6255 0.103996 9.7171C-0.0960039 10.0836 0.00397775 10.4502 0.303978 10.7251C0.403978 10.8167 0.503996 10.9084 0.603996 10.9084C0.703996 11 0.90399 11 1.00399 11C1.10399 11 1.30398 11 1.40398 10.9084C1.50398 10.8167 1.604 10.8167 1.704 10.7251C2.004 10.4502 2.10398 10.0836 1.90398 9.7171C1.90398 9.6255 1.804 9.5338 1.704 9.4422Z" fill="#070C46"/>
</svg>
