<svg width="18" height="15" viewBox="0 0 18 15" fill="none" xmlns="http://www.w3.org/2000/svg">
<path d="M17.8235 14.5588H4.94118C4.84412 14.5588 4.76471 14.4794 4.76471 14.3824V13.1471C4.76471 13.05 4.84412 12.9706 4.94118 12.9706H17.8235C17.9206 12.9706 18 13.05 18 13.1471V14.3824C18 14.4794 17.9206 14.5588 17.8235 14.5588ZM17.8235 8.29412H4.94118C4.84412 8.29412 4.76471 8.21471 4.76471 8.11765V6.88235C4.76471 6.78529 4.84412 6.70588 4.94118 6.70588H17.8235C17.9206 6.70588 18 6.78529 18 6.88235V8.11765C18 8.21471 17.9206 8.29412 17.8235 8.29412ZM17.8235 2.02941H4.94118C4.84412 2.02941 4.76471 1.95 4.76471 1.85294V0.617647C4.76471 0.520588 4.84412 0.441176 4.94118 0.441176H17.8235C17.9206 0.441176 18 0.520588 18 0.617647V1.85294C18 1.95 17.9206 2.02941 17.8235 2.02941ZM0 13.7647C-2.41728e-09 13.6025 0.0319519 13.4419 0.0940312 13.292C0.156111 13.1421 0.247102 13.0059 0.361809 12.8912C0.476517 12.7765 0.612695 12.6855 0.762568 12.6234C0.91244 12.5614 1.07307 12.5294 1.23529 12.5294C1.39752 12.5294 1.55815 12.5614 1.70802 12.6234C1.85789 12.6855 1.99407 12.7765 2.10878 12.8912C2.22349 13.0059 2.31448 13.1421 2.37656 13.292C2.43864 13.4419 2.47059 13.6025 2.47059 13.7647C2.47059 13.9269 2.43864 14.0876 2.37656 14.2374C2.31448 14.3873 2.22349 14.5235 2.10878 14.6382C1.99407 14.7529 1.85789 14.8439 1.70802 14.906C1.55815 14.968 1.39752 15 1.23529 15C1.07307 15 0.91244 14.968 0.762568 14.906C0.612695 14.8439 0.476517 14.7529 0.361809 14.6382C0.247102 14.5235 0.156111 14.3873 0.0940312 14.2374C0.0319519 14.0876 -2.41728e-09 13.9269 0 13.7647ZM0 7.5C-2.41728e-09 7.33778 0.0319519 7.17715 0.0940312 7.02727C0.156111 6.8774 0.247102 6.74122 0.361809 6.62652C0.476517 6.51181 0.612695 6.42082 0.762568 6.35874C0.91244 6.29666 1.07307 6.26471 1.23529 6.26471C1.39752 6.26471 1.55815 6.29666 1.70802 6.35874C1.85789 6.42082 1.99407 6.51181 2.10878 6.62652C2.22349 6.74122 2.31448 6.8774 2.37656 7.02727C2.43864 7.17715 2.47059 7.33778 2.47059 7.5C2.47059 7.66222 2.43864 7.82285 2.37656 7.97273C2.31448 8.1226 2.22349 8.25878 2.10878 8.37349C1.99407 8.48819 1.85789 8.57918 1.70802 8.64126C1.55815 8.70334 1.39752 8.73529 1.23529 8.73529C1.07307 8.73529 0.91244 8.70334 0.762568 8.64126C0.612695 8.57918 0.476517 8.48819 0.361809 8.37349C0.247102 8.25878 0.156111 8.1226 0.0940312 7.97273C0.0319519 7.82285 -2.41728e-09 7.66222 0 7.5ZM0 1.23529C-2.41728e-09 1.07307 0.0319519 0.912439 0.0940312 0.762567C0.156111 0.612694 0.247102 0.476517 0.361809 0.36181C0.476517 0.247102 0.612695 0.156111 0.762568 0.0940313C0.91244 0.0319519 1.07307 0 1.23529 0C1.39752 0 1.55815 0.0319519 1.70802 0.0940313C1.85789 0.156111 1.99407 0.247102 2.10878 0.36181C2.22349 0.476517 2.31448 0.612694 2.37656 0.762567C2.43864 0.912439 2.47059 1.07307 2.47059 1.23529C2.47059 1.39752 2.43864 1.55815 2.37656 1.70802C2.31448 1.85789 2.22349 1.99407 2.10878 2.10878C1.99407 2.22349 1.85789 2.31448 1.70802 2.37656C1.55815 2.43864 1.39752 2.47059 1.23529 2.47059C1.07307 2.47059 0.91244 2.43864 0.762568 2.37656C0.612695 2.31448 0.476517 2.22349 0.361809 2.10878C0.247102 1.99407 0.156111 1.85789 0.0940312 1.70802C0.0319519 1.55815 -2.41728e-09 1.39752 0 1.23529Z" fill="#515167"/>
</svg>
