<svg width="18" height="22" viewBox="0 0 18 22" fill="none" xmlns="http://www.w3.org/2000/svg">
<path d="M2.933 5.8667C2.933 4.3107 3.55099 2.8185 4.65199 1.7183C5.75199 0.6181 7.244 0 8.8 0C10.356 0 11.848 0.6181 12.948 1.7183C14.049 2.8185 14.667 4.3107 14.667 5.8667V8.8H15.033C16.45 8.8 17.6 9.9499 17.6 11.3667V19.4333C17.6 20.1141 17.33 20.7669 16.848 21.2482C16.367 21.7296 15.714 22 15.033 22H2.567C1.886 22 1.233 21.7296 0.751999 21.2482C0.269999 20.7669 0 20.1141 0 19.4333V11.3667C0 9.9499 1.15 8.8 2.567 8.8H2.933V5.8667ZM15.033 11H2.567C2.469 11 2.37601 11.0386 2.30701 11.1074C2.23901 11.1762 2.2 11.2694 2.2 11.3667V19.4333C2.2 19.6357 2.364 19.8 2.567 19.8H15.033C15.131 19.8 15.224 19.7614 15.293 19.6926C15.361 19.6238 15.4 19.5306 15.4 19.4333V11.3667C15.4 11.2694 15.361 11.1762 15.293 11.1074C15.224 11.0386 15.131 11 15.033 11ZM12.467 8.8V5.8667C12.467 4.8942 12.08 3.9616 11.393 3.2739C10.705 2.5863 9.772 2.2 8.8 2.2C7.828 2.2 6.895 2.5863 6.207 3.2739C5.52 3.9616 5.133 4.8942 5.133 5.8667V8.8H12.467Z" fill="#070C46"/>
</svg>
