<svg width="20" height="24" viewBox="0 0 20 24" fill="none" xmlns="http://www.w3.org/2000/svg">
<path d="M10.0029 6.9056C9.0669 6.9056 8.1692 7.2852 7.5073 7.9608C6.8454 8.6365 6.4735 9.5529 6.4735 10.5085C6.4735 11.464 6.8454 12.3805 7.5073 13.0561C8.1692 13.7318 9.0669 14.1114 10.0029 14.1114C10.939 14.1114 11.837 13.7318 12.499 13.0561C13.161 12.3805 13.532 11.464 13.532 10.5085C13.532 9.5529 13.161 8.6365 12.499 7.9608C11.837 7.2852 10.939 6.9056 10.0029 6.9056ZM7.9441 10.5085C7.9441 9.9511 8.161 9.4165 8.5471 9.0224C8.9332 8.6282 9.4569 8.4068 10.0029 8.4068C10.549 8.4068 11.073 8.6282 11.459 9.0224C11.845 9.4165 12.062 9.9511 12.062 10.5085C12.062 11.0659 11.845 11.6005 11.459 11.9946C11.073 12.3888 10.549 12.6102 10.0029 12.6102C9.4569 12.6102 8.9332 12.3888 8.5471 11.9946C8.161 11.6005 7.9441 11.0659 7.9441 10.5085ZM17.647 16.8136L11.713 23.2448C11.493 23.4832 11.228 23.6732 10.9329 23.8031C10.6384 23.933 10.3209 24 10 24C9.6791 24 9.3616 23.933 9.0671 23.8031C8.7725 23.6732 8.507 23.4832 8.2871 23.2448L2.353 16.8136H2.3753L2.3653 16.8016L2.353 16.7866C0.829796 14.9477 -0.00400093 12.6164 -9.33486e-07 10.2082C-9.33486e-07 4.5703 4.4771 0 10 0C15.523 0 20 4.5703 20 10.2082C20.004 12.6164 19.17 14.9477 17.647 16.7866L17.635 16.8016L17.625 16.8136H17.647ZM16.504 15.8414C17.815 14.2698 18.533 12.2722 18.529 10.2082C18.529 5.3996 14.711 1.5012 10 1.5012C5.2894 1.5012 1.4706 5.3996 1.4706 10.2082C1.4669 12.2723 2.1851 14.2698 3.4959 15.8414L3.6771 16.0594L9.3576 22.2149C9.4401 22.3044 9.5397 22.3756 9.6501 22.4243C9.7606 22.473 9.8797 22.4981 10 22.4981C10.1203 22.4981 10.2394 22.473 10.3499 22.4243C10.4603 22.3756 10.5599 22.3044 10.6424 22.2149L16.323 16.0594L16.504 15.8414Z" fill="#070C46"/>
</svg>
