<svg width="22" height="18" viewBox="0 0 22 18" fill="none" xmlns="http://www.w3.org/2000/svg">
<mask id="mask0_10_473" style="mask-type:luminance" maskUnits="userSpaceOnUse" x="0" y="0" width="22" height="18">
<path d="M22 0H0V18H22V0Z" fill="white"/>
</mask>
<g mask="url(#mask0_10_473)">
<path d="M19.25 1.00644e-09H2.75C2.386 -9.99899e-06 2.027 0.0744999 1.693 0.219C1.359 0.3635 1.059 0.5748 0.809998 0.84C0.292998 1.3777 0.003 2.094 0 2.84V15.14C0.003 15.886 0.292998 16.6023 0.809998 17.14C1.057 17.4088 1.357 17.6239 1.691 17.7718C2.024 17.9198 2.385 17.9975 2.75 18H19.25C19.614 18 19.973 17.9255 20.307 17.781C20.641 17.6365 20.941 17.4252 21.19 17.16C21.707 16.6223 21.997 15.906 22 15.16V2.86C21.997 2.114 21.707 1.3977 21.19 0.86C20.943 0.5912 20.643 0.3761 20.309 0.2282C19.976 0.0802 19.615 0.0025 19.25 1.00644e-09ZM18.55 4.74L11.48 10.46C11.345 10.5873 11.166 10.6581 10.98 10.6581C10.794 10.6581 10.615 10.5873 10.48 10.46L3.45 4.74C3.364 4.6751 3.293 4.5934 3.24 4.5C3.187 4.4039 3.154 4.2987 3.14 4.19C3.12 4.0843 3.12 3.9757 3.14 3.87C3.172 3.767 3.219 3.6693 3.28 3.58C3.342 3.4951 3.42 3.4236 3.51 3.37C3.602 3.316 3.704 3.2819 3.81 3.27C3.912 3.2503 4.018 3.2503 4.12 3.27C4.22 3.2999 4.312 3.3511 4.39 3.42L11 8.78L17.59 3.45C17.67 3.3847 17.763 3.3368 17.863 3.3093C17.963 3.2818 18.068 3.2752 18.17 3.29C18.271 3.3051 18.369 3.3403 18.456 3.3936C18.544 3.4468 18.62 3.517 18.68 3.6C18.745 3.6828 18.792 3.7776 18.819 3.8789C18.847 3.9802 18.854 4.086 18.84 4.19C18.818 4.404 18.714 4.6012 18.55 4.74Z" fill="#070C46"/>
</g>
</svg>
