<svg width="24" height="18" viewBox="0 0 24 18" fill="none" xmlns="http://www.w3.org/2000/svg">
<mask id="mask0_10_468" style="mask-type:luminance" maskUnits="userSpaceOnUse" x="0" y="0" width="24" height="18">
<path d="M23.3 0H0V17.3H23.3V0Z" fill="white"/>
</mask>
<g mask="url(#mask0_10_468)">
<path d="M20.53 17.3H2.77C2.4141 17.308 2.0601 17.2457 1.7283 17.1169C1.3964 16.988 1.0932 16.795 0.835999 16.5489C0.578699 16.3028 0.372503 16.0084 0.229103 15.6826C0.0856031 15.3568 0.0078 15.0059 0 14.65V2.65C0.0078 2.2941 0.0856031 1.9432 0.229103 1.6174C0.372503 1.2916 0.578699 0.997199 0.835999 0.751099C1.0932 0.504999 1.3964 0.311999 1.7283 0.183099C2.0601 0.0542994 2.4141 -0.00800029 2.77 -2.92319e-07H20.53C20.886 -0.00800029 21.24 0.0542994 21.572 0.183099C21.904 0.311999 22.207 0.504999 22.464 0.751099C22.721 0.997199 22.927 1.2916 23.071 1.6174C23.214 1.9432 23.292 2.2941 23.3 2.65V14.65C23.292 15.0059 23.214 15.3568 23.071 15.6826C22.927 16.0084 22.721 16.3028 22.464 16.5489C22.207 16.795 21.904 16.988 21.572 17.1169C21.24 17.2457 20.886 17.308 20.53 17.3ZM2.77 1.3C2.3967 1.2864 2.033 1.4205 1.7578 1.6732C1.4827 1.9259 1.3182 2.2768 1.3 2.65V14.65C1.3182 15.0232 1.4827 15.3741 1.7578 15.6268C2.033 15.8795 2.3967 16.0136 2.77 16H20.53C20.903 16.0136 21.267 15.8795 21.542 15.6268C21.817 15.3741 21.982 15.0232 22 14.65V2.65C21.982 2.2768 21.817 1.9259 21.542 1.6732C21.267 1.4205 20.903 1.2864 20.53 1.3H2.77ZM11.65 10.1C11.5119 10.1033 11.3771 10.0572 11.27 9.97L3.65 4.37C3.5597 4.3303 3.4796 4.2706 3.4159 4.1954C3.3521 4.1202 3.3062 4.0315 3.2818 3.9359C3.2574 3.8404 3.255 3.7405 3.2749 3.6439C3.2948 3.5473 3.3364 3.4565 3.3965 3.3784C3.4567 3.3002 3.5339 3.2368 3.6222 3.1929C3.7105 3.149 3.8076 3.1258 3.9062 3.125C4.0048 3.1242 4.1023 3.1458 4.1914 3.1883C4.2804 3.2307 4.3586 3.2929 4.42 3.37L11.65 8.68L18.88 3.37C18.9414 3.2929 19.0196 3.2307 19.1086 3.1883C19.1977 3.1458 19.2952 3.1242 19.3938 3.125C19.4924 3.1258 19.5895 3.149 19.6778 3.1929C19.7661 3.2368 19.8433 3.3002 19.9035 3.3784C19.9636 3.4565 20.005 3.5473 20.025 3.6439C20.045 3.7405 20.043 3.8404 20.018 3.9359C19.9938 4.0315 19.9479 4.1202 19.8841 4.1954C19.8204 4.2706 19.7403 4.3303 19.65 4.37L12 10C11.8957 10.067 11.774 10.1018 11.65 10.1Z" fill="#070C46"/>
</g>
</svg>
