<svg width="20" height="20" viewBox="0 0 20 20" fill="none" xmlns="http://www.w3.org/2000/svg">
<path d="M19.5 10C19.5 4.75329 15.2467 0.5 10 0.5C4.75329 0.5 0.5 4.75329 0.5 10C0.5 15.2467 4.75329 19.5 10 19.5C15.2467 19.5 19.5 15.2467 19.5 10Z" stroke="#070C46"/>
<path d="M5 11C4.735 11 4.48 10.8946 4.293 10.7071C4.105 10.5196 4 10.2652 4 10C4 9.7348 4.105 9.4804 4.293 9.2929C4.48 9.1054 4.735 9 5 9H15C15.265 9 15.52 9.1054 15.707 9.2929C15.895 9.4804 16 9.7348 16 10C16 10.2652 15.895 10.5196 15.707 10.7071C15.52 10.8946 15.265 11 15 11H5Z" fill="#070C46"/>
<path d="M9 5C9 4.7348 9.105 4.4804 9.293 4.2929C9.48 4.1054 9.735 4 10 4C10.265 4 10.52 4.1054 10.707 4.2929C10.895 4.4804 11 4.7348 11 5V15C11 15.2652 10.895 15.5196 10.707 15.7071C10.52 15.8946 10.265 16 10 16C9.735 16 9.48 15.8946 9.293 15.7071C9.105 15.5196 9 15.2652 9 15V5Z" fill="#070C46"/>
</svg>
