<svg width="23" height="21" viewBox="0 0 23 21" fill="none" xmlns="http://www.w3.org/2000/svg">
<path d="M20.628 17.7454L21.229 18.3493L20.627 17.7454H20.628ZM6.31899 15.298L6.91799 14.6941L6.317 15.298H6.31899ZM1.63499 3.2744L1.035 2.6716L1.636 3.2755L1.63499 3.2744ZM15.186 14.349L15.705 13.8348L14.503 12.627L13.988 13.1412L15.186 14.349ZM17.441 13.6191L19.61 14.7985L20.422 13.3024L18.254 12.1241L17.441 13.6191ZM20.027 17.1415L18.415 18.7455L19.615 19.9522L21.227 18.3493L20.027 17.1415ZM17.432 19.2609C15.786 19.4153 11.529 19.2779 6.91799 14.6941L5.71699 15.9008C10.748 20.9035 15.537 21.1487 17.591 20.9568L17.431 19.2609H17.432ZM6.91799 14.6941C2.52399 10.3237 1.79499 6.6492 1.70399 5.0543L0.00399271 5.1508C0.116993 7.1577 1.01999 11.2307 5.71699 15.9008L6.91799 14.6941ZM8.479 7.6788L8.80499 7.3541L7.606 6.1475L7.27999 6.471L8.47999 7.6777L8.479 7.6788ZM9.063 3.2278L7.63299 1.3162L6.27 2.3378L7.69999 4.2483L9.063 3.2278ZM2.819 0.899603L1.037 2.6704L2.238 3.8783L4.01899 2.1074L2.819 0.899603ZM7.87899 7.0749C7.27799 6.471 7.27799 6.471 7.27799 6.4732H7.27499L7.272 6.4778C7.218 6.5325 7.17 6.5922 7.128 6.656C7.067 6.7468 6.99999 6.866 6.94299 7.017C6.80499 7.4067 6.77 7.8257 6.843 8.2327C6.995 9.2147 7.672 10.5122 9.404 12.2353L10.605 11.0275C8.98299 9.4156 8.59699 8.4348 8.52499 7.9717C8.49099 7.7514 8.526 7.6425 8.537 7.6175C8.542 7.6016 8.545 7.6005 8.537 7.6107C8.527 7.6264 8.515 7.6412 8.503 7.655L8.49099 7.6663C8.48799 7.6698 8.48399 7.6732 8.47999 7.6765L7.87899 7.0749ZM9.404 12.2353C11.137 13.9585 12.442 14.6305 13.425 14.7804C13.928 14.8576 14.333 14.7963 14.64 14.6816C14.812 14.618 14.973 14.5275 15.117 14.4137C15.137 14.3974 15.156 14.3804 15.174 14.3626L15.182 14.3558L15.185 14.3524L15.186 14.3502C15.186 14.3502 15.188 14.349 14.587 13.7451C13.985 13.1412 13.989 13.1401 13.989 13.1401L13.991 13.1378L13.993 13.1355L14 13.1299L14.012 13.1185C14.025 13.1062 14.04 13.0949 14.055 13.0844C14.066 13.0765 14.063 13.0799 14.047 13.0867C14.018 13.0969 13.907 13.1321 13.683 13.0981C13.214 13.0254 12.226 12.6395 10.605 11.0275L9.404 12.2353ZM7.63299 1.3151C6.47499 -0.228797 4.2 -0.473997 2.819 0.899603L4.01899 2.1074C4.62299 1.5069 5.694 1.5693 6.27 2.3378L7.63299 1.3151ZM1.705 5.0554C1.683 4.6627 1.863 4.2517 2.238 3.8794L1.035 2.6716C0.425999 3.2778 -0.0540073 4.1359 0.00399271 5.1508L1.705 5.0554ZM18.415 18.7455C18.104 19.0565 17.768 19.2314 17.433 19.262L17.591 20.9568C18.425 20.8785 19.107 20.4585 19.616 19.9533L18.415 18.7455ZM8.80499 7.3541C9.92299 6.2428 10.006 4.4867 9.06399 3.2289L7.701 4.2495C8.159 4.8613 8.09099 5.6639 7.60499 6.1486L8.80499 7.3541ZM19.611 14.7997C20.539 15.3037 20.683 16.4911 20.028 17.1427L21.229 18.3493C22.75 16.8362 22.281 14.3127 20.423 13.3035L19.611 14.7997ZM15.705 13.8359C16.141 13.4023 16.843 13.2956 17.442 13.6202L18.255 12.1252C17.024 11.4555 15.499 11.6405 14.504 12.6281L15.705 13.8359Z" fill="#070C46"/>
</svg>
