<svg width="14" height="14" viewBox="0 0 14 14" fill="none" xmlns="http://www.w3.org/2000/svg">
<path d="M1.16667 8.16667C0.857247 8.16667 0.560501 8.04375 0.341709 7.82496C0.122917 7.60616 0 7.30942 0 7C0 6.69058 0.122917 6.39383 0.341709 6.17504C0.560501 5.95625 0.857247 5.83333 1.16667 5.83333H12.8333C13.1428 5.83333 13.4395 5.95625 13.6583 6.17504C13.8771 6.39383 14 6.69058 14 7C14 7.30942 13.8771 7.60616 13.6583 7.82496C13.4395 8.04375 13.1428 8.16667 12.8333 8.16667H1.16667Z" fill="black"/>
<path d="M5.83333 1.16667C5.83333 0.857247 5.95625 0.560501 6.17504 0.341709C6.39383 0.122917 6.69058 0 7 0C7.30942 0 7.60616 0.122917 7.82496 0.341709C8.04375 0.560501 8.16667 0.857247 8.16667 1.16667V12.8333C8.16667 13.1428 8.04375 13.4395 7.82496 13.6583C7.60616 13.8771 7.30942 14 7 14C6.69058 14 6.39383 13.8771 6.17504 13.6583C5.95625 13.4395 5.83333 13.1428 5.83333 12.8333V1.16667Z" fill="black"/>
</svg>
