<svg width="28" height="24" viewBox="0 0 28 24" fill="none" xmlns="http://www.w3.org/2000/svg">
<g clip-path="url(#clip0_34_34)">
<path d="M15.5556 23.9999C15.1407 23.9999 14.7259 23.7912 14.5185 23.5825C13.8963 22.9564 13.8963 21.913 14.5185 21.2869L22.6074 13.5651H1.65926C0.622222 13.5651 0 12.9391 0 11.8956C0 10.8521 0.622222 10.4347 1.65926 10.4347H22.6074L14.5185 2.71297C13.8963 2.08688 13.8963 1.04341 14.5185 0.417319C15.1407 -0.208768 16.1778 -0.208768 16.8 0.417319L27.5852 10.8521C27.7926 11.0608 27.7926 11.0608 27.7926 11.2695C27.7926 11.4782 27.7926 11.6869 28 11.8956C28 12.1043 28 12.313 27.7926 12.5217C27.7926 12.7304 27.5852 12.7304 27.5852 12.9391L16.8 23.3738C16.3852 23.7912 15.9704 23.9999 15.5556 23.9999Z" fill="black"/>
</g>
<defs>
<clipPath id="clip0_34_34">
<rect width="28" height="24" fill="white"/>
</clipPath>
</defs>
</svg>
