<svg width="24" height="24" viewBox="0 0 24 24" fill="none" xmlns="http://www.w3.org/2000/svg">
<path fill-rule="evenodd" clip-rule="evenodd" d="M8.63 21.46C9.36383 21.6107 10.1109 21.6877 10.86 21.69C13.3927 21.6848 15.8389 20.794 17.7785 19.1798L22.29 23.7C22.3826 23.7945 22.4931 23.8697 22.6149 23.9212C22.7368 23.9727 22.8677 23.9995 23 24C23.1316 24.0008 23.2621 23.9755 23.3839 23.9258C23.5057 23.876 23.6166 23.8027 23.71 23.71C23.8037 23.617 23.8781 23.5064 23.9289 23.3846C23.9797 23.2627 24.0058 23.132 24.0058 23C24.0058 22.868 23.9797 22.7373 23.9289 22.6154C23.8781 22.4936 23.8037 22.383 23.71 22.29L19.1881 17.7681C20.5543 16.1214 21.411 14.0974 21.6314 11.946C21.9048 9.27768 21.1802 6.60264 19.5973 4.43718C18.0144 2.27171 15.6855 0.769336 13.06 0.22C10.2452 -0.354477 7.3174 0.202345 4.91 1.77C3.71432 2.54514 2.68418 3.54965 1.87916 4.72542C1.07414 5.9012 0.510214 7.22491 0.22 8.62C-0.36564 11.4378 0.191136 14.3728 1.76802 16.7803C3.34491 19.1878 5.81295 20.8709 8.63 21.46ZM6 3.45C7.44744 2.50262 9.14008 1.99865 10.87 2C11.4678 2.00073 12.0641 2.06103 12.65 2.18C13.788 2.41558 14.868 2.8745 15.8276 3.53019C16.7871 4.18589 17.607 5.02535 18.24 6C18.8742 6.9727 19.3104 8.06095 19.5235 9.20243C19.7366 10.3439 19.7224 11.5162 19.4819 12.6522C19.2413 13.7883 18.779 14.8657 18.1215 15.8228C17.4639 16.7799 16.6241 17.5979 15.65 18.23C14.6808 18.8713 13.5939 19.3137 12.4523 19.5317C11.3108 19.7498 10.1373 19.739 9 19.5C6.70681 19.0056 4.70243 17.6238 3.4246 15.6565C2.14678 13.6892 1.69934 11.2961 2.18 9C2.41785 7.86817 2.87797 6.7948 3.5337 5.84211C4.18943 4.88941 5.02773 4.07633 6 3.45Z" fill="#070C46"/>
</svg>
