<svg width="20" height="16" viewBox="0 0 20 16" fill="none" xmlns="http://www.w3.org/2000/svg">
<path d="M13.9031 6.95516C14.2455 7.09167 14.628 7.08658 14.9666 6.94102C15.3052 6.79547 15.5721 6.52136 15.7086 6.17901C15.8451 5.83666 15.84 5.4541 15.6945 5.1155C15.5489 4.7769 15.2748 4.50999 14.9325 4.37349C14.5901 4.23699 14.2076 4.24207 13.869 4.38763C13.5304 4.53319 13.2635 4.80729 13.127 5.14964C12.9905 5.49199 12.9956 5.87455 13.1411 6.21315C13.2867 6.55175 13.5608 6.81866 13.9031 6.95516ZM0.914748 7.96402C0.769523 7.62966 0.691908 7.26985 0.686377 6.90535C0.680846 6.54085 0.747507 6.17886 0.88252 5.84024C1.01753 5.50162 1.21823 5.19307 1.47303 4.93238C1.72784 4.67168 2.03172 4.46399 2.36717 4.32128L10.9129 0.6733C11.5886 0.385485 12.3504 0.375374 13.0335 0.645157L17.2346 2.2993C17.5772 2.43312 17.8898 2.63361 18.1543 2.88914C18.4188 3.14468 18.63 3.45018 18.7756 3.78794C18.9212 4.1257 18.9983 4.489 19.0025 4.85677C19.0066 5.22455 18.9377 5.5895 18.7998 5.93045L17.0385 10.2579C16.763 10.9335 16.2318 11.4729 15.5605 11.7586L7.14062 15.3535C6.46155 15.6425 5.69577 15.6513 5.01025 15.3779C4.32473 15.1046 3.77508 14.5713 3.48115 13.8944L0.914748 7.96402ZM2.919 5.59752C2.75148 5.66893 2.59973 5.77276 2.47249 5.90304C2.34525 6.03331 2.24502 6.18746 2.17758 6.35662C2.11014 6.52577 2.0768 6.70659 2.0795 6.88868C2.0822 7.07076 2.12087 7.25052 2.1933 7.4176L4.7597 13.3479C5.06498 14.0531 5.88336 14.3794 6.59008 14.0778L15.0099 10.4828C15.345 10.3397 15.61 10.0701 15.7474 9.73263L17.5092 5.4039C17.5779 5.23357 17.6122 5.05131 17.61 4.86765C17.6079 4.684 17.5693 4.5026 17.4966 4.33394C17.4239 4.16527 17.3185 4.0127 17.1865 3.88502C17.0544 3.75735 16.8984 3.65712 16.7274 3.59012L12.5255 1.93418C12.184 1.79929 11.8031 1.80434 11.4652 1.94825L2.919 5.59752Z" fill="#9A9A9A"/>
</svg>
