<svg width="175" height="75" viewBox="0 0 175 75" fill="none" xmlns="http://www.w3.org/2000/svg">
<path d="M172.531 63.164C169.954 66.6737 164.8 67.9459 160.213 68.8233C112.768 77.5973 63.2625 74.2193 15.6121 66.3227C10.8187 65.533 5.5357 64.4363 2.72668 60.9705C-0.082352 57.5048 0.819629 53.6442 1.92778 49.674C1.92778 49.1914 2.21126 48.7307 2.36588 48.2701C2.72668 47.0637 3.13901 45.9231 3.57711 44.8702C6.79966 35.5544 10.9554 26.4912 15.9987 17.7803C19.452 11.9675 24.3485 3.34703 32.6209 1.46061C35.8387 0.914181 39.1435 0.847383 42.3881 1.2632C48.3412 1.7019 54.2942 2.18447 60.2215 2.66704L138.127 8.74307L142.74 9.09403C148.667 9.55466 155.058 10.1908 159.439 13.6127C163.821 17.0345 164.877 21.6409 166.114 26.1815C168.382 34.6484 170.658 43.13 172.943 51.6262C173.227 52.6791 173.51 53.8197 173.717 54.8945C173.91 55.9319 174.005 56.9809 174 58.0312C174.073 59.8244 173.564 61.6001 172.531 63.164Z" fill="#FF493D"/>
<path d="M172.531 63.164C169.954 66.6737 164.8 67.9459 160.213 68.8233C112.768 77.5973 63.2625 74.2193 15.6121 66.3227C10.8187 65.533 5.5357 64.4363 2.72668 60.9705C-0.082352 57.5048 0.819629 53.6442 1.92778 49.674C3.28384 51.315 4.89649 52.7909 6.72116 54.061C15.1998 59.9615 26.5905 61.6944 37.4401 62.835C71.4576 66.3885 105.81 66.1911 140.086 65.7524C147.327 65.7524 154.801 65.5111 161.45 63.0105C166.196 61.1344 170.375 58.3581 173.665 54.8945C173.876 55.9307 173.988 56.9797 174 58.0312C174.073 59.8244 173.564 61.6001 172.531 63.164Z" fill="#E12E23"/>
</svg>
