<svg width="22" height="26" viewBox="0 0 22 26" fill="none" xmlns="http://www.w3.org/2000/svg">
<path d="M2.54135 26C2.11918 25.9992 1.70449 25.8855 1.33806 25.6701C0.512946 25.1896 0 24.257 0 23.2446V2.75555C0 1.74028 0.512946 0.810501 1.33806 0.330069C1.71322 0.10853 2.1394 -0.00539641 2.57206 0.000196438C3.00472 0.00578929 3.42798 0.130697 3.79759 0.361862L20.8397 10.8438C21.1948 11.0726 21.4876 11.3904 21.6906 11.7673C21.8935 12.1442 22 12.5679 22 12.9986C22 13.4294 21.8935 13.8531 21.6906 14.23C21.4876 14.6069 21.1948 14.9247 20.8397 15.1535L3.79484 25.6383C3.41659 25.8732 2.98335 25.9983 2.54135 26Z" fill="white"/>
</svg>
