<svg width="75" height="74" viewBox="0 0 75 74" fill="none" xmlns="http://www.w3.org/2000/svg">
<path d="M35.7263 24.8485C39.9963 26.6439 45.7765 22.7577 48.5643 16.0752C51.3521 9.39274 50.1831 2.57591 45.8523 0.694295C41.5216 -1.18732 35.8246 2.80336 33.0143 9.46759C30.204 16.1318 31.4202 23.0054 35.7263 24.8485Z" fill="#DAEBEB"/>
<path d="M16.4416 26.9885C20.7912 27.8116 25.2973 22.9665 26.5804 16.2306C27.8635 9.4947 25.2939 3.30128 20.9805 2.43351C16.6671 1.56573 12.1248 6.45554 10.8417 13.1914C9.55859 19.9273 12.0807 26.1563 16.4416 26.9885Z" fill="#DAEBEB"/>
<path d="M41.4403 31.2582C29.1736 21.3137 -5.36539 36.0817 1.93451 47.9428C7.84437 57.5847 13.0357 51.3882 19.681 57.2013L20.1199 57.5571C20.2753 57.664 20.422 57.783 20.5588 57.9129C27.6547 63.1471 22.6319 69.5729 33.2877 73.3607C46.3572 78.0129 53.6957 41.1936 41.4403 31.2582Z" fill="#DAEBEB"/>
<path d="M48.8932 35.5229C51.5758 39.3455 58.5524 39.1137 64.5025 34.9949C70.4526 30.8761 73.1158 24.3703 70.3969 20.5925C67.6781 16.8146 60.7378 17.0017 54.7989 21.1296C48.8601 25.2575 46.2197 31.6892 48.8932 35.5229Z" fill="#DAEBEB"/>
<path d="M73.8666 45.345C72.1504 41.2506 65.6023 40.0338 59.2096 42.72C52.817 45.4062 49.0652 50.7702 50.7814 54.8646C52.4976 58.9591 59.0436 60.1556 65.4384 57.4897C71.8332 54.8238 75.576 49.4709 73.8666 45.345Z" fill="#DAEBEB"/>
</svg>
