<svg width="172" height="58" viewBox="0 0 172 58" fill="none" xmlns="http://www.w3.org/2000/svg">
<rect width="172" height="58" rx="6" fill="#020414"/>
<path d="M39.3294 42.7161C37.5202 44.4048 35.5448 44.1382 33.6434 43.3383C31.6311 42.5206 29.785 42.485 27.662 43.3383C25.0036 44.4403 23.6006 44.1204 22.0129 42.7161C13.0039 33.775 14.3331 20.159 24.5605 19.6613C27.0528 19.7857 28.7881 20.9766 30.2465 21.0833C32.4249 20.6567 34.511 19.4302 36.8371 19.5902C39.6247 19.8035 41.7293 20.87 43.1139 22.7897C37.354 26.1138 38.7201 33.4195 44 35.4637C42.9477 38.13 41.5816 40.7786 39.3109 42.7339L39.3294 42.7161ZM30.0619 19.5546C29.785 15.5907 33.1264 12.32 36.9663 12C37.5017 16.5861 32.6465 19.999 30.0619 19.5546Z" fill="white"/>
<path d="M65.61 18.68C65.61 19.32 65.506 19.906 65.298 20.438C65.09 20.966 64.796 21.42 64.416 21.8C64.04 22.18 63.586 22.476 63.054 22.688C62.526 22.896 61.938 23 61.29 23H58.026V14.36H61.29C61.938 14.36 62.526 14.466 63.054 14.678C63.586 14.886 64.04 15.18 64.416 15.56C64.796 15.94 65.09 16.396 65.298 16.928C65.506 17.456 65.61 18.04 65.61 18.68ZM64.176 18.68C64.176 18.184 64.108 17.738 63.972 17.342C63.84 16.946 63.648 16.612 63.396 16.34C63.148 16.068 62.846 15.86 62.49 15.716C62.134 15.568 61.734 15.494 61.29 15.494H59.436V21.866H61.29C61.734 21.866 62.134 21.794 62.49 21.65C62.846 21.506 63.148 21.298 63.396 21.026C63.648 20.75 63.84 20.416 63.972 20.024C64.108 19.628 64.176 19.18 64.176 18.68ZM69.4789 16.784C69.9309 16.784 70.3389 16.858 70.7029 17.006C71.0709 17.154 71.3829 17.364 71.6389 17.636C71.8989 17.908 72.0989 18.238 72.2389 18.626C72.3789 19.014 72.4489 19.45 72.4489 19.934C72.4489 20.418 72.3789 20.854 72.2389 21.242C72.0989 21.63 71.8989 21.962 71.6389 22.238C71.3829 22.51 71.0709 22.72 70.7029 22.868C70.3389 23.016 69.9309 23.09 69.4789 23.09C69.0229 23.09 68.6109 23.016 68.2429 22.868C67.8789 22.72 67.5669 22.51 67.3069 22.238C67.0469 21.962 66.8469 21.63 66.7069 21.242C66.5669 20.854 66.4969 20.418 66.4969 19.934C66.4969 19.45 66.5669 19.014 66.7069 18.626C66.8469 18.238 67.0469 17.908 67.3069 17.636C67.5669 17.364 67.8789 17.154 68.2429 17.006C68.6109 16.858 69.0229 16.784 69.4789 16.784ZM69.4789 22.082C70.0309 22.082 70.4409 21.898 70.7089 21.53C70.9809 21.158 71.1169 20.628 71.1169 19.94C71.1169 19.252 70.9809 18.722 70.7089 18.35C70.4409 17.974 70.0309 17.786 69.4789 17.786C68.9189 17.786 68.5029 17.974 68.2309 18.35C67.9589 18.722 67.8229 19.252 67.8229 19.94C67.8229 20.628 67.9589 21.158 68.2309 21.53C68.5029 21.898 68.9189 22.082 69.4789 22.082ZM82.1926 16.88L80.2306 23H79.2046C79.0846 23 79.0006 22.922 78.9526 22.766L77.7346 18.956C77.7026 18.848 77.6726 18.74 77.6446 18.632C77.6206 18.524 77.5986 18.418 77.5786 18.314C77.5346 18.53 77.4806 18.746 77.4166 18.962L76.1806 22.766C76.1366 22.922 76.0426 23 75.8986 23H74.9206L72.9586 16.88H73.9786C74.0786 16.88 74.1606 16.906 74.2246 16.958C74.2926 17.006 74.3366 17.064 74.3566 17.132L75.3766 20.696C75.4166 20.86 75.4506 21.02 75.4786 21.176C75.5106 21.328 75.5386 21.48 75.5626 21.632C75.6026 21.48 75.6446 21.328 75.6886 21.176C75.7326 21.02 75.7786 20.86 75.8266 20.696L76.9726 17.114C76.9926 17.042 77.0326 16.984 77.0926 16.94C77.1566 16.892 77.2326 16.868 77.3206 16.868H77.8846C77.9766 16.868 78.0546 16.892 78.1186 16.94C78.1826 16.984 78.2246 17.042 78.2446 17.114L79.3606 20.696C79.4086 20.86 79.4526 21.02 79.4926 21.176C79.5366 21.332 79.5766 21.488 79.6126 21.644C79.6406 21.492 79.6706 21.338 79.7026 21.182C79.7346 21.026 79.7726 20.864 79.8166 20.696L80.8546 17.132C80.8786 17.06 80.9226 17 80.9866 16.952C81.0506 16.904 81.1286 16.88 81.2206 16.88H82.1926ZM84.3397 17.69C84.4717 17.554 84.6077 17.432 84.7477 17.324C84.8917 17.212 85.0437 17.116 85.2037 17.036C85.3637 16.956 85.5337 16.894 85.7137 16.85C85.8937 16.806 86.0897 16.784 86.3017 16.784C86.6377 16.784 86.9317 16.84 87.1837 16.952C87.4397 17.064 87.6537 17.222 87.8257 17.426C88.0017 17.63 88.1337 17.876 88.2217 18.164C88.3097 18.448 88.3537 18.762 88.3537 19.106V23H87.0697V19.106C87.0697 18.694 86.9737 18.374 86.7817 18.146C86.5937 17.918 86.3057 17.804 85.9177 17.804C85.6297 17.804 85.3617 17.87 85.1137 18.002C84.8697 18.134 84.6397 18.314 84.4237 18.542V23H83.1337V16.88H83.9137C84.0897 16.88 84.2017 16.962 84.2497 17.126L84.3397 17.69ZM91.1742 14.12V23H89.8842V14.12H91.1742ZM95.4125 16.784C95.8645 16.784 96.2725 16.858 96.6365 17.006C97.0045 17.154 97.3165 17.364 97.5725 17.636C97.8325 17.908 98.0325 18.238 98.1725 18.626C98.3125 19.014 98.3825 19.45 98.3825 19.934C98.3825 20.418 98.3125 20.854 98.1725 21.242C98.0325 21.63 97.8325 21.962 97.5725 22.238C97.3165 22.51 97.0045 22.72 96.6365 22.868C96.2725 23.016 95.8645 23.09 95.4125 23.09C94.9565 23.09 94.5445 23.016 94.1765 22.868C93.8125 22.72 93.5005 22.51 93.2405 22.238C92.9805 21.962 92.7805 21.63 92.6405 21.242C92.5005 20.854 92.4305 20.418 92.4305 19.934C92.4305 19.45 92.5005 19.014 92.6405 18.626C92.7805 18.238 92.9805 17.908 93.2405 17.636C93.5005 17.364 93.8125 17.154 94.1765 17.006C94.5445 16.858 94.9565 16.784 95.4125 16.784ZM95.4125 22.082C95.9645 22.082 96.3745 21.898 96.6425 21.53C96.9145 21.158 97.0505 20.628 97.0505 19.94C97.0505 19.252 96.9145 18.722 96.6425 18.35C96.3745 17.974 95.9645 17.786 95.4125 17.786C94.8525 17.786 94.4365 17.974 94.1645 18.35C93.8925 18.722 93.7565 19.252 93.7565 19.94C93.7565 20.628 93.8925 21.158 94.1645 21.53C94.4365 21.898 94.8525 22.082 95.4125 22.082ZM102.892 20.324C102.432 20.34 102.044 20.378 101.728 20.438C101.412 20.494 101.156 20.568 100.96 20.66C100.764 20.748 100.622 20.854 100.534 20.978C100.45 21.102 100.408 21.238 100.408 21.386C100.408 21.53 100.43 21.654 100.474 21.758C100.522 21.858 100.586 21.942 100.666 22.01C100.75 22.074 100.846 22.122 100.954 22.154C101.066 22.182 101.188 22.196 101.32 22.196C101.656 22.196 101.944 22.134 102.184 22.01C102.428 21.882 102.664 21.698 102.892 21.458V20.324ZM99.4719 17.732C100.164 17.088 100.988 16.766 101.944 16.766C102.296 16.766 102.608 16.824 102.88 16.94C103.156 17.052 103.386 17.212 103.57 17.42C103.758 17.628 103.9 17.876 103.996 18.164C104.096 18.448 104.146 18.764 104.146 19.112V23H103.57C103.446 23 103.352 22.982 103.288 22.946C103.224 22.906 103.17 22.828 103.126 22.712L103 22.214C102.844 22.354 102.69 22.48 102.538 22.592C102.386 22.7 102.228 22.792 102.064 22.868C101.904 22.944 101.73 23 101.542 23.036C101.358 23.076 101.154 23.096 100.93 23.096C100.682 23.096 100.45 23.062 100.234 22.994C100.022 22.926 99.8379 22.824 99.6819 22.688C99.5259 22.548 99.4019 22.376 99.3099 22.172C99.2219 21.968 99.1779 21.728 99.1779 21.452C99.1779 21.216 99.2399 20.986 99.3639 20.762C99.4919 20.538 99.6999 20.338 99.9879 20.162C100.28 19.982 100.662 19.834 101.134 19.718C101.61 19.602 102.196 19.536 102.892 19.52V19.112C102.892 18.672 102.798 18.344 102.61 18.128C102.422 17.912 102.146 17.804 101.782 17.804C101.534 17.804 101.326 17.836 101.158 17.9C100.99 17.96 100.844 18.026 100.72 18.098C100.596 18.17 100.486 18.238 100.39 18.302C100.294 18.362 100.192 18.392 100.084 18.392C99.9959 18.392 99.9199 18.37 99.8559 18.326C99.7959 18.278 99.7459 18.22 99.7059 18.152L99.4719 17.732ZM109.563 18.386C109.383 18.154 109.185 17.992 108.969 17.9C108.753 17.808 108.519 17.762 108.267 17.762C107.763 17.762 107.369 17.948 107.085 18.32C106.801 18.688 106.659 19.234 106.659 19.958C106.659 20.334 106.691 20.656 106.755 20.924C106.819 21.188 106.911 21.404 107.031 21.572C107.151 21.74 107.297 21.862 107.469 21.938C107.641 22.014 107.835 22.052 108.051 22.052C108.379 22.052 108.661 21.982 108.897 21.842C109.137 21.698 109.359 21.496 109.563 21.236V18.386ZM110.853 14.12V23H110.073C109.901 23 109.791 22.918 109.743 22.754L109.629 22.088C109.373 22.388 109.081 22.63 108.753 22.814C108.429 22.998 108.051 23.09 107.619 23.09C107.275 23.09 106.963 23.022 106.683 22.886C106.403 22.746 106.163 22.544 105.963 22.28C105.763 22.016 105.607 21.69 105.495 21.302C105.387 20.91 105.333 20.462 105.333 19.958C105.333 19.502 105.393 19.08 105.513 18.692C105.637 18.304 105.813 17.968 106.041 17.684C106.269 17.396 106.545 17.172 106.869 17.012C107.197 16.848 107.563 16.766 107.967 16.766C108.327 16.766 108.633 16.824 108.885 16.94C109.137 17.052 109.363 17.21 109.563 17.414V14.12H110.853ZM118.065 16.784C118.517 16.784 118.925 16.858 119.289 17.006C119.657 17.154 119.969 17.364 120.225 17.636C120.485 17.908 120.685 18.238 120.825 18.626C120.965 19.014 121.035 19.45 121.035 19.934C121.035 20.418 120.965 20.854 120.825 21.242C120.685 21.63 120.485 21.962 120.225 22.238C119.969 22.51 119.657 22.72 119.289 22.868C118.925 23.016 118.517 23.09 118.065 23.09C117.609 23.09 117.197 23.016 116.829 22.868C116.465 22.72 116.153 22.51 115.893 22.238C115.633 21.962 115.433 21.63 115.293 21.242C115.153 20.854 115.083 20.418 115.083 19.934C115.083 19.45 115.153 19.014 115.293 18.626C115.433 18.238 115.633 17.908 115.893 17.636C116.153 17.364 116.465 17.154 116.829 17.006C117.197 16.858 117.609 16.784 118.065 16.784ZM118.065 22.082C118.617 22.082 119.027 21.898 119.295 21.53C119.567 21.158 119.703 20.628 119.703 19.94C119.703 19.252 119.567 18.722 119.295 18.35C119.027 17.974 118.617 17.786 118.065 17.786C117.505 17.786 117.089 17.974 116.817 18.35C116.545 18.722 116.409 19.252 116.409 19.94C116.409 20.628 116.545 21.158 116.817 21.53C117.089 21.898 117.505 22.082 118.065 22.082ZM123.48 17.69C123.612 17.554 123.748 17.432 123.888 17.324C124.032 17.212 124.184 17.116 124.344 17.036C124.504 16.956 124.674 16.894 124.854 16.85C125.034 16.806 125.23 16.784 125.442 16.784C125.778 16.784 126.072 16.84 126.324 16.952C126.58 17.064 126.794 17.222 126.966 17.426C127.142 17.63 127.274 17.876 127.362 18.164C127.45 18.448 127.494 18.762 127.494 19.106V23H126.21V19.106C126.21 18.694 126.114 18.374 125.922 18.146C125.734 17.918 125.446 17.804 125.058 17.804C124.77 17.804 124.502 17.87 124.254 18.002C124.01 18.134 123.78 18.314 123.564 18.542V23H122.274V16.88H123.054C123.23 16.88 123.342 16.962 123.39 17.126L123.48 17.69ZM133.951 23.096C133.443 23.096 133.051 22.954 132.775 22.67C132.503 22.382 132.367 21.978 132.367 21.458V17.894H131.695C131.623 17.894 131.561 17.872 131.509 17.828C131.457 17.78 131.431 17.71 131.431 17.618V17.096L132.421 16.952L132.703 15.182C132.723 15.114 132.757 15.06 132.805 15.02C132.853 14.976 132.917 14.954 132.997 14.954H133.657V16.964H135.355V17.894H133.657V21.368C133.657 21.588 133.711 21.756 133.819 21.872C133.927 21.988 134.071 22.046 134.251 22.046C134.351 22.046 134.437 22.034 134.509 22.01C134.581 21.982 134.643 21.954 134.695 21.926C134.747 21.894 134.791 21.866 134.827 21.842C134.867 21.814 134.905 21.8 134.941 21.8C135.013 21.8 135.071 21.84 135.115 21.92L135.499 22.55C135.299 22.726 135.063 22.862 134.791 22.958C134.519 23.05 134.239 23.096 133.951 23.096ZM137.662 17.606C137.914 17.358 138.19 17.16 138.49 17.012C138.79 16.86 139.14 16.784 139.54 16.784C139.876 16.784 140.17 16.84 140.422 16.952C140.678 17.064 140.892 17.222 141.064 17.426C141.24 17.63 141.372 17.876 141.46 18.164C141.548 18.448 141.592 18.762 141.592 19.106V23H140.308V19.106C140.308 18.694 140.212 18.374 140.02 18.146C139.832 17.918 139.544 17.804 139.156 17.804C138.868 17.804 138.6 17.87 138.352 18.002C138.108 18.134 137.878 18.314 137.662 18.542V23H136.372V14.12H137.662V17.606ZM147.113 19.25C147.113 19.034 147.081 18.834 147.017 18.65C146.957 18.462 146.867 18.3 146.747 18.164C146.627 18.024 146.477 17.916 146.297 17.84C146.121 17.76 145.917 17.72 145.685 17.72C145.217 17.72 144.849 17.854 144.581 18.122C144.313 18.39 144.143 18.766 144.071 19.25H147.113ZM144.035 20.042C144.051 20.39 144.105 20.692 144.197 20.948C144.289 21.2 144.411 21.41 144.563 21.578C144.719 21.746 144.903 21.872 145.115 21.956C145.331 22.036 145.571 22.076 145.835 22.076C146.087 22.076 146.305 22.048 146.489 21.992C146.673 21.932 146.833 21.868 146.969 21.8C147.105 21.728 147.221 21.664 147.317 21.608C147.413 21.548 147.501 21.518 147.581 21.518C147.685 21.518 147.765 21.558 147.821 21.638L148.187 22.112C148.035 22.292 147.863 22.444 147.671 22.568C147.479 22.692 147.275 22.794 147.059 22.874C146.843 22.95 146.621 23.004 146.393 23.036C146.165 23.072 145.943 23.09 145.727 23.09C145.303 23.09 144.909 23.02 144.545 22.88C144.185 22.736 143.871 22.526 143.603 22.25C143.339 21.974 143.131 21.632 142.979 21.224C142.831 20.816 142.757 20.346 142.757 19.814C142.757 19.39 142.823 18.994 142.955 18.626C143.091 18.258 143.283 17.938 143.531 17.666C143.783 17.394 144.087 17.18 144.443 17.024C144.803 16.864 145.209 16.784 145.661 16.784C146.037 16.784 146.385 16.846 146.705 16.97C147.025 17.09 147.301 17.268 147.533 17.504C147.765 17.74 147.945 18.03 148.073 18.374C148.205 18.714 148.271 19.102 148.271 19.538C148.271 19.738 148.249 19.872 148.205 19.94C148.161 20.008 148.081 20.042 147.965 20.042H144.035Z" fill="#AFB0B4"/>
<path d="M65.7125 38.267L63.8645 33.2165C63.7735 32.9925 63.679 32.7265 63.581 32.4185C63.483 32.1105 63.385 31.778 63.287 31.421C63.196 31.778 63.1015 32.114 63.0035 32.429C62.9055 32.737 62.811 33.0065 62.72 33.2375L60.8825 38.267H65.7125ZM70.7 44H68.516C68.271 44 68.0715 43.9405 67.9175 43.8215C67.7635 43.6955 67.648 43.5415 67.571 43.3595L66.437 40.262H60.1475L59.0135 43.3595C58.9575 43.5205 58.849 43.6675 58.688 43.8005C58.527 43.9335 58.3275 44 58.0895 44H55.8845L61.859 28.817H64.736L70.7 44ZM74.435 41.207C74.729 41.564 75.0475 41.816 75.3905 41.963C75.7405 42.11 76.1185 42.1835 76.5245 42.1835C76.9165 42.1835 77.27 42.11 77.585 41.963C77.9 41.816 78.166 41.592 78.383 41.291C78.607 40.99 78.7785 40.612 78.8975 40.157C79.0165 39.695 79.076 39.1525 79.076 38.5295C79.076 37.8995 79.0235 37.3675 78.9185 36.9335C78.8205 36.4925 78.677 36.1355 78.488 35.8625C78.299 35.5895 78.068 35.39 77.795 35.264C77.529 35.138 77.2245 35.075 76.8815 35.075C76.3425 35.075 75.884 35.1905 75.506 35.4215C75.128 35.6455 74.771 35.964 74.435 36.377V41.207ZM74.2985 34.697C74.7395 34.2 75.24 33.7975 75.8 33.4895C76.36 33.1815 77.018 33.0275 77.774 33.0275C78.362 33.0275 78.8975 33.15 79.3805 33.395C79.8705 33.64 80.2905 33.997 80.6405 34.466C80.9975 34.928 81.2705 35.502 81.4595 36.188C81.6555 36.867 81.7535 37.6475 81.7535 38.5295C81.7535 39.3345 81.645 40.08 81.428 40.766C81.211 41.452 80.8995 42.047 80.4935 42.551C80.0945 43.055 79.608 43.4505 79.034 43.7375C78.467 44.0175 77.83 44.1575 77.123 44.1575C76.521 44.1575 76.0065 44.0665 75.5795 43.8845C75.1525 43.6955 74.771 43.4365 74.435 43.1075V47.5175H71.8415V33.227H73.427C73.763 33.227 73.9835 33.3845 74.0885 33.6995L74.2985 34.697ZM86.3706 41.207C86.6646 41.564 86.9831 41.816 87.3261 41.963C87.6761 42.11 88.0541 42.1835 88.4601 42.1835C88.8521 42.1835 89.2056 42.11 89.5206 41.963C89.8356 41.816 90.1016 41.592 90.3186 41.291C90.5426 40.99 90.7141 40.612 90.8331 40.157C90.9521 39.695 91.0116 39.1525 91.0116 38.5295C91.0116 37.8995 90.9591 37.3675 90.8541 36.9335C90.7561 36.4925 90.6126 36.1355 90.4236 35.8625C90.2346 35.5895 90.0036 35.39 89.7306 35.264C89.4646 35.138 89.1601 35.075 88.8171 35.075C88.2781 35.075 87.8196 35.1905 87.4416 35.4215C87.0636 35.6455 86.7066 35.964 86.3706 36.377V41.207ZM86.2341 34.697C86.6751 34.2 87.1756 33.7975 87.7356 33.4895C88.2956 33.1815 88.9536 33.0275 89.7096 33.0275C90.2976 33.0275 90.8331 33.15 91.3161 33.395C91.8061 33.64 92.2261 33.997 92.5761 34.466C92.9331 34.928 93.2061 35.502 93.3951 36.188C93.5911 36.867 93.6891 37.6475 93.6891 38.5295C93.6891 39.3345 93.5806 40.08 93.3636 40.766C93.1466 41.452 92.8351 42.047 92.4291 42.551C92.0301 43.055 91.5436 43.4505 90.9696 43.7375C90.4026 44.0175 89.7656 44.1575 89.0586 44.1575C88.4566 44.1575 87.9421 44.0665 87.5151 43.8845C87.0881 43.6955 86.7066 43.4365 86.3706 43.1075V47.5175H83.7771V33.227H85.3626C85.6986 33.227 85.9191 33.3845 86.0241 33.6995L86.2341 34.697ZM109.314 31.5785C109.23 31.7255 109.139 31.834 109.041 31.904C108.95 31.967 108.834 31.9985 108.694 31.9985C108.547 31.9985 108.386 31.946 108.211 31.841C108.043 31.729 107.84 31.6065 107.602 31.4735C107.364 31.3405 107.084 31.2215 106.762 31.1165C106.447 31.0045 106.073 30.9485 105.639 30.9485C105.247 30.9485 104.904 30.9975 104.61 31.0955C104.316 31.1865 104.067 31.316 103.864 31.484C103.668 31.652 103.521 31.855 103.423 32.093C103.325 32.324 103.276 32.5795 103.276 32.8595C103.276 33.2165 103.374 33.514 103.57 33.752C103.773 33.99 104.039 34.193 104.368 34.361C104.697 34.529 105.072 34.6795 105.492 34.8125C105.912 34.9455 106.342 35.089 106.783 35.243C107.224 35.39 107.655 35.565 108.075 35.768C108.495 35.964 108.869 36.216 109.198 36.524C109.527 36.825 109.79 37.196 109.986 37.637C110.189 38.078 110.29 38.6135 110.29 39.2435C110.29 39.9295 110.171 40.5735 109.933 41.1755C109.702 41.7705 109.359 42.292 108.904 42.74C108.456 43.181 107.907 43.531 107.256 43.79C106.605 44.042 105.859 44.168 105.019 44.168C104.536 44.168 104.06 44.119 103.591 44.021C103.122 43.93 102.671 43.797 102.237 43.622C101.81 43.447 101.407 43.237 101.029 42.992C100.651 42.747 100.315 42.474 100.021 42.173L100.851 40.8185C100.921 40.7205 101.012 40.64 101.124 40.577C101.236 40.507 101.355 40.472 101.481 40.472C101.656 40.472 101.845 40.5455 102.048 40.6925C102.251 40.8325 102.492 40.99 102.772 41.165C103.052 41.34 103.378 41.501 103.749 41.648C104.127 41.788 104.578 41.858 105.103 41.858C105.908 41.858 106.531 41.669 106.972 41.291C107.413 40.906 107.634 40.3565 107.634 39.6425C107.634 39.2435 107.532 38.918 107.329 38.666C107.133 38.414 106.871 38.204 106.542 38.036C106.213 37.861 105.838 37.714 105.418 37.595C104.998 37.476 104.571 37.3465 104.137 37.2065C103.703 37.0665 103.276 36.8985 102.856 36.7025C102.436 36.5065 102.062 36.251 101.733 35.936C101.404 35.621 101.138 35.229 100.935 34.76C100.739 34.284 100.641 33.6995 100.641 33.0065C100.641 32.4535 100.749 31.9145 100.966 31.3895C101.19 30.8645 101.512 30.399 101.932 29.993C102.352 29.587 102.87 29.2615 103.486 29.0165C104.102 28.7715 104.809 28.649 105.607 28.649C106.503 28.649 107.329 28.789 108.085 29.069C108.841 29.349 109.485 29.741 110.017 30.245L109.314 31.5785ZM115.464 44.168C114.526 44.168 113.805 43.9055 113.301 43.3805C112.804 42.8485 112.555 42.117 112.555 41.186V35.1695H111.453C111.313 35.1695 111.194 35.124 111.096 35.033C110.998 34.942 110.949 34.8055 110.949 34.6235V33.5945L112.681 33.311L113.227 30.371C113.262 30.231 113.329 30.1225 113.427 30.0455C113.525 29.9685 113.651 29.93 113.805 29.93H115.149V33.3215H118.026V35.1695H115.149V41.0075C115.149 41.3435 115.229 41.606 115.39 41.795C115.558 41.984 115.786 42.0785 116.073 42.0785C116.234 42.0785 116.367 42.061 116.472 42.026C116.584 41.984 116.678 41.942 116.755 41.9C116.839 41.858 116.913 41.8195 116.976 41.7845C117.039 41.7425 117.102 41.7215 117.165 41.7215C117.242 41.7215 117.305 41.7425 117.354 41.7845C117.403 41.8195 117.455 41.8755 117.511 41.9525L118.288 43.2125C117.91 43.5275 117.476 43.7655 116.986 43.9265C116.496 44.0875 115.989 44.168 115.464 44.168ZM124.371 33.059C125.169 33.059 125.894 33.1885 126.545 33.4475C127.203 33.7065 127.763 34.074 128.225 34.55C128.694 35.026 129.054 35.607 129.306 36.293C129.558 36.979 129.684 37.7455 129.684 38.5925C129.684 39.4465 129.558 40.2165 129.306 40.9025C129.054 41.5885 128.694 42.173 128.225 42.656C127.763 43.139 127.203 43.51 126.545 43.769C125.894 44.028 125.169 44.1575 124.371 44.1575C123.566 44.1575 122.835 44.028 122.177 43.769C121.519 43.51 120.955 43.139 120.486 42.656C120.024 42.173 119.664 41.5885 119.405 40.9025C119.153 40.2165 119.027 39.4465 119.027 38.5925C119.027 37.7455 119.153 36.979 119.405 36.293C119.664 35.607 120.024 35.026 120.486 34.55C120.955 34.074 121.519 33.7065 122.177 33.4475C122.835 33.1885 123.566 33.059 124.371 33.059ZM124.371 42.1625C125.267 42.1625 125.929 41.8615 126.356 41.2595C126.79 40.6575 127.007 39.7755 127.007 38.6135C127.007 37.4515 126.79 36.566 126.356 35.957C125.929 35.348 125.267 35.0435 124.371 35.0435C123.461 35.0435 122.786 35.3515 122.345 35.9675C121.911 36.5765 121.694 37.4585 121.694 38.6135C121.694 39.7685 121.911 40.6505 122.345 41.2595C122.786 41.8615 123.461 42.1625 124.371 42.1625ZM134.109 35.096C134.445 34.452 134.844 33.948 135.306 33.584C135.768 33.213 136.314 33.0275 136.944 33.0275C137.441 33.0275 137.84 33.136 138.141 33.353L137.973 35.2955C137.938 35.4215 137.886 35.5125 137.816 35.5685C137.753 35.6175 137.665 35.642 137.553 35.642C137.448 35.642 137.291 35.6245 137.081 35.5895C136.878 35.5545 136.678 35.537 136.482 35.537C136.195 35.537 135.94 35.579 135.716 35.663C135.492 35.747 135.289 35.8695 135.107 36.0305C134.932 36.1845 134.774 36.3735 134.634 36.5975C134.501 36.8215 134.375 37.077 134.256 37.364V44H131.663V33.227H133.185C133.451 33.227 133.637 33.276 133.742 33.374C133.847 33.465 133.917 33.633 133.952 33.878L134.109 35.096ZM146.13 37.3745C146.13 37.0385 146.081 36.7235 145.983 36.4295C145.892 36.1285 145.752 35.866 145.563 35.642C145.374 35.418 145.132 35.243 144.838 35.117C144.551 34.984 144.215 34.9175 143.83 34.9175C143.081 34.9175 142.49 35.131 142.056 35.558C141.629 35.985 141.356 36.5905 141.237 37.3745H146.13ZM141.184 38.939C141.226 39.492 141.324 39.9715 141.478 40.3775C141.632 40.7765 141.835 41.109 142.087 41.375C142.339 41.634 142.637 41.83 142.98 41.963C143.33 42.089 143.715 42.152 144.135 42.152C144.555 42.152 144.915 42.103 145.216 42.005C145.524 41.907 145.79 41.7985 146.014 41.6795C146.245 41.5605 146.445 41.452 146.613 41.354C146.788 41.256 146.956 41.207 147.117 41.207C147.334 41.207 147.495 41.2875 147.6 41.4485L148.345 42.3935C148.058 42.7295 147.736 43.013 147.379 43.244C147.022 43.468 146.648 43.65 146.256 43.79C145.871 43.923 145.475 44.0175 145.069 44.0735C144.67 44.1295 144.282 44.1575 143.904 44.1575C143.155 44.1575 142.458 44.035 141.814 43.79C141.17 43.538 140.61 43.1705 140.134 42.6875C139.658 42.1975 139.284 41.5955 139.011 40.8815C138.738 40.1605 138.601 39.3275 138.601 38.3825C138.601 37.6475 138.72 36.958 138.958 36.314C139.196 35.663 139.536 35.0995 139.977 34.6235C140.425 34.1405 140.967 33.759 141.604 33.479C142.248 33.199 142.973 33.059 143.778 33.059C144.457 33.059 145.083 33.1675 145.657 33.3845C146.231 33.6015 146.725 33.92 147.138 34.34C147.551 34.753 147.873 35.264 148.104 35.873C148.342 36.475 148.461 37.1645 148.461 37.9415C148.461 38.3335 148.419 38.5995 148.335 38.7395C148.251 38.8725 148.09 38.939 147.852 38.939H141.184Z" fill="white"/>
</svg>
