<svg width="172" height="58" viewBox="0 0 172 58" fill="none" xmlns="http://www.w3.org/2000/svg">
<rect width="172" height="58" rx="6" fill="#020414"/>
<path d="M19 15.7797V41.219C19.0002 41.2742 19.0161 41.3282 19.0457 41.374C19.0753 41.4199 19.1174 41.4557 19.1666 41.4769C19.2158 41.4981 19.2699 41.5039 19.3222 41.4933C19.3745 41.4828 19.4227 41.4565 19.4606 41.4178L32.2501 28.5L19.4606 15.5809C19.4227 15.5422 19.3745 15.5159 19.3222 15.5054C19.2699 15.4949 19.2158 15.5006 19.1666 15.5218C19.1174 15.543 19.0753 15.5788 19.0457 15.6247C19.0161 15.6705 19.0002 15.7245 19 15.7797ZM37.6126 23.192L21.5763 14.0416L21.5663 14.0358C21.29 13.8804 21.0275 14.2675 21.2538 14.4928L33.8245 26.9419L37.6126 23.192ZM21.255 42.5072C21.0275 42.7325 21.29 43.1196 21.5675 42.9642L21.5775 42.9584L37.6126 33.808L33.8245 30.0568L21.255 42.5072ZM44.0864 26.8817L39.6082 24.3274L35.3976 28.5L39.6082 32.6706L44.0864 30.1183C45.3045 29.4211 45.3045 27.5789 44.0864 26.8817Z" fill="white"/>
<path d="M64.4415 18.0125V21.23C64.0382 21.527 63.6073 21.7452 63.149 21.8845C62.6943 22.0202 62.2067 22.088 61.686 22.088C61.037 22.088 60.4485 21.9872 59.9205 21.7855C59.3962 21.5838 58.947 21.3033 58.573 20.944C58.2027 20.5847 57.9167 20.1557 57.715 19.657C57.5133 19.1583 57.4125 18.6138 57.4125 18.0235C57.4125 17.4258 57.5097 16.8777 57.704 16.379C57.8983 15.8803 58.1733 15.4513 58.529 15.092C58.8883 14.7327 59.3228 14.454 59.8325 14.256C60.3422 14.058 60.9142 13.959 61.5485 13.959C61.8712 13.959 62.1718 13.9847 62.4505 14.036C62.7328 14.0873 62.9932 14.1588 63.2315 14.2505C63.4735 14.3385 63.6935 14.4467 63.8915 14.575C64.0895 14.7033 64.271 14.8445 64.436 14.9985L64.0125 15.6695C63.9465 15.7758 63.8603 15.8418 63.754 15.8675C63.6477 15.8895 63.5322 15.862 63.4075 15.785C63.2865 15.7153 63.1655 15.6457 63.0445 15.576C62.9235 15.5063 62.7878 15.4458 62.6375 15.3945C62.4908 15.3432 62.324 15.301 62.137 15.268C61.9537 15.235 61.741 15.2185 61.499 15.2185C61.1067 15.2185 60.751 15.2845 60.432 15.4165C60.1167 15.5485 59.8472 15.7373 59.6235 15.983C59.3998 16.2287 59.2275 16.5238 59.1065 16.8685C58.9855 17.2132 58.925 17.5982 58.925 18.0235C58.925 18.4782 58.9892 18.8852 59.1175 19.2445C59.2495 19.6002 59.4328 19.9027 59.6675 20.152C59.9058 20.3977 60.1918 20.5865 60.5255 20.7185C60.8592 20.8468 61.2313 20.911 61.642 20.911C61.9353 20.911 62.1975 20.8798 62.4285 20.8175C62.6595 20.7552 62.885 20.6708 63.105 20.5645V19.1235H62.104C62.0087 19.1235 61.9335 19.0978 61.8785 19.0465C61.8272 18.9915 61.8015 18.9255 61.8015 18.8485V18.0125H64.4415ZM67.3519 15.224V17.4295H70.1349V18.568H67.3519V20.8175H70.8829V22H65.8669V14.047H70.8829V15.224H67.3519ZM77.7491 15.2625H75.3511V22H73.8716V15.2625H71.4736V14.047H77.7491V15.2625ZM82.6166 22H81.1316V14.047H82.6166V22ZM89.9522 15.2625H87.5542V22H86.0747V15.2625H83.6767V14.047H89.9522V15.2625ZM100.919 18.0235C100.919 18.6065 100.822 19.1473 100.628 19.646C100.437 20.141 100.166 20.57 99.8137 20.933C99.4617 21.296 99.0382 21.5802 98.5432 21.7855C98.0482 21.9872 97.4982 22.088 96.8932 22.088C96.2919 22.088 95.7437 21.9872 95.2487 21.7855C94.7537 21.5802 94.3284 21.296 93.9727 20.933C93.6207 20.57 93.3476 20.141 93.1532 19.646C92.9589 19.1473 92.8617 18.6065 92.8617 18.0235C92.8617 17.4405 92.9589 16.9015 93.1532 16.4065C93.3476 15.9078 93.6207 15.477 93.9727 15.114C94.3284 14.751 94.7537 14.4687 95.2487 14.267C95.7437 14.0617 96.2919 13.959 96.8932 13.959C97.2966 13.959 97.6761 14.0067 98.0317 14.102C98.3874 14.1937 98.7137 14.3257 99.0107 14.498C99.3077 14.6667 99.5736 14.8738 99.8082 15.1195C100.047 15.3615 100.248 15.6328 100.413 15.9335C100.578 16.2342 100.703 16.5605 100.787 16.9125C100.875 17.2645 100.919 17.6348 100.919 18.0235ZM99.4067 18.0235C99.4067 17.5872 99.3481 17.1967 99.2307 16.852C99.1134 16.5037 98.9466 16.2085 98.7302 15.9665C98.5139 15.7245 98.2499 15.5393 97.9382 15.411C97.6302 15.2827 97.2819 15.2185 96.8932 15.2185C96.5046 15.2185 96.1544 15.2827 95.8427 15.411C95.5347 15.5393 95.2707 15.7245 95.0507 15.9665C94.8344 16.2085 94.6676 16.5037 94.5502 16.852C94.4329 17.1967 94.3742 17.5872 94.3742 18.0235C94.3742 18.4598 94.4329 18.8522 94.5502 19.2005C94.6676 19.5452 94.8344 19.8385 95.0507 20.0805C95.2707 20.3188 95.5347 20.5022 95.8427 20.6305C96.1544 20.7588 96.5046 20.823 96.8932 20.823C97.2819 20.823 97.6302 20.7588 97.9382 20.6305C98.2499 20.5022 98.5139 20.3188 98.7302 20.0805C98.9466 19.8385 99.1134 19.5452 99.2307 19.2005C99.3481 18.8522 99.4067 18.4598 99.4067 18.0235ZM108.923 14.047V22H108.164C108.047 22 107.948 21.9817 107.867 21.945C107.79 21.9047 107.715 21.8387 107.642 21.747L103.489 16.445C103.511 16.687 103.522 16.9107 103.522 17.116V22H102.219V14.047H102.994C103.056 14.047 103.11 14.0507 103.154 14.058C103.201 14.0617 103.242 14.0727 103.275 14.091C103.311 14.1057 103.346 14.1295 103.379 14.1625C103.412 14.1918 103.449 14.2322 103.489 14.2835L107.658 19.6075C107.647 19.4792 107.638 19.3527 107.631 19.228C107.623 19.1033 107.62 18.9878 107.62 18.8815V14.047H108.923Z" fill="#AFB0B4"/>
<path d="M62.647 29.981C65.299 29.981 67.407 31.324 68.172 33.704H65.435C64.891 32.701 63.905 32.174 62.647 32.174C60.522 32.174 59.043 33.687 59.043 36.05C59.043 38.464 60.539 39.96 62.749 39.96C64.585 39.96 65.758 38.906 66.115 37.223H62.035V35.404H68.461V37.478C67.985 39.892 65.826 42.102 62.664 42.102C59.213 42.102 56.595 39.603 56.595 36.05C56.595 32.497 59.213 29.981 62.647 29.981ZM79.3168 37.291C79.3168 40.249 77.1408 42.153 74.4038 42.153C71.6838 42.153 69.6268 40.249 69.6268 37.291C69.6268 34.316 71.7518 32.429 74.4718 32.429C77.1918 32.429 79.3168 34.316 79.3168 37.291ZM72.0408 37.291C72.0408 39.161 73.1288 40.079 74.4038 40.079C75.6618 40.079 76.8688 39.161 76.8688 37.291C76.8688 35.404 75.6958 34.503 74.4378 34.503C73.1798 34.503 72.0408 35.404 72.0408 37.291ZM90.1576 37.291C90.1576 40.249 87.9816 42.153 85.2446 42.153C82.5246 42.153 80.4676 40.249 80.4676 37.291C80.4676 34.316 82.5926 32.429 85.3126 32.429C88.0326 32.429 90.1576 34.316 90.1576 37.291ZM82.8816 37.291C82.8816 39.161 83.9696 40.079 85.2446 40.079C86.5026 40.079 87.7096 39.161 87.7096 37.291C87.7096 35.404 86.5366 34.503 85.2786 34.503C84.0206 34.503 82.8816 35.404 82.8816 37.291ZM91.2915 37.257C91.2915 34.316 93.1955 32.429 95.5925 32.429C97.0715 32.429 98.1425 33.109 98.7035 33.925V32.582H101.1V42.068C101.1 44.618 99.5365 46.641 96.4425 46.641C93.7905 46.641 91.9375 45.315 91.6995 43.156H94.0625C94.3005 44.006 95.1845 44.567 96.3745 44.567C97.6835 44.567 98.7035 43.819 98.7035 42.068V40.606C98.1425 41.422 97.0715 42.153 95.5925 42.153C93.1955 42.153 91.2915 40.198 91.2915 37.257ZM98.7035 37.291C98.7035 35.506 97.5135 34.52 96.2045 34.52C94.9295 34.52 93.7225 35.472 93.7225 37.257C93.7225 39.042 94.9295 40.062 96.2045 40.062C97.5135 40.062 98.7035 39.076 98.7035 37.291ZM103.425 42V29.42H105.805V42H103.425ZM112.202 34.384C111.063 34.384 110.162 35.115 109.975 36.407H114.446C114.412 35.166 113.426 34.384 112.202 34.384ZM116.673 39.042C116.163 40.776 114.599 42.153 112.27 42.153C109.533 42.153 107.544 40.249 107.544 37.291C107.544 34.316 109.482 32.429 112.27 32.429C114.99 32.429 116.911 34.282 116.911 37.087C116.911 37.393 116.894 37.699 116.843 38.005H109.958C110.077 39.399 111.029 40.181 112.219 40.181C113.239 40.181 113.8 39.671 114.106 39.042H116.673ZM125.079 35.523H126.966C128.309 35.523 128.904 34.86 128.904 33.806C128.904 32.718 128.309 32.072 126.966 32.072H125.079V35.523ZM131.352 33.806C131.352 35.608 130.128 37.444 127.068 37.444H125.079V42H122.699V30.134H127.068C129.924 30.134 131.352 31.749 131.352 33.806ZM133.042 42V29.42H135.422V42H133.042ZM137.162 37.257C137.162 34.316 139.066 32.429 141.463 32.429C142.976 32.429 144.013 33.143 144.574 33.925V32.582H146.971V42H144.574V40.623C144.013 41.439 142.942 42.153 141.446 42.153C139.066 42.153 137.162 40.198 137.162 37.257ZM144.574 37.291C144.574 35.506 143.384 34.52 142.075 34.52C140.8 34.52 139.593 35.472 139.593 37.257C139.593 39.042 140.8 40.062 142.075 40.062C143.384 40.062 144.574 39.076 144.574 37.291ZM153.307 39.161L155.772 32.582H158.305L152.474 46.454H149.941L151.981 41.762L148.207 32.582H150.876L153.307 39.161Z" fill="white"/>
</svg>
