<svg width="146" height="50" viewBox="0 0 146 50" fill="none" xmlns="http://www.w3.org/2000/svg">
<rect y="0.480225" width="145.427" height="49.0393" rx="5.07303" fill="#FAFAFA"/>
<path d="M33.2534 36.5971C31.7237 38.0249 30.0536 37.7995 28.4459 37.1231C26.7445 36.4318 25.1836 36.4017 23.3886 37.1231C21.1409 38.055 19.9546 37.7844 18.6123 36.5971C10.9951 29.0374 12.119 17.5249 20.7663 17.1041C22.8735 17.2093 24.3407 18.2163 25.5738 18.3064C27.4157 17.9457 29.1795 16.9087 31.1462 17.044C33.5032 17.2243 35.2826 18.1261 36.4533 19.7493C31.5833 22.5597 32.7383 28.7368 37.2025 30.4652C36.3128 32.7196 35.1577 34.9589 33.2378 36.6122L33.2534 36.5971ZM25.4177 17.0139C25.1836 13.6624 28.0088 10.897 31.2555 10.6265C31.7081 14.504 27.603 17.3897 25.4177 17.0139Z" fill="#101335"/>
<path d="M55.4732 16.1284C55.4732 16.6695 55.3852 17.165 55.2094 17.6148C55.0335 18.0612 54.7849 18.4451 54.4636 18.7664C54.1457 19.0877 53.7619 19.338 53.3121 19.5172C52.8656 19.6931 52.3685 19.781 51.8206 19.781H49.0608V12.4758H51.8206C52.3685 12.4758 52.8656 12.5655 53.3121 12.7447C53.7619 12.9206 54.1457 13.1692 54.4636 13.4904C54.7849 13.8117 55.0335 14.1973 55.2094 14.6471C55.3852 15.0935 55.4732 15.5873 55.4732 16.1284ZM54.2607 16.1284C54.2607 15.7091 54.2032 15.332 54.0882 14.9971C53.9766 14.6623 53.8143 14.3799 53.6012 14.1499C53.3915 13.92 53.1362 13.7441 52.8352 13.6223C52.5342 13.4972 52.196 13.4346 51.8206 13.4346H50.253V18.8222H51.8206C52.196 18.8222 52.5342 18.7613 52.8352 18.6396C53.1362 18.5178 53.3915 18.342 53.6012 18.112C53.8143 17.8786 53.9766 17.5962 54.0882 17.2648C54.2032 16.93 54.2607 16.5512 54.2607 16.1284ZM58.7443 14.5253C59.1265 14.5253 59.4715 14.5879 59.7792 14.713C60.0904 14.8382 60.3542 15.0157 60.5706 15.2457C60.7904 15.4757 60.9595 15.7547 61.0779 16.0828C61.1963 16.4108 61.2555 16.7795 61.2555 17.1887C61.2555 17.5979 61.1963 17.9666 61.0779 18.2946C60.9595 18.6227 60.7904 18.9034 60.5706 19.1367C60.3542 19.3667 60.0904 19.5443 59.7792 19.6694C59.4715 19.7945 59.1265 19.8571 58.7443 19.8571C58.3588 19.8571 58.0104 19.7945 57.6993 19.6694C57.3915 19.5443 57.1277 19.3667 56.9079 19.1367C56.688 18.9034 56.5189 18.6227 56.4006 18.2946C56.2822 17.9666 56.223 17.5979 56.223 17.1887C56.223 16.7795 56.2822 16.4108 56.4006 16.0828C56.5189 15.7547 56.688 15.4757 56.9079 15.2457C57.1277 15.0157 57.3915 14.8382 57.6993 14.713C58.0104 14.5879 58.3588 14.5253 58.7443 14.5253ZM58.7443 19.0048C59.211 19.0048 59.5577 18.8493 59.7843 18.5381C60.0143 18.2236 60.1293 17.7755 60.1293 17.1938C60.1293 16.6121 60.0143 16.1639 59.7843 15.8494C59.5577 15.5315 59.211 15.3725 58.7443 15.3725C58.2708 15.3725 57.9191 15.5315 57.6891 15.8494C57.4591 16.1639 57.3442 16.6121 57.3442 17.1938C57.3442 17.7755 57.4591 18.2236 57.6891 18.5381C57.9191 18.8493 58.2708 19.0048 58.7443 19.0048ZM69.4938 14.6065L67.835 19.781H66.9675C66.866 19.781 66.795 19.7151 66.7544 19.5832L65.7246 16.3618C65.6975 16.2705 65.6722 16.1792 65.6485 16.0878C65.6282 15.9965 65.6096 15.9069 65.5927 15.819C65.5555 16.0016 65.5098 16.1842 65.4557 16.3669L64.4107 19.5832C64.3735 19.7151 64.294 19.781 64.1722 19.781H63.3453L61.6864 14.6065H62.5489C62.6334 14.6065 62.7027 14.6285 62.7569 14.6725C62.8143 14.713 62.8515 14.7621 62.8685 14.8196L63.7309 17.833C63.7647 17.9716 63.7934 18.1069 63.8171 18.2388C63.8442 18.3673 63.8678 18.4958 63.8881 18.6244C63.922 18.4958 63.9575 18.3673 63.9947 18.2388C64.0319 18.1069 64.0708 17.9716 64.1114 17.833L65.0803 14.8044C65.0972 14.7435 65.131 14.6944 65.1818 14.6572C65.2359 14.6167 65.3001 14.5964 65.3745 14.5964H65.8514C65.9292 14.5964 65.9951 14.6167 66.0492 14.6572C66.1034 14.6944 66.1389 14.7435 66.1558 14.8044L67.0994 17.833C67.14 17.9716 67.1772 18.1069 67.211 18.2388C67.2482 18.3707 67.282 18.5026 67.3124 18.6345C67.3361 18.506 67.3615 18.3758 67.3885 18.2439C67.4156 18.112 67.4477 17.975 67.4849 17.833L68.3626 14.8196C68.3828 14.7587 68.42 14.708 68.4742 14.6674C68.5283 14.6268 68.5942 14.6065 68.672 14.6065H69.4938ZM71.3092 15.2914C71.4208 15.1764 71.5358 15.0732 71.6542 14.9819C71.7759 14.8872 71.9044 14.8061 72.0397 14.7384C72.175 14.6708 72.3187 14.6183 72.4709 14.5811C72.6231 14.5439 72.7888 14.5253 72.9681 14.5253C73.2522 14.5253 73.5007 14.5727 73.7138 14.6674C73.9303 14.7621 74.1112 14.8957 74.2566 15.0682C74.4054 15.2406 74.517 15.4486 74.5914 15.6921C74.6659 15.9323 74.7031 16.1978 74.7031 16.4886V19.781H73.6174V16.4886C73.6174 16.1403 73.5363 15.8697 73.3739 15.6769C73.215 15.4841 72.9715 15.3878 72.6434 15.3878C72.3999 15.3878 72.1733 15.4436 71.9636 15.5552C71.7573 15.6668 71.5628 15.819 71.3802 16.0117V19.781H70.2895V14.6065H70.949C71.0978 14.6065 71.1925 14.6758 71.2331 14.8145L71.3092 15.2914ZM77.0879 12.2729V19.781H75.9972V12.2729H77.0879ZM80.6713 14.5253C81.0535 14.5253 81.3985 14.5879 81.7062 14.713C82.0174 14.8382 82.2812 15.0157 82.4976 15.2457C82.7174 15.4757 82.8865 15.7547 83.0049 16.0828C83.1233 16.4108 83.1825 16.7795 83.1825 17.1887C83.1825 17.5979 83.1233 17.9666 83.0049 18.2946C82.8865 18.6227 82.7174 18.9034 82.4976 19.1367C82.2812 19.3667 82.0174 19.5443 81.7062 19.6694C81.3985 19.7945 81.0535 19.8571 80.6713 19.8571C80.2858 19.8571 79.9374 19.7945 79.6263 19.6694C79.3185 19.5443 79.0547 19.3667 78.8349 19.1367C78.615 18.9034 78.4459 18.6227 78.3276 18.2946C78.2092 17.9666 78.15 17.5979 78.15 17.1887C78.15 16.7795 78.2092 16.4108 78.3276 16.0828C78.4459 15.7547 78.615 15.4757 78.8349 15.2457C79.0547 15.0157 79.3185 14.8382 79.6263 14.713C79.9374 14.5879 80.2858 14.5253 80.6713 14.5253ZM80.6713 19.0048C81.138 19.0048 81.4847 18.8493 81.7113 18.5381C81.9413 18.2236 82.0563 17.7755 82.0563 17.1938C82.0563 16.6121 81.9413 16.1639 81.7113 15.8494C81.4847 15.5315 81.138 15.3725 80.6713 15.3725C80.1978 15.3725 79.8461 15.5315 79.6161 15.8494C79.3861 16.1639 79.2712 16.6121 79.2712 17.1938C79.2712 17.7755 79.3861 18.2236 79.6161 18.5381C79.8461 18.8493 80.1978 19.0048 80.6713 19.0048ZM86.9953 17.5184C86.6063 17.532 86.2783 17.5641 86.0111 17.6148C85.7439 17.6622 85.5275 17.7247 85.3617 17.8025C85.196 17.8769 85.076 17.9666 85.0015 18.0714C84.9305 18.1762 84.895 18.2912 84.895 18.4164C84.895 18.5381 84.9136 18.643 84.9508 18.7309C84.9914 18.8154 85.0455 18.8865 85.1132 18.944C85.1842 18.9981 85.2653 19.0387 85.3567 19.0657C85.4514 19.0894 85.5545 19.1012 85.6661 19.1012C85.9502 19.1012 86.1937 19.0488 86.3966 18.944C86.6029 18.8357 86.8025 18.6802 86.9953 18.4772V17.5184ZM84.1036 15.3269C84.6887 14.7824 85.3854 14.5101 86.1937 14.5101C86.4913 14.5101 86.7551 14.5592 86.9851 14.6572C87.2185 14.7519 87.4129 14.8872 87.5685 15.0631C87.7275 15.2389 87.8475 15.4486 87.9287 15.6921C88.0132 15.9323 88.0555 16.1994 88.0555 16.4937V19.781H87.5685C87.4637 19.781 87.3842 19.7658 87.3301 19.7353C87.276 19.7015 87.2303 19.6356 87.1931 19.5375L87.0866 19.1164C86.9547 19.2348 86.8245 19.3413 86.6959 19.436C86.5674 19.5274 86.4338 19.6051 86.2952 19.6694C86.1599 19.7337 86.0128 19.781 85.8538 19.8114C85.6982 19.8453 85.5258 19.8622 85.3364 19.8622C85.1267 19.8622 84.9305 19.8334 84.7479 19.7759C84.5686 19.7184 84.4131 19.6322 84.2812 19.5172C84.1493 19.3988 84.0444 19.2534 83.9666 19.0809C83.8922 18.9084 83.855 18.7055 83.855 18.4722C83.855 18.2726 83.9075 18.0782 84.0123 17.8888C84.1205 17.6994 84.2964 17.5303 84.5399 17.3815C84.7868 17.2293 85.1098 17.1041 85.5089 17.0061C85.9113 16.908 86.4068 16.8522 86.9953 16.8386V16.4937C86.9953 16.1217 86.9158 15.8443 86.7568 15.6617C86.5979 15.4791 86.3645 15.3878 86.0567 15.3878C85.8471 15.3878 85.6712 15.4148 85.5291 15.4689C85.3871 15.5197 85.2637 15.5755 85.1588 15.6363C85.054 15.6972 84.961 15.7547 84.8798 15.8088C84.7986 15.8596 84.7124 15.8849 84.6211 15.8849C84.5467 15.8849 84.4824 15.8663 84.4283 15.8291C84.3776 15.7885 84.3353 15.7395 84.3015 15.682L84.1036 15.3269ZM92.6358 15.8798C92.4836 15.6837 92.3162 15.5467 92.1335 15.4689C91.9509 15.3911 91.753 15.3522 91.54 15.3522C91.1138 15.3522 90.7807 15.5095 90.5406 15.824C90.3005 16.1352 90.1804 16.5968 90.1804 17.209C90.1804 17.5269 90.2075 17.7991 90.2616 18.0257C90.3157 18.2489 90.3935 18.4316 90.4949 18.5736C90.5964 18.7157 90.7198 18.8188 90.8653 18.8831C91.0107 18.9473 91.1747 18.9795 91.3573 18.9795C91.6347 18.9795 91.8731 18.9203 92.0726 18.8019C92.2756 18.6802 92.4633 18.5094 92.6358 18.2895V15.8798ZM93.7265 12.2729V19.781H93.067C92.9215 19.781 92.8285 19.7117 92.7879 19.573L92.6916 19.0099C92.4751 19.2636 92.2282 19.4682 91.9509 19.6237C91.6769 19.7793 91.3573 19.8571 90.9921 19.8571C90.7012 19.8571 90.4374 19.7996 90.2007 19.6846C89.964 19.5662 89.761 19.3955 89.5919 19.1722C89.4228 18.949 89.2909 18.6734 89.1962 18.3453C89.1049 18.0139 89.0593 17.6351 89.0593 17.209C89.0593 16.8234 89.11 16.4666 89.2115 16.1386C89.3163 15.8105 89.4651 15.5264 89.6579 15.2863C89.8507 15.0428 90.084 14.8534 90.358 14.7181C90.6353 14.5795 90.9447 14.5101 91.2863 14.5101C91.5907 14.5101 91.8494 14.5592 92.0625 14.6572C92.2756 14.7519 92.4667 14.8855 92.6358 15.058V12.2729H93.7265ZM99.824 14.5253C100.206 14.5253 100.551 14.5879 100.859 14.713C101.17 14.8382 101.434 15.0157 101.65 15.2457C101.87 15.4757 102.039 15.7547 102.158 16.0828C102.276 16.4108 102.335 16.7795 102.335 17.1887C102.335 17.5979 102.276 17.9666 102.158 18.2946C102.039 18.6227 101.87 18.9034 101.65 19.1367C101.434 19.3667 101.17 19.5443 100.859 19.6694C100.551 19.7945 100.206 19.8571 99.824 19.8571C99.4385 19.8571 99.0901 19.7945 98.779 19.6694C98.4712 19.5443 98.2074 19.3667 97.9876 19.1367C97.7677 18.9034 97.5986 18.6227 97.4803 18.2946C97.3619 17.9666 97.3027 17.5979 97.3027 17.1887C97.3027 16.7795 97.3619 16.4108 97.4803 16.0828C97.5986 15.7547 97.7677 15.4757 97.9876 15.2457C98.2074 15.0157 98.4712 14.8382 98.779 14.713C99.0901 14.5879 99.4385 14.5253 99.824 14.5253ZM99.824 19.0048C100.291 19.0048 100.637 18.8493 100.864 18.5381C101.094 18.2236 101.209 17.7755 101.209 17.1938C101.209 16.6121 101.094 16.1639 100.864 15.8494C100.637 15.5315 100.291 15.3725 99.824 15.3725C99.3505 15.3725 98.9988 15.5315 98.7688 15.8494C98.5388 16.1639 98.4238 16.6121 98.4238 17.1938C98.4238 17.7755 98.5388 18.2236 98.7688 18.5381C98.9988 18.8493 99.3505 19.0048 99.824 19.0048ZM104.403 15.2914C104.514 15.1764 104.629 15.0732 104.748 14.9819C104.87 14.8872 104.998 14.8061 105.133 14.7384C105.269 14.6708 105.412 14.6183 105.565 14.5811C105.717 14.5439 105.882 14.5253 106.062 14.5253C106.346 14.5253 106.594 14.5727 106.807 14.6674C107.024 14.7621 107.205 14.8957 107.35 15.0682C107.499 15.2406 107.611 15.4486 107.685 15.6921C107.759 15.9323 107.797 16.1978 107.797 16.4886V19.781H106.711V16.4886C106.711 16.1403 106.63 15.8697 106.468 15.6769C106.309 15.4841 106.065 15.3878 105.737 15.3878C105.494 15.3878 105.267 15.4436 105.057 15.5552C104.851 15.6668 104.656 15.819 104.474 16.0117V19.781H103.383V14.6065H104.043C104.191 14.6065 104.286 14.6758 104.327 14.8145L104.403 15.2914ZM113.256 19.8622C112.826 19.8622 112.495 19.7421 112.262 19.502C112.032 19.2585 111.917 18.9169 111.917 18.4772V15.4639H111.349C111.288 15.4639 111.235 15.4453 111.191 15.4081C111.147 15.3675 111.125 15.3083 111.125 15.2305V14.7891L111.962 14.6674L112.201 13.1708C112.218 13.1133 112.246 13.0677 112.287 13.0339C112.328 12.9967 112.382 12.9781 112.449 12.9781H113.007V14.6775H114.443V15.4639H113.007V18.4011C113.007 18.5872 113.053 18.7292 113.144 18.8273C113.236 18.9254 113.357 18.9744 113.51 18.9744C113.594 18.9744 113.667 18.9642 113.728 18.944C113.789 18.9203 113.841 18.8966 113.885 18.8729C113.929 18.8459 113.966 18.8222 113.997 18.8019C114.03 18.7782 114.063 18.7664 114.093 18.7664C114.154 18.7664 114.203 18.8002 114.24 18.8679L114.565 19.4005C114.396 19.5493 114.196 19.6643 113.966 19.7455C113.736 19.8233 113.499 19.8622 113.256 19.8622ZM116.393 15.2203C116.607 15.0107 116.84 14.8433 117.094 14.7181C117.347 14.5896 117.643 14.5253 117.981 14.5253C118.265 14.5253 118.514 14.5727 118.727 14.6674C118.944 14.7621 119.124 14.8957 119.27 15.0682C119.419 15.2406 119.53 15.4486 119.605 15.6921C119.679 15.9323 119.716 16.1978 119.716 16.4886V19.781H118.631V16.4886C118.631 16.1403 118.55 15.8697 118.387 15.6769C118.228 15.4841 117.985 15.3878 117.657 15.3878C117.413 15.3878 117.187 15.4436 116.977 15.5552C116.771 15.6668 116.576 15.819 116.393 16.0117V19.781H115.303V12.2729H116.393V15.2203ZM124.384 16.6104C124.384 16.4277 124.357 16.2586 124.303 16.1031C124.252 15.9441 124.176 15.8071 124.075 15.6921C123.973 15.5738 123.846 15.4825 123.694 15.4182C123.545 15.3506 123.373 15.3167 123.177 15.3167C122.781 15.3167 122.47 15.43 122.243 15.6566C122.017 15.8832 121.873 16.2011 121.812 16.6104H124.384ZM121.782 17.28C121.795 17.5742 121.841 17.8296 121.918 18.046C121.996 18.2591 122.099 18.4367 122.228 18.5787C122.36 18.7207 122.515 18.8273 122.695 18.8983C122.877 18.9659 123.08 18.9998 123.303 18.9998C123.516 18.9998 123.701 18.9761 123.856 18.9287C124.012 18.878 124.147 18.8239 124.262 18.7664C124.377 18.7055 124.475 18.6514 124.556 18.6041C124.638 18.5533 124.712 18.528 124.78 18.528C124.868 18.528 124.935 18.5618 124.983 18.6294L125.292 19.0302C125.164 19.1824 125.018 19.3109 124.856 19.4157C124.693 19.5206 124.521 19.6068 124.338 19.6745C124.156 19.7387 123.968 19.7844 123.775 19.8114C123.582 19.8419 123.395 19.8571 123.212 19.8571C122.854 19.8571 122.52 19.7979 122.213 19.6795C121.908 19.5578 121.643 19.3802 121.416 19.1469C121.193 18.9135 121.017 18.6244 120.889 18.2794C120.764 17.9344 120.701 17.537 120.701 17.0872C120.701 16.7287 120.757 16.3939 120.868 16.0828C120.983 15.7716 121.146 15.5011 121.355 15.2711C121.568 15.0411 121.825 14.8602 122.126 14.7283C122.431 14.593 122.774 14.5253 123.156 14.5253C123.474 14.5253 123.768 14.5778 124.039 14.6826C124.31 14.7841 124.543 14.9346 124.739 15.1341C124.935 15.3336 125.087 15.5788 125.196 15.8697C125.307 16.1572 125.363 16.4852 125.363 16.8539C125.363 17.023 125.344 17.1363 125.307 17.1938C125.27 17.2513 125.202 17.28 125.104 17.28H121.782Z" fill="#757687"/>
<path d="M55.5601 32.0797L53.9976 27.8095C53.9207 27.6201 53.8408 27.3952 53.7579 27.1348C53.6751 26.8744 53.5922 26.5932 53.5093 26.2914C53.4324 26.5932 53.3525 26.8773 53.2696 27.1437C53.1868 27.4041 53.1069 27.6319 53.0299 27.8272L51.4763 32.0797H55.5601ZM59.7771 36.927H57.9305C57.7233 36.927 57.5547 36.8767 57.4245 36.7761C57.2942 36.6695 57.1966 36.5393 57.1315 36.3855L56.1727 33.7665H50.8549L49.8961 36.3855C49.8487 36.5216 49.757 36.6459 49.6209 36.7583C49.4847 36.8708 49.3161 36.927 49.1148 36.927H47.2505L52.302 24.0897H54.7345L59.7771 36.927ZM62.9351 34.5655C63.1837 34.8674 63.453 35.0804 63.743 35.2047C64.0389 35.329 64.3585 35.3911 64.7018 35.3911C65.0332 35.3911 65.3321 35.329 65.5984 35.2047C65.8648 35.0804 66.0897 34.891 66.2731 34.6365C66.4625 34.382 66.6075 34.0624 66.7081 33.6777C66.8088 33.2871 66.8591 32.8284 66.8591 32.3017C66.8591 31.769 66.8147 31.3192 66.7259 30.9522C66.643 30.5794 66.5217 30.2775 66.3619 30.0467C66.2021 29.8159 66.0068 29.6472 65.776 29.5407C65.5511 29.4341 65.2936 29.3809 65.0036 29.3809C64.5479 29.3809 64.1602 29.4785 63.8406 29.6738C63.521 29.8632 63.2192 30.1325 62.9351 30.4817V34.5655ZM62.8197 29.0613C63.1925 28.641 63.6157 28.3007 64.0892 28.0403C64.5627 27.7799 65.119 27.6497 65.7582 27.6497C66.2554 27.6497 66.7081 27.7533 67.1165 27.9604C67.5308 28.1676 67.8859 28.4694 68.1819 28.866C68.4837 29.2566 68.7145 29.7419 68.8743 30.3219C69.0401 30.896 69.1229 31.5559 69.1229 32.3017C69.1229 32.9823 69.0312 33.6126 68.8477 34.1926C68.6642 34.7727 68.4009 35.2757 68.0576 35.7019C67.7202 36.128 67.3089 36.4624 66.8236 36.7051C66.3442 36.9418 65.8056 37.0602 65.2078 37.0602C64.6988 37.0602 64.2638 36.9832 63.9028 36.8293C63.5417 36.6695 63.2192 36.4506 62.9351 36.1724V39.9011H60.7423V27.8184H62.0828C62.3669 27.8184 62.5533 27.9515 62.6421 28.2179L62.8197 29.0613ZM73.0267 34.5655C73.2752 34.8674 73.5445 35.0804 73.8345 35.2047C74.1305 35.329 74.4501 35.3911 74.7933 35.3911C75.1248 35.3911 75.4237 35.329 75.69 35.2047C75.9563 35.0804 76.1812 34.891 76.3647 34.6365C76.5541 34.382 76.6991 34.0624 76.7997 33.6777C76.9003 33.2871 76.9506 32.8284 76.9506 32.3017C76.9506 31.769 76.9063 31.3192 76.8175 30.9522C76.7346 30.5794 76.6133 30.2775 76.4535 30.0467C76.2937 29.8159 76.0984 29.6472 75.8676 29.5407C75.6426 29.4341 75.3852 29.3809 75.0952 29.3809C74.6395 29.3809 74.2518 29.4785 73.9322 29.6738C73.6126 29.8632 73.3107 30.1325 73.0267 30.4817V34.5655ZM72.9112 29.0613C73.2841 28.641 73.7073 28.3007 74.1808 28.0403C74.6543 27.7799 75.2106 27.6497 75.8498 27.6497C76.347 27.6497 76.7997 27.7533 77.2081 27.9604C77.6224 28.1676 77.9775 28.4694 78.2734 28.866C78.5753 29.2566 78.8061 29.7419 78.9659 30.3219C79.1316 30.896 79.2145 31.5559 79.2145 32.3017C79.2145 32.9823 79.1227 33.6126 78.9393 34.1926C78.7558 34.7727 78.4924 35.2757 78.1491 35.7019C77.8118 36.128 77.4005 36.4624 76.9151 36.7051C76.4357 36.9418 75.8971 37.0602 75.2994 37.0602C74.7904 37.0602 74.3554 36.9832 73.9943 36.8293C73.6333 36.6695 73.3107 36.4506 73.0267 36.1724V39.9011H70.8338V27.8184H72.1744C72.4585 27.8184 72.6449 27.9515 72.7337 28.2179L72.9112 29.0613ZM92.4251 26.4246C92.3541 26.5488 92.2771 26.6406 92.1943 26.6998C92.1173 26.753 92.0197 26.7797 91.9013 26.7797C91.777 26.7797 91.6409 26.7353 91.4929 26.6465C91.3509 26.5518 91.1792 26.4482 90.978 26.3358C90.7768 26.2233 90.54 26.1227 90.2678 26.0339C90.0014 25.9392 89.6848 25.8919 89.3178 25.8919C88.9864 25.8919 88.6964 25.9333 88.4478 26.0162C88.1992 26.0931 87.9891 26.2026 87.8175 26.3447C87.6518 26.4867 87.5275 26.6583 87.4446 26.8596C87.3618 27.0549 87.3203 27.2709 87.3203 27.5076C87.3203 27.8095 87.4032 28.061 87.5689 28.2623C87.7406 28.4635 87.9655 28.6351 88.2436 28.7772C88.5218 28.9192 88.8384 29.0465 89.1936 29.1589C89.5487 29.2714 89.9127 29.3927 90.2855 29.5229C90.6584 29.6472 91.0224 29.7952 91.3775 29.9668C91.7326 30.1325 92.0493 30.3456 92.3274 30.606C92.6056 30.8605 92.8275 31.1742 92.9933 31.547C93.1649 31.9199 93.2507 32.3727 93.2507 32.9054C93.2507 33.4854 93.1501 34.0299 92.9489 34.5389C92.7536 35.0419 92.4636 35.4829 92.0788 35.8617C91.7001 36.2345 91.2355 36.5305 90.685 36.7494C90.1346 36.9625 89.5043 37.069 88.7941 37.069C88.3857 37.069 87.9832 37.0276 87.5867 36.9448C87.1901 36.8678 86.8084 36.7554 86.4414 36.6074C86.0804 36.4594 85.7401 36.2819 85.4205 36.0747C85.1009 35.8676 84.8168 35.6368 84.5682 35.3823L85.2696 34.237C85.3288 34.1542 85.4057 34.0861 85.5004 34.0328C85.5951 33.9737 85.6957 33.9441 85.8022 33.9441C85.9502 33.9441 86.11 34.0062 86.2816 34.1305C86.4533 34.2489 86.6575 34.382 86.8942 34.53C87.1309 34.678 87.4062 34.8141 87.7198 34.9384C88.0394 35.0567 88.4212 35.1159 88.8651 35.1159C89.5457 35.1159 90.0725 34.9561 90.4453 34.6365C90.8182 34.311 91.0046 33.8464 91.0046 33.2427C91.0046 32.9054 90.9188 32.6301 90.7472 32.4171C90.5815 32.204 90.3595 32.0265 90.0813 31.8844C89.8032 31.7364 89.4865 31.6122 89.1314 31.5115C88.7763 31.4109 88.4153 31.3014 88.0483 31.1831C87.6814 31.0647 87.3203 30.9226 86.9652 30.7569C86.6101 30.5912 86.2935 30.3752 86.0153 30.1088C85.7371 29.8425 85.5122 29.5111 85.3406 29.1145C85.1749 28.7121 85.092 28.2179 85.092 27.6319C85.092 27.1644 85.1837 26.7086 85.3672 26.2648C85.5566 25.8209 85.8289 25.4273 86.184 25.084C86.5391 24.7407 86.9771 24.4655 87.4979 24.2584C88.0187 24.0512 88.6165 23.9476 89.2912 23.9476C90.0488 23.9476 90.7472 24.066 91.3864 24.3028C92.0256 24.5395 92.5701 24.8709 93.0199 25.2971L92.4251 26.4246ZM97.6251 37.069C96.832 37.069 96.2224 36.8471 95.7963 36.4032C95.3761 35.9534 95.166 35.3349 95.166 34.5477V29.4608H94.2338C94.1154 29.4608 94.0148 29.4223 93.9319 29.3454C93.8491 29.2684 93.8077 29.153 93.8077 28.9991V28.1291L95.2725 27.8894L95.7341 25.4036C95.7637 25.2852 95.82 25.1935 95.9028 25.1284C95.9857 25.0633 96.0922 25.0307 96.2224 25.0307H97.3588V27.8983H99.7913V29.4608H97.3588V34.3968C97.3588 34.6809 97.4268 34.9029 97.563 35.0627C97.705 35.2225 97.8974 35.3024 98.14 35.3024C98.2762 35.3024 98.3886 35.2876 98.4774 35.258C98.5721 35.2225 98.652 35.187 98.7171 35.1514C98.7881 35.1159 98.8503 35.0834 98.9035 35.0538C98.9568 35.0183 99.0101 35.0005 99.0633 35.0005C99.1284 35.0005 99.1817 35.0183 99.2231 35.0538C99.2646 35.0834 99.3089 35.1307 99.3563 35.1958L100.013 36.2612C99.6936 36.5275 99.3267 36.7287 98.9124 36.8649C98.4981 37.001 98.069 37.069 97.6251 37.069ZM105.156 27.6763C105.831 27.6763 106.444 27.7858 106.994 28.0048C107.55 28.2238 108.024 28.5345 108.415 28.937C108.811 29.3394 109.116 29.8307 109.329 30.4107C109.542 30.9907 109.649 31.6388 109.649 32.3549C109.649 33.077 109.542 33.728 109.329 34.308C109.116 34.8881 108.811 35.3823 108.415 35.7906C108.024 36.199 107.55 36.5127 106.994 36.7317C106.444 36.9507 105.831 37.0602 105.156 37.0602C104.476 37.0602 103.857 36.9507 103.301 36.7317C102.745 36.5127 102.268 36.199 101.872 35.7906C101.481 35.3823 101.176 34.8881 100.957 34.308C100.744 33.728 100.638 33.077 100.638 32.3549C100.638 31.6388 100.744 30.9907 100.957 30.4107C101.176 29.8307 101.481 29.3394 101.872 28.937C102.268 28.5345 102.745 28.2238 103.301 28.0048C103.857 27.7858 104.476 27.6763 105.156 27.6763ZM105.156 35.3734C105.914 35.3734 106.473 35.1189 106.834 34.6099C107.201 34.1009 107.385 33.3552 107.385 32.3727C107.385 31.3902 107.201 30.6415 106.834 30.1266C106.473 29.6117 105.914 29.3542 105.156 29.3542C104.387 29.3542 103.816 29.6146 103.443 30.1355C103.076 30.6504 102.893 31.3961 102.893 32.3727C102.893 33.3492 103.076 34.095 103.443 34.6099C103.816 35.1189 104.387 35.3734 105.156 35.3734ZM113.39 29.3986C113.674 28.8541 114.011 28.428 114.402 28.1202C114.793 27.8065 115.254 27.6497 115.787 27.6497C116.207 27.6497 116.545 27.7414 116.799 27.9249L116.657 29.5673C116.627 29.6738 116.583 29.7508 116.524 29.7981C116.471 29.8396 116.397 29.8603 116.302 29.8603C116.213 29.8603 116.08 29.8455 115.902 29.8159C115.731 29.7863 115.562 29.7715 115.396 29.7715C115.154 29.7715 114.938 29.807 114.748 29.878C114.559 29.949 114.387 30.0526 114.233 30.1887C114.085 30.319 113.952 30.4788 113.834 30.6681C113.721 30.8575 113.615 31.0736 113.514 31.3162V36.927H111.321V27.8184H112.609C112.834 27.8184 112.991 27.8598 113.079 27.9427C113.168 28.0196 113.227 28.1616 113.257 28.3688L113.39 29.3986ZM123.553 31.3251C123.553 31.041 123.512 30.7747 123.429 30.5261C123.352 30.2716 123.234 30.0497 123.074 29.8603C122.914 29.6709 122.71 29.5229 122.461 29.4164C122.219 29.3039 121.935 29.2477 121.609 29.2477C120.976 29.2477 120.476 29.4282 120.109 29.7892C119.748 30.1503 119.517 30.6622 119.416 31.3251H123.553ZM119.372 32.6479C119.407 33.1155 119.49 33.5209 119.62 33.8642C119.751 34.2015 119.922 34.4826 120.135 34.7075C120.348 34.9265 120.6 35.0923 120.89 35.2047C121.186 35.3112 121.511 35.3645 121.867 35.3645C122.222 35.3645 122.526 35.3231 122.781 35.2402C123.041 35.1574 123.266 35.0656 123.456 34.965C123.651 34.8644 123.82 34.7727 123.962 34.6898C124.11 34.6069 124.252 34.5655 124.388 34.5655C124.571 34.5655 124.707 34.6336 124.796 34.7697L125.427 35.5687C125.184 35.8528 124.912 36.0925 124.61 36.2878C124.308 36.4772 123.991 36.6311 123.66 36.7494C123.334 36.8619 123 36.9418 122.657 36.9891C122.319 37.0365 121.991 37.0602 121.671 37.0602C121.038 37.0602 120.449 36.9566 119.905 36.7494C119.36 36.5364 118.887 36.2257 118.484 35.8173C118.082 35.403 117.765 34.894 117.534 34.2903C117.303 33.6807 117.188 32.9764 117.188 32.1774C117.188 31.5559 117.289 30.973 117.49 30.4284C117.691 29.878 117.978 29.4016 118.351 28.9991C118.73 28.5907 119.188 28.2682 119.727 28.0314C120.271 27.7947 120.884 27.6763 121.565 27.6763C122.139 27.6763 122.668 27.7681 123.154 27.9515C123.639 28.135 124.056 28.4043 124.406 28.7594C124.755 29.1086 125.027 29.5407 125.222 30.0556C125.424 30.5646 125.524 31.1475 125.524 31.8045C125.524 32.1359 125.489 32.3608 125.418 32.4792C125.347 32.5917 125.211 32.6479 125.009 32.6479H119.372Z" fill="#101335"/>
</svg>
