<svg width="146" height="50" viewBox="0 0 146 50" fill="none" xmlns="http://www.w3.org/2000/svg">
<rect y="0.480225" width="145.427" height="49.0393" rx="5.07303" fill="#070C3E"/>
<path d="M33.2532 36.5971C31.7235 38.0249 30.0534 37.7995 28.4456 37.1231C26.7443 36.4318 25.1834 36.4017 23.3883 37.1231C21.1407 38.055 19.9544 37.7844 18.612 36.5971C10.9949 29.0374 12.1187 17.5249 20.7661 17.1041C22.8733 17.2093 24.3405 18.2163 25.5736 18.3064C27.4154 17.9457 29.1793 16.9087 31.146 17.044C33.5029 17.2243 35.2823 18.1261 36.453 19.7493C31.583 22.5597 32.7381 28.7368 37.2022 30.4652C36.3125 32.7196 35.1575 34.9589 33.2376 36.6122L33.2532 36.5971ZM25.4175 17.0139C25.1834 13.6624 28.0086 10.897 31.2552 10.6265C31.7079 14.504 27.6028 17.3897 25.4175 17.0139Z" fill="white"/>
<path d="M55.4737 16.1284C55.4737 16.6695 55.3857 17.165 55.2099 17.6148C55.034 18.0612 54.7854 18.4451 54.4641 18.7664C54.1462 19.0877 53.7623 19.338 53.3125 19.5172C52.8661 19.6931 52.369 19.781 51.8211 19.781H49.0613V12.4758H51.8211C52.369 12.4758 52.8661 12.5655 53.3125 12.7447C53.7623 12.9206 54.1462 13.1692 54.4641 13.4904C54.7854 13.8117 55.034 14.1973 55.2099 14.6471C55.3857 15.0935 55.4737 15.5873 55.4737 16.1284ZM54.2612 16.1284C54.2612 15.7091 54.2037 15.332 54.0887 14.9971C53.9771 14.6623 53.8148 14.3799 53.6017 14.1499C53.392 13.92 53.1367 13.7441 52.8357 13.6223C52.5347 13.4972 52.1965 13.4346 51.8211 13.4346H50.2535V18.8222H51.8211C52.1965 18.8222 52.5347 18.7613 52.8357 18.6396C53.1367 18.5178 53.392 18.342 53.6017 18.112C53.8148 17.8786 53.9771 17.5962 54.0887 17.2648C54.2037 16.93 54.2612 16.5512 54.2612 16.1284ZM58.7448 14.5253C59.127 14.5253 59.4719 14.5879 59.7797 14.713C60.0909 14.8382 60.3546 15.0157 60.5711 15.2457C60.7909 15.4757 60.96 15.7547 61.0784 16.0828C61.1968 16.4108 61.256 16.7795 61.256 17.1887C61.256 17.5979 61.1968 17.9666 61.0784 18.2946C60.96 18.6227 60.7909 18.9034 60.5711 19.1367C60.3546 19.3667 60.0909 19.5443 59.7797 19.6694C59.4719 19.7945 59.127 19.8571 58.7448 19.8571C58.3593 19.8571 58.0109 19.7945 57.6998 19.6694C57.392 19.5443 57.1282 19.3667 56.9084 19.1367C56.6885 18.9034 56.5194 18.6227 56.4011 18.2946C56.2827 17.9666 56.2235 17.5979 56.2235 17.1887C56.2235 16.7795 56.2827 16.4108 56.4011 16.0828C56.5194 15.7547 56.6885 15.4757 56.9084 15.2457C57.1282 15.0157 57.392 14.8382 57.6998 14.713C58.0109 14.5879 58.3593 14.5253 58.7448 14.5253ZM58.7448 19.0048C59.2115 19.0048 59.5582 18.8493 59.7848 18.5381C60.0148 18.2236 60.1297 17.7755 60.1297 17.1938C60.1297 16.6121 60.0148 16.1639 59.7848 15.8494C59.5582 15.5315 59.2115 15.3725 58.7448 15.3725C58.2713 15.3725 57.9196 15.5315 57.6896 15.8494C57.4596 16.1639 57.3446 16.6121 57.3446 17.1938C57.3446 17.7755 57.4596 18.2236 57.6896 18.5381C57.9196 18.8493 58.2713 19.0048 58.7448 19.0048ZM69.4943 14.6065L67.8354 19.781H66.968C66.8665 19.781 66.7955 19.7151 66.7549 19.5832L65.7251 16.3618C65.698 16.2705 65.6726 16.1792 65.649 16.0878C65.6287 15.9965 65.6101 15.9069 65.5932 15.819C65.556 16.0016 65.5103 16.1842 65.4562 16.3669L64.4111 19.5832C64.3739 19.7151 64.2945 19.781 64.1727 19.781H63.3458L61.6869 14.6065H62.5493C62.6339 14.6065 62.7032 14.6285 62.7573 14.6725C62.8148 14.713 62.852 14.7621 62.8689 14.8196L63.7314 17.833C63.7652 17.9716 63.7939 18.1069 63.8176 18.2388C63.8447 18.3673 63.8683 18.4958 63.8886 18.6244C63.9224 18.4958 63.958 18.3673 63.9952 18.2388C64.0324 18.1069 64.0713 17.9716 64.1118 17.833L65.0808 14.8044C65.0977 14.7435 65.1315 14.6944 65.1822 14.6572C65.2364 14.6167 65.3006 14.5964 65.375 14.5964H65.8519C65.9297 14.5964 65.9956 14.6167 66.0497 14.6572C66.1038 14.6944 66.1394 14.7435 66.1563 14.8044L67.0999 17.833C67.1404 17.9716 67.1776 18.1069 67.2115 18.2388C67.2487 18.3707 67.2825 18.5026 67.3129 18.6345C67.3366 18.506 67.362 18.3758 67.389 18.2439C67.4161 18.112 67.4482 17.975 67.4854 17.833L68.363 14.8196C68.3833 14.7587 68.4205 14.708 68.4746 14.6674C68.5288 14.6268 68.5947 14.6065 68.6725 14.6065H69.4943ZM71.3097 15.2914C71.4213 15.1764 71.5363 15.0732 71.6546 14.9819C71.7764 14.8872 71.9049 14.8061 72.0402 14.7384C72.1755 14.6708 72.3192 14.6183 72.4714 14.5811C72.6236 14.5439 72.7893 14.5253 72.9686 14.5253C73.2527 14.5253 73.5012 14.5727 73.7143 14.6674C73.9307 14.7621 74.1117 14.8957 74.2571 15.0682C74.4059 15.2406 74.5175 15.4486 74.5919 15.6921C74.6663 15.9323 74.7035 16.1978 74.7035 16.4886V19.781H73.6179V16.4886C73.6179 16.1403 73.5367 15.8697 73.3744 15.6769C73.2155 15.4841 72.9719 15.3878 72.6439 15.3878C72.4004 15.3878 72.1738 15.4436 71.9641 15.5552C71.7578 15.6668 71.5633 15.819 71.3807 16.0117V19.781H70.29V14.6065H70.9495C71.0983 14.6065 71.193 14.6758 71.2336 14.8145L71.3097 15.2914ZM77.0883 12.2729V19.781H75.9976V12.2729H77.0883ZM80.6718 14.5253C81.054 14.5253 81.3989 14.5879 81.7067 14.713C82.0179 14.8382 82.2816 15.0157 82.4981 15.2457C82.7179 15.4757 82.887 15.7547 83.0054 16.0828C83.1238 16.4108 83.183 16.7795 83.183 17.1887C83.183 17.5979 83.1238 17.9666 83.0054 18.2946C82.887 18.6227 82.7179 18.9034 82.4981 19.1367C82.2816 19.3667 82.0179 19.5443 81.7067 19.6694C81.3989 19.7945 81.054 19.8571 80.6718 19.8571C80.2863 19.8571 79.9379 19.7945 79.6268 19.6694C79.319 19.5443 79.0552 19.3667 78.8354 19.1367C78.6155 18.9034 78.4464 18.6227 78.3281 18.2946C78.2097 17.9666 78.1505 17.5979 78.1505 17.1887C78.1505 16.7795 78.2097 16.4108 78.3281 16.0828C78.4464 15.7547 78.6155 15.4757 78.8354 15.2457C79.0552 15.0157 79.319 14.8382 79.6268 14.713C79.9379 14.5879 80.2863 14.5253 80.6718 14.5253ZM80.6718 19.0048C81.1385 19.0048 81.4852 18.8493 81.7118 18.5381C81.9418 18.2236 82.0567 17.7755 82.0567 17.1938C82.0567 16.6121 81.9418 16.1639 81.7118 15.8494C81.4852 15.5315 81.1385 15.3725 80.6718 15.3725C80.1983 15.3725 79.8466 15.5315 79.6166 15.8494C79.3866 16.1639 79.2716 16.6121 79.2716 17.1938C79.2716 17.7755 79.3866 18.2236 79.6166 18.5381C79.8466 18.8493 80.1983 19.0048 80.6718 19.0048ZM86.9957 17.5184C86.6068 17.532 86.2788 17.5641 86.0116 17.6148C85.7444 17.6622 85.5279 17.7247 85.3622 17.8025C85.1965 17.8769 85.0764 17.9666 85.002 18.0714C84.931 18.1762 84.8955 18.2912 84.8955 18.4164C84.8955 18.5381 84.9141 18.643 84.9513 18.7309C84.9919 18.8154 85.046 18.8865 85.1136 18.944C85.1847 18.9981 85.2658 19.0387 85.3571 19.0657C85.4518 19.0894 85.555 19.1012 85.6666 19.1012C85.9507 19.1012 86.1942 19.0488 86.3971 18.944C86.6034 18.8357 86.803 18.6802 86.9957 18.4772V17.5184ZM84.1041 15.3269C84.6892 14.7824 85.3859 14.5101 86.1942 14.5101C86.4918 14.5101 86.7556 14.5592 86.9856 14.6572C87.219 14.7519 87.4134 14.8872 87.569 15.0631C87.7279 15.2389 87.848 15.4486 87.9292 15.6921C88.0137 15.9323 88.056 16.1994 88.056 16.4937V19.781H87.569C87.4641 19.781 87.3847 19.7658 87.3306 19.7353C87.2764 19.7015 87.2308 19.6356 87.1936 19.5375L87.0871 19.1164C86.9552 19.2348 86.8249 19.3413 86.6964 19.436C86.5679 19.5274 86.4343 19.6051 86.2957 19.6694C86.1604 19.7337 86.0133 19.781 85.8543 19.8114C85.6987 19.8453 85.5263 19.8622 85.3369 19.8622C85.1272 19.8622 84.931 19.8334 84.7484 19.7759C84.5691 19.7184 84.4136 19.6322 84.2817 19.5172C84.1498 19.3988 84.0449 19.2534 83.9671 19.0809C83.8927 18.9084 83.8555 18.7055 83.8555 18.4722C83.8555 18.2726 83.908 18.0782 84.0128 17.8888C84.121 17.6994 84.2969 17.5303 84.5404 17.3815C84.7873 17.2293 85.1103 17.1041 85.5093 17.0061C85.9118 16.908 86.4073 16.8522 86.9957 16.8386V16.4937C86.9957 16.1217 86.9163 15.8443 86.7573 15.6617C86.5984 15.4791 86.365 15.3878 86.0572 15.3878C85.8475 15.3878 85.6717 15.4148 85.5296 15.4689C85.3876 15.5197 85.2641 15.5755 85.1593 15.6363C85.0545 15.6972 84.9615 15.7547 84.8803 15.8088C84.7991 15.8596 84.7129 15.8849 84.6216 15.8849C84.5472 15.8849 84.4829 15.8663 84.4288 15.8291C84.3781 15.7885 84.3358 15.7395 84.302 15.682L84.1041 15.3269ZM92.6362 15.8798C92.4841 15.6837 92.3166 15.5467 92.134 15.4689C91.9514 15.3911 91.7535 15.3522 91.5405 15.3522C91.1143 15.3522 90.7812 15.5095 90.5411 15.824C90.301 16.1352 90.1809 16.5968 90.1809 17.209C90.1809 17.5269 90.2079 17.7991 90.2621 18.0257C90.3162 18.2489 90.394 18.4316 90.4954 18.5736C90.5969 18.7157 90.7203 18.8188 90.8658 18.8831C91.0112 18.9473 91.1752 18.9795 91.3578 18.9795C91.6352 18.9795 91.8736 18.9203 92.0731 18.8019C92.2761 18.6802 92.4638 18.5094 92.6362 18.2895V15.8798ZM93.7269 12.2729V19.781H93.0674C92.922 19.781 92.829 19.7117 92.7884 19.573L92.692 19.0099C92.4756 19.2636 92.2287 19.4682 91.9514 19.6237C91.6774 19.7793 91.3578 19.8571 90.9926 19.8571C90.7017 19.8571 90.4379 19.7996 90.2012 19.6846C89.9644 19.5662 89.7615 19.3955 89.5924 19.1722C89.4233 18.949 89.2914 18.6734 89.1967 18.3453C89.1054 18.0139 89.0598 17.6351 89.0598 17.209C89.0598 16.8234 89.1105 16.4666 89.2119 16.1386C89.3168 15.8105 89.4656 15.5264 89.6584 15.2863C89.8511 15.0428 90.0845 14.8534 90.3584 14.7181C90.6358 14.5795 90.9452 14.5101 91.2868 14.5101C91.5912 14.5101 91.8499 14.5592 92.063 14.6572C92.2761 14.7519 92.4671 14.8855 92.6362 15.058V12.2729H93.7269ZM99.8245 14.5253C100.207 14.5253 100.552 14.5879 100.859 14.713C101.171 14.8382 101.434 15.0157 101.651 15.2457C101.871 15.4757 102.04 15.7547 102.158 16.0828C102.276 16.4108 102.336 16.7795 102.336 17.1887C102.336 17.5979 102.276 17.9666 102.158 18.2946C102.04 18.6227 101.871 18.9034 101.651 19.1367C101.434 19.3667 101.171 19.5443 100.859 19.6694C100.552 19.7945 100.207 19.8571 99.8245 19.8571C99.4389 19.8571 99.0906 19.7945 98.7794 19.6694C98.4717 19.5443 98.2079 19.3667 97.9881 19.1367C97.7682 18.9034 97.5991 18.6227 97.4807 18.2946C97.3624 17.9666 97.3032 17.5979 97.3032 17.1887C97.3032 16.7795 97.3624 16.4108 97.4807 16.0828C97.5991 15.7547 97.7682 15.4757 97.9881 15.2457C98.2079 15.0157 98.4717 14.8382 98.7794 14.713C99.0906 14.5879 99.4389 14.5253 99.8245 14.5253ZM99.8245 19.0048C100.291 19.0048 100.638 18.8493 100.864 18.5381C101.094 18.2236 101.209 17.7755 101.209 17.1938C101.209 16.6121 101.094 16.1639 100.864 15.8494C100.638 15.5315 100.291 15.3725 99.8245 15.3725C99.351 15.3725 98.9993 15.5315 98.7693 15.8494C98.5393 16.1639 98.4243 16.6121 98.4243 17.1938C98.4243 17.7755 98.5393 18.2236 98.7693 18.5381C98.9993 18.8493 99.351 19.0048 99.8245 19.0048ZM104.403 15.2914C104.515 15.1764 104.63 15.0732 104.748 14.9819C104.87 14.8872 104.999 14.8061 105.134 14.7384C105.269 14.6708 105.413 14.6183 105.565 14.5811C105.717 14.5439 105.883 14.5253 106.062 14.5253C106.346 14.5253 106.595 14.5727 106.808 14.6674C107.024 14.7621 107.205 14.8957 107.351 15.0682C107.5 15.2406 107.611 15.4486 107.686 15.6921C107.76 15.9323 107.797 16.1978 107.797 16.4886V19.781H106.712V16.4886C106.712 16.1403 106.63 15.8697 106.468 15.6769C106.309 15.4841 106.066 15.3878 105.738 15.3878C105.494 15.3878 105.267 15.4436 105.058 15.5552C104.851 15.6668 104.657 15.819 104.474 16.0117V19.781H103.384V14.6065H104.043C104.192 14.6065 104.287 14.6758 104.327 14.8145L104.403 15.2914ZM113.256 19.8622C112.827 19.8622 112.496 19.7421 112.262 19.502C112.032 19.2585 111.917 18.9169 111.917 18.4772V15.4639H111.349C111.288 15.4639 111.236 15.4453 111.192 15.4081C111.148 15.3675 111.126 15.3083 111.126 15.2305V14.7891L111.963 14.6674L112.201 13.1708C112.218 13.1133 112.247 13.0677 112.288 13.0339C112.328 12.9967 112.382 12.9781 112.45 12.9781H113.008V14.6775H114.444V15.4639H113.008V18.4011C113.008 18.5872 113.054 18.7292 113.145 18.8273C113.236 18.9254 113.358 18.9744 113.51 18.9744C113.595 18.9744 113.667 18.9642 113.728 18.944C113.789 18.9203 113.842 18.8966 113.886 18.8729C113.929 18.8459 113.967 18.8222 113.997 18.8019C114.031 18.7782 114.063 18.7664 114.094 18.7664C114.154 18.7664 114.203 18.8002 114.241 18.8679L114.565 19.4005C114.396 19.5493 114.197 19.6643 113.967 19.7455C113.737 19.8233 113.5 19.8622 113.256 19.8622ZM116.394 15.2203C116.607 15.0107 116.84 14.8433 117.094 14.7181C117.348 14.5896 117.644 14.5253 117.982 14.5253C118.266 14.5253 118.515 14.5727 118.728 14.6674C118.944 14.7621 119.125 14.8957 119.27 15.0682C119.419 15.2406 119.531 15.4486 119.605 15.6921C119.68 15.9323 119.717 16.1978 119.717 16.4886V19.781H118.631V16.4886C118.631 16.1403 118.55 15.8697 118.388 15.6769C118.229 15.4841 117.985 15.3878 117.657 15.3878C117.414 15.3878 117.187 15.4436 116.977 15.5552C116.771 15.6668 116.577 15.819 116.394 16.0117V19.781H115.303V12.2729H116.394V15.2203ZM124.384 16.6104C124.384 16.4277 124.357 16.2586 124.303 16.1031C124.253 15.9441 124.176 15.8071 124.075 15.6921C123.974 15.5738 123.847 15.4825 123.695 15.4182C123.546 15.3506 123.373 15.3167 123.177 15.3167C122.781 15.3167 122.47 15.43 122.244 15.6566C122.017 15.8832 121.873 16.2011 121.812 16.6104H124.384ZM121.782 17.28C121.796 17.5742 121.841 17.8296 121.919 18.046C121.997 18.2591 122.1 18.4367 122.228 18.5787C122.36 18.7207 122.516 18.8273 122.695 18.8983C122.878 18.9659 123.081 18.9998 123.304 18.9998C123.517 18.9998 123.701 18.9761 123.857 18.9287C124.012 18.878 124.148 18.8239 124.263 18.7664C124.378 18.7055 124.476 18.6514 124.557 18.6041C124.638 18.5533 124.713 18.528 124.78 18.528C124.868 18.528 124.936 18.5618 124.983 18.6294L125.293 19.0302C125.164 19.1824 125.019 19.3109 124.856 19.4157C124.694 19.5206 124.521 19.6068 124.339 19.6745C124.156 19.7387 123.968 19.7844 123.776 19.8114C123.583 19.8419 123.395 19.8571 123.213 19.8571C122.854 19.8571 122.521 19.7979 122.213 19.6795C121.909 19.5578 121.643 19.3802 121.417 19.1469C121.194 18.9135 121.018 18.6244 120.889 18.2794C120.764 17.9344 120.701 17.537 120.701 17.0872C120.701 16.7287 120.757 16.3939 120.869 16.0828C120.984 15.7716 121.146 15.5011 121.356 15.2711C121.569 15.0411 121.826 14.8602 122.127 14.7283C122.431 14.593 122.775 14.5253 123.157 14.5253C123.475 14.5253 123.769 14.5778 124.04 14.6826C124.31 14.7841 124.543 14.9346 124.74 15.1341C124.936 15.3336 125.088 15.5788 125.196 15.8697C125.308 16.1572 125.364 16.4852 125.364 16.8539C125.364 17.023 125.345 17.1363 125.308 17.1938C125.271 17.2513 125.203 17.28 125.105 17.28H121.782Z" fill="#AFB0B4"/>
<path d="M55.5604 32.0797L53.9979 27.8095C53.9209 27.6201 53.841 27.3952 53.7582 27.1348C53.6753 26.8744 53.5924 26.5932 53.5096 26.2914C53.4326 26.5932 53.3527 26.8773 53.2699 27.1437C53.187 27.4041 53.1071 27.6319 53.0302 27.8272L51.4766 32.0797H55.5604ZM59.7773 36.927H57.9307C57.7236 36.927 57.5549 36.8767 57.4247 36.7761C57.2945 36.6695 57.1968 36.5393 57.1317 36.3855L56.1729 33.7665H50.8551L49.8963 36.3855C49.849 36.5216 49.7572 36.6459 49.6211 36.7583C49.485 36.8708 49.3163 36.927 49.1151 36.927H47.2507L52.3022 24.0897H54.7347L59.7773 36.927ZM62.9353 34.5655C63.1839 34.8674 63.4532 35.0804 63.7432 35.2047C64.0391 35.329 64.3587 35.3911 64.702 35.3911C65.0334 35.3911 65.3323 35.329 65.5987 35.2047C65.865 35.0804 66.0899 34.891 66.2734 34.6365C66.4628 34.382 66.6078 34.0624 66.7084 33.6777C66.809 33.2871 66.8593 32.8284 66.8593 32.3017C66.8593 31.769 66.8149 31.3192 66.7261 30.9522C66.6433 30.5794 66.522 30.2775 66.3622 30.0467C66.2024 29.8159 66.007 29.6472 65.7762 29.5407C65.5513 29.4341 65.2939 29.3809 65.0039 29.3809C64.5481 29.3809 64.1605 29.4785 63.8409 29.6738C63.5213 29.8632 63.2194 30.1325 62.9353 30.4817V34.5655ZM62.8199 29.0613C63.1928 28.641 63.616 28.3007 64.0894 28.0403C64.5629 27.7799 65.1193 27.6497 65.7585 27.6497C66.2556 27.6497 66.7084 27.7533 67.1168 27.9604C67.5311 28.1676 67.8862 28.4694 68.1821 28.866C68.484 29.2566 68.7148 29.7419 68.8746 30.3219C69.0403 30.896 69.1232 31.5559 69.1232 32.3017C69.1232 32.9823 69.0314 33.6126 68.8479 34.1926C68.6645 34.7727 68.4011 35.2757 68.0578 35.7019C67.7205 36.128 67.3091 36.4624 66.8238 36.7051C66.3444 36.9418 65.8058 37.0602 65.208 37.0602C64.699 37.0602 64.264 36.9832 63.903 36.8293C63.542 36.6695 63.2194 36.4506 62.9353 36.1724V39.9011H60.7425V27.8184H62.0831C62.3671 27.8184 62.5536 27.9515 62.6424 28.2179L62.8199 29.0613ZM73.0269 34.5655C73.2755 34.8674 73.5448 35.0804 73.8348 35.2047C74.1307 35.329 74.4503 35.3911 74.7936 35.3911C75.125 35.3911 75.4239 35.329 75.6902 35.2047C75.9566 35.0804 76.1815 34.891 76.365 34.6365C76.5543 34.382 76.6993 34.0624 76.8 33.6777C76.9006 33.2871 76.9509 32.8284 76.9509 32.3017C76.9509 31.769 76.9065 31.3192 76.8177 30.9522C76.7349 30.5794 76.6135 30.2775 76.4537 30.0467C76.2939 29.8159 76.0986 29.6472 75.8678 29.5407C75.6429 29.4341 75.3854 29.3809 75.0954 29.3809C74.6397 29.3809 74.252 29.4785 73.9324 29.6738C73.6128 29.8632 73.311 30.1325 73.0269 30.4817V34.5655ZM72.9115 29.0613C73.2844 28.641 73.7075 28.3007 74.181 28.0403C74.6545 27.7799 75.2108 27.6497 75.85 27.6497C76.3472 27.6497 76.8 27.7533 77.2083 27.9604C77.6226 28.1676 77.9778 28.4694 78.2737 28.866C78.5755 29.2566 78.8063 29.7419 78.9662 30.3219C79.1319 30.896 79.2147 31.5559 79.2147 32.3017C79.2147 32.9823 79.123 33.6126 78.9395 34.1926C78.756 34.7727 78.4927 35.2757 78.1494 35.7019C77.812 36.128 77.4007 36.4624 76.9154 36.7051C76.436 36.9418 75.8974 37.0602 75.2996 37.0602C74.7906 37.0602 74.3556 36.9832 73.9946 36.8293C73.6335 36.6695 73.311 36.4506 73.0269 36.1724V39.9011H70.8341V27.8184H72.1746C72.4587 27.8184 72.6451 27.9515 72.7339 28.2179L72.9115 29.0613ZM92.4253 26.4246C92.3543 26.5488 92.2774 26.6406 92.1945 26.6998C92.1176 26.753 92.0199 26.7797 91.9015 26.7797C91.7772 26.7797 91.6411 26.7353 91.4932 26.6465C91.3511 26.5518 91.1795 26.4482 90.9782 26.3358C90.777 26.2233 90.5403 26.1227 90.268 26.0339C90.0017 25.9392 89.685 25.8919 89.3181 25.8919C88.9867 25.8919 88.6966 25.9333 88.4481 26.0162C88.1995 26.0931 87.9894 26.2026 87.8177 26.3447C87.652 26.4867 87.5277 26.6583 87.4449 26.8596C87.362 27.0549 87.3206 27.2709 87.3206 27.5076C87.3206 27.8095 87.4034 28.061 87.5692 28.2623C87.7408 28.4635 87.9657 28.6351 88.2439 28.7772C88.522 28.9192 88.8387 29.0465 89.1938 29.1589C89.5489 29.2714 89.9129 29.3927 90.2858 29.5229C90.6586 29.6472 91.0226 29.7952 91.3777 29.9668C91.7329 30.1325 92.0495 30.3456 92.3277 30.606C92.6058 30.8605 92.8278 31.1742 92.9935 31.547C93.1651 31.9199 93.251 32.3727 93.251 32.9054C93.251 33.4854 93.1503 34.0299 92.9491 34.5389C92.7538 35.0419 92.4638 35.4829 92.0791 35.8617C91.7003 36.2345 91.2357 36.5305 90.6853 36.7494C90.1348 36.9625 89.5045 37.069 88.7943 37.069C88.3859 37.069 87.9835 37.0276 87.5869 36.9448C87.1904 36.8678 86.8086 36.7554 86.4417 36.6074C86.0806 36.4594 85.7403 36.2819 85.4207 36.0747C85.1011 35.8676 84.817 35.6368 84.5685 35.3823L85.2698 34.237C85.329 34.1542 85.4059 34.0861 85.5006 34.0328C85.5953 33.9737 85.6959 33.9441 85.8025 33.9441C85.9504 33.9441 86.1102 34.0062 86.2819 34.1305C86.4535 34.2489 86.6577 34.382 86.8944 34.53C87.1312 34.678 87.4064 34.8141 87.7201 34.9384C88.0397 35.0567 88.4214 35.1159 88.8653 35.1159C89.546 35.1159 90.0727 34.9561 90.4456 34.6365C90.8184 34.311 91.0049 33.8464 91.0049 33.2427C91.0049 32.9054 90.9191 32.6301 90.7474 32.4171C90.5817 32.204 90.3598 32.0265 90.0816 31.8844C89.8034 31.7364 89.4868 31.6122 89.1317 31.5115C88.7765 31.4109 88.4155 31.3014 88.0486 31.1831C87.6816 31.0647 87.3206 30.9226 86.9655 30.7569C86.6104 30.5912 86.2937 30.3752 86.0155 30.1088C85.7374 29.8425 85.5125 29.5111 85.3408 29.1145C85.1751 28.7121 85.0923 28.2179 85.0923 27.6319C85.0923 27.1644 85.184 26.7086 85.3675 26.2648C85.5569 25.8209 85.8291 25.4273 86.1842 25.084C86.5393 24.7407 86.9773 24.4655 87.4981 24.2584C88.019 24.0512 88.6167 23.9476 89.2915 23.9476C90.049 23.9476 90.7474 24.066 91.3866 24.3028C92.0258 24.5395 92.5703 24.8709 93.0201 25.2971L92.4253 26.4246ZM97.6254 37.069C96.8323 37.069 96.2227 36.8471 95.7965 36.4032C95.3763 35.9534 95.1662 35.3349 95.1662 34.5477V29.4608H94.234C94.1157 29.4608 94.0151 29.4223 93.9322 29.3454C93.8493 29.2684 93.8079 29.153 93.8079 28.9991V28.1291L95.2727 27.8894L95.7344 25.4036C95.764 25.2852 95.8202 25.1935 95.9031 25.1284C95.9859 25.0633 96.0925 25.0307 96.2227 25.0307H97.359V27.8983H99.7915V29.4608H97.359V34.3968C97.359 34.6809 97.4271 34.9029 97.5632 35.0627C97.7053 35.2225 97.8976 35.3024 98.1403 35.3024C98.2764 35.3024 98.3889 35.2876 98.4776 35.258C98.5723 35.2225 98.6522 35.187 98.7173 35.1514C98.7884 35.1159 98.8505 35.0834 98.9038 35.0538C98.957 35.0183 99.0103 35.0005 99.0636 35.0005C99.1287 35.0005 99.1819 35.0183 99.2234 35.0538C99.2648 35.0834 99.3092 35.1307 99.3565 35.1958L100.013 36.2612C99.6939 36.5275 99.3269 36.7287 98.9126 36.8649C98.4983 37.001 98.0693 37.069 97.6254 37.069ZM105.157 27.6763C105.831 27.6763 106.444 27.7858 106.994 28.0048C107.551 28.2238 108.024 28.5345 108.415 28.937C108.811 29.3394 109.116 29.8307 109.329 30.4107C109.542 30.9907 109.649 31.6388 109.649 32.3549C109.649 33.077 109.542 33.728 109.329 34.308C109.116 34.8881 108.811 35.3823 108.415 35.7906C108.024 36.199 107.551 36.5127 106.994 36.7317C106.444 36.9507 105.831 37.0602 105.157 37.0602C104.476 37.0602 103.858 36.9507 103.301 36.7317C102.745 36.5127 102.268 36.199 101.872 35.7906C101.481 35.3823 101.176 34.8881 100.957 34.308C100.744 33.728 100.638 33.077 100.638 32.3549C100.638 31.6388 100.744 30.9907 100.957 30.4107C101.176 29.8307 101.481 29.3394 101.872 28.937C102.268 28.5345 102.745 28.2238 103.301 28.0048C103.858 27.7858 104.476 27.6763 105.157 27.6763ZM105.157 35.3734C105.914 35.3734 106.474 35.1189 106.835 34.6099C107.202 34.1009 107.385 33.3552 107.385 32.3727C107.385 31.3902 107.202 30.6415 106.835 30.1266C106.474 29.6117 105.914 29.3542 105.157 29.3542C104.387 29.3542 103.816 29.6146 103.443 30.1355C103.076 30.6504 102.893 31.3961 102.893 32.3727C102.893 33.3492 103.076 34.095 103.443 34.6099C103.816 35.1189 104.387 35.3734 105.157 35.3734ZM113.39 29.3986C113.674 28.8541 114.012 28.428 114.402 28.1202C114.793 27.8065 115.255 27.6497 115.787 27.6497C116.207 27.6497 116.545 27.7414 116.799 27.9249L116.657 29.5673C116.628 29.6738 116.583 29.7508 116.524 29.7981C116.471 29.8396 116.397 29.8603 116.302 29.8603C116.213 29.8603 116.08 29.8455 115.903 29.8159C115.731 29.7863 115.562 29.7715 115.397 29.7715C115.154 29.7715 114.938 29.807 114.749 29.878C114.559 29.949 114.388 30.0526 114.234 30.1887C114.086 30.319 113.953 30.4788 113.834 30.6681C113.722 30.8575 113.615 31.0736 113.515 31.3162V36.927H111.322V27.8184H112.609C112.834 27.8184 112.991 27.8598 113.08 27.9427C113.168 28.0196 113.228 28.1616 113.257 28.3688L113.39 29.3986ZM123.554 31.3251C123.554 31.041 123.512 30.7747 123.429 30.5261C123.352 30.2716 123.234 30.0497 123.074 29.8603C122.914 29.6709 122.71 29.5229 122.462 29.4164C122.219 29.3039 121.935 29.2477 121.609 29.2477C120.976 29.2477 120.476 29.4282 120.109 29.7892C119.748 30.1503 119.517 30.6622 119.416 31.3251H123.554ZM119.372 32.6479C119.408 33.1155 119.49 33.5209 119.621 33.8642C119.751 34.2015 119.923 34.4826 120.136 34.7075C120.349 34.9265 120.6 35.0923 120.89 35.2047C121.186 35.3112 121.512 35.3645 121.867 35.3645C122.222 35.3645 122.527 35.3231 122.781 35.2402C123.042 35.1574 123.267 35.0656 123.456 34.965C123.651 34.8644 123.82 34.7727 123.962 34.6898C124.11 34.6069 124.252 34.5655 124.388 34.5655C124.572 34.5655 124.708 34.6336 124.796 34.7697L125.427 35.5687C125.184 35.8528 124.912 36.0925 124.61 36.2878C124.308 36.4772 123.992 36.6311 123.66 36.7494C123.335 36.8619 123 36.9418 122.657 36.9891C122.32 37.0365 121.991 37.0602 121.671 37.0602C121.038 37.0602 120.449 36.9566 119.905 36.7494C119.36 36.5364 118.887 36.2257 118.484 35.8173C118.082 35.403 117.765 34.894 117.534 34.2903C117.304 33.6807 117.188 32.9764 117.188 32.1774C117.188 31.5559 117.289 30.973 117.49 30.4284C117.691 29.878 117.978 29.4016 118.351 28.9991C118.73 28.5907 119.189 28.2682 119.727 28.0314C120.272 27.7947 120.884 27.6763 121.565 27.6763C122.139 27.6763 122.669 27.7681 123.154 27.9515C123.639 28.135 124.057 28.4043 124.406 28.7594C124.755 29.1086 125.027 29.5407 125.223 30.0556C125.424 30.5646 125.524 31.1475 125.524 31.8045C125.524 32.1359 125.489 32.3608 125.418 32.4792C125.347 32.5917 125.211 32.6479 125.01 32.6479H119.372Z" fill="white"/>
</svg>
