<svg width="146" height="50" viewBox="0 0 146 50" fill="none" xmlns="http://www.w3.org/2000/svg">
<rect x="0.572998" y="0.480225" width="145.427" height="49.0393" rx="5.07303" fill="#070C3E"/>
<path d="M16.6377 13.8221V35.3312C16.6378 35.3779 16.6513 35.4235 16.6763 35.4623C16.7014 35.5011 16.7369 35.5313 16.7785 35.5493C16.8201 35.5672 16.8659 35.572 16.9101 35.5631C16.9544 35.5543 16.9951 35.532 17.0272 35.4993L27.8407 24.5772L17.0272 13.6541C16.9951 13.6213 16.9544 13.5991 16.9101 13.5902C16.8659 13.5813 16.8201 13.5861 16.7785 13.6041C16.7369 13.622 16.7014 13.6523 16.6763 13.6911C16.6513 13.7298 16.6378 13.7754 16.6377 13.8221ZM32.3748 20.0893L18.8159 12.3526L18.8075 12.3476C18.5739 12.2163 18.352 12.5436 18.5433 12.734L29.1719 23.2598L32.3748 20.0893ZM18.5443 36.4204C18.352 36.6108 18.5739 36.9381 18.8085 36.8068L18.817 36.8019L32.3748 29.0651L29.1719 25.8935L18.5443 36.4204ZM37.8484 23.2089L34.0621 21.0493L30.502 24.5772L34.0621 28.1035L37.8484 25.9455C38.8783 25.356 38.8783 23.7984 37.8484 23.2089Z" fill="white"/>
<path d="M55.0587 15.4096V18.13C54.7177 18.3811 54.3534 18.5655 53.9659 18.6833C53.5814 18.7981 53.1691 18.8554 52.7289 18.8554C52.1802 18.8554 51.6826 18.7702 51.2361 18.5996C50.7928 18.4291 50.413 18.192 50.0968 17.8882C49.7837 17.5843 49.5419 17.2216 49.3714 16.8C49.2009 16.3784 49.1156 15.918 49.1156 15.4189C49.1156 14.9135 49.1978 14.45 49.3621 14.0284C49.5264 13.6068 49.7589 13.2441 50.0596 12.9403C50.3634 12.6364 50.7308 12.4008 51.1617 12.2334C51.5927 12.066 52.0763 11.9823 52.6126 11.9823C52.8854 11.9823 53.1397 12.004 53.3753 12.0474C53.614 12.0908 53.8341 12.1513 54.0356 12.2288C54.2402 12.3032 54.4262 12.3946 54.5936 12.5031C54.7611 12.6116 54.9145 12.731 55.054 12.8612L54.696 13.4285C54.6402 13.5184 54.5673 13.5742 54.4774 13.5959C54.3875 13.6145 54.2898 13.5913 54.1844 13.5262C54.0821 13.4673 53.9798 13.4084 53.8775 13.3495C53.7752 13.2906 53.6605 13.2394 53.5334 13.196C53.4094 13.1526 53.2683 13.117 53.1102 13.0891C52.9552 13.0612 52.7754 13.0472 52.5708 13.0472C52.2391 13.0472 51.9383 13.103 51.6686 13.2146C51.402 13.3262 51.1741 13.4859 50.985 13.6936C50.7959 13.9013 50.6502 14.1509 50.5479 14.4423C50.4456 14.7337 50.3944 15.0592 50.3944 15.4189C50.3944 15.8033 50.4487 16.1474 50.5572 16.4512C50.6688 16.7519 50.8238 17.0077 51.0222 17.2185C51.2237 17.4262 51.4656 17.5859 51.7477 17.6975C52.0298 17.806 52.3445 17.8603 52.6917 17.8603C52.9397 17.8603 53.1614 17.8339 53.3567 17.7812C53.552 17.7285 53.7426 17.6572 53.9287 17.5673V16.3489H53.0823C53.0017 16.3489 52.9381 16.3272 52.8916 16.2838C52.8482 16.2373 52.8265 16.1815 52.8265 16.1164V15.4096H55.0587ZM57.5195 13.0519V14.9166H59.8725V15.8792H57.5195V17.7812H60.505V18.781H56.2639V12.0567H60.505V13.0519H57.5195ZM66.3103 13.0844H64.2828V18.781H63.0319V13.0844H61.0043V12.0567H66.3103V13.0844ZM70.4258 18.781H69.1702V12.0567H70.4258V18.781ZM76.6281 13.0844H74.6006V18.781H73.3497V13.0844H71.3222V12.0567H76.6281V13.0844ZM85.9008 15.4189C85.9008 15.9118 85.8186 16.3691 85.6543 16.7907C85.4931 17.2092 85.2637 17.5719 84.9661 17.8789C84.6685 18.1858 84.3104 18.426 83.8919 18.5996C83.4733 18.7702 83.0083 18.8554 82.4968 18.8554C81.9884 18.8554 81.5249 18.7702 81.1064 18.5996C80.6878 18.426 80.3282 18.1858 80.0275 17.8789C79.7299 17.5719 79.4989 17.2092 79.3346 16.7907C79.1703 16.3691 79.0881 15.9118 79.0881 15.4189C79.0881 14.9259 79.1703 14.4702 79.3346 14.0517C79.4989 13.63 79.7299 13.2658 80.0275 12.9589C80.3282 12.6519 80.6878 12.4132 81.1064 12.2427C81.5249 12.0691 81.9884 11.9823 82.4968 11.9823C82.8378 11.9823 83.1587 12.0226 83.4594 12.1032C83.7601 12.1807 84.036 12.2923 84.2871 12.438C84.5383 12.5806 84.763 12.7558 84.9614 12.9635C85.1629 13.1681 85.3335 13.3975 85.473 13.6517C85.6125 13.906 85.7179 14.1819 85.7892 14.4795C85.8636 14.7771 85.9008 15.0902 85.9008 15.4189ZM84.622 15.4189C84.622 15.0499 84.5724 14.7198 84.4732 14.4283C84.3739 14.1338 84.2329 13.8843 84.05 13.6796C83.8671 13.475 83.6439 13.3185 83.3803 13.21C83.1199 13.1015 82.8254 13.0472 82.4968 13.0472C82.1682 13.0472 81.8721 13.1015 81.6086 13.21C81.3482 13.3185 81.125 13.475 80.9389 13.6796C80.756 13.8843 80.615 14.1338 80.5158 14.4283C80.4166 14.7198 80.367 15.0499 80.367 15.4189C80.367 15.7878 80.4166 16.1195 80.5158 16.414C80.615 16.7054 80.756 16.9534 80.9389 17.1581C81.125 17.3596 81.3482 17.5146 81.6086 17.6231C81.8721 17.7316 82.1682 17.7858 82.4968 17.7858C82.8254 17.7858 83.1199 17.7316 83.3803 17.6231C83.6439 17.5146 83.8671 17.3596 84.05 17.1581C84.2329 16.9534 84.3739 16.7054 84.4732 16.414C84.5724 16.1195 84.622 15.7878 84.622 15.4189ZM92.668 12.0567V18.781H92.0263C91.9271 18.781 91.8434 18.7655 91.7752 18.7345C91.7101 18.7004 91.6465 18.6446 91.5845 18.5671L88.0736 14.0842C88.0922 14.2888 88.1015 14.4779 88.1015 14.6516V18.781H86.9993V12.0567H87.655C87.7077 12.0567 87.7527 12.0598 87.7899 12.066C87.8302 12.0691 87.8643 12.0784 87.8922 12.0939C87.9232 12.1063 87.9527 12.1265 87.9806 12.1544C88.0085 12.1792 88.0395 12.2133 88.0736 12.2567L91.5985 16.7581C91.5892 16.6496 91.5814 16.5427 91.5752 16.4373C91.569 16.3319 91.5659 16.2342 91.5659 16.1443V12.0567H92.668Z" fill="#AFB0B4"/>
<path d="M53.5415 25.7649C55.7837 25.7649 57.5661 26.9004 58.2129 28.9127H55.8987C55.4388 28.0646 54.6051 27.6191 53.5415 27.6191C51.7448 27.6191 50.4943 28.8983 50.4943 30.8962C50.4943 32.9373 51.7591 34.2022 53.6277 34.2022C55.1801 34.2022 56.1718 33.311 56.4737 31.888H53.024V30.35H58.4572V32.1036C58.0548 34.1447 56.2293 36.0132 53.5558 36.0132C50.638 36.0132 48.4245 33.9003 48.4245 30.8962C48.4245 27.8922 50.638 25.7649 53.5415 25.7649ZM67.6359 31.9455C67.6359 34.4465 65.7961 36.0564 63.4819 36.0564C61.1822 36.0564 59.4429 34.4465 59.4429 31.9455C59.4429 29.4301 61.2396 27.8347 63.5394 27.8347C65.8392 27.8347 67.6359 29.4301 67.6359 31.9455ZM61.484 31.9455C61.484 33.5266 62.4039 34.3028 63.4819 34.3028C64.5456 34.3028 65.5661 33.5266 65.5661 31.9455C65.5661 30.35 64.5743 29.5882 63.5107 29.5882C62.447 29.5882 61.484 30.35 61.484 31.9455ZM76.8019 31.9455C76.8019 34.4465 74.9621 36.0564 72.6479 36.0564C70.3481 36.0564 68.6089 34.4465 68.6089 31.9455C68.6089 29.4301 70.4056 27.8347 72.7054 27.8347C75.0052 27.8347 76.8019 29.4301 76.8019 31.9455ZM70.65 31.9455C70.65 33.5266 71.5699 34.3028 72.6479 34.3028C73.7115 34.3028 74.7321 33.5266 74.7321 31.9455C74.7321 30.35 73.7403 29.5882 72.6767 29.5882C71.613 29.5882 70.65 30.35 70.65 31.9455ZM77.7605 31.9168C77.7605 29.4301 79.3704 27.8347 81.397 27.8347C82.6475 27.8347 83.5531 28.4096 84.0274 29.0995V27.964H86.0541V35.9845C86.0541 38.1405 84.7317 39.851 82.1157 39.851C79.8734 39.851 78.3067 38.7299 78.1055 36.9044H80.1034C80.3046 37.6231 81.0521 38.0974 82.0582 38.0974C83.165 38.0974 84.0274 37.465 84.0274 35.9845V34.7484C83.5531 35.4383 82.6475 36.0564 81.397 36.0564C79.3704 36.0564 77.7605 34.4034 77.7605 31.9168ZM84.0274 31.9455C84.0274 30.4363 83.0213 29.6026 81.9145 29.6026C80.8365 29.6026 79.8159 30.4075 79.8159 31.9168C79.8159 33.426 80.8365 34.2884 81.9145 34.2884C83.0213 34.2884 84.0274 33.4547 84.0274 31.9455ZM88.0195 35.927V25.2905H90.0318V35.927H88.0195ZM95.4408 29.4876C94.4778 29.4876 93.716 30.1057 93.5579 31.1981H97.3381C97.3094 30.1488 96.4757 29.4876 95.4408 29.4876ZM99.2211 33.426C98.7899 34.8921 97.4675 36.0564 95.4983 36.0564C93.1842 36.0564 91.5025 34.4465 91.5025 31.9455C91.5025 29.4301 93.1411 27.8347 95.4983 27.8347C97.7981 27.8347 99.4223 29.4014 99.4223 31.773C99.4223 32.0318 99.4079 32.2905 99.3648 32.5492H93.5435C93.6441 33.7278 94.4491 34.389 95.4552 34.389C96.3176 34.389 96.7919 33.9578 97.0507 33.426H99.2211ZM106.328 30.4507H107.924C109.059 30.4507 109.562 29.8901 109.562 28.9989C109.562 28.079 109.059 27.5328 107.924 27.5328H106.328V30.4507ZM111.632 28.9989C111.632 30.5225 110.597 32.0749 108.01 32.0749H106.328V35.927H104.316V25.8942H108.01C110.425 25.8942 111.632 27.2597 111.632 28.9989ZM113.061 35.927V25.2905H115.073V35.927H113.061ZM116.544 31.9168C116.544 29.4301 118.154 27.8347 120.18 27.8347C121.46 27.8347 122.337 28.4384 122.811 29.0995V27.964H124.838V35.927H122.811V34.7627C122.337 35.4527 121.431 36.0564 120.166 36.0564C118.154 36.0564 116.544 34.4034 116.544 31.9168ZM122.811 31.9455C122.811 30.4363 121.805 29.6026 120.698 29.6026C119.62 29.6026 118.599 30.4075 118.599 31.9168C118.599 33.426 119.62 34.2884 120.698 34.2884C121.805 34.2884 122.811 33.4547 122.811 31.9455ZM130.195 33.5266L132.279 27.964H134.421L129.491 39.6929H127.349L129.074 35.7258L125.883 27.964H128.14L130.195 33.5266Z" fill="white"/>
</svg>
