<svg width="146" height="50" viewBox="0 0 146 50" fill="none" xmlns="http://www.w3.org/2000/svg">
<rect x="0.573242" y="0.480225" width="145.427" height="49.0393" rx="5.07303" fill="#FAFAFA"/>
<path d="M16.6377 13.8221V35.3312C16.6378 35.3779 16.6513 35.4235 16.6763 35.4623C16.7014 35.5011 16.7369 35.5313 16.7785 35.5493C16.8201 35.5672 16.8659 35.572 16.9101 35.5631C16.9544 35.5543 16.9951 35.532 17.0272 35.4993L27.8407 24.5772L17.0272 13.6541C16.9951 13.6213 16.9544 13.5991 16.9101 13.5902C16.8659 13.5813 16.8201 13.5861 16.7785 13.6041C16.7369 13.622 16.7014 13.6523 16.6763 13.6911C16.6513 13.7298 16.6378 13.7754 16.6377 13.8221ZM32.3748 20.0893L18.8159 12.3526L18.8075 12.3476C18.5739 12.2163 18.352 12.5436 18.5433 12.734L29.1719 23.2598L32.3748 20.0893ZM18.5443 36.4204C18.352 36.6108 18.5739 36.9381 18.8085 36.8068L18.817 36.8019L32.3748 29.0651L29.1719 25.8935L18.5443 36.4204ZM37.8484 23.2089L34.0621 21.0493L30.502 24.5772L34.0621 28.1035L37.8484 25.9455C38.8783 25.356 38.8783 23.7984 37.8484 23.2089Z" fill="#070C3E"/>
<path d="M55.0594 15.4096V18.13C54.7184 18.3811 54.3541 18.5655 53.9666 18.6833C53.5822 18.7981 53.1698 18.8554 52.7296 18.8554C52.1809 18.8554 51.6833 18.7702 51.2369 18.5996C50.7936 18.4291 50.4138 18.192 50.0976 17.8882C49.7844 17.5843 49.5426 17.2216 49.3721 16.8C49.2016 16.3784 49.1163 15.918 49.1163 15.4189C49.1163 14.9135 49.1985 14.45 49.3628 14.0284C49.5271 13.6068 49.7596 13.2441 50.0604 12.9403C50.3642 12.6364 50.7315 12.4008 51.1625 12.2334C51.5934 12.066 52.077 11.9823 52.6134 11.9823C52.8862 11.9823 53.1404 12.004 53.376 12.0474C53.6147 12.0908 53.8348 12.1513 54.0363 12.2288C54.241 12.3032 54.427 12.3946 54.5944 12.5031C54.7618 12.6116 54.9152 12.731 55.0548 12.8612L54.6967 13.4285C54.6409 13.5184 54.568 13.5742 54.4781 13.5959C54.3882 13.6145 54.2906 13.5913 54.1852 13.5262C54.0828 13.4673 53.9805 13.4084 53.8782 13.3495C53.7759 13.2906 53.6612 13.2394 53.5341 13.196C53.4101 13.1526 53.2691 13.117 53.1109 13.0891C52.9559 13.0612 52.7761 13.0472 52.5715 13.0472C52.2398 13.0472 51.9391 13.103 51.6694 13.2146C51.4027 13.3262 51.1749 13.4859 50.9858 13.6936C50.7967 13.9013 50.6509 14.1509 50.5486 14.4423C50.4463 14.7337 50.3952 15.0592 50.3952 15.4189C50.3952 15.8033 50.4494 16.1474 50.5579 16.4512C50.6695 16.7519 50.8246 17.0077 51.023 17.2185C51.2245 17.4262 51.4663 17.5859 51.7484 17.6975C52.0305 17.806 52.3452 17.8603 52.6924 17.8603C52.9404 17.8603 53.1621 17.8339 53.3574 17.7812C53.5527 17.7285 53.7434 17.6572 53.9294 17.5673V16.3489H53.083C53.0024 16.3489 52.9389 16.3272 52.8924 16.2838C52.849 16.2373 52.8273 16.1815 52.8273 16.1164V15.4096H55.0594ZM57.5202 13.0519V14.9166H59.8732V15.8792H57.5202V17.7812H60.5057V18.781H56.2646V12.0567H60.5057V13.0519H57.5202ZM66.3111 13.0844H64.2835V18.781H63.0326V13.0844H61.0051V12.0567H66.3111V13.0844ZM70.4266 18.781H69.171V12.0567H70.4266V18.781ZM76.6289 13.0844H74.6013V18.781H73.3504V13.0844H71.3229V12.0567H76.6289V13.0844ZM85.9015 15.4189C85.9015 15.9118 85.8194 16.3691 85.6551 16.7907C85.4938 17.2092 85.2644 17.5719 84.9668 17.8789C84.6692 18.1858 84.3111 18.426 83.8926 18.5996C83.4741 18.7702 83.009 18.8554 82.4975 18.8554C81.9891 18.8554 81.5256 18.7702 81.1071 18.5996C80.6886 18.426 80.3289 18.1858 80.0282 17.8789C79.7306 17.5719 79.4996 17.2092 79.3353 16.7907C79.171 16.3691 79.0889 15.9118 79.0889 15.4189C79.0889 14.9259 79.171 14.4702 79.3353 14.0517C79.4996 13.63 79.7306 13.2658 80.0282 12.9589C80.3289 12.6519 80.6886 12.4132 81.1071 12.2427C81.5256 12.0691 81.9891 11.9823 82.4975 11.9823C82.8385 11.9823 83.1594 12.0226 83.4601 12.1032C83.7608 12.1807 84.0368 12.2923 84.2879 12.438C84.539 12.5806 84.7638 12.7558 84.9622 12.9635C85.1637 13.1681 85.3342 13.3975 85.4737 13.6517C85.6132 13.906 85.7186 14.1819 85.7899 14.4795C85.8643 14.7771 85.9015 15.0902 85.9015 15.4189ZM84.6227 15.4189C84.6227 15.0499 84.5731 14.7198 84.4739 14.4283C84.3747 14.1338 84.2336 13.8843 84.0507 13.6796C83.8678 13.475 83.6446 13.3185 83.3811 13.21C83.1207 13.1015 82.8261 13.0472 82.4975 13.0472C82.1689 13.0472 81.8728 13.1015 81.6093 13.21C81.3489 13.3185 81.1257 13.475 80.9397 13.6796C80.7568 13.8843 80.6157 14.1338 80.5165 14.4283C80.4173 14.7198 80.3677 15.0499 80.3677 15.4189C80.3677 15.7878 80.4173 16.1195 80.5165 16.414C80.6157 16.7054 80.7568 16.9534 80.9397 17.1581C81.1257 17.3596 81.3489 17.5146 81.6093 17.6231C81.8728 17.7316 82.1689 17.7858 82.4975 17.7858C82.8261 17.7858 83.1207 17.7316 83.3811 17.6231C83.6446 17.5146 83.8678 17.3596 84.0507 17.1581C84.2336 16.9534 84.3747 16.7054 84.4739 16.414C84.5731 16.1195 84.6227 15.7878 84.6227 15.4189ZM92.6688 12.0567V18.781H92.027C91.9278 18.781 91.8441 18.7655 91.7759 18.7345C91.7108 18.7004 91.6473 18.6446 91.5853 18.5671L88.0743 14.0842C88.0929 14.2888 88.1022 14.4779 88.1022 14.6516V18.781H87.0001V12.0567H87.6558C87.7085 12.0567 87.7534 12.0598 87.7906 12.066C87.8309 12.0691 87.865 12.0784 87.8929 12.0939C87.9239 12.1063 87.9534 12.1265 87.9813 12.1544C88.0092 12.1792 88.0402 12.2133 88.0743 12.2567L91.5992 16.7581C91.5899 16.6496 91.5822 16.5427 91.576 16.4373C91.5698 16.3319 91.5667 16.2342 91.5667 16.1443V12.0567H92.6688Z" fill="#757687"/>
<path d="M53.542 25.7649C55.7842 25.7649 57.5666 26.9004 58.2134 28.9127H55.8992C55.4393 28.0646 54.6056 27.6191 53.542 27.6191C51.7453 27.6191 50.4947 28.8983 50.4947 30.8962C50.4947 32.9373 51.7596 34.2022 53.6282 34.2022C55.1805 34.2022 56.1723 33.311 56.4742 31.888H53.0245V30.35H58.4577V32.1036C58.0553 34.1447 56.2298 36.0132 53.5563 36.0132C50.6385 36.0132 48.425 33.9003 48.425 30.8962C48.425 27.8922 50.6385 25.7649 53.542 25.7649ZM67.6364 31.9455C67.6364 34.4465 65.7966 36.0564 63.4824 36.0564C61.1826 36.0564 59.4434 34.4465 59.4434 31.9455C59.4434 29.4301 61.2401 27.8347 63.5399 27.8347C65.8397 27.8347 67.6364 29.4301 67.6364 31.9455ZM61.4845 31.9455C61.4845 33.5266 62.4044 34.3028 63.4824 34.3028C64.5461 34.3028 65.5666 33.5266 65.5666 31.9455C65.5666 30.35 64.5748 29.5882 63.5112 29.5882C62.4475 29.5882 61.4845 30.35 61.4845 31.9455ZM76.8024 31.9455C76.8024 34.4465 74.9625 36.0564 72.6484 36.0564C70.3486 36.0564 68.6094 34.4465 68.6094 31.9455C68.6094 29.4301 70.4061 27.8347 72.7059 27.8347C75.0057 27.8347 76.8024 29.4301 76.8024 31.9455ZM70.6505 31.9455C70.6505 33.5266 71.5704 34.3028 72.6484 34.3028C73.712 34.3028 74.7326 33.5266 74.7326 31.9455C74.7326 30.35 73.7408 29.5882 72.6771 29.5882C71.6135 29.5882 70.6505 30.35 70.6505 31.9455ZM77.761 31.9168C77.761 29.4301 79.3709 27.8347 81.3975 27.8347C82.648 27.8347 83.5536 28.4096 84.0279 29.0995V27.964H86.0546V35.9845C86.0546 38.1405 84.7322 39.851 82.1162 39.851C79.8739 39.851 78.3072 38.7299 78.106 36.9044H80.1039C80.3051 37.6231 81.0526 38.0974 82.0587 38.0974C83.1655 38.0974 84.0279 37.465 84.0279 35.9845V34.7484C83.5536 35.4383 82.648 36.0564 81.3975 36.0564C79.3709 36.0564 77.761 34.4034 77.761 31.9168ZM84.0279 31.9455C84.0279 30.4363 83.0217 29.6026 81.915 29.6026C80.837 29.6026 79.8164 30.4075 79.8164 31.9168C79.8164 33.426 80.837 34.2884 81.915 34.2884C83.0217 34.2884 84.0279 33.4547 84.0279 31.9455ZM88.0199 35.927V25.2905H90.0322V35.927H88.0199ZM95.4413 29.4876C94.4783 29.4876 93.7165 30.1057 93.5584 31.1981H97.3386C97.3099 30.1488 96.4762 29.4876 95.4413 29.4876ZM99.2216 33.426C98.7904 34.8921 97.468 36.0564 95.4988 36.0564C93.1847 36.0564 91.503 34.4465 91.503 31.9455C91.503 29.4301 93.1415 27.8347 95.4988 27.8347C97.7986 27.8347 99.4228 29.4014 99.4228 31.773C99.4228 32.0318 99.4084 32.2905 99.3653 32.5492H93.544C93.6446 33.7278 94.4495 34.389 95.4557 34.389C96.3181 34.389 96.7924 33.9578 97.0512 33.426H99.2216ZM106.329 30.4507H107.924C109.06 30.4507 109.563 29.8901 109.563 28.9989C109.563 28.079 109.06 27.5328 107.924 27.5328H106.329V30.4507ZM111.633 28.9989C111.633 30.5225 110.598 32.0749 108.011 32.0749H106.329V35.927H104.317V25.8942H108.011C110.425 25.8942 111.633 27.2597 111.633 28.9989ZM113.061 35.927V25.2905H115.074V35.927H113.061ZM116.544 31.9168C116.544 29.4301 118.154 27.8347 120.181 27.8347C121.46 27.8347 122.337 28.4384 122.811 29.0995V27.964H124.838V35.927H122.811V34.7627C122.337 35.4527 121.431 36.0564 120.167 36.0564C118.154 36.0564 116.544 34.4034 116.544 31.9168ZM122.811 31.9455C122.811 30.4363 121.805 29.6026 120.698 29.6026C119.62 29.6026 118.6 30.4075 118.6 31.9168C118.6 33.426 119.62 34.2884 120.698 34.2884C121.805 34.2884 122.811 33.4547 122.811 31.9455ZM130.196 33.5266L132.28 27.964H134.421L129.491 39.6929H127.35L129.074 35.7258L125.883 27.964H128.14L130.196 33.5266Z" fill="#070C3E"/>
</svg>
