<svg width="129" height="55" viewBox="0 0 129 55" fill="none" xmlns="http://www.w3.org/2000/svg">
<path d="M127.901 46.8266C125.981 49.4702 122.141 50.4284 118.723 51.0893C83.3759 57.6981 46.4928 55.1537 10.9921 49.2058C7.42096 48.611 3.48498 47.7849 1.39218 45.1744C-0.700609 42.564 -0.0286112 39.6561 0.796986 36.6656C0.796986 36.3021 1.00819 35.9552 1.12338 35.6082C1.39218 34.6995 1.69938 33.8404 2.02578 33.0473C4.42665 26.0305 7.5228 19.2039 11.2801 12.6426C13.8529 8.2643 17.5009 1.77115 23.6641 0.350259C26.0614 -0.0613267 28.5236 -0.11164 30.9409 0.201561C35.3761 0.532001 39.8112 0.895485 44.2272 1.25897L102.269 5.83556L105.705 6.09991C110.121 6.44688 114.883 6.92601 118.147 9.50345C121.411 12.0809 122.198 15.5505 123.12 18.9706C124.809 25.348 126.505 31.7365 128.208 38.1361C128.419 38.9291 128.63 39.7883 128.784 40.5978C128.928 41.3792 128.999 42.1693 128.995 42.9605C129.049 44.3112 128.67 45.6487 127.901 46.8266Z" fill="#02C5BD"/>
<path d="M127.901 46.8266C125.981 49.4702 122.141 50.4284 118.723 51.0893C83.3759 57.6981 46.4928 55.1537 10.9921 49.2058C7.42096 48.611 3.48498 47.7849 1.39218 45.1744C-0.700609 42.564 -0.0286112 39.6561 0.796986 36.6656C1.80728 37.9017 3.00875 39.0134 4.36817 39.97C10.6849 44.4144 19.1713 45.7197 27.2545 46.5788C52.5984 49.2554 78.1919 49.1067 103.728 48.7762C109.123 48.7762 114.691 48.5945 119.645 46.711C123.181 45.2979 126.294 43.2067 128.745 40.5978C128.903 41.3783 128.986 42.1684 128.995 42.9605C129.049 44.3112 128.67 45.6487 127.901 46.8266Z" fill="#00ACA5"/>
</svg>
