<svg width="19" height="11" viewBox="0 0 19 11" fill="none" xmlns="http://www.w3.org/2000/svg">
<path d="M17.9772 1.36416C18.1913 1.57584 18.3214 1.85647 18.344 2.15503C18.3666 2.45359 18.2801 2.75026 18.1002 2.99108L17.9772 3.1311L10.3929 10.6323C10.1788 10.844 9.89508 10.9727 9.59321 10.9951C9.29134 11.0174 8.99138 10.9318 8.74789 10.7539L8.60632 10.6323L1.02198 3.1311C0.797889 2.90773 0.667205 2.609 0.656009 2.29453C0.644813 1.98007 0.753924 1.67299 0.961572 1.43458C1.16922 1.19618 1.46012 1.04398 1.77623 1.00837C2.09234 0.972765 2.4104 1.05636 2.66693 1.24247L2.80851 1.36416L9.49959 7.98185L16.1907 1.36416C16.4277 1.13004 16.749 0.998535 17.0839 0.998535C17.4189 0.998535 17.7402 1.13004 17.9772 1.36416Z" fill="#797F89"/>
</svg>
