<svg width="19" height="11" viewBox="0 0 19 11" fill="none" xmlns="http://www.w3.org/2000/svg">
<path d="M17.9768 0.864128C18.1909 1.07581 18.3211 1.35644 18.3436 1.655C18.3662 1.95356 18.2797 2.25023 18.0999 2.49105L17.9768 2.63107L10.3925 10.1322C10.1785 10.344 9.89471 10.4727 9.59284 10.495C9.29097 10.5174 8.99102 10.4318 8.74753 10.2539L8.60595 10.1322L1.02161 2.63107C0.797523 2.4077 0.666842 2.10897 0.655643 1.7945C0.644447 1.48004 0.753561 1.17296 0.961206 0.934553C1.16885 0.696149 1.45976 0.543954 1.77587 0.508344C2.09197 0.472734 2.41004 0.556328 2.66657 0.742442L2.80814 0.864128L9.49922 7.48182L16.1903 0.864128C16.4273 0.630007 16.7486 0.498505 17.0836 0.498505C17.4185 0.498505 17.7398 0.630007 17.9768 0.864128Z" fill="#02C5BD"/>
</svg>
