<svg width="55" height="38" viewBox="0 0 55 38" fill="none" xmlns="http://www.w3.org/2000/svg">
<path d="M1.17211 21.8506C-0.736654 25.3065 0.150583 28.8627 0.620584 30.231C0.877389 30.9336 1.52912 30.9353 2.20516 30.922C4.03046 30.922 5.79821 30.4454 7.31275 29.5449C8.80714 28.6641 10.033 27.4069 10.9586 25.8067C11.371 25.0436 12.4553 24.7764 13.0918 25.3858C15.9291 27.9708 18.8604 29.9217 21.8576 31.2663C19.8377 34.8335 22.3578 38.11 26.294 37.9972C29.636 37.912 32.4223 36.2327 35.2454 33.2266C43.8131 32.1162 50.088 26.9571 53.3388 23.5991C55.5536 21.3153 55.5536 17.5986 53.3398 15.3161C50.093 11.6005 42.0497 6.29221 35.4242 5.7052C32.3619 2.47881 29.136 0.587292 25.8287 0.104232C18.9804 -0.809753 15.8276 4.44513 19.7285 9.6767C20.0885 10.1741 20.5759 10.4606 21.1661 10.1915C25.3132 7.92326 30.1845 7.04518 34.8421 7.64344C36.2636 7.82053 37.6928 8.13256 39.0955 8.55954C38.4646 9.73114 37.9349 10.9612 37.5172 12.2302C35.9717 16.8742 35.9425 22.0136 37.5182 26.6758C37.9475 27.9112 39.7794 27.283 39.377 26.0278C37.5043 20.5149 38.1406 14.2661 40.9841 9.23407C45.8817 11.1707 49.6103 14.309 51.9423 16.7241C53.4031 18.2313 53.4031 20.6825 51.9413 22.1903C48.2888 25.9647 40.6058 32.1753 30.0635 31.3761C24.6767 30.9704 19.407 28.4522 14.4011 23.8908C13.6683 23.2223 12.6909 22.9282 11.7077 23.0843C10.6852 23.2478 9.7951 23.8703 9.26563 24.7903C8.51556 26.0876 7.52761 27.103 6.32768 27.8111C5.12966 28.5226 3.73214 28.9044 2.28091 28.9171C1.95095 27.631 1.60181 25.1558 2.88327 22.8357C3.58635 21.5649 4.53976 20.7501 5.21502 20.2906C5.7933 19.9224 5.78961 18.9908 5.21501 18.6228C2.41667 16.906 1.37645 12.992 2.27912 9.99276C3.7134 10.0071 5.07365 10.3729 6.33055 11.1042C7.52761 11.8103 8.51556 12.8258 9.26467 14.1206C10.256 15.9614 12.8869 16.4689 14.3963 15.0264C15.3602 14.1568 16.2436 13.4248 17.0954 12.7891C17.5328 12.4622 17.6277 11.8353 17.3074 11.3885C16.9879 10.9412 16.3741 10.8443 15.9348 11.1712C15.0341 11.8441 14.1056 12.6134 13.0908 13.528C12.7944 13.7981 12.4108 13.9117 12.0117 13.8485C11.5734 13.7786 11.1897 13.508 10.9576 13.1042C10.033 11.5064 8.80714 10.2493 7.23026 9.32094C5.48961 8.32181 3.54306 7.87368 1.47903 8.01384C1.09153 8.04125 0.755823 8.29963 0.623452 8.67351C0.437375 9.19909 0.00478643 10.6139 0.00478643 12.3912C-0.0064499 15.1246 1.08127 17.6742 3.06648 19.4596C2.4219 20.0468 1.73514 20.8328 1.17211 21.8506ZM29.9234 5.53813C26.8791 5.75627 23.7646 6.65971 21.0219 8.029C20.003 6.33591 19.7247 5.01475 20.1926 4.01082C21.0059 2.25987 23.4691 1.78518 25.5505 2.0881C27.8295 2.42117 30.0959 3.56237 32.3122 5.4701C31.5139 5.45799 30.7157 5.47799 29.9234 5.53813ZM31.9223 33.4515C32.0079 33.4515 32.0894 33.4431 32.1746 33.4423C30.792 34.6112 29.0847 35.6486 27.161 35.9301C24.8485 36.3291 21.8165 35.1195 23.7013 32.0201C26.3875 32.9952 29.1294 33.4609 31.9223 33.4515Z" fill="white"/>
<path d="M29.4755 16.5156L31.4888 17.5379C31.9732 17.7835 32.564 17.5819 32.8057 17.0867C33.0474 16.5914 32.8498 15.9895 32.3635 15.7429L30.3474 14.7191C25.8752 13.0794 25.2132 20.3918 26.9433 23.0949C27.5875 24.3367 29.1413 24.8089 30.3502 24.1927L32.3635 23.1705C32.8498 22.9238 33.0474 22.3219 32.8057 21.8267C32.564 21.3314 31.9732 21.1303 31.4888 21.3755L29.4783 22.3963C29.1858 22.5441 28.8251 22.4364 28.6707 22.1403C27.7777 20.4853 27.7777 18.4285 28.6774 16.7612C28.8242 16.4789 29.1839 16.3683 29.4755 16.5156Z" fill="white"/>
<path d="M45.1858 18.314V16.3095C45.1644 14.9927 43.2429 14.9919 43.2214 16.3096V18.314C43.2429 19.6308 45.1643 19.6317 45.1858 18.314Z" fill="white"/>
</svg>
