<svg width="55" height="67" viewBox="0 0 55 67" fill="none" xmlns="http://www.w3.org/2000/svg">
<path d="M14.3648 17.824C14.3648 16.43 13.4572 15.3377 12.2984 15.3377C11.1401 15.3377 10.2325 16.4295 10.2325 17.824C10.2325 19.2179 11.1401 20.3098 12.2984 20.3098C13.4572 20.3098 14.3648 19.2179 14.3648 17.824Z" fill="#FFB13D"/>
<path d="M31.4493 17.824C31.4493 16.43 30.5417 15.3377 29.3835 15.3377C28.2247 15.3377 27.3171 16.4295 27.3171 17.824C27.3171 19.2179 28.2247 20.3098 29.3835 20.3098C30.5417 20.3098 31.4493 19.2179 31.4493 17.824Z" fill="#FFB13D"/>
<path d="M20.8409 25.4164C21.4034 25.4164 21.8588 24.9752 21.8588 24.4303V22.2195C23.0477 21.8893 23.9685 21.0173 23.9685 20.0798C23.9685 19.7363 23.8318 18.9056 22.567 18.6158C22.1522 18.5207 21.6361 18.4798 20.8409 18.4798C20.0463 18.4798 19.5302 18.5207 19.1149 18.6158C17.8501 18.9056 17.7134 19.7363 17.7134 20.0798C17.7134 21.0173 18.6342 21.8893 19.823 22.2195V24.4303C19.823 24.9752 20.279 25.4164 20.8409 25.4164Z" fill="#FFB13D"/>
<path d="M44.3647 27.3813C45.62 30.2137 47.1825 33.7382 46.877 37.6758C46.6369 40.7658 45.7382 43.9815 44.3462 46.7306C44.0988 47.2198 44.3072 47.8102 44.8122 48.0499C44.9562 48.1184 45.1092 48.1511 45.2596 48.1511C45.6359 48.1511 45.9973 47.9482 46.1746 47.5991C47.6774 44.6297 48.6478 41.1584 48.9069 37.8235C49.2504 33.4039 47.5788 29.633 46.2353 26.6028C45.467 24.8694 44.8032 23.3722 44.7446 22.2512C44.6824 21.0582 45.7361 19.8431 47.0004 19.6509C47.7339 19.539 50.2504 19.6182 51.8239 25.3239C51.969 25.8499 52.5268 26.1622 53.0703 26.0221C53.6133 25.8815 53.9362 25.3407 53.7911 24.8147C53.0761 22.2241 52.0508 20.2955 50.7427 19.0825C49.5496 17.9758 48.107 17.4861 46.6838 17.7023C44.3779 18.0535 42.5954 20.1386 42.7115 22.3509C42.7885 23.8256 43.5188 25.4736 44.3647 27.3813Z" fill="#FFB13D"/>
<path d="M55 35.9603C55.0005 33.3247 54.8591 30.9227 54.5794 28.8208C54.5082 28.2805 53.9969 27.8996 53.4402 27.9687C52.8824 28.0382 52.4888 28.5325 52.56 29.0723C52.8286 31.0914 52.9642 33.4085 52.9637 35.9598C52.9626 40.8455 51.882 45.2349 49.7517 49.0068C48.0489 52.0227 45.6696 54.6624 42.6804 56.8523C41.3722 57.8107 40.0578 58.5989 38.8241 59.2425C39.2927 58.2345 39.5238 57.0772 39.5238 55.7563C39.5238 55.625 39.5206 55.4859 39.5154 55.3433C41.1422 54.2596 42.6118 52.88 43.8893 51.232C44.227 50.7965 44.1362 50.1784 43.6866 49.8513C43.2371 49.5242 42.5991 49.6121 42.2614 50.0476C41.368 51.1998 40.3739 52.2027 39.2937 53.0456C38.3265 46.1187 34.5805 33.5394 33.4851 29.9428C35.2702 29.2936 36.9836 27.8685 38.0558 25.812L39.5053 26.5752C39.9934 26.8313 40.6214 26.6514 40.8857 26.1791C41.1543 25.7006 40.9712 25.102 40.4773 24.8418L38.7882 23.9529C38.9893 23.2362 39.118 22.4669 39.1608 21.6486L40.8351 21.3715C41.3897 21.28 41.7622 20.7709 41.6677 20.2336C41.5728 19.6969 41.0472 19.3365 40.4926 19.4275L39.0162 19.6714C38.2653 15.5912 35.0491 10.4606 34.2391 9.21488C34.2655 8.55291 34.3025 6.97902 34.1521 5.34533C33.8523 2.08816 32.9585 0.354783 31.4198 0.0465475C29.909 -0.255554 28.3893 0.914513 26.7736 3.62575C26.0939 4.76566 25.551 5.91886 25.2465 6.60587H16.4354C16.1309 5.91886 15.5879 4.76566 14.9083 3.62575C13.2925 0.914513 11.7728 -0.256065 10.2621 0.0465475C8.72339 0.354783 7.82951 2.08816 7.52979 5.34533C7.3794 6.97851 7.41634 8.55291 7.44325 9.21488C6.63274 10.4606 3.41709 15.5912 2.66568 19.6714L1.18924 19.4275C0.635184 19.336 0.109092 19.6969 0.014638 20.2336C-0.0798159 20.7709 0.292723 21.28 0.846782 21.3715L2.5211 21.6486C2.56384 22.4669 2.69312 23.2362 2.89364 23.9529L1.20455 24.8418C0.710642 25.102 0.528066 25.7006 0.796125 26.1791C1.06102 26.6514 1.68842 26.8318 2.17652 26.5752L3.62605 25.812C4.69881 27.869 6.41217 29.2941 8.19783 29.9428C7.90761 30.8977 7.42637 32.5007 6.86281 34.4518C6.71137 34.9763 7.02744 35.5207 7.56884 35.6674C8.11023 35.8146 8.67221 35.5079 8.82365 34.9834C9.73758 31.8172 10.4336 29.5763 10.4404 29.5538C10.6125 29.0017 10.241 28.4093 9.65685 28.3009C7.23007 27.8516 4.69565 25.3418 4.54684 21.4155C4.48563 19.7961 5.27925 17.3302 6.84223 14.2852C8.05905 11.9154 9.31544 10.0389 9.32811 10.0205C9.44684 9.84362 9.50382 9.63506 9.49116 9.42446C9.4901 9.40554 9.37771 7.48099 9.55765 5.52066C9.81304 2.74705 10.4505 2.02273 10.6747 1.97826C10.8974 1.93225 11.7739 2.31665 13.1353 4.59544C14.1041 6.21687 14.8006 7.93338 14.8075 7.95076C14.9595 8.32902 15.3362 8.57796 15.7557 8.57796H25.9267C26.3462 8.57796 26.7224 8.32902 26.8749 7.95076C26.8818 7.93338 27.5698 6.23425 28.5365 4.61231C29.9038 2.31921 30.7844 1.93327 31.0077 1.97826C31.2309 2.02273 31.8662 2.74348 32.1226 5.50226C32.3047 7.4631 32.1923 9.40554 32.1907 9.42497C32.1786 9.63506 32.2355 9.84413 32.3543 10.0205C32.3669 10.0389 33.6233 11.9154 34.8402 14.2857C36.4031 17.3302 37.1968 19.7961 37.135 21.4155C36.9867 25.3418 34.4518 27.8516 32.025 28.3009C31.4409 28.4093 31.0699 29.0022 31.2414 29.5543C31.3042 29.7552 37.488 49.7117 37.488 55.7563C37.488 57.7785 36.839 59.2159 35.4459 60.2802C34.2613 61.1849 32.5073 61.8377 30.1148 62.2625C30.6794 60.1033 31.1802 57.1104 31.6039 53.3676C32.3216 47.0286 32.5764 40.6073 32.5791 40.5434C32.6002 39.999 32.1622 39.541 31.6002 39.5206C31.0425 39.4976 30.566 39.9244 30.5444 40.4688C30.5422 40.5281 30.3058 46.473 29.6494 52.5278C29.2658 56.062 28.8173 58.9368 28.316 61.072C27.591 64.1579 26.9509 64.8602 26.7678 65.0044C26.4913 64.8061 25.1578 63.3681 24.388 53.8906C23.9447 48.4333 23.9183 43.0681 23.9183 43.0144C23.9162 42.471 23.4608 42.0319 22.9004 42.0319C22.8994 42.0319 22.8978 42.0319 22.8962 42.0319C22.3343 42.034 21.8805 42.4772 21.8826 43.0216C21.8826 43.0798 21.9105 48.8765 22.405 54.598C22.6973 57.9866 23.0946 60.6968 23.5859 62.654C23.6017 62.7174 23.6186 62.7813 23.635 62.8462C22.7617 62.8723 21.8382 62.8856 20.8409 62.8856C19.8436 62.8856 18.9207 62.8723 18.0469 62.8462C18.0638 62.7813 18.0801 62.7169 18.096 62.654C18.5872 60.6968 18.9851 57.9866 19.2774 54.598C19.7713 48.8765 19.7993 43.0798 19.7998 43.0216C19.8019 42.4772 19.3476 42.034 18.7856 42.0319C18.7841 42.0319 18.783 42.0319 18.7814 42.0319C18.221 42.0319 17.7656 42.471 17.7635 43.0144C17.7635 43.0681 17.7377 48.4236 17.295 53.8808C16.5251 63.3676 15.1906 64.8061 14.9141 65.0044C14.7869 64.9042 14.4402 64.5351 13.998 63.2899C13.9806 63.2035 13.9521 63.1207 13.9131 63.0436C13.7411 62.5283 13.5564 61.8832 13.3659 61.072C12.8646 58.9368 12.4161 56.062 12.0324 52.5278C11.376 46.473 11.1396 40.5281 11.1375 40.4688C11.1159 39.9244 10.6431 39.4971 10.0816 39.5206C9.51965 39.541 9.08168 39.999 9.10279 40.5434C9.10543 40.6073 9.36082 47.0286 10.0779 53.3676C10.5017 57.1109 11.0029 60.1033 11.5676 62.2625C9.17983 61.8387 7.42848 61.1885 6.24437 60.2868C4.84551 59.2215 4.19383 57.7821 4.19383 55.7563C4.19383 53.0906 5.42542 47.2162 7.75458 38.7686C7.89969 38.2421 7.57728 37.7018 7.03378 37.5613C6.49133 37.4212 5.93304 37.733 5.78741 38.2595C3.3791 46.9934 2.15806 52.8805 2.15806 55.7563C2.15806 58.3991 3.08307 60.388 4.98587 61.8372C6.60794 63.0722 8.98354 63.9023 12.234 64.368C12.8108 65.8187 13.6329 67 14.9019 67C16.0966 67 16.8718 66.0027 17.3984 64.7979C18.4648 64.8378 19.5977 64.8577 20.8409 64.8577C22.0841 64.8577 23.2171 64.8378 24.2835 64.7979C24.8101 66.0027 25.5853 67 26.7799 67C28.0495 67 28.8711 65.8187 29.4484 64.368C30.6335 64.1978 31.701 63.9785 32.6593 63.7096C33.1078 63.6191 54.9947 58.7876 55 35.9603Z" fill="#FFB13D"/>
</svg>
