<svg width="45" height="37" viewBox="0 0 45 37" fill="none" xmlns="http://www.w3.org/2000/svg">
<path d="M33.2761 21.4414C30.2484 17.9454 26.4215 16.0201 22.5 16.0201C18.5785 16.0201 14.7514 17.9454 11.7239 21.4414C9.00249 24.5838 7.37792 28.5441 7.37792 32.0352C7.37792 33.7311 7.92003 35.0229 8.98913 35.8748C10.0444 36.7156 11.4375 37.0001 12.9918 37C14.6456 37 16.482 36.6779 18.2863 36.3614C19.863 36.0847 21.3522 35.8235 22.5 35.8235C23.4908 35.8235 24.8876 36.0714 26.3662 36.334C29.8218 36.9475 33.7385 37.6428 36.0011 35.8437C37.0767 34.9885 37.6221 33.7071 37.6221 32.0352C37.6222 28.5441 35.9975 24.5838 33.2761 21.4414ZM34.3154 33.9048C33.0038 34.9478 29.5902 34.3417 26.8473 33.8548C25.2458 33.5704 23.7332 33.3018 22.4999 33.3018C21.1122 33.3018 19.5084 33.5833 17.8104 33.8812C15.1797 34.3426 11.9058 34.917 10.6767 33.9376C10.5129 33.807 10.0144 33.4098 10.0144 32.0351C10.0144 29.1566 11.4475 25.7136 13.7544 23.0498C16.272 20.1427 19.3779 18.5416 22.4998 18.5416C25.6217 18.5416 28.7275 20.1427 31.2452 23.0498C33.5521 25.7136 34.9852 29.1566 34.9852 32.0351C34.9854 33.372 34.4811 33.7731 34.3154 33.9048Z" fill="white"/>
<path d="M33.5856 2.45784C32.4778 0.895854 30.8916 0.000168338 29.2335 0.000168338C27.5754 0.000168338 25.9892 0.896023 24.8814 2.45784C23.8638 3.89274 23.3034 5.77707 23.3034 7.76379C23.3034 9.7505 23.8638 11.6348 24.8814 13.0697C25.9892 14.6316 27.5755 15.5275 29.2335 15.5275C30.8917 15.5275 32.4778 14.6316 33.5856 13.0697C34.6032 11.6348 35.1637 9.7505 35.1637 7.76379C35.1637 5.77707 34.6033 3.89265 33.5856 2.45784ZM31.4036 11.6543C31.0456 12.1591 30.2876 13.0059 29.2335 13.0059C28.1795 13.0059 27.4216 12.1592 27.0635 11.6543C26.3495 10.6475 25.94 9.22945 25.94 7.76379C25.94 6.29804 26.3496 4.88004 27.0635 3.87324C27.4215 3.36849 28.1795 2.52164 29.2335 2.52164C30.2876 2.52164 31.0456 3.3684 31.4036 3.87324C32.1176 4.88004 32.5271 6.29813 32.5271 7.76379C32.527 9.22945 32.1176 10.6475 31.4036 11.6543Z" fill="white"/>
<path d="M20.1186 2.45776C19.0108 0.89577 17.4246 0 15.7665 0C14.1083 0 12.5221 0.895854 11.4144 2.45776C10.3968 3.89265 9.83631 5.77699 9.83631 7.7637C9.83631 9.75042 10.3967 11.6348 11.4144 13.0697C12.5222 14.6316 14.1083 15.5275 15.7665 15.5275C17.4246 15.5275 19.0108 14.6316 20.1186 13.0697C21.1362 11.6348 21.6966 9.7505 21.6966 7.7637C21.6966 5.77699 21.1362 3.89257 20.1186 2.45776ZM17.9363 11.6543C17.5783 12.1591 16.8204 13.0059 15.7664 13.0059C14.7123 13.0059 13.9543 12.1591 13.5964 11.6543C12.8823 10.6475 12.4729 9.22945 12.4729 7.76379C12.4729 6.29804 12.8824 4.88004 13.5964 3.87324C13.9543 3.36849 14.7123 2.52164 15.7664 2.52164C16.8205 2.52164 17.5783 3.3684 17.9363 3.87324C18.6503 4.88004 19.0598 6.29813 19.0598 7.76379C19.0598 9.22945 18.6503 10.6475 17.9363 11.6543Z" fill="white"/>
<path d="M44.738 14.6447C44.2914 13.1919 43.3342 12.1362 42.0428 11.6723C41.0036 11.299 39.8305 11.3623 38.7396 11.8506C37.2362 12.5234 36.0074 13.9126 35.3685 15.6621C34.8463 17.0917 34.7812 18.6027 35.1852 19.9171C35.6318 21.3699 36.589 22.4255 37.8805 22.8894C38.3274 23.05 38.7989 23.1297 39.2781 23.1297C39.9133 23.1297 40.5619 22.9894 41.1838 22.7111C42.6871 22.0384 43.9159 20.6491 44.5549 18.8998V18.8997C45.077 17.4702 45.1421 15.959 44.738 14.6447ZM42.0657 18.0681C41.6652 19.1643 40.9177 20.0462 40.0662 20.4273C39.753 20.5673 39.2806 20.6987 38.8076 20.5288C37.666 20.1187 37.222 18.233 37.8575 16.4936C38.2579 15.3975 39.0054 14.5156 39.8571 14.1344C40.0647 14.0415 40.3422 13.9525 40.6435 13.9525C40.7968 13.9525 40.9562 13.9755 41.1156 14.0327C42.2571 14.4429 42.7011 16.3286 42.0657 18.0681Z" fill="white"/>
<path d="M9.63162 15.6619C8.99256 13.9125 7.76376 12.5233 6.26048 11.8505C5.16949 11.3623 3.99633 11.299 2.95719 11.6722C1.66573 12.1362 0.70851 13.1919 0.261937 14.6446C-0.142097 15.9589 -0.0769696 17.4701 0.445189 18.8996V18.8997C1.08433 20.6491 2.31304 22.0383 3.81633 22.7111C4.43824 22.9894 5.08679 23.1296 5.72197 23.1296C6.20115 23.1296 6.67277 23.0498 7.11961 22.8893C8.41125 22.4254 9.36838 21.3697 9.81495 19.917C10.2188 18.6027 10.1537 17.0916 9.63162 15.6619ZM6.19236 20.5288C5.71942 20.6987 5.24692 20.5673 4.93386 20.4273C4.08228 20.0462 3.33468 19.1643 2.93434 18.0681V18.0682C2.29898 16.3287 2.74292 14.4431 3.88444 14.0329C4.35729 13.863 4.82988 13.9944 5.14304 14.1345C5.9947 14.5156 6.74221 15.3975 7.14255 16.4936C7.77791 18.2331 7.33389 20.1187 6.19236 20.5288Z" fill="white"/>
</svg>
