<svg width="30" height="26" viewBox="0 0 30 26" fill="none" xmlns="http://www.w3.org/2000/svg">
<path d="M20.5932 7.8454C21.2953 7.8454 21.8644 7.2965 21.8644 6.61939C21.8644 5.94229 21.2953 5.39337 20.5932 5.39337C19.8912 5.39337 19.322 5.94229 19.322 6.61939C19.322 7.2965 19.8912 7.8454 20.5932 7.8454Z" fill="white"/>
<path fill-rule="evenodd" clip-rule="evenodd" d="M15.4882 14.3911C15.8119 14.6513 15.8556 15.1151 15.586 15.4272L10.5012 21.312C10.2315 21.6241 9.75059 21.6663 9.42699 21.4063C9.10338 21.1462 9.05966 20.6824 9.32933 20.3703L14.414 14.4854C14.6837 14.1733 15.1646 14.1311 15.4882 14.3911Z" fill="white"/>
<path fill-rule="evenodd" clip-rule="evenodd" d="M22.8467 2.93574C21.6691 2.1695 20.2426 1.84289 18.8335 2.01691C17.4245 2.19093 16.1294 2.85367 15.19 3.88137C14.2507 4.90891 13.7314 6.23106 13.7288 7.6009V10.0522C13.7288 10.2193 13.6698 10.3813 13.5617 10.5117L2.34964 24.0288H13.9831C17.0173 24.0288 19.9273 22.8662 22.0729 20.797C24.2183 18.7277 25.4237 15.9211 25.4237 12.9947V10.0522C25.4237 9.80624 25.5512 9.57663 25.7634 9.4402L27.8614 8.09119L25.5478 6.60655C25.3922 6.50666 25.28 6.35511 25.2325 6.18067C24.8723 4.85543 24.0242 3.70197 22.8467 2.93574ZM18.6398 0.557613C20.4164 0.338196 22.2151 0.750009 23.6998 1.71613C25.1023 2.62873 26.1342 3.977 26.627 5.53197L29.6598 7.47818C29.8722 7.61449 29.9999 7.8442 30 8.09027C30.0001 8.3363 29.8727 8.5662 29.6603 8.70263L26.9492 10.4459V12.9947C26.9492 16.3113 25.5831 19.492 23.1515 21.8373C20.7198 24.1825 17.4219 25.5 13.9831 25.5H0.762722C0.469528 25.5 0.202291 25.3379 0.0752847 25.0831C-0.0517221 24.8281 -0.016014 24.5257 0.167141 24.3049L12.2034 9.79418V7.59896C12.2064 5.87153 12.8613 4.20422 14.0457 2.90844C15.2302 1.61266 16.8633 0.77702 18.6398 0.557613Z" fill="white"/>
</svg>
