<svg width="32" height="38" viewBox="0 0 32 38" fill="none" xmlns="http://www.w3.org/2000/svg">
<path d="M18.7477 17.7476C19.2421 17.7476 19.7254 17.601 20.1365 17.3263C20.5476 17.0517 20.868 16.6613 21.0572 16.2046C21.2464 15.7479 21.2959 15.2453 21.1995 14.7604C21.103 14.2756 20.8649 13.8302 20.5153 13.4806C20.1657 13.131 19.7203 12.893 19.2354 12.7965C18.7504 12.7001 18.2478 12.7496 17.791 12.9388C17.3342 13.128 16.9438 13.4483 16.6691 13.8594C16.3944 14.2704 16.2478 14.7537 16.2478 15.2481C16.2478 15.911 16.5112 16.5467 16.98 17.0155C17.4488 17.4842 18.0847 17.7476 18.7477 17.7476ZM18.7477 13.9983C18.9949 13.9983 19.2365 14.0716 19.4421 14.2089C19.6476 14.3462 19.8078 14.5414 19.9025 14.7698C19.9971 14.9982 20.0218 15.2494 19.9736 15.4919C19.9253 15.7343 19.8063 15.957 19.6315 16.1318C19.4567 16.3066 19.234 16.4256 18.9915 16.4738C18.7491 16.522 18.4977 16.4973 18.2694 16.4027C18.041 16.3081 17.8457 16.1479 17.7084 15.9424C17.5711 15.7369 17.4978 15.4952 17.4978 15.2481C17.4978 14.9166 17.6294 14.5987 17.8638 14.3643C18.0983 14.13 18.4162 13.9983 18.7477 13.9983Z" fill="white"/>
<path d="M0.936317 26.9728C0.65961 27.2037 0.433823 27.4896 0.273222 27.8123C0.11262 28.1349 0.0206939 28.4874 0.0032516 28.8474C-0.0146478 29.1976 0.0415003 29.5476 0.168032 29.8746C0.294563 30.2016 0.488634 30.4982 0.73758 30.7452C1.12876 31.1196 1.62619 31.3639 2.16168 31.4446C2.69716 31.5252 3.24449 31.4383 3.72864 31.1957C4.43322 30.7516 5.05778 30.1917 5.57602 29.5398C5.53477 30.4371 5.45915 31.5282 5.31729 32.4674C5.236 32.9922 5.31299 33.5293 5.53843 34.0101C5.76386 34.4909 6.12751 34.8937 6.58293 35.1669C7.03836 35.4401 7.56489 35.5714 8.0953 35.544C8.6257 35.5166 9.13591 35.3318 9.56076 35.0131C10.4637 34.3475 11.2863 33.5791 12.0119 32.7236C12.1124 33.5347 12.262 34.3389 12.46 35.1319C12.6464 35.88 13.0785 36.544 13.6871 37.0176C14.2956 37.4912 15.0455 37.7469 15.8166 37.7439C16.4673 37.7404 17.104 37.5551 17.655 37.2091C18.206 36.8631 18.6494 36.37 18.9352 35.7855C19.1833 35.2604 19.4031 34.7225 19.5939 34.1739C20.33 35.2521 21.1712 36.2547 22.105 37.1671C22.5409 37.5389 23.094 37.7453 23.667 37.7499C24.24 37.7545 24.7964 37.5572 25.2383 37.1924C25.6802 36.8277 25.9795 36.3189 26.0835 35.7554C26.1876 35.192 26.0897 34.6099 25.8072 34.1114C24.2573 31.3757 23.5105 29.4967 23.2449 27.6433C23.8896 27.5044 24.4712 27.1582 24.9005 26.6576C25.3298 26.157 25.5833 25.5296 25.6222 24.8713C25.6188 24.2439 25.4132 23.6343 25.036 23.1328C24.6801 22.6188 24.4204 22.0444 24.2698 21.4375C24.6018 21.476 24.9356 21.4958 25.2698 21.4969C26.6709 21.4969 28.3858 21.1332 29.4107 19.651L29.5357 19.6935C29.6799 19.749 29.8331 19.7776 29.9876 19.7778C30.1565 19.7773 30.3236 19.7423 30.4785 19.6748C30.6333 19.6073 30.7728 19.5088 30.8881 19.3854C31.0669 19.1972 31.1861 18.9603 31.2305 18.7046C31.275 18.4489 31.2429 18.1857 31.1381 17.9482C29.8632 15.0112 26.4672 14.257 24.6698 14.0658C24.5238 13.5236 24.329 12.9957 24.088 12.4886C25.0212 11.8445 25.7078 10.9024 26.0351 9.8168C26.3623 8.7312 26.3107 7.56663 25.8888 6.5142C25.4669 5.46177 24.6997 4.58402 23.7131 4.025C22.7265 3.46598 21.5792 3.2589 20.4594 3.43774C20.2298 2.62303 19.7687 1.89243 19.1321 1.33454C18.4954 0.776653 17.7106 0.415445 16.8727 0.294721C16.0348 0.173997 15.1798 0.298943 14.4116 0.654406C13.6433 1.00987 12.9946 1.58058 12.5443 2.29733C12.1218 2.18271 11.6859 2.12491 11.2482 2.12548C9.92262 2.12697 8.65179 2.65414 7.71449 3.59132C6.77719 4.52851 6.24997 5.79918 6.24848 7.12456C6.24595 8.23208 6.61498 9.30845 7.29653 10.1815C4.53296 12.7541 3.12368 16.7634 3.12368 22.1218C3.12862 23.04 2.93583 23.9484 2.5584 24.7855C2.18096 25.6225 1.62774 26.3685 0.936317 26.9728ZM22.4974 26.496C22.0002 26.496 21.5233 26.2985 21.1717 25.9469C20.8201 25.5953 20.6226 25.1185 20.6226 24.6213C20.6226 22.2999 22.1225 21.6 22.9674 21.39C23.1495 22.2817 23.511 23.1269 24.0298 23.8746C24.248 24.1615 24.3681 24.5109 24.3723 24.8713C24.3723 25.7861 23.3649 26.496 22.4974 26.496ZM24.2829 20.1846C24.4017 19.8241 24.5167 19.4654 24.6173 19.1011C25.1144 19.0331 25.6155 18.9984 26.1172 18.9974C26.7962 19.0075 27.4717 19.0964 28.1302 19.2623C27.0978 20.3334 25.3591 20.3215 24.2829 20.1846ZM29.9888 18.4475C30.0132 18.5043 29.9751 18.5287 29.9688 18.5224C29.7776 18.4531 29.5739 18.3831 29.3382 18.3019C27.9067 17.8357 26.3954 17.6656 24.896 17.802C24.9623 17.3704 24.9961 16.9345 24.9973 16.4978C24.995 16.1169 24.9695 15.7365 24.921 15.3587C26.4222 15.578 29.0433 16.2697 29.9888 18.4475ZM11.2482 3.37525C11.7136 3.37367 12.175 3.46215 12.6068 3.63583C12.7557 3.69623 12.9222 3.69694 13.0716 3.63783C13.2211 3.57871 13.342 3.46431 13.4093 3.31839C13.6939 2.69927 14.1732 2.19017 14.7741 1.86867C15.3749 1.54717 16.0644 1.43089 16.7375 1.53755C17.4106 1.64421 18.0304 1.96796 18.5024 2.45947C18.9744 2.95098 19.2728 3.58331 19.352 4.26009C19.3626 4.35056 19.3928 4.43764 19.4405 4.51521C19.4883 4.59278 19.5524 4.65898 19.6285 4.70917C19.7045 4.75935 19.7906 4.79231 19.8807 4.80573C19.9708 4.81915 20.0627 4.81271 20.1501 4.78687C20.5062 4.68029 20.8758 4.62577 21.2475 4.62502C22.0368 4.62525 22.806 4.87452 23.4453 5.33734C24.0847 5.80016 24.5617 6.45291 24.8084 7.20262C25.0551 7.95232 25.0588 8.76074 24.8192 9.51272C24.5795 10.2647 24.1086 10.9219 23.4736 11.3906C22.6238 10.0821 21.4606 9.00658 20.0896 8.26159C18.7186 7.51659 17.1833 7.12576 15.6229 7.12456C12.99 7.07519 10.4096 7.86409 8.2546 9.37727C7.76238 8.72955 7.49668 7.93804 7.4984 7.12456C7.49939 6.13049 7.89477 5.17741 8.59777 4.4745C9.30077 3.77158 10.254 3.37625 11.2482 3.37525ZM15.6229 8.37433C17.7769 8.37681 19.8419 9.23347 21.365 10.7564C22.8881 12.2793 23.7449 14.3441 23.7474 16.4978C23.7034 17.7357 23.4476 18.9569 22.9912 20.1084C21.9333 20.2728 20.9752 20.8272 20.3056 21.6624C19.6359 22.4976 19.3031 23.5531 19.3726 24.6213C19.3751 25.3615 19.6403 26.0768 20.121 26.6398C20.6017 27.2027 21.2667 27.5767 21.9975 27.6951C22.2693 29.7572 23.0599 31.7844 24.7242 34.7263C24.8256 34.9073 24.8779 35.1116 24.8757 35.319C24.8736 35.5265 24.8172 35.7297 24.712 35.9085C24.6069 36.0873 24.4567 36.2355 24.2765 36.3382C24.0963 36.441 23.8923 36.4947 23.6849 36.4941C23.409 36.4976 23.141 36.4023 22.9293 36.2254C21.7965 35.0527 20.7806 33.7725 19.8957 32.403C19.8294 32.3013 19.7349 32.2211 19.6238 32.1722C19.5126 32.1233 19.3896 32.1079 19.2698 32.1278C19.15 32.1477 19.0386 32.202 18.9492 32.2842C18.8598 32.3664 18.7963 32.4728 18.7664 32.5905C18.5331 33.5067 18.2116 34.3982 17.8065 35.2525C17.6235 35.6243 17.3403 35.9377 16.9887 36.1571C16.637 36.3765 16.2311 36.4932 15.8166 36.4941C15.3245 36.4968 14.8457 36.3343 14.4569 36.0326C14.0681 35.7309 13.7919 35.3074 13.6724 34.8301C13.3459 33.534 13.1617 32.2062 13.123 30.8702C13.1229 30.7295 13.0753 30.593 12.9879 30.4828C12.9006 30.3725 12.7785 30.295 12.6416 30.2627C12.5047 30.2303 12.3609 30.2452 12.2335 30.3047C12.106 30.3643 12.0024 30.4651 11.9394 30.5908C11.1498 31.9432 10.0811 33.1118 8.80456 34.019C8.57752 34.187 8.30557 34.2836 8.02338 34.2965C7.7412 34.3093 7.46158 34.2379 7.22019 34.0912C6.9788 33.9445 6.78658 33.7292 6.66806 33.4728C6.54953 33.2165 6.51007 32.9306 6.55471 32.6517C6.76339 31.0247 6.86985 29.3861 6.87344 27.7457C6.8734 27.6162 6.83308 27.4898 6.75807 27.3842C6.68305 27.2785 6.57705 27.1988 6.45473 27.156C6.3324 27.1133 6.19981 27.1096 6.0753 27.1455C5.95079 27.1814 5.84052 27.2551 5.75976 27.3564C4.62171 28.7837 3.78551 29.7397 3.13493 30.0941C2.88828 30.2096 2.61278 30.2491 2.3436 30.2073C2.07443 30.1656 1.82382 30.0446 1.62377 29.8597C1.49772 29.7356 1.39919 29.5863 1.33459 29.4216C1.26999 29.2568 1.24076 29.0804 1.2488 28.9037C1.25791 28.7171 1.30573 28.5345 1.38922 28.3674C1.47271 28.2004 1.59004 28.0525 1.73377 27.9332C2.56481 27.2105 3.23066 26.3174 3.68614 25.3147C4.14162 24.312 4.37608 23.2231 4.3736 22.1218C4.3736 9.71408 12.2406 8.37433 15.6229 8.37433Z" fill="white"/>
</svg>
