<svg width="46" height="50" viewBox="0 0 46 50" fill="none" xmlns="http://www.w3.org/2000/svg">
<path d="M17.3097 9.72525C16.9099 9.72525 16.586 10.0531 16.586 10.4577V12.2071C16.586 12.6117 16.9099 12.9395 17.3097 12.9395C17.7094 12.9395 18.0333 12.6117 18.0333 12.2071V10.4577C18.0333 10.0531 17.7093 9.72525 17.3097 9.72525ZM28.6912 9.72525C28.2914 9.72525 27.9675 10.0531 27.9675 10.4577V12.2071C27.9675 12.6117 28.2914 12.9395 28.6912 12.9395C29.0909 12.9395 29.4148 12.6117 29.4148 12.2071V10.4577C29.4148 10.0531 29.0909 9.72525 28.6912 9.72525ZM33.4836 24.5581C33.7742 24.0061 34.1488 23.4876 34.5969 23.0173C34.8386 22.7638 35.0704 22.5008 35.292 22.231C35.3816 22.3728 35.8718 23.2278 36.9799 23.2278C37.5042 23.2278 38.0026 23.0131 38.369 22.6237L44.3068 16.3164C46.3183 14.1798 46.5661 10.8944 44.8972 8.50573L44.8598 8.45231C43.0122 5.83484 40.2871 4.00028 36.7606 2.9996C34.3886 2.32655 32.2799 2.22978 31.3151 2.22636C28.8374 0.770505 25.9679 0 23.0004 0C20.0317 0 17.1622 0.770505 14.685 2.22636C13.3374 2.22987 10.2871 2.40458 7.15202 3.73075C6.78334 3.8868 6.60928 4.31571 6.76347 4.68895C6.91756 5.06199 7.34152 5.23797 7.7102 5.08221C10.051 4.09207 12.3909 3.80018 13.7962 3.71961C12.6938 6.63796 12.044 9.54342 11.8621 12.3719C11.8387 12.7374 11.8233 13.0946 11.8084 13.44C11.7537 14.7123 11.7019 15.9142 11.2601 17.4856C10.8633 18.8978 10.2465 20.2617 9.42699 21.5398C9.31593 21.713 9.15384 21.7526 9.06719 21.7608C8.9819 21.7689 8.81729 21.7605 8.67873 21.6133L2.74083 15.306C1.20534 13.6749 1.01381 11.1701 2.28628 9.3486L2.31764 9.30387C3.02653 8.29967 3.89964 7.41081 4.91275 6.66199C5.2356 6.42351 5.30613 5.96521 5.07041 5.63865C4.8347 5.31189 4.38198 5.2406 4.05933 5.47908C2.92107 6.32029 1.93883 7.32058 1.13973 8.4528L1.10355 8.50426C-0.566257 10.8944 -0.318382 14.1798 1.69298 16.3164L7.63089 22.6237C7.99734 23.013 8.4957 23.2278 9.01991 23.2278C10.0074 23.2278 10.5013 22.5582 10.7081 22.2303C10.9297 22.5002 11.1617 22.7633 11.4037 23.0172C11.852 23.4876 12.2265 24.0061 12.5171 24.5583C12.9202 25.3239 13.1441 26.2315 13.1646 27.1834C13.1788 27.8225 13.2755 28.7496 13.6309 29.7185C13.0969 30.3936 10.452 33.8002 8.47244 37.9969C6.78199 41.5807 5.65541 45.3383 5.12358 49.1654C5.0679 49.5661 5.34357 49.9364 5.73936 49.9928C5.77351 49.9977 5.80757 50 5.84115 50C6.19613 50 6.50604 49.7354 6.55679 49.3695C7.06798 45.6905 8.15192 42.0766 9.77868 38.6279C10.6388 36.8035 11.6527 35.0228 12.8083 33.305C14.546 35.5913 16.9519 37.2032 19.6544 37.9361C19.4138 38.4401 19.2857 38.9959 19.2857 39.5704C19.2857 41.6435 20.9522 43.3301 23.0005 43.3301C25.0488 43.3301 26.7152 41.6435 26.7152 39.5704C26.7152 38.9952 26.5868 38.4387 26.3456 37.9345C27.4047 37.6467 28.4263 37.223 29.3815 36.67C29.7285 36.4691 29.8488 36.0217 29.6504 35.6707C29.4519 35.3196 29.0095 35.1976 28.663 35.3986C26.947 36.392 24.989 36.9171 23.0005 36.9171C19.2776 36.9171 15.8333 35.1055 13.6891 32.0475C13.9091 31.7447 14.1334 31.444 14.3624 31.1457C14.6539 31.5707 15.0137 31.9801 15.4594 32.3519C16.0085 32.8112 16.6402 33.1692 17.3396 33.417C17.8963 33.6142 18.8188 33.7486 18.8462 33.7488C19.0225 34.0106 19.2213 34.2579 19.4447 34.4849C20.3941 35.4457 21.6569 35.9748 23.0007 35.9748C24.6725 35.9748 26.2266 35.1321 27.1584 33.7486C27.1897 33.7482 29.0031 33.6354 30.541 32.3525C30.987 31.9804 31.3471 31.5708 31.6388 31.1456C31.8677 31.444 32.0921 31.7448 32.3121 32.0477C31.9698 32.5366 31.586 33.0032 31.1657 33.4386C30.8865 33.7281 30.892 34.1918 31.1778 34.4744C31.3186 34.6134 31.5011 34.6828 31.6833 34.6828C31.8714 34.6828 32.0593 34.609 32.2012 34.4621C32.5553 34.095 32.8863 33.7078 33.1928 33.3052C34.3483 35.0231 35.3622 36.8038 36.2223 38.6282C37.8489 42.0767 38.933 45.6906 39.4442 49.3696C39.5412 50.0684 40.2184 49.999 40.2616 49.9929C40.6574 49.9365 40.9331 49.5662 40.8774 49.1655C40.3455 45.3384 39.219 41.5808 37.5285 37.9972C35.4515 33.5941 33.0014 30.5167 32.37 29.7186C32.7255 28.7496 32.8223 27.8224 32.8364 27.1831C32.8566 26.2314 33.0806 25.3238 33.4836 24.5581ZM21.1506 38.2465C21.7578 38.3349 22.3754 38.3818 23.0004 38.3818C23.6209 38.3818 24.2385 38.3347 24.8487 38.2453C25.1194 38.6306 25.2678 39.0893 25.2678 39.5703C25.2678 40.8357 24.2507 41.8652 23.0004 41.8652C21.7501 41.8652 20.7329 40.8357 20.7329 39.5703C20.7329 39.0898 20.8808 38.6317 21.1506 38.2465ZM43.6836 9.30582L43.7146 9.34996C44.9862 11.1701 44.7946 13.6748 43.2591 15.3059L37.3213 21.6132C37.1827 21.7604 37.0184 21.7686 36.9327 21.7607C36.8461 21.7526 36.684 21.713 36.5729 21.5397C35.7535 20.2619 35.1367 18.8979 34.7398 17.4854C34.298 15.9141 34.2463 14.7123 34.1915 13.4399C34.1767 13.0946 34.1613 12.7374 34.1378 12.3717C33.9559 9.54352 33.3062 6.63826 32.2039 3.7201C34.7674 3.86981 40.4555 4.7326 43.6836 9.30582ZM23.0004 34.5096C22.0496 34.5096 21.1561 34.1376 20.4827 33.4631C21.5337 33.084 22.4202 32.3511 22.9985 31.4051C23.1959 31.7279 23.4315 32.0298 23.7034 32.3049C24.2234 32.8312 24.8403 33.2236 25.5134 33.4655C24.8518 34.1242 23.9533 34.5096 23.0004 34.5096ZM22.7372 26.0945L20.43 23.7594C20.3114 23.6394 20.3146 23.5015 20.3271 23.43C20.3373 23.3712 20.3786 23.2264 20.5406 23.15C21.3496 22.7689 22.2037 22.5844 23.078 22.5934C23.9026 22.6045 24.7059 22.7925 25.4657 23.152C25.6178 23.2238 25.6615 23.3552 25.6739 23.4271C25.6865 23.4991 25.6897 23.6381 25.5705 23.7587L23.2626 26.0945C23.1178 26.2412 22.8819 26.2412 22.7372 26.0945ZM32.2063 23.8693C31.6971 24.8365 31.4145 25.9713 31.3892 27.1506C31.3476 29.0847 30.5217 30.4693 29.6201 31.2219C28.7493 31.9489 27.7809 32.2013 27.1081 32.2839C26.2083 32.2735 25.364 31.914 24.7268 31.269C24.0802 30.6145 23.7239 29.7445 23.7239 28.8192V27.5155C23.9279 27.4262 24.1194 27.2987 24.2859 27.1303L26.5938 24.7944C27.013 24.37 27.2019 23.764 27.0991 23.1731C26.9965 22.5825 26.6148 22.0785 26.0782 21.8247C25.1314 21.3767 24.1283 21.1425 23.0972 21.1285C22.0063 21.1128 20.9374 21.347 19.9295 21.822C19.3893 22.0766 19.0051 22.5824 18.9017 23.1751C18.7988 23.7654 18.9875 24.371 19.4064 24.795L21.7135 27.1302V27.1303C21.8804 27.2991 22.0723 27.4267 22.2766 27.516V28.8191C22.2766 30.7162 20.7619 32.2621 18.892 32.2838C18.5261 32.2395 18.1632 32.1549 17.8149 32.0331C17.2802 31.8437 16.7978 31.5709 16.3803 31.2217C15.5555 30.5319 14.6531 29.0861 14.6115 27.1509C14.5861 25.9712 14.3036 24.8364 13.7944 23.8693C13.4407 23.1972 12.9869 22.5684 12.4454 22C12.1017 21.6394 11.78 21.2586 11.4847 20.8649C11.974 19.9036 12.3654 18.907 12.6523 17.8862C13.1405 16.1495 13.1983 14.8043 13.2542 13.5035C13.2688 13.1659 13.2839 12.8167 13.3063 12.4668C13.4947 9.53678 14.2176 6.51072 15.4526 3.46903C17.6998 2.15849 20.3034 1.46484 23.0004 1.46484C25.696 1.46484 28.2992 2.15839 30.547 3.46883C31.7822 6.51072 32.5052 9.53688 32.6936 12.4669C32.716 12.8169 32.7311 13.1661 32.7457 13.5037C32.8016 14.8045 32.8595 16.1497 33.3476 17.8864C33.6347 18.9076 34.0263 19.9046 34.5157 20.866C34.2199 21.2599 33.8984 21.6402 33.5552 22.0003C33.0138 22.5686 32.5599 23.1974 32.2063 23.8693Z" fill="white"/>
</svg>
