<svg width="26" height="38" viewBox="0 0 26 38" fill="none" xmlns="http://www.w3.org/2000/svg">
<path d="M22.7986 18.0667C23.5334 15.5629 24.4672 12.0894 25.0162 8.93572C25.7565 4.68037 25.6362 2.10942 24.6373 0.845148C24.2697 0.379921 23.5967 -0.138883 22.477 0.0340516C20.8928 0.278869 19.3743 2.00911 17.8345 5.32404C16.8712 7.39799 15.9101 10.0641 14.9738 13.2564C13.6658 13.0379 12.3342 13.0379 11.0262 13.2564C10.0899 10.0641 9.12882 7.39799 8.16549 5.32404C6.62569 2.00896 5.10715 0.278869 3.52292 0.0340516C2.40333 -0.138585 1.73035 0.379846 1.36271 0.845148C0.363819 2.10942 0.243472 4.68037 0.984097 8.93572C1.53306 12.0894 2.46688 15.5629 3.20167 18.0667C1.45501 20.36 0.500709 23.2292 0.5 26.1893C0.5 29.6702 1.79271 32.5888 4.2384 34.6301C6.45597 36.4805 9.56757 37.5 13 37.5C16.4324 37.5 19.544 36.4805 21.7616 34.6301C24.2073 32.5888 25.5 29.6702 25.5 26.1893C25.4994 23.2292 24.5452 20.3601 22.7986 18.0667ZM19.3264 6.12025C20.9785 2.56333 22.1583 1.88811 22.7144 1.80232C23.102 1.74279 23.256 1.86185 23.365 1.99951C24.1903 3.04404 24.0961 7.42649 21.4836 16.5808C20.0837 15.2237 18.4165 14.2218 16.6058 13.6495C17.5023 10.6108 18.4162 8.08005 19.3264 6.12025ZM2.63479 1.99914C2.74368 1.86132 2.89799 1.74249 3.28535 1.80187C3.84153 1.88774 5.02146 2.56281 6.6734 6.11988C7.58382 8.08005 8.49771 10.6108 9.39396 13.6491C7.58328 14.2214 5.91612 15.2233 4.51618 16.5804C1.90368 7.42611 1.80951 3.04366 2.63479 1.99914ZM13 30.3564C11.7938 30.3564 11.0556 29.7782 11.0556 29.4634C11.0556 29.1487 11.7938 28.5705 13 28.5705C14.2063 28.5705 14.9444 29.1487 14.9444 29.4634C14.9444 29.7782 14.2063 30.3564 13 30.3564ZM13.8333 35.6905V32.0726C15.4435 31.8004 16.6111 30.752 16.6111 29.4634C16.6111 27.9613 15.0249 26.7846 13 26.7846C10.9751 26.7846 9.38889 27.9613 9.38889 29.4634C9.38889 30.752 10.5565 31.8 12.1667 32.0726V35.6905C7.37653 35.4247 2.16667 32.832 2.16667 26.1893C2.16667 19.9526 7.02646 14.8786 13 14.8786C18.9735 14.8786 23.8333 19.9526 23.8333 26.1893C23.8333 32.832 18.6235 35.4247 13.8333 35.6905Z" fill="white"/>
<path d="M18.2778 25.594C18.738 25.594 19.1111 25.1942 19.1111 24.701C19.1111 24.2079 18.738 23.8081 18.2778 23.8081C17.8175 23.8081 17.4444 24.2079 17.4444 24.701C17.4444 25.1942 17.8175 25.594 18.2778 25.594Z" fill="white"/>
<path d="M7.72222 25.594C8.18246 25.594 8.55556 25.1942 8.55556 24.701C8.55556 24.2079 8.18246 23.8081 7.72222 23.8081C7.26199 23.8081 6.88889 24.2079 6.88889 24.701C6.88889 25.1942 7.26199 25.594 7.72222 25.594Z" fill="white"/>
</svg>
