<svg width="16" height="24" viewBox="0 0 16 24" fill="none" xmlns="http://www.w3.org/2000/svg">
<path d="M13.8792 11.6616C14.32 10.1594 14.8803 8.07529 15.2097 6.18309C15.6539 3.62988 15.5817 2.0873 14.9824 1.32874C14.7618 1.04961 14.358 0.738325 13.6862 0.842086C12.7357 0.988976 11.8246 2.02712 10.9007 4.01608C10.3227 5.26045 9.74604 6.86012 9.18429 8.7755C8.3995 8.64441 7.6005 8.64441 6.81571 8.7755C6.25396 6.86012 5.67729 5.26045 5.09929 4.01608C4.17542 2.02703 3.26429 0.988976 2.31375 0.842086C1.642 0.738504 1.23821 1.04956 1.01762 1.32874C0.418292 2.0873 0.346083 3.62988 0.790458 6.18309C1.11983 8.07529 1.68012 10.1594 2.121 11.6616C1.07301 13.0377 0.500426 14.7591 0.5 16.5352C0.5 18.6238 1.27562 20.3749 2.74304 21.5997C4.07358 22.71 5.94054 23.3217 8 23.3217C10.0595 23.3217 11.9264 22.71 13.257 21.5997C14.7244 20.3749 15.5 18.6238 15.5 16.5352C15.4996 14.7592 14.9271 13.0377 13.8792 11.6616ZM11.7958 4.49381C12.7871 2.35966 13.495 1.95452 13.8286 1.90304C14.0612 1.86733 14.1536 1.93876 14.219 2.02136C14.7142 2.64808 14.6577 5.27755 13.0902 10.7701C12.2502 9.95587 11.2499 9.35473 10.1635 9.01133C10.7014 7.18815 11.2497 5.66969 11.7958 4.49381ZM1.78087 2.02114C1.84621 1.93845 1.93879 1.86715 2.17121 1.90278C2.50492 1.9543 3.21288 2.35934 4.20404 4.49358C4.75029 5.66969 5.29862 7.18815 5.83638 9.01111C4.74997 9.35451 3.74967 9.95564 2.90971 10.7699C1.34221 5.27732 1.28571 2.64785 1.78087 2.02114ZM8 19.0355C7.27625 19.0355 6.83333 18.6886 6.83333 18.4997C6.83333 18.3109 7.27625 17.964 8 17.964C8.72375 17.964 9.16667 18.3109 9.16667 18.4997C9.16667 18.6886 8.72375 19.0355 8 19.0355ZM8.5 22.236V20.0652C9.46608 19.9019 10.1667 19.2728 10.1667 18.4997C10.1667 17.5984 9.21496 16.8924 8 16.8924C6.78504 16.8924 5.83333 17.5984 5.83333 18.4997C5.83333 19.2728 6.53392 19.9017 7.5 20.0652V22.236C4.62592 22.0765 1.5 20.5208 1.5 16.5352C1.5 12.7932 4.41588 9.74882 8 9.74882C11.5841 9.74882 14.5 12.7932 14.5 16.5352C14.5 20.5208 11.3741 22.0765 8.5 22.236Z" fill="white"/>
<path d="M11.1667 16.1781C11.4428 16.1781 11.6667 15.9382 11.6667 15.6423C11.6667 15.3464 11.4428 15.1065 11.1667 15.1065C10.8905 15.1065 10.6667 15.3464 10.6667 15.6423C10.6667 15.9382 10.8905 16.1781 11.1667 16.1781Z" fill="white"/>
<path d="M4.83333 16.1781C5.10948 16.1781 5.33333 15.9382 5.33333 15.6423C5.33333 15.3464 5.10948 15.1065 4.83333 15.1065C4.55719 15.1065 4.33333 15.3464 4.33333 15.6423C4.33333 15.9382 4.55719 16.1781 4.83333 16.1781Z" fill="white"/>
</svg>
