<svg width="18" height="16" viewBox="0 0 18 16" fill="none" xmlns="http://www.w3.org/2000/svg">
<path d="M13.3104 9.19246C12.0994 7.77517 10.5686 6.99462 8.99998 6.99462C7.43138 6.99462 5.90057 7.77517 4.68958 9.19246C3.601 10.4664 2.95117 12.0719 2.95117 13.4873C2.95117 14.1748 3.16801 14.6985 3.59565 15.0438C4.01774 15.3847 4.575 15.5 5.19671 15.5C5.85824 15.5 6.5928 15.3694 7.31452 15.2411C7.94519 15.1289 8.54088 15.023 9.00002 15.023C9.3963 15.023 9.95504 15.1236 10.5465 15.23C11.9287 15.4787 13.4954 15.7606 14.4004 15.0312C14.8307 14.6845 15.0488 14.165 15.0488 13.4873C15.0489 12.0719 14.399 10.4664 13.3104 9.19246ZM13.7261 14.2452C13.2015 14.668 11.8361 14.4223 10.7389 14.2249C10.0983 14.1096 9.4933 14.0007 8.99995 14.0007C8.44487 14.0007 7.80337 14.1148 7.12415 14.2356C6.07189 14.4227 4.76232 14.6556 4.27069 14.2585C4.20516 14.2055 4.00575 14.0445 4.00575 13.4872C4.00575 12.3202 4.57901 10.9244 5.50176 9.84451C6.50881 8.66595 7.75116 8.01687 8.99991 8.01687C10.2487 8.01687 11.491 8.66595 12.4981 9.84451C13.4209 10.9244 13.9941 12.3202 13.9941 13.4872C13.9942 14.0292 13.7925 14.1918 13.7261 14.2452Z" fill="white"/>
<path d="M13.4342 1.49642C12.9911 0.863184 12.3566 0.500068 11.6934 0.500068C11.0302 0.500068 10.3957 0.863252 9.95258 1.49642C9.54554 2.07814 9.32135 2.84206 9.32135 3.64748C9.32135 4.45291 9.54551 5.21683 9.95258 5.79854C10.3957 6.43175 11.0302 6.79493 11.6934 6.79493C12.3567 6.79493 12.9911 6.43175 13.4342 5.79854C13.8413 5.21683 14.0655 4.45291 14.0655 3.64748C14.0655 2.84206 13.8413 2.0781 13.4342 1.49642ZM12.5614 5.22473C12.4182 5.42936 12.115 5.77268 11.6934 5.77268C11.2718 5.77268 10.9686 5.42939 10.8254 5.22473C10.5398 4.81657 10.376 4.24167 10.376 3.64748C10.376 3.05326 10.5398 2.4784 10.8254 2.07023C10.9686 1.8656 11.2718 1.52229 11.6934 1.52229C12.115 1.52229 12.4182 1.86557 12.5614 2.07023C12.847 2.4784 13.0108 3.0533 13.0108 3.64748C13.0108 4.24167 12.847 4.81657 12.5614 5.22473Z" fill="white"/>
<path d="M8.04742 1.49639C7.60431 0.86315 6.96985 0.5 6.30659 0.5C5.64333 0.5 5.00883 0.863184 4.56576 1.49639C4.15872 2.0781 3.93453 2.84202 3.93453 3.64745C3.93453 4.45287 4.15868 5.21679 4.56576 5.79851C5.00887 6.43175 5.64333 6.79493 6.30659 6.79493C6.96985 6.79493 7.60431 6.43175 8.04742 5.79851C8.45446 5.21679 8.67866 4.45291 8.67866 3.64745C8.67862 2.84202 8.45446 2.07807 8.04742 1.49639ZM7.17453 5.22473C7.03134 5.42936 6.72815 5.77268 6.30656 5.77268C5.88493 5.77268 5.58174 5.42936 5.43855 5.22473C5.15294 4.81657 4.98914 4.24167 4.98914 3.64748C4.98914 3.05326 5.15297 2.4784 5.43855 2.07023C5.58174 1.8656 5.88493 1.52229 6.30656 1.52229C6.72818 1.52229 7.03134 1.86557 7.17453 2.07023C7.46014 2.4784 7.62393 3.0533 7.62393 3.64748C7.62393 4.24167 7.46014 4.81657 7.17453 5.22473Z" fill="white"/>
<path d="M17.8952 6.43703C17.7166 5.84805 17.3337 5.42009 16.8171 5.23202C16.4014 5.08069 15.9322 5.10635 15.4958 5.3043C14.8945 5.57705 14.403 6.14026 14.1474 6.84949C13.9385 7.42905 13.9125 8.04164 14.0741 8.57449C14.2527 9.16346 14.6356 9.59143 15.1522 9.77949C15.331 9.84458 15.5196 9.87692 15.7112 9.87692C15.9653 9.87692 16.2248 9.82004 16.4735 9.70722C17.0749 9.43447 17.5664 8.87126 17.822 8.16207V8.16203C18.0308 7.5825 18.0568 6.96988 17.8952 6.43703ZM16.8263 7.82492C16.6661 8.2693 16.3671 8.62683 16.0265 8.78133C15.9012 8.8381 15.7122 8.89137 15.523 8.8225C15.0664 8.65624 14.8888 7.89177 15.143 7.1866C15.3032 6.74221 15.6022 6.38469 15.9428 6.23015C16.0259 6.1925 16.1369 6.15641 16.2574 6.15641C16.3187 6.15641 16.3825 6.16575 16.4462 6.18895C16.9028 6.35524 17.0804 7.11971 16.8263 7.82492Z" fill="white"/>
<path d="M3.85265 6.84942C3.59702 6.14019 3.1055 5.57701 2.50419 5.30427C2.0678 5.10632 1.59853 5.08069 1.18288 5.23199C0.666291 5.42009 0.283404 5.84805 0.104775 6.43699C-0.0568387 6.96984 -0.0307879 7.58246 0.178076 8.162V8.16203C0.433732 8.87126 0.925217 9.43444 1.52653 9.70718C1.7753 9.82001 2.03471 9.87688 2.28879 9.87688C2.48046 9.87688 2.66911 9.84451 2.84784 9.77946C3.3645 9.59136 3.74735 9.1634 3.92598 8.57446C4.08753 8.04164 4.06147 7.42902 3.85265 6.84942ZM2.47695 8.8225C2.28777 8.89137 2.09877 8.8381 1.97354 8.78133C1.63291 8.62683 1.33387 8.2693 1.17374 7.82492V7.82495C0.919592 7.11974 1.09717 6.35531 1.55378 6.18902C1.74292 6.12015 1.93195 6.17341 2.05721 6.23018C2.39788 6.38472 2.69688 6.74225 2.85702 7.1866C3.11117 7.89181 2.93356 8.65624 2.47695 8.8225Z" fill="white"/>
</svg>
