<svg width="23" height="16" viewBox="0 0 23 16" fill="none" xmlns="http://www.w3.org/2000/svg">
<path d="M0.963515 8.9469C0.208687 10.3111 0.559549 11.7148 0.745413 12.2549C0.846968 12.5323 1.1047 12.5329 1.37204 12.5277C2.09386 12.5277 2.79293 12.3396 3.39186 11.9841C3.98283 11.6364 4.46759 11.1402 4.83362 10.5085C4.9967 10.2073 5.42549 10.1018 5.67721 10.3424C6.79923 11.3628 7.95843 12.1328 9.14368 12.6636C8.34491 14.0717 9.34148 15.3651 10.8981 15.3205C12.2197 15.2869 13.3216 14.624 14.4379 13.4374C17.8261 12.9991 20.3075 10.9626 21.5931 9.63711C22.4689 8.73558 22.4689 7.26845 21.5935 6.3675C20.3095 4.90082 17.1287 2.80542 14.5087 2.57371C13.2977 1.30013 12.022 0.553481 10.7141 0.362799C8.00589 0.00201607 6.75909 2.07631 8.30171 4.14141C8.44409 4.33776 8.63683 4.45086 8.87025 4.34461C10.5102 3.44926 12.4366 3.10265 14.2785 3.3388C14.8406 3.40871 15.4058 3.53188 15.9605 3.70042C15.711 4.1629 15.5015 4.64845 15.3364 5.14937C14.7252 6.98251 14.7136 9.01124 15.3367 10.8516C15.5065 11.3393 16.231 11.0913 16.0718 10.5958C15.3313 8.41965 15.5829 5.95299 16.7074 3.96668C18.6441 4.73113 20.1186 5.96996 21.0408 6.92326C21.6185 7.51822 21.6185 8.48581 21.0404 9.08097C19.596 10.5709 16.5577 13.0224 12.3887 12.707C10.2585 12.5468 8.17459 11.5528 6.19497 9.75224C5.90518 9.48837 5.51866 9.37227 5.12986 9.43389C4.72552 9.49841 4.37352 9.74412 4.16414 10.1073C3.86752 10.6194 3.47683 11.0202 3.00231 11.2997C2.52855 11.5806 1.97589 11.7313 1.402 11.7363C1.27151 11.2286 1.13344 10.2516 1.6402 9.33576C1.91824 8.8341 2.29527 8.51247 2.56231 8.33109C2.79099 8.18575 2.78953 7.81804 2.5623 7.67276C1.45568 6.99509 1.04432 5.45006 1.40129 4.26617C1.96848 4.27181 2.5064 4.41624 3.00345 4.70489C3.47683 4.98363 3.86752 5.38446 4.16376 5.89559C4.55579 6.62219 5.5962 6.82254 6.19307 6.25313C6.57427 5.90988 6.92362 5.62091 7.26045 5.36998C7.43341 5.24094 7.47096 4.99349 7.34427 4.81712C7.21796 4.64056 6.9752 4.60232 6.80148 4.73135C6.44531 4.99696 6.07814 5.30062 5.67682 5.66166C5.55962 5.76829 5.40789 5.81311 5.2501 5.78819C5.07675 5.76056 4.92503 5.65374 4.83324 5.49437C4.46758 4.86367 3.98283 4.36742 3.35924 4.00097C2.67089 3.60658 1.90112 3.42969 1.08489 3.48501C0.93165 3.49583 0.798894 3.59783 0.746547 3.74541C0.672962 3.95287 0.501893 4.51133 0.501893 5.21293C0.497449 6.29188 0.927595 7.2983 1.71265 8.00308C1.45775 8.23488 1.18617 8.54511 0.963515 8.9469ZM12.3334 2.50776C11.1295 2.59387 9.89783 2.95049 8.81321 3.491C8.41028 2.82267 8.30022 2.30116 8.48524 1.90487C8.8069 1.21371 9.78097 1.02633 10.6041 1.1459C11.5053 1.27738 12.4016 1.72785 13.278 2.4809C12.9623 2.47613 12.6467 2.48402 12.3334 2.50776ZM13.1238 13.5262C13.1577 13.5262 13.1899 13.5229 13.2236 13.5226C12.6768 13.984 12.0017 14.3935 11.2409 14.5046C10.3264 14.6621 9.12743 14.1846 9.87281 12.9612C10.935 13.3461 12.0193 13.5299 13.1238 13.5262Z" fill="white"/>
<path d="M12.1562 6.84096L12.9524 7.24449C13.1439 7.34147 13.3776 7.26188 13.4732 7.06639C13.5688 6.8709 13.4906 6.6333 13.2983 6.53594L12.501 6.13183C10.7325 5.48457 10.4707 8.37105 11.1548 9.43808C11.4096 9.92827 12.0241 10.1146 12.5021 9.87142L13.2983 9.46789C13.4906 9.37053 13.5688 9.13293 13.4732 8.93744C13.3776 8.74195 13.1439 8.66256 12.9524 8.75934L12.1573 9.16229C12.0417 9.22062 11.899 9.17813 11.838 9.06126C11.4848 8.40796 11.4848 7.59606 11.8406 6.93793C11.8987 6.82647 12.0409 6.78282 12.1562 6.84096Z" fill="white"/>
<path d="M18.3689 7.55086V6.75963C18.3605 6.23985 17.6006 6.23949 17.5921 6.75965V7.55086C17.6006 8.07065 18.3604 8.071 18.3689 7.55086Z" fill="white"/>
</svg>
