<svg width="71" height="50" viewBox="0 0 71 50" fill="none" xmlns="http://www.w3.org/2000/svg">
<path d="M1.51308 28.7508C-0.950954 33.2981 0.19439 37.9773 0.801118 39.7776C1.13263 40.702 1.97395 40.7043 2.84666 40.6868C5.20295 40.6868 7.48497 40.0597 9.4401 38.8749C11.3692 37.7159 12.9517 36.0617 14.1465 33.9561C14.6789 32.9521 16.0786 32.6006 16.9003 33.4024C20.563 36.8037 24.347 39.3706 28.2161 41.1398C25.6087 45.8335 28.8618 50.1448 33.9432 49.9963C38.2574 49.8842 41.8543 47.6746 45.4986 43.7192C56.5588 42.2581 64.6591 35.4699 68.8556 31.0515C71.7146 28.0464 71.7146 23.156 68.8568 20.1528C64.6656 15.2639 54.2823 8.27922 45.7295 7.50684C41.7763 3.26159 37.6119 0.772752 33.3425 0.137147C24.502 -1.06546 20.432 5.84885 25.4677 12.7325C25.9324 13.387 26.5616 13.764 27.3236 13.4098C32.677 10.4253 38.9654 9.26998 44.978 10.0572C46.813 10.2902 48.658 10.7007 50.4687 11.2626C49.6544 12.8041 48.9706 14.4227 48.4313 16.0924C46.4362 22.2029 46.3985 28.9653 48.4326 35.0997C48.9868 36.7253 51.3516 35.8987 50.8322 34.2471C48.4147 26.9933 49.2361 18.7711 52.9068 12.1501C59.2291 14.6983 64.0424 18.8277 67.0527 22.0053C68.9385 23.9886 68.9385 27.2139 67.0515 29.1977C62.3364 34.1641 52.4183 42.3359 38.8092 41.2844C31.8554 40.7506 25.0527 37.4371 18.5905 31.4353C17.6445 30.5557 16.3827 30.1687 15.1136 30.3741C13.7936 30.5892 12.6446 31.4082 11.9611 32.6188C10.9928 34.3257 9.71746 35.6618 8.16846 36.5936C6.62193 37.5298 4.81786 38.032 2.94445 38.0488C2.5185 36.3566 2.06779 33.0998 3.72204 30.047C4.62965 28.3748 5.86042 27.3027 6.73212 26.6981C7.47863 26.2136 7.47386 24.988 6.7321 24.5037C3.1197 22.2448 1.77688 17.0947 2.94214 13.1484C4.79367 13.1672 6.54962 13.6486 8.17217 14.6108C9.71746 15.5399 10.9928 16.876 11.9598 18.5798C13.2396 21.0018 16.6359 21.6696 18.5843 19.7716C19.8287 18.6274 20.9691 17.6642 22.0686 16.8277C22.6332 16.3976 22.7558 15.5728 22.3422 14.9849C21.9299 14.3964 21.1374 14.2689 20.5703 14.699C19.4077 15.5844 18.2091 16.5966 16.8991 17.8C16.5164 18.1555 16.0212 18.3048 15.5061 18.2218C14.9402 18.1297 14.4449 17.7736 14.1453 17.2424C12.9516 15.14 11.3692 13.4859 9.3336 12.2644C7.08658 10.9498 4.57377 10.3601 1.9093 10.5445C1.40906 10.5806 0.975699 10.9206 0.80482 11.4125C0.564612 12.1041 0.00617884 13.9656 0.00617884 16.3042C-0.00832624 19.9008 1.39583 23.2555 3.95855 25.6047C3.12646 26.3774 2.23991 27.4115 1.51308 28.7508ZM38.6284 7.28701C34.6985 7.57404 30.678 8.76278 27.1374 10.5645C25.8221 8.33673 25.4628 6.59835 26.0668 5.27739C27.1168 2.97351 30.2965 2.34893 32.9834 2.74749C35.9254 3.18575 38.8511 4.68733 41.7121 7.1975C40.6816 7.18157 39.6512 7.20789 38.6284 7.28701ZM41.2088 44.0152C41.3193 44.0152 41.4245 44.0041 41.5345 44.003C39.7496 45.541 37.5458 46.906 35.0624 47.2765C32.0771 47.8015 28.1631 46.2098 30.5963 42.1317C34.0638 43.4147 37.6034 44.0275 41.2088 44.0152Z" fill="#21CD1E"/>
<path d="M38.0502 21.731L40.6492 23.0761C41.2744 23.3994 42.0372 23.1341 42.3492 22.4824C42.6612 21.8308 42.4062 21.0388 41.7784 20.7143L39.1757 19.3673C33.4026 17.2097 32.548 26.8313 34.7813 30.3881C35.613 32.022 37.6188 32.6433 39.1794 31.8325L41.7784 30.4874C42.4062 30.1629 42.6612 29.3709 42.3492 28.7193C42.0372 28.0677 41.2744 27.803 40.6492 28.1256L38.0539 29.4688C37.6762 29.6632 37.2106 29.5216 37.0113 29.132C35.8585 26.9543 35.8585 24.248 37.02 22.0542C37.2094 21.6827 37.6737 21.5372 38.0502 21.731Z" fill="#21CD1E"/>
<path d="M58.3308 24.0974V21.4599C58.3031 19.7273 55.8227 19.7261 55.7949 21.46V24.0974C55.8226 25.83 58.3031 25.8312 58.3308 24.0974Z" fill="#21CD1E"/>
</svg>
