<svg width="49" height="41" viewBox="0 0 49 41" fill="none" xmlns="http://www.w3.org/2000/svg">
<path d="M33.6356 12.0465C34.7824 12.0465 35.7119 11.1463 35.7119 10.0358C35.7119 8.92535 34.7824 8.02513 33.6356 8.02513C32.489 8.02513 31.5593 8.92535 31.5593 10.0358C31.5593 11.1463 32.489 12.0465 33.6356 12.0465Z" fill="white"/>
<path fill-rule="evenodd" clip-rule="evenodd" d="M25.2975 22.7815C25.8262 23.2081 25.8974 23.9687 25.4571 24.4806L17.152 34.1317C16.7115 34.6436 15.926 34.7127 15.3974 34.2863C14.8689 33.8597 14.7975 33.0991 15.2379 32.5872L23.5429 22.936C23.9834 22.4242 24.7689 22.355 25.2975 22.7815Z" fill="white"/>
<path fill-rule="evenodd" clip-rule="evenodd" d="M37.3162 3.99461C35.3928 2.73798 33.0629 2.20234 30.7614 2.48774C28.46 2.77312 26.3447 3.86002 24.8103 5.54544C23.2762 7.23062 22.4279 9.39893 22.4237 11.6455V15.6657C22.4237 15.9396 22.3274 16.2053 22.1508 16.4192L3.83775 38.5872H22.839C27.795 38.5872 32.548 36.6806 36.0524 33.2871C39.5566 29.8934 41.5254 25.2906 41.5254 20.4912V15.6657C41.5254 15.2622 41.7335 14.8857 42.0802 14.6619L45.5069 12.4496L41.7281 10.0147C41.4739 9.85093 41.2907 9.60238 41.2132 9.3163C40.6248 7.1429 39.2395 5.25122 37.3162 3.99461ZM30.4449 0.0944851C33.3467 -0.265359 36.2846 0.410014 38.7097 1.99445C41.0004 3.49112 42.6858 5.70229 43.4907 8.25243L48.4444 11.4442C48.7912 11.6678 48.9998 12.0445 49 12.448C49.0002 12.8515 48.792 13.2286 48.4452 13.4523L44.0169 16.3113V20.4912C44.0169 25.9305 41.7857 31.1469 37.814 34.9931C33.8424 38.8393 28.4557 41 22.839 41H1.24578C0.766896 41 0.330409 40.7341 0.122965 40.3162C-0.0844795 39.8982 -0.0261562 39.4021 0.272996 39.04L19.9322 15.2424V11.6423C19.9372 8.80931 21.0067 6.07492 22.9413 3.94984C24.8761 1.82476 27.5433 0.454313 30.4449 0.0944851Z" fill="white"/>
</svg>
