<svg width="35" height="53" viewBox="0 0 35 53" fill="none" xmlns="http://www.w3.org/2000/svg">
<path d="M31.2181 25.7933C32.2468 22.2881 33.5541 17.4252 34.3227 13.01C35.3591 7.05252 35.1907 3.45318 33.7922 1.68321C33.2775 1.03189 32.3354 0.305564 30.7678 0.547672C28.55 0.890416 26.424 3.31275 24.2683 7.95365C22.9197 10.8572 21.5741 14.5898 20.2633 19.059C18.4322 18.7531 16.5678 18.7531 14.7367 19.059C13.4259 14.5898 12.0803 10.8572 10.7317 7.95365C8.57597 3.31254 6.45001 0.890416 4.23208 0.547672C2.66467 0.30598 1.72249 1.03178 1.20779 1.68321C-0.190653 3.45318 -0.359139 7.05252 0.677736 13.01C1.44628 17.4252 2.75362 22.2881 3.78233 25.7933C1.33702 29.004 0.000992972 33.0208 0 37.165C0 42.0383 1.80979 46.1243 5.23376 48.9822C8.33836 51.5728 12.6946 53 17.5 53C22.3054 53 26.6616 51.5728 29.7662 48.9822C33.1902 46.1243 35 42.0383 35 37.165C34.9991 33.0209 33.6632 29.0041 31.2181 25.7933ZM26.3569 9.06835C28.67 4.08867 30.3216 3.14336 31.1001 3.02324C31.6428 2.9399 31.8585 3.10658 32.011 3.29931C33.1664 4.76165 33.0346 10.8971 29.3771 23.7131C27.4171 21.8132 25.0831 20.4105 22.5482 19.6092C23.8032 15.3551 25.0827 11.8121 26.3569 9.06835ZM2.98871 3.29879C3.14115 3.10585 3.35718 2.93948 3.89949 3.02262C4.67814 3.14284 6.33004 4.08794 8.64276 9.06783C9.91735 11.8121 11.1968 15.3551 12.4515 19.6087C9.91659 20.41 7.58257 21.8126 5.62265 23.7126C1.96515 10.8966 1.83332 4.76113 2.98871 3.29879ZM17.5 42.999C15.8113 42.999 14.7778 42.1895 14.7778 41.7488C14.7778 41.3082 15.8113 40.4987 17.5 40.4987C19.1888 40.4987 20.2222 41.3082 20.2222 41.7488C20.2222 42.1895 19.1888 42.999 17.5 42.999ZM18.6667 50.4667V45.4017C20.9209 45.0205 22.5556 43.5528 22.5556 41.7488C22.5556 39.6458 20.3349 37.9984 17.5 37.9984C14.6651 37.9984 12.4444 39.6458 12.4444 41.7488C12.4444 43.5528 14.0791 45.02 16.3333 45.4017V50.4667C9.62714 50.0946 2.33333 46.4647 2.33333 37.165C2.33333 28.4336 9.13704 21.33 17.5 21.33C25.863 21.33 32.6667 28.4336 32.6667 37.165C32.6667 46.4647 25.3729 50.0946 18.6667 50.4667Z" fill="white"/>
<path d="M24.8889 36.3316C25.5332 36.3316 26.0556 35.7719 26.0556 35.0815C26.0556 34.391 25.5332 33.8313 24.8889 33.8313C24.2446 33.8313 23.7222 34.391 23.7222 35.0815C23.7222 35.7719 24.2446 36.3316 24.8889 36.3316Z" fill="white"/>
<path d="M10.1111 36.3316C10.7554 36.3316 11.2778 35.7719 11.2778 35.0815C11.2778 34.391 10.7554 33.8313 10.1111 33.8313C9.46678 33.8313 8.94444 34.391 8.94444 35.0815C8.94444 35.7719 9.46678 36.3316 10.1111 36.3316Z" fill="white"/>
</svg>
