<svg width="30" height="26" viewBox="0 0 30 26" fill="none" xmlns="http://www.w3.org/2000/svg">
<path d="M22.184 14.9874C20.1656 12.6253 17.6143 11.3244 15 11.3244C12.3856 11.3244 9.83428 12.6253 7.81596 14.9874C6.00166 17.1107 4.91861 19.7866 4.91861 22.1454C4.91861 23.2913 5.28002 24.1641 5.99276 24.7397C6.69623 25.3079 7.625 25.5001 8.66118 25.5C9.76374 25.5 10.988 25.2824 12.1909 25.0685C13.242 24.8816 14.2348 24.7051 15 24.7051C15.6605 24.7051 16.5917 24.8726 17.5775 25.05C19.8812 25.4646 22.4924 25.9344 24.0007 24.7187C24.7178 24.1409 25.0814 23.2751 25.0814 22.1454C25.0814 19.7866 23.9983 17.1107 22.184 14.9874ZM22.8769 23.4086C22.0025 24.1134 19.7268 23.7038 17.8982 23.3748C16.8306 23.1827 15.8222 23.0012 14.9999 23.0012C14.0748 23.0012 13.0056 23.1914 11.8736 23.3927C10.1198 23.7045 7.93719 24.0926 7.11782 23.4308C7.0086 23.3426 6.67625 23.0742 6.67625 22.1454C6.67625 20.2004 7.63168 17.874 9.1696 16.0742C10.848 14.1099 12.9186 13.0281 14.9999 13.0281C17.0811 13.0281 19.1517 14.1099 20.8301 16.0742C22.3681 17.874 23.3235 20.2004 23.3235 22.1454C23.3236 23.0487 22.9874 23.3196 22.8769 23.4086Z" fill="white"/>
<path d="M22.3904 2.1607C21.6519 1.10531 20.5944 0.500114 19.489 0.500114C18.3836 0.500114 17.3261 1.10542 16.5876 2.1607C15.9092 3.13023 15.5356 4.40343 15.5356 5.7458C15.5356 7.08818 15.9092 8.36138 16.5876 9.3309C17.3261 10.3862 18.3836 10.9915 19.489 10.9915C20.5945 10.9915 21.6519 10.3862 22.3904 9.3309C23.0688 8.36138 23.4425 7.08818 23.4425 5.7458C23.4425 4.40343 23.0689 3.13017 22.3904 2.1607ZM20.9357 8.37455C20.6971 8.7156 20.1917 9.2878 19.489 9.2878C18.7863 9.2878 18.2811 8.71566 18.0423 8.37455C17.5663 7.69428 17.2933 6.73611 17.2933 5.7458C17.2933 4.75543 17.5664 3.79733 18.0423 3.11705C18.281 2.77601 18.7863 2.20381 19.489 2.20381C20.1917 2.20381 20.6971 2.77595 20.9357 3.11705C21.4117 3.79733 21.6847 4.75549 21.6847 5.7458C21.6847 6.73611 21.4117 7.69428 20.9357 8.37455Z" fill="white"/>
<path d="M13.4124 2.16065C12.6739 1.10525 11.6164 0.5 10.511 0.5C9.40555 0.5 8.34805 1.10531 7.60959 2.16065C6.93119 3.13017 6.55754 4.40337 6.55754 5.74575C6.55754 7.08812 6.93114 8.36132 7.60959 9.33085C8.34811 10.3862 9.40555 10.9915 10.511 10.9915C11.6164 10.9915 12.6739 10.3862 13.4124 9.33085C14.0908 8.36132 14.4644 7.08818 14.4644 5.74575C14.4644 4.40337 14.0908 3.13011 13.4124 2.16065ZM11.9575 8.37455C11.7189 8.7156 11.2136 9.2878 10.5109 9.2878C9.80821 9.2878 9.3029 8.7156 9.06424 8.37455C8.58823 7.69428 8.31524 6.73611 8.31524 5.7458C8.31524 4.75543 8.58829 3.79733 9.06424 3.11705C9.3029 2.77601 9.80821 2.20381 10.5109 2.20381C11.2136 2.20381 11.7189 2.77595 11.9575 3.11705C12.4336 3.79733 12.7066 4.75549 12.7066 5.7458C12.7066 6.73611 12.4336 7.69428 11.9575 8.37455Z" fill="white"/>
<path d="M29.8253 10.395C29.5276 9.41342 28.8895 8.70015 28.0285 8.38671C27.3357 8.13449 26.5537 8.17725 25.8264 8.50717C24.8242 8.96174 24.005 9.90043 23.579 11.0825C23.2309 12.0484 23.1875 13.0694 23.4568 13.9575C23.7545 14.9391 24.3927 15.6524 25.2537 15.9658C25.5516 16.0743 25.866 16.1282 26.1854 16.1282C26.6089 16.1282 27.0413 16.0334 27.4558 15.8454C28.4581 15.3908 29.2773 14.4521 29.7033 13.2701V13.2701C30.0513 12.3042 30.0947 11.2831 29.8253 10.395ZM28.0438 12.7082C27.7768 13.4488 27.2785 14.0447 26.7108 14.3022C26.502 14.3968 26.1871 14.4856 25.8717 14.3708C25.1107 14.0937 24.8147 12.8196 25.2383 11.6443C25.5053 10.9037 26.0036 10.3078 26.5714 10.0503C26.7098 9.98749 26.8948 9.92735 27.0957 9.92735C27.1979 9.92735 27.3041 9.94291 27.4104 9.98159C28.1714 10.2587 28.4674 11.5328 28.0438 12.7082Z" fill="white"/>
<path d="M6.42108 11.0824C5.99504 9.90032 5.17584 8.96169 4.17365 8.50711C3.44633 8.1772 2.66422 8.13449 1.97146 8.38665C1.11048 8.70015 0.47234 9.41342 0.174625 10.395C-0.0947311 11.2831 -0.0513131 12.3041 0.296793 13.27V13.2701C0.722887 14.4521 1.54203 15.3907 2.54422 15.8453C2.95883 16.0333 3.39119 16.1281 3.81465 16.1281C4.1341 16.1281 4.44852 16.0742 4.74641 15.9658C5.6075 15.6523 6.24559 14.939 6.5433 13.9574C6.81254 13.0694 6.76912 12.0484 6.42108 11.0824ZM4.12824 14.3708C3.81295 14.4856 3.49795 14.3968 3.28924 14.3022C2.72152 14.0447 2.22312 13.4488 1.95623 12.7082V12.7083C1.53265 11.5329 1.82861 10.2589 2.58963 9.9817C2.90486 9.86692 3.21992 9.95569 3.42869 10.0503C3.99646 10.3079 4.49481 10.9037 4.7617 11.6443C5.18528 12.8197 4.88926 14.0937 4.12824 14.3708Z" fill="white"/>
</svg>
