<svg width="59" height="64" viewBox="0 0 59 64" fill="none" xmlns="http://www.w3.org/2000/svg">
<path d="M22.2015 12.4483C21.6888 12.4483 21.2734 12.8679 21.2734 13.3858V15.6251C21.2734 16.1429 21.6888 16.5626 22.2015 16.5626C22.7143 16.5626 23.1297 16.1429 23.1297 15.6251V13.3858C23.1297 12.8679 22.7141 12.4483 22.2015 12.4483ZM36.7996 12.4483C36.2868 12.4483 35.8714 12.8679 35.8714 13.3858V15.6251C35.8714 16.1429 36.2868 16.5626 36.7996 16.5626C37.3123 16.5626 37.7277 16.1429 37.7277 15.6251V13.3858C37.7277 12.8679 37.3123 12.4483 36.7996 12.4483ZM42.9464 31.4344C43.3191 30.7278 43.7995 30.0641 44.3742 29.4621C44.6842 29.1376 44.9816 28.801 45.2659 28.4556C45.3807 28.6371 46.0095 29.7316 47.4307 29.7316C48.1032 29.7316 48.7424 29.4568 49.2124 28.9584L56.8283 20.885C59.4082 18.1502 59.726 13.9448 57.5856 10.8873L57.5376 10.819C55.1678 7.4686 51.6726 5.12035 47.1494 3.83948C44.1072 2.97799 41.4025 2.85411 40.1651 2.84974C36.987 0.986246 33.3067 0 29.5005 0C25.6928 0 22.0124 0.986246 18.8352 2.84974C17.1067 2.85424 13.1943 3.07786 9.17325 4.77536C8.70038 4.97511 8.47712 5.5241 8.67488 6.00185C8.87252 6.47935 9.4163 6.7046 9.88917 6.50522C12.8915 5.23785 15.8926 4.86423 17.6951 4.76111C16.2812 8.49659 15.4477 12.2156 15.2145 15.8361C15.1844 16.3039 15.1647 16.7611 15.1455 17.2032C15.0754 18.8318 15.0089 20.3702 14.4424 22.3815C13.9334 24.1892 13.1422 25.935 12.0911 27.5709C11.9487 27.7926 11.7408 27.8434 11.6297 27.8538C11.5203 27.8641 11.3091 27.8534 11.1314 27.665L3.51542 19.5917C1.54598 17.5039 1.30033 14.2977 2.93241 11.9662L2.97263 11.909C3.88185 10.6236 5.00171 9.48584 6.30114 8.52734C6.71522 8.22209 6.80569 7.63547 6.50336 7.21747C6.20102 6.79922 5.62036 6.70797 5.20653 7.01322C3.74659 8.08997 2.48676 9.37034 1.46183 10.8196L1.41542 10.8855C-0.726286 13.9448 -0.408359 18.1502 2.17144 20.885L9.78744 28.9584C10.2575 29.4566 10.8967 29.7316 11.569 29.7316C12.8355 29.7316 13.469 28.8745 13.7344 28.4548C14.0185 28.8003 14.3161 29.137 14.6265 29.462C15.2015 30.0641 15.6818 30.7278 16.0545 31.4346C16.5716 32.4146 16.8587 33.5764 16.885 34.7947C16.9032 35.6129 17.0272 36.7995 17.4831 38.0397C16.7982 38.9038 13.4058 43.2642 10.8668 48.6361C8.69864 53.2233 7.25368 58.033 6.57154 62.9318C6.50014 63.4446 6.85371 63.9186 7.36135 63.9907C7.40516 63.997 7.44884 64 7.49191 64C7.9472 64 8.34471 63.6614 8.4098 63.193C9.06545 58.4839 10.4557 53.858 12.5422 49.4437C13.6454 47.1084 14.9458 44.8292 16.428 42.6305C18.6568 45.5568 21.7427 47.6201 25.2089 48.5582C24.9003 49.2033 24.736 49.9148 24.736 50.6501C24.736 53.3037 26.8734 55.4625 29.5006 55.4625C32.1278 55.4625 34.2652 53.3037 34.2652 50.6501C34.2652 49.9138 34.1005 49.2016 33.7911 48.5562C35.1495 48.1878 36.4599 47.6454 37.685 46.9376C38.1301 46.6804 38.2844 46.1078 38.0298 45.6584C37.7752 45.2091 37.2078 45.0529 36.7634 45.3102C34.5624 46.5818 32.0511 47.2539 29.5006 47.2539C24.7257 47.2539 20.308 44.9351 17.5578 41.0208C17.8399 40.6332 18.1277 40.2483 18.4213 39.8665C18.7952 40.4105 19.2567 40.9346 19.8284 41.4105C20.5326 41.9983 21.3428 42.4566 22.2399 42.7737C22.954 43.0262 24.1372 43.1982 24.1723 43.1985C24.3984 43.5336 24.6534 43.8501 24.94 44.1407C26.1576 45.3704 27.7773 46.0477 29.5009 46.0477C31.6452 46.0477 33.6385 44.9691 34.8336 43.1982C34.8738 43.1977 37.1997 43.0533 39.1722 41.4112C39.7442 40.935 40.206 40.4106 40.5802 39.8663C40.8738 40.2483 41.1616 40.6333 41.4438 41.0211C41.0048 41.6468 40.5125 42.2441 39.9734 42.8015C39.6152 43.172 39.6223 43.7655 39.989 44.1272C40.1695 44.3052 40.4036 44.394 40.6373 44.394C40.8785 44.394 41.1196 44.2996 41.3015 44.1115C41.7557 43.6416 42.1803 43.146 42.5733 42.6307C44.0554 44.8296 45.3559 47.1088 46.459 49.4441C48.5454 53.8582 49.9358 58.484 50.5914 63.1931C50.7159 64.0875 51.5844 63.9987 51.6399 63.9909C52.1475 63.9187 52.5011 63.4448 52.4297 62.9319C51.7476 58.0331 50.3026 53.2234 48.1344 48.6364C45.4705 43.0005 42.3278 39.0613 41.5181 38.0399C41.974 36.7995 42.0981 35.6127 42.1162 34.7944C42.1422 33.5762 42.4294 32.4145 42.9464 31.4344ZM27.128 48.9556C27.9068 49.0687 28.6989 49.1287 29.5005 49.1287C30.2964 49.1287 31.0885 49.0684 31.8711 48.9539C32.2184 49.4472 32.4087 50.0343 32.4087 50.6499C32.4087 52.2697 31.1041 53.5874 29.5005 53.5874C27.8969 53.5874 26.5923 52.2697 26.5923 50.6499C26.5923 50.0349 26.7818 49.4486 27.128 48.9556ZM56.029 11.9115L56.0687 11.968C57.6997 14.2977 57.4539 17.5038 55.4845 19.5915L47.8686 27.6649C47.6909 27.8533 47.4801 27.8638 47.3702 27.8536C47.2591 27.8433 47.0512 27.7926 46.9087 27.5708C45.8578 25.9353 45.0666 24.1893 44.5575 22.3813C43.991 20.37 43.9246 18.8318 43.8543 17.2031C43.8353 16.7611 43.8156 16.3039 43.7854 15.8358C43.5521 12.2157 42.7188 8.49697 41.305 4.76173C44.5929 4.95336 51.8886 6.05773 56.029 11.9115ZM29.5005 44.1723C28.281 44.1723 27.135 43.6961 26.2714 42.8327C27.6193 42.3476 28.7564 41.4095 29.4981 40.1985C29.7512 40.6117 30.0534 40.9981 30.4022 41.3503C31.0691 42.024 31.8604 42.5262 32.7237 42.8358C31.8751 43.679 30.7227 44.1723 29.5005 44.1723ZM29.1629 33.401L26.2037 30.412C26.0516 30.2584 26.0556 30.0819 26.0717 29.9904C26.0849 29.9151 26.1378 29.7298 26.3456 29.632C27.3832 29.1441 28.4786 28.908 29.6 28.9195C30.6577 28.9338 31.688 29.1744 32.6626 29.6345C32.8576 29.7265 32.9137 29.8946 32.9296 29.9866C32.9457 30.0789 32.9498 30.2568 32.797 30.4111L29.8369 33.401C29.6511 33.5887 29.3485 33.5887 29.1629 33.401ZM41.3081 30.5528C40.655 31.7908 40.2925 33.2432 40.26 34.7527C40.2067 37.2285 39.1474 39.0007 37.9909 39.9641C36.8741 40.8946 35.6321 41.2177 34.7691 41.3233C33.615 41.3101 32.5321 40.85 31.7148 40.0243C30.8854 39.1866 30.4285 38.073 30.4285 36.8886V35.2199C30.6901 35.1055 30.9358 34.9424 31.1493 34.7267L34.1094 31.7369C34.6471 31.1936 34.8894 30.4179 34.7576 29.6615C34.6259 28.9056 34.1364 28.2605 33.4482 27.9356C32.2337 27.3621 30.9472 27.0624 29.6246 27.0445C28.2254 27.0244 26.8545 27.3241 25.5617 27.9321C24.8688 28.258 24.376 28.9055 24.2435 29.6641C24.1115 30.4198 24.3535 31.1949 24.8909 31.7376L27.85 34.7266V34.7267C28.0639 34.9429 28.3101 35.1061 28.5722 35.2205V36.8885C28.5722 39.3167 26.6294 41.2955 24.231 41.3232C23.7617 41.2666 23.2963 41.1583 22.8495 41.0023C22.1637 40.76 21.545 40.4107 21.0095 39.9637C19.9517 39.0808 18.7942 37.2302 18.7409 34.7531C18.7083 33.2431 18.346 31.7906 17.6928 30.5528C17.2392 29.6924 16.6571 28.8875 15.9626 28.16C15.5217 27.6984 15.1092 27.211 14.7303 26.707C15.3579 25.4767 15.86 24.2009 16.2279 22.8943C16.8541 20.6714 16.9282 18.9496 17 17.2844C17.0187 16.8523 17.038 16.4054 17.0668 15.9576C17.3084 12.2071 18.2356 8.33372 19.8196 4.44036C22.7019 2.76286 26.0413 1.87499 29.5005 1.87499C32.958 1.87499 36.2967 2.76274 39.1799 4.44011C40.7642 8.33372 41.6915 12.2072 41.933 15.9577C41.9619 16.4057 41.9812 16.8526 41.9999 17.2847C42.0716 18.9498 42.1459 20.6717 42.772 22.8945C43.1401 24.2018 43.6425 25.4779 44.2702 26.7085C43.8907 27.2126 43.4784 27.6995 43.0382 28.1604C42.3438 28.8878 41.7616 29.6926 41.3081 30.5528Z" fill="#FF3D41"/>
</svg>
