<svg width="16" height="21" viewBox="0 0 16 21" fill="none" xmlns="http://www.w3.org/2000/svg">
<path d="M4.17884 6.00923C4.17884 5.60353 3.91481 5.2856 3.57771 5.2856C3.24077 5.2856 2.97674 5.60338 2.97674 6.00923C2.97674 6.41494 3.24077 6.73272 3.57771 6.73272C3.91481 6.73272 4.17884 6.41494 4.17884 6.00923Z" fill="white"/>
<path d="M9.14889 6.00923C9.14889 5.60353 8.88486 5.2856 8.54792 5.2856C8.21082 5.2856 7.94679 5.60338 7.94679 6.00923C7.94679 6.41494 8.21082 6.73272 8.54792 6.73272C8.88486 6.73272 9.14889 6.41494 9.14889 6.00923Z" fill="white"/>
<path d="M6.06282 8.21896C6.22645 8.21896 6.35893 8.09057 6.35893 7.93198V7.28853C6.70478 7.19243 6.97264 6.93862 6.97264 6.66577C6.97264 6.56579 6.93289 6.32404 6.56493 6.23968C6.44428 6.21201 6.29415 6.20011 6.06282 6.20011C5.83164 6.20011 5.68151 6.21201 5.5607 6.23968C5.19275 6.32404 5.15299 6.56579 5.15299 6.66577C5.15299 6.93862 5.42086 7.19243 5.7667 7.28853V7.93198C5.7667 8.09057 5.89933 8.21896 6.06282 8.21896Z" fill="white"/>
<path d="M12.9061 8.79085C13.2713 9.6152 13.7258 10.641 13.6369 11.787C13.5671 12.6863 13.3057 13.6223 12.9007 14.4224C12.8287 14.5647 12.8894 14.7366 13.0363 14.8063C13.0782 14.8263 13.1227 14.8358 13.1664 14.8358C13.2759 14.8358 13.381 14.7767 13.4326 14.6751C13.8698 13.8109 14.1521 12.8006 14.2275 11.83C14.3274 10.5437 13.8411 9.44619 13.4503 8.56426C13.2268 8.05977 13.0337 7.62402 13.0166 7.29776C12.9985 6.95052 13.3051 6.59689 13.6729 6.54095C13.8862 6.50837 14.6183 6.53143 15.076 8.19203C15.1183 8.34512 15.2805 8.43602 15.4386 8.39526C15.5966 8.35434 15.6905 8.19694 15.6483 8.04386C15.4403 7.28987 15.1421 6.72855 14.7615 6.37551C14.4144 6.05342 13.9948 5.9109 13.5808 5.97383C12.9099 6.07603 12.3914 6.68288 12.4252 7.32677C12.4476 7.75598 12.66 8.23562 12.9061 8.79085Z" fill="white"/>
<path d="M16 11.2877C16.0002 10.5206 15.959 9.82155 15.8777 9.20979C15.8569 9.05254 15.7082 8.9417 15.5462 8.96179C15.384 8.98202 15.2695 9.12588 15.2902 9.28299C15.3683 9.87064 15.4078 10.545 15.4076 11.2876C15.4073 12.7095 15.0929 13.987 14.4732 15.0848C13.9779 15.9626 13.2857 16.7309 12.4161 17.3682C12.0356 17.6472 11.6532 17.8766 11.2943 18.0639C11.4306 17.7705 11.4978 17.4337 11.4978 17.0492C11.4978 17.011 11.4969 16.9705 11.4954 16.929C11.9686 16.6136 12.3961 16.2121 12.7678 15.7325C12.866 15.6057 12.8396 15.4258 12.7088 15.3306C12.5781 15.2354 12.3925 15.261 12.2942 15.3877C12.0343 15.7231 11.7451 16.015 11.4309 16.2603C11.1495 14.2443 10.0598 10.5831 9.74112 9.53635C10.2604 9.34741 10.7589 8.93263 11.0708 8.33411L11.4925 8.55623C11.6345 8.63077 11.8171 8.5784 11.894 8.44093C11.9722 8.30168 11.9189 8.12747 11.7752 8.05174L11.2838 7.79302C11.3423 7.58444 11.3798 7.36054 11.3922 7.12236L11.8793 7.04172C12.0406 7.01509 12.149 6.86691 12.1215 6.71055C12.0939 6.55434 11.941 6.44945 11.7797 6.47594L11.3502 6.5469C11.1317 5.35939 10.1961 3.86616 9.96047 3.5036C9.96815 3.31094 9.9789 2.85286 9.93515 2.37738C9.84796 1.4294 9.58792 0.924913 9.1403 0.835203C8.70081 0.747278 8.25871 1.08782 7.78868 1.87691C7.59096 2.20868 7.43301 2.54431 7.34443 2.74426H4.7812C4.69263 2.54431 4.53467 2.20868 4.33695 1.87691C3.86692 1.08782 3.42482 0.747129 2.98534 0.835203C2.53771 0.924913 2.27768 1.4294 2.19048 2.37738C2.14674 2.85272 2.15748 3.31094 2.16531 3.5036C1.92953 3.86616 0.994062 5.35939 0.77547 6.5469L0.345962 6.47594C0.184781 6.44931 0.0317358 6.55434 0.00425834 6.71055C-0.0232192 6.86691 0.0851557 7.01509 0.246337 7.04172L0.73341 7.12236C0.745844 7.36054 0.783453 7.58444 0.841785 7.79302L0.350413 8.05174C0.206732 8.12747 0.153619 8.30168 0.2316 8.44093C0.30866 8.5784 0.491178 8.63091 0.633171 8.55623L1.05485 8.33411C1.36693 8.93278 1.86536 9.34756 2.38482 9.53635C2.30039 9.81426 2.1604 10.2808 1.99645 10.8487C1.9524 11.0013 2.04435 11.1598 2.20184 11.2025C2.35934 11.2453 2.52282 11.156 2.56688 11.0034C2.83275 10.0819 3.03523 9.42968 3.03722 9.42313C3.08726 9.26246 2.9792 9.09003 2.80927 9.05849C2.10329 8.92772 1.36601 8.19724 1.32272 7.05451C1.30491 6.5832 1.53578 5.86552 1.99047 4.97928C2.34445 4.28957 2.70995 3.74342 2.71363 3.73806C2.74817 3.68659 2.76475 3.62589 2.76106 3.56459C2.76076 3.55909 2.72806 2.99896 2.78041 2.42841C2.8547 1.62117 3.04014 1.41036 3.10538 1.39742C3.17016 1.38403 3.42513 1.4959 3.82117 2.15913C4.10301 2.63104 4.30564 3.13062 4.30763 3.13568C4.35184 3.24577 4.46145 3.31823 4.58348 3.31823H7.5423C7.66434 3.31823 7.77379 3.24577 7.81815 3.13568C7.82015 3.13062 8.02032 2.6361 8.30154 2.16404C8.69927 1.49665 8.95547 1.38432 9.02041 1.39742C9.08534 1.41036 9.27016 1.62013 9.34476 2.42306C9.39772 2.99375 9.36503 3.55909 9.36457 3.56474C9.36104 3.62589 9.37761 3.68674 9.41215 3.73806C9.41584 3.74342 9.78133 4.28957 10.1353 4.97943C10.59 5.86552 10.8209 6.5832 10.8029 7.05451C10.7598 8.19724 10.0223 8.92772 9.31637 9.05849C9.14643 9.09003 9.03852 9.2626 9.08841 9.42328C9.10668 9.48175 10.9056 15.29 10.9056 17.0492C10.9056 17.6378 10.7168 18.0561 10.3115 18.3659C9.96692 18.6292 9.45667 18.8192 8.76068 18.9428C8.92493 18.3144 9.0706 17.4433 9.19387 16.354C9.40264 14.5091 9.47678 12.6402 9.47755 12.6216C9.48369 12.4632 9.35628 12.3299 9.19279 12.3239C9.03054 12.3172 8.89192 12.4414 8.88563 12.5999C8.88502 12.6171 8.81625 14.3474 8.62528 16.1096C8.51369 17.1382 8.38321 17.9749 8.23738 18.5963C8.02646 19.4945 7.84026 19.6989 7.78699 19.7408C7.70655 19.6831 7.31865 19.2646 7.09468 16.5062C6.96574 14.9179 6.95806 13.3564 6.95806 13.3408C6.95745 13.1826 6.82497 13.0548 6.66195 13.0548C6.66164 13.0548 6.66118 13.0548 6.66072 13.0548C6.49724 13.0554 6.36522 13.1844 6.36584 13.3429C6.36584 13.3598 6.37397 15.0469 6.51781 16.7121C6.60285 17.6983 6.71844 18.4871 6.86135 19.0568C6.86596 19.0752 6.87087 19.0938 6.87563 19.1127C6.62158 19.1203 6.35294 19.1242 6.06282 19.1242C5.77269 19.1242 5.50421 19.1203 5.25 19.1127C5.25492 19.0938 5.25967 19.0751 5.26428 19.0568C5.40719 18.4871 5.52294 17.6983 5.60798 16.7121C5.75166 15.0469 5.7598 13.3598 5.75995 13.3429C5.76056 13.1844 5.6284 13.0554 5.46491 13.0548C5.46445 13.0548 5.46414 13.0548 5.46368 13.0548C5.30066 13.0548 5.16819 13.1826 5.16757 13.3408C5.16757 13.3564 5.16005 14.9151 5.03126 16.5034C4.80729 19.2645 4.41908 19.6831 4.33864 19.7408C4.30165 19.7117 4.20079 19.6043 4.07216 19.2419C4.06709 19.2167 4.0588 19.1926 4.04744 19.1702C3.9974 19.0202 3.94367 18.8324 3.88826 18.5963C3.74243 17.9749 3.61195 17.1382 3.50035 16.1096C3.30939 14.3474 3.24062 12.6171 3.24 12.5999C3.23371 12.4414 3.09617 12.3171 2.93284 12.3239C2.76935 12.3299 2.64194 12.4632 2.64808 12.6216C2.64885 12.6402 2.72315 14.5091 2.93176 16.354C3.05503 17.4435 3.20086 18.3144 3.36511 18.9428C2.6705 18.8195 2.16101 18.6303 1.81654 18.3678C1.4096 18.0578 1.22002 17.6388 1.22002 17.0492C1.22002 16.2734 1.5783 14.5637 2.25588 12.1051C2.29809 11.9518 2.2043 11.7946 2.04619 11.7537C1.88839 11.7129 1.72598 11.8036 1.68361 11.9569C0.98301 14.4988 0.627798 16.2122 0.627798 17.0492C0.627798 17.8184 0.896893 18.3973 1.45043 18.819C1.92231 19.1785 2.61339 19.4201 3.55899 19.5556C3.72677 19.9778 3.96593 20.3217 4.33511 20.3217C4.68265 20.3217 4.90815 20.0314 5.06135 19.6807C5.37158 19.6923 5.70116 19.6981 6.06282 19.6981C6.42448 19.6981 6.75405 19.6923 7.06429 19.6807C7.21748 20.0314 7.44298 20.3217 7.79052 20.3217C8.15986 20.3217 8.39886 19.9778 8.5668 19.5556C8.91157 19.5061 9.22211 19.4423 9.50088 19.364C9.63136 19.3377 15.9985 17.9315 16 11.2877Z" fill="white"/>
</svg>
