<svg width="43" height="52" viewBox="0 0 43 52" fill="none" xmlns="http://www.w3.org/2000/svg">
<path d="M25.7968 24.2633C26.4771 24.2633 27.1422 24.06 27.7078 23.6792C28.2735 23.2983 28.7144 22.757 28.9747 22.1237C29.2351 21.4904 29.3032 20.7935 29.1705 20.1211C29.0378 19.4488 28.7102 18.8312 28.2291 18.3465C27.748 17.8617 27.1351 17.5316 26.4679 17.3979C25.8006 17.2641 25.109 17.3328 24.4805 17.5951C23.8519 17.8574 23.3147 18.3017 22.9367 18.8717C22.5588 19.4417 22.357 20.1118 22.357 20.7973C22.357 21.7165 22.7194 22.5981 23.3645 23.2482C24.0096 23.8982 24.8845 24.2633 25.7968 24.2633ZM25.7968 19.0643C26.137 19.0643 26.4695 19.1659 26.7523 19.3564C27.0352 19.5468 27.2556 19.8174 27.3858 20.1341C27.5159 20.4508 27.55 20.7992 27.4836 21.1354C27.4173 21.4716 27.2535 21.7804 27.0129 22.0227C26.7724 22.2651 26.466 22.4301 26.1323 22.497C25.7987 22.5639 25.4529 22.5296 25.1386 22.3984C24.8244 22.2672 24.5557 22.0451 24.3668 21.7601C24.1778 21.4751 24.0769 21.1401 24.0769 20.7973C24.0769 20.3377 24.2581 19.8969 24.5807 19.5719C24.9032 19.2469 25.3407 19.0643 25.7968 19.0643Z" fill="white"/>
<path d="M1.28837 37.0556C0.907623 37.3759 0.596941 37.7722 0.375953 38.2197C0.154965 38.6671 0.0284748 39.1559 0.0044742 39.6551C-0.0201554 40.1406 0.0571044 40.626 0.231212 41.0794C0.405319 41.5329 0.672361 41.9442 1.01491 42.2867C1.55317 42.8059 2.23764 43.1446 2.97447 43.2565C3.7113 43.3683 4.46443 43.2478 5.13061 42.9114C6.10011 42.2955 6.95951 41.5192 7.6726 40.6152C7.61585 41.8595 7.51179 43.3724 7.31659 44.6747C7.20474 45.4025 7.31068 46.1472 7.62088 46.814C7.93107 47.4808 8.43145 48.0392 9.05812 48.4181C9.68478 48.797 10.4093 48.979 11.1391 48.9411C11.869 48.9031 12.571 48.6468 13.1556 48.2049C14.3981 47.2818 15.5299 46.2164 16.5283 45.03C16.6666 46.1547 16.8725 47.2699 17.1449 48.3695C17.4014 49.407 17.996 50.3277 18.8334 50.9844C19.6708 51.6411 20.7026 51.9957 21.7637 51.9915C22.659 51.9866 23.5351 51.7298 24.2933 51.25C25.0515 50.7701 25.6616 50.0864 26.0548 49.2759C26.3962 48.5478 26.6987 47.8018 26.9612 47.0412C27.9741 48.5362 29.1315 49.9265 30.4164 51.1917C31.0163 51.7073 31.7773 51.9935 32.5658 51.9999C33.3543 52.0063 34.1198 51.7326 34.7279 51.2268C35.336 50.721 35.7478 50.0155 35.8909 49.2342C36.0341 48.4529 35.8995 47.6458 35.5107 46.9545C33.3781 43.161 32.3504 40.5554 31.985 37.9853C32.8721 37.7928 33.6723 37.3128 34.2631 36.6186C34.8539 35.9244 35.2027 35.0544 35.2562 34.1415C35.2514 33.2715 34.9686 32.4262 34.4496 31.7309C33.9598 31.0181 33.6025 30.2215 33.3953 29.38C33.852 29.4334 34.3114 29.4609 34.7712 29.4624C36.6992 29.4624 39.0589 28.9581 40.4692 26.9027L40.6412 26.9616C40.8396 27.0386 41.0503 27.0783 41.2629 27.0786C41.4954 27.0779 41.7252 27.0293 41.9384 26.9357C42.1515 26.8421 42.3433 26.7055 42.5021 26.5344C42.7481 26.2735 42.912 25.945 42.9732 25.5904C43.0344 25.2358 42.9902 24.8708 42.8461 24.5415C41.0918 20.4689 36.4188 19.423 33.9456 19.1579C33.7447 18.406 33.4768 17.674 33.145 16.9708C34.4292 16.0778 35.374 14.7713 35.8242 13.266C36.2745 11.7606 36.2035 10.1457 35.623 8.68636C35.0424 7.22699 33.9867 6.00984 32.6292 5.23467C31.2717 4.45949 29.693 4.17234 28.1522 4.42033C27.8362 3.2906 27.2018 2.2775 26.3257 1.5039C25.4497 0.730292 24.3697 0.229417 23.2168 0.0620129C22.0638 -0.105391 20.8875 0.0678673 19.8303 0.560777C18.7732 1.05369 17.8806 1.84507 17.261 2.83896C16.6796 2.68002 16.0798 2.59988 15.4775 2.60067C13.6535 2.60274 11.9049 3.33374 10.6151 4.6333C9.32542 5.93287 8.59995 7.69486 8.5979 9.53272C8.59442 11.0685 9.10221 12.5611 10.04 13.7717C6.23736 17.3391 4.29818 22.8986 4.29818 30.3289C4.30499 31.6021 4.0397 32.8618 3.52035 34.0225C3.00101 35.1832 2.23977 36.2177 1.28837 37.0556ZM30.9565 36.3944C30.2723 36.3944 29.6161 36.1205 29.1323 35.633C28.6484 35.1455 28.3766 34.4843 28.3766 33.7949C28.3766 30.5758 30.4405 29.6053 31.6031 29.3142C31.8537 30.5506 32.3511 31.7227 33.0651 32.7594C33.3653 33.1572 33.5305 33.6418 33.5363 34.1415C33.5363 35.4101 32.1501 36.3944 30.9565 36.3944ZM33.4133 27.6427C33.5767 27.1427 33.7349 26.6454 33.8734 26.1402C34.5574 26.0459 35.2469 25.9978 35.9373 25.9963C36.8716 26.0104 37.8011 26.1336 38.7071 26.3637C37.2865 27.8489 34.8942 27.8325 33.4133 27.6427ZM41.2646 25.2338C41.2982 25.3127 41.2457 25.3465 41.2371 25.3378C40.974 25.2416 40.6936 25.1446 40.3694 25.0319C38.3997 24.3856 36.32 24.1497 34.2569 24.3387C34.3481 23.7403 34.3946 23.1358 34.3962 22.5303C34.3931 22.0021 34.3581 21.4746 34.2913 20.9507C36.3569 21.2548 39.9635 22.214 41.2646 25.2338ZM15.4775 4.33368C16.1179 4.33149 16.7528 4.45419 17.347 4.69502C17.5519 4.77877 17.781 4.77976 17.9866 4.69778C18.1922 4.61581 18.3586 4.45718 18.4512 4.25483C18.8428 3.39632 19.5023 2.69037 20.3291 2.24456C21.1559 1.79874 22.1047 1.6375 23.0308 1.7854C23.957 1.9333 24.8098 2.38223 25.4593 3.0638C26.1088 3.74536 26.5193 4.62218 26.6284 5.56066C26.6429 5.68612 26.6845 5.80686 26.7502 5.91443C26.8159 6.022 26.9041 6.11379 27.0088 6.18338C27.1134 6.25296 27.2318 6.29866 27.3558 6.31728C27.4798 6.33589 27.6063 6.32696 27.7265 6.29112C28.2165 6.14333 28.7251 6.06774 29.2366 6.0667C30.3227 6.06701 31.381 6.41267 32.2608 7.05445C33.1406 7.69622 33.7969 8.60137 34.1363 9.64096C34.4758 10.6806 34.481 11.8016 34.1512 12.8443C33.8214 13.887 33.1735 14.7983 32.2997 15.4484C31.1304 13.6339 29.5298 12.1425 27.6433 11.1094C25.7568 10.0763 23.6442 9.53438 21.4971 9.53272C17.8743 9.46426 14.3236 10.5582 11.3583 12.6565C10.681 11.7583 10.3154 10.6608 10.3178 9.53272C10.3192 8.15427 10.8632 6.83268 11.8305 5.85797C12.7979 4.88326 14.1095 4.33506 15.4775 4.33368ZM21.4971 11.2657C24.461 11.2692 27.3025 12.4571 29.3983 14.5689C31.494 16.6806 32.6729 19.5438 32.6764 22.5303C32.6159 24.2468 32.264 25.9402 31.6358 27.537C30.1802 27.765 28.8619 28.5337 27.9405 29.6918C27.019 30.85 26.5611 32.3137 26.6567 33.7949C26.6601 34.8213 27.0251 35.8132 27.6865 36.5938C28.348 37.3744 29.263 37.893 30.2685 38.0572C30.6426 40.9167 31.7304 43.7277 34.0205 47.8072C34.16 48.0581 34.2319 48.3414 34.229 48.6291C34.2261 48.9167 34.1484 49.1985 34.0037 49.4465C33.8591 49.6944 33.6525 49.8999 33.4045 50.0424C33.1565 50.1848 32.8758 50.2594 32.5904 50.2585C32.2108 50.2633 31.842 50.1311 31.5507 49.8859C29.992 48.2597 28.594 46.4845 27.3765 44.5855C27.2853 44.4444 27.1552 44.3332 27.0023 44.2655C26.8493 44.1977 26.6801 44.1763 26.5153 44.2039C26.3504 44.2314 26.1971 44.3068 26.0741 44.4207C25.9511 44.5347 25.8637 44.6823 25.8226 44.8454C25.5016 46.116 25.0592 47.3522 24.5017 48.5368C24.25 49.0524 23.8602 49.4869 23.3764 49.7911C22.8926 50.0954 22.334 50.2573 21.7637 50.2585C21.0865 50.2622 20.4277 50.0369 19.8927 49.6185C19.3577 49.2001 18.9776 48.6129 18.8132 47.951C18.3639 46.1538 18.1105 44.3125 18.0573 42.46C18.0571 42.2649 17.9916 42.0756 17.8714 41.9228C17.7512 41.7699 17.5833 41.6623 17.3949 41.6175C17.2065 41.5727 17.0086 41.5933 16.8332 41.6759C16.6579 41.7585 16.5153 41.8983 16.4286 42.0726C15.3421 43.9479 13.8716 45.5684 12.1151 46.8263C11.8027 47.0593 11.4285 47.1933 11.0402 47.2111C10.6519 47.229 10.2671 47.1299 9.93498 46.9264C9.60283 46.723 9.33834 46.4245 9.17525 46.069C9.01215 45.7135 8.95786 45.3171 9.01928 44.9304C9.30643 42.6742 9.45291 40.4021 9.45785 38.1274C9.4578 37.9478 9.40232 37.7726 9.2991 37.6261C9.19588 37.4795 9.05002 37.369 8.8817 37.3097C8.71339 37.2504 8.53094 37.2453 8.35962 37.2951C8.18829 37.3449 8.03656 37.4471 7.92543 37.5876C6.35947 39.5667 5.20886 40.8924 4.31366 41.3838C3.97428 41.544 3.59518 41.5987 3.2248 41.5408C2.85442 41.483 2.50957 41.3151 2.23431 41.0588C2.06086 40.8866 1.92529 40.6796 1.8364 40.4512C1.74751 40.2228 1.70729 39.9781 1.71834 39.7331C1.73088 39.4744 1.79669 39.2212 1.91157 38.9895C2.02645 38.7578 2.1879 38.5528 2.38566 38.3874C3.52918 37.3852 4.44539 36.1468 5.07213 34.7564C5.69888 33.366 6.02148 31.856 6.01807 30.3289C6.01807 13.1235 16.8431 11.2657 21.4971 11.2657Z" fill="white"/>
</svg>
