<svg width="40" height="49" viewBox="0 0 40 49" fill="none" xmlns="http://www.w3.org/2000/svg">
<path d="M10.4471 12.9689C10.4471 11.9547 9.78703 11.1599 8.94429 11.1599C8.10192 11.1599 7.44185 11.9543 7.44185 12.9689C7.44185 13.9832 8.10192 14.7777 8.94429 14.7777C9.78703 14.7777 10.4471 13.9832 10.4471 12.9689Z" fill="white"/>
<path d="M22.8722 12.9689C22.8722 11.9547 22.2122 11.1599 21.3698 11.1599C20.527 11.1599 19.867 11.9543 19.867 12.9689C19.867 13.9832 20.527 14.7777 21.3698 14.7777C22.2122 14.7777 22.8722 13.9832 22.8722 12.9689Z" fill="white"/>
<path d="M15.157 18.4933C15.5661 18.4933 15.8973 18.1723 15.8973 17.7758V16.1672C16.7619 15.9269 17.4316 15.2924 17.4316 14.6103C17.4316 14.3603 17.3322 13.756 16.4123 13.5451C16.1107 13.4759 15.7354 13.4461 15.157 13.4461C14.5791 13.4461 14.2038 13.4759 13.9017 13.5451C12.9819 13.756 12.8825 14.3603 12.8825 14.6103C12.8825 15.2924 13.5521 15.9269 14.4168 16.1672V17.7758C14.4168 18.1723 14.7483 18.4933 15.157 18.4933Z" fill="white"/>
<path d="M32.2652 19.923C33.1782 21.9839 34.3145 24.5483 34.0923 27.4133C33.9177 29.6617 33.2642 32.0015 32.2518 34.0017C32.0718 34.3577 32.2234 34.7873 32.5907 34.9617C32.6954 35.0115 32.8067 35.0354 32.9161 35.0354C33.1897 35.0354 33.4526 34.8877 33.5815 34.6337C34.6745 32.4731 35.3802 29.9473 35.5687 27.5208C35.8185 24.3051 34.6027 21.5613 33.6257 19.3565C33.0669 18.0953 32.5841 17.0059 32.5415 16.1903C32.4963 15.3222 33.2626 14.4381 34.1821 14.2982C34.7156 14.2168 36.5457 14.2744 37.6901 18.4259C37.7957 18.8087 38.2013 19.0359 38.5966 18.934C38.9915 18.8317 39.2263 18.4382 39.1208 18.0555C38.6008 16.1705 37.8551 14.7672 36.9038 13.8846C36.0361 13.0794 34.9869 12.7231 33.9519 12.8804C32.2748 13.1359 30.9785 14.6531 31.0629 16.2628C31.1189 17.3358 31.6501 18.5349 32.2652 19.923Z" fill="white"/>
<path d="M40 26.1651C40.0004 24.2474 39.8975 22.4997 39.6941 20.9703C39.6423 20.5772 39.2705 20.3001 38.8656 20.3503C38.46 20.4009 38.1737 20.7606 38.2255 21.1533C38.4208 22.6225 38.5194 24.3084 38.5191 26.1648C38.5183 29.7197 37.7323 32.9135 36.1831 35.658C34.9447 37.8524 33.2143 39.773 31.0403 41.3664C30.0889 42.0638 29.133 42.6373 28.2357 43.1055C28.5765 42.3721 28.7446 41.53 28.7446 40.569C28.7446 40.4734 28.7423 40.3722 28.7384 40.2684C29.9216 39.4799 30.9904 38.4761 31.9195 37.277C32.1651 36.9601 32.0991 36.5104 31.7721 36.2724C31.4451 36.0344 30.9812 36.0983 30.7356 36.4152C30.0858 37.2536 29.3628 37.9833 28.5773 38.5966C27.8738 33.5565 25.1495 24.4037 24.3528 21.7867C25.6511 21.3144 26.8971 20.2774 27.677 18.7811L28.7312 19.3364C29.0861 19.5228 29.5428 19.3919 29.7351 19.0482C29.9304 18.7001 29.7973 18.2645 29.438 18.0752L28.2096 17.4284C28.3558 16.907 28.4495 16.3472 28.4806 15.7517L29.6982 15.5502C30.1016 15.4836 30.3725 15.1131 30.3038 14.7222C30.2347 14.3317 29.8525 14.0695 29.4492 14.1357L28.3754 14.3131C27.8293 11.3443 25.4903 7.61126 24.9012 6.70485C24.9204 6.2232 24.9472 5.07802 24.8379 3.88932C24.6199 1.51937 23.9698 0.258144 22.8507 0.0338685C21.752 -0.185944 20.6468 0.66541 19.4717 2.63814C18.9774 3.46755 18.5825 4.30663 18.3611 4.80651H11.953C11.7316 4.30663 11.3367 3.46755 10.8424 2.63814C9.6673 0.66541 8.56206 -0.186316 7.46334 0.0338685C6.34429 0.258144 5.69419 1.51937 5.47621 3.88932C5.36684 5.07765 5.3937 6.2232 5.41327 6.70485C4.82381 7.61126 2.48516 11.3443 1.93868 14.3131L0.864904 14.1357C0.461952 14.0691 0.0793396 14.3317 0.0106459 14.7222C-0.0580479 15.1131 0.212889 15.4836 0.615841 15.5502L1.83352 15.7517C1.86461 16.3472 1.95863 16.907 2.10446 17.4284L0.876034 18.0752C0.516831 18.2645 0.384048 18.7001 0.579 19.0482C0.77165 19.3919 1.22795 19.5231 1.58293 19.3364L2.63713 18.7811C3.41732 20.2778 4.6634 21.3147 5.96206 21.7867C5.75099 22.4815 5.40099 23.6479 4.99113 25.0676C4.88099 25.4492 5.11087 25.8453 5.50461 25.952C5.89835 26.0591 6.30706 25.836 6.4172 25.4544C7.08188 23.1506 7.58806 21.5201 7.59305 21.5037C7.71816 21.102 7.44799 20.6709 7.02316 20.5921C5.25823 20.2652 3.41502 18.439 3.30679 15.5821C3.26228 14.4039 3.83946 12.6097 4.97617 10.3941C5.86113 8.66978 6.77487 7.30441 6.78408 7.29102C6.87043 7.16233 6.91187 7.01058 6.90266 6.85735C6.90189 6.84359 6.82015 5.44326 6.95102 4.0169C7.13676 1.99879 7.60034 1.47176 7.76344 1.4394C7.92539 1.40593 8.56283 1.68562 9.55294 3.3437C10.2575 4.52347 10.7641 5.77242 10.7691 5.78507C10.8796 6.0603 11.1536 6.24143 11.4587 6.24143H18.8558C19.1609 6.24143 19.4345 6.0603 19.5454 5.78507C19.5504 5.77242 20.0508 4.53612 20.7539 3.35597C21.7482 1.68748 22.3887 1.40667 22.551 1.4394C22.7134 1.47176 23.1754 1.99619 23.3619 4.00351C23.4943 5.43024 23.4126 6.84359 23.4114 6.85772C23.4026 7.01058 23.444 7.1627 23.5304 7.29102C23.5396 7.30441 24.4533 8.66978 25.3383 10.3944C26.475 12.6097 27.0522 14.4039 27.0073 15.5821C26.8995 18.439 25.0558 20.2652 23.2909 20.5921C22.8661 20.6709 22.5963 21.1024 22.721 21.5041C22.7667 21.6502 27.264 36.1709 27.264 40.569C27.264 42.0403 26.792 43.0862 25.7789 43.8606C24.9173 44.5189 23.6417 44.9938 21.9017 45.3029C22.3123 43.7319 22.6765 41.5542 22.9847 38.8309C23.5066 34.2186 23.6919 29.5464 23.6939 29.4999C23.7092 29.1038 23.3907 28.7705 22.982 28.7556C22.5763 28.7389 22.2298 29.0495 22.2141 29.4456C22.2125 29.4887 22.0406 33.8143 21.5632 38.2198C21.2842 40.7914 20.958 42.8831 20.5934 44.4367C20.0661 46.6821 19.6006 47.1931 19.4675 47.298C19.2664 47.1537 18.2966 46.1074 17.7367 39.2114C17.4143 35.2407 17.3952 31.3368 17.3952 31.2978C17.3936 30.9024 17.0624 30.5829 16.6549 30.5829C16.6541 30.5829 16.653 30.5829 16.6518 30.5829C16.2431 30.5844 15.9131 30.9069 15.9146 31.303C15.9146 31.3454 15.9349 35.5631 16.2945 39.7262C16.5071 42.1917 16.7961 44.1637 17.1534 45.5878C17.1649 45.6339 17.1772 45.6804 17.1891 45.7277C16.5539 45.7466 15.8824 45.7563 15.157 45.7563C14.4317 45.7563 13.7605 45.7466 13.125 45.7277C13.1373 45.6804 13.1492 45.6336 13.1607 45.5878C13.518 44.1637 13.8073 42.1917 14.0199 39.7262C14.3792 35.5631 14.3995 31.3454 14.3999 31.303C14.4014 30.9069 14.071 30.5844 13.6623 30.5829C13.6611 30.5829 13.6604 30.5829 13.6592 30.5829C13.2517 30.5829 12.9205 30.9024 12.9189 31.2978C12.9189 31.3368 12.9001 35.2336 12.5781 39.2043C12.0182 46.107 11.0477 47.1537 10.8466 47.298C10.7541 47.2251 10.502 46.9565 10.1804 46.0505C10.1677 45.9877 10.147 45.9274 10.1186 45.8712C9.9935 45.4963 9.85918 45.027 9.72064 44.4367C9.35607 42.8831 9.02987 40.7914 8.75087 38.2198C8.27347 33.8143 8.10154 29.4887 8.10001 29.4456C8.08427 29.0495 7.74042 28.7385 7.33209 28.7556C6.92339 28.7705 6.60486 29.1038 6.62021 29.4999C6.62213 29.5464 6.80787 34.2186 7.32941 38.8309C7.63757 41.5546 8.00215 43.7319 8.41277 45.3029C6.67624 44.9946 5.40253 44.5215 4.54136 43.8654C3.524 43.0903 3.05006 42.0429 3.05006 40.569C3.05006 38.6293 3.94576 34.3551 5.6397 28.2085C5.74523 27.8254 5.51075 27.4323 5.11547 27.33C4.72096 27.2281 4.31494 27.455 4.20902 27.8381C2.45752 34.1929 1.56949 38.4765 1.56949 40.569C1.56949 42.4919 2.24223 43.939 3.62609 44.9935C4.80578 45.8921 6.53348 46.4961 8.89747 46.8349C9.31692 47.8905 9.91482 48.75 10.8378 48.75C11.7066 48.75 12.2704 48.0244 12.6534 47.1477C13.429 47.1767 14.2529 47.1912 15.157 47.1912C16.0612 47.1912 16.8851 47.1767 17.6607 47.1477C18.0437 48.0244 18.6075 48.75 19.4763 48.75C20.3996 48.75 20.9972 47.8905 21.417 46.8349C22.2789 46.7111 23.0553 46.5515 23.7522 46.3559C24.0784 46.29 39.9962 42.7745 40 26.1651Z" fill="white"/>
</svg>
