<svg width="67" height="57" viewBox="0 0 67 57" fill="none" xmlns="http://www.w3.org/2000/svg">
<path d="M45.9915 16.7475C47.5596 16.7475 48.8305 15.496 48.8305 13.9522C48.8305 12.4084 47.5596 11.1569 45.9915 11.1569C44.4237 11.1569 43.1525 12.4084 43.1525 13.9522C43.1525 15.496 44.4237 16.7475 45.9915 16.7475Z" fill="#FF27B6"/>
<path fill-rule="evenodd" clip-rule="evenodd" d="M34.5904 31.6718C35.3133 32.2649 35.4107 33.3224 34.8087 34.0339L23.4527 47.4514C22.8504 48.163 21.7763 48.2592 21.0536 47.6663C20.3309 47.0733 20.2332 46.0158 20.8355 45.3042L32.1913 31.8867C32.7937 31.1751 33.8677 31.079 34.5904 31.6718Z" fill="#FF27B6"/>
<path fill-rule="evenodd" clip-rule="evenodd" d="M51.0242 5.55348C48.3942 3.80645 45.2084 3.06178 42.0615 3.45856C38.9147 3.85532 36.0224 5.36637 33.9243 7.70951C31.8266 10.0523 30.6667 13.0668 30.661 16.19V21.7791C30.661 22.1599 30.5293 22.5293 30.2879 22.8268L5.24753 53.6456H31.2288C38.0054 53.6456 44.5043 50.995 49.2961 46.2772C54.0876 41.5591 56.7797 35.1601 56.7797 28.4878V21.7791C56.7797 21.2182 57.0642 20.6947 57.5382 20.3837L62.2237 17.3079L57.0567 13.9229C56.7093 13.6952 56.4587 13.3496 56.3527 12.9519C55.5482 9.93038 53.6541 7.30048 51.0242 5.55348ZM41.6288 0.131357C45.5966 -0.368914 49.6136 0.57002 52.9295 2.77277C56.0617 4.85351 58.3663 7.92757 59.4669 11.4729L66.2403 15.9102C66.7145 16.221 66.9998 16.7448 67 17.3058C67.0002 17.8668 66.7156 18.3909 66.2414 18.702L60.1864 22.6767V28.4878C60.1864 36.0497 57.1356 43.3019 51.7049 48.649C46.2743 53.996 38.9088 57 31.2288 57H1.70341C1.04861 57 0.451784 56.6304 0.168136 56.0494C-0.115513 55.4682 -0.0357646 54.7785 0.373281 54.2751L27.2542 21.1907V16.1856C27.261 12.2471 28.7235 8.44562 31.3687 5.49124C34.0142 2.53687 37.6613 0.631606 41.6288 0.131357Z" fill="#FF27B6"/>
</svg>
