<svg width="23" height="25" viewBox="0 0 23 25" fill="none" xmlns="http://www.w3.org/2000/svg">
<path d="M8.68447 4.91812C8.49546 4.91812 8.34231 5.07548 8.34231 5.26968V6.1094C8.34231 6.3036 8.49546 6.46096 8.68447 6.46096C8.87348 6.46096 9.02663 6.3036 9.02663 6.1094V5.26968C9.02663 5.07548 8.87343 4.91812 8.68447 4.91812ZM14.0659 4.91812C13.8769 4.91812 13.7238 5.07548 13.7238 5.26968V6.1094C13.7238 6.3036 13.8769 6.46096 14.0659 6.46096C14.255 6.46096 14.4081 6.3036 14.4081 6.1094V5.26968C14.4081 5.07548 14.255 4.91812 14.0659 4.91812ZM16.3319 12.0379C16.4693 11.7729 16.6464 11.524 16.8583 11.2983C16.9726 11.1766 17.0822 11.0504 17.187 10.9209C17.2293 10.9889 17.4611 11.3994 17.9851 11.3994C18.233 11.3994 18.4686 11.2963 18.6419 11.1094L21.4494 8.08189C22.4005 7.05632 22.5176 5.47931 21.7286 4.33275L21.7109 4.30711C20.8373 3.05072 19.5488 2.17013 17.8814 1.68981C16.7598 1.36675 15.7628 1.32029 15.3066 1.31865C14.1351 0.619842 12.7783 0.25 11.3752 0.25C9.9715 0.25 8.61476 0.619842 7.44347 1.31865C6.80628 1.32034 5.364 1.4042 3.88166 2.04076C3.70734 2.11566 3.62504 2.32154 3.69794 2.50069C3.7708 2.67976 3.97126 2.76422 4.14558 2.68946C5.25236 2.2142 6.35873 2.07409 7.02321 2.03541C6.50198 3.43622 6.19472 4.83084 6.10872 6.18852C6.09764 6.36398 6.09038 6.5354 6.08331 6.70119C6.05744 7.31193 6.03295 7.88881 5.82409 8.64308C5.63645 9.32093 5.34479 9.97563 4.95733 10.5891C4.90482 10.6722 4.82817 10.6913 4.7872 10.6952C4.74687 10.6991 4.66904 10.695 4.60353 10.6244L1.79594 7.59688C1.06992 6.81397 0.979357 5.61164 1.58101 4.73733L1.59584 4.71586C1.93102 4.23384 2.34385 3.80719 2.82288 3.44775C2.97553 3.33328 3.00888 3.1133 2.89742 2.95655C2.78597 2.79971 2.57191 2.76549 2.41936 2.87996C1.88116 3.28374 1.41673 3.76388 1.03889 4.30734L1.02179 4.33205C0.232259 5.47931 0.349461 7.05632 1.30049 8.08189L4.10808 11.1094C4.28135 11.2962 4.51699 11.3994 4.76485 11.3994C5.23174 11.3994 5.46528 11.0779 5.56309 10.9205C5.66784 11.0501 5.77756 11.1764 5.89198 11.2983C6.10393 11.524 6.28099 11.7729 6.4184 12.038C6.60901 12.4055 6.71485 12.8411 6.72457 13.298C6.73127 13.6048 6.77699 14.0498 6.94506 14.5149C6.69254 14.8389 5.44196 16.4741 4.50599 18.4885C3.7067 20.2087 3.17403 22.0124 2.92256 23.8494C2.89624 24.0417 3.02658 24.2195 3.21372 24.2465C3.22987 24.2489 3.24597 24.25 3.26185 24.25C3.42969 24.25 3.57623 24.123 3.60022 23.9474C3.84193 22.1815 4.35444 20.4468 5.12362 18.7914C5.53029 17.9157 6.00968 17.061 6.55609 16.2364C7.37773 17.3338 8.5153 18.1075 9.79312 18.4593C9.67934 18.7012 9.6188 18.9681 9.6188 19.2438C9.6188 20.2389 10.4067 21.0485 11.3752 21.0485C12.3437 21.0485 13.1317 20.2389 13.1317 19.2438C13.1317 18.9677 13.0709 18.7006 12.9569 18.4586C13.4577 18.3204 13.9407 18.117 14.3924 17.8516C14.5564 17.7552 14.6133 17.5404 14.5195 17.3719C14.4256 17.2034 14.2164 17.1449 14.0526 17.2413C13.2412 17.7182 12.3154 17.9702 11.3752 17.9702C9.61497 17.9702 7.98641 17.1007 6.97257 15.6328C7.07658 15.4875 7.18265 15.3431 7.29091 15.1999C7.42874 15.4039 7.59886 15.6005 7.80963 15.7789C8.06922 15.9994 8.3679 16.1712 8.69861 16.2901C8.96185 16.3848 9.39804 16.4493 9.41099 16.4494C9.49434 16.5751 9.58832 16.6938 9.69398 16.8028C10.1429 17.2639 10.7399 17.5179 11.3753 17.5179C12.1658 17.5179 12.9006 17.1134 13.3412 16.4493C13.356 16.4491 14.2134 16.395 14.9406 15.7792C15.1515 15.6006 15.3217 15.404 15.4596 15.1999C15.5679 15.3431 15.674 15.4875 15.778 15.6329C15.6162 15.8676 15.4347 16.0915 15.236 16.3005C15.1039 16.4395 15.1065 16.662 15.2417 16.7977C15.3083 16.8645 15.3945 16.8977 15.4807 16.8977C15.5696 16.8977 15.6585 16.8623 15.7256 16.7918C15.893 16.6156 16.0495 16.4297 16.1944 16.2365C16.7408 17.0611 17.2202 17.9158 17.6268 18.7915C18.396 20.4468 18.9085 22.1815 19.1502 23.9474C19.1961 24.2828 19.5163 24.2495 19.5367 24.2466C19.7239 24.2195 19.8542 24.0418 19.8279 23.8495C19.5764 22.0124 19.0438 20.2088 18.2445 18.4887C17.2624 16.3752 16.1039 14.898 15.8054 14.5149C15.9735 14.0498 16.0192 13.6048 16.0259 13.2979C16.0355 12.8411 16.1414 12.4054 16.3319 12.0379ZM10.5006 18.6083C10.7877 18.6508 11.0797 18.6733 11.3752 18.6733C11.6686 18.6733 11.9606 18.6507 12.2491 18.6077C12.3771 18.7927 12.4473 19.0129 12.4473 19.2437C12.4473 19.8511 11.9663 20.3453 11.3752 20.3453C10.784 20.3453 10.3031 19.8511 10.3031 19.2437C10.3031 19.0131 10.373 18.7932 10.5006 18.6083ZM21.1548 4.71679L21.1694 4.73798C21.7706 5.61164 21.68 6.81393 20.954 7.59683L18.1465 10.6243C18.081 10.695 18.0033 10.6989 17.9627 10.6951C17.9218 10.6912 17.8451 10.6722 17.7926 10.589C17.4052 9.97573 17.1136 9.32098 16.9259 8.64298C16.717 7.88877 16.6926 7.31193 16.6666 6.70115C16.6596 6.5354 16.6524 6.36398 16.6412 6.18843C16.5552 4.83089 16.248 3.43636 15.7268 2.03565C16.9389 2.10751 19.6284 2.52165 21.1548 4.71679ZM11.3752 16.8146C10.9256 16.8146 10.5032 16.636 10.1848 16.3123C10.6817 16.1303 11.1009 15.7785 11.3743 15.3244C11.4676 15.4794 11.579 15.6243 11.7076 15.7564C11.9534 16.009 12.2451 16.1973 12.5634 16.3134C12.2506 16.6296 11.8257 16.8146 11.3752 16.8146ZM11.2507 12.7754L10.1598 11.6545C10.1038 11.5969 10.1053 11.5307 10.1112 11.4964C10.116 11.4682 10.1356 11.3987 10.2122 11.362C10.5946 11.1791 10.9985 11.0905 11.4119 11.0948C11.8018 11.1002 12.1816 11.1904 12.5409 11.3629C12.6128 11.3974 12.6334 11.4605 12.6393 11.495C12.6452 11.5296 12.6467 11.5963 12.5904 11.6542L11.4992 12.7754C11.4307 12.8458 11.3192 12.8458 11.2507 12.7754ZM15.728 11.7073C15.4872 12.1715 15.3536 12.7162 15.3416 13.2823C15.3219 14.2107 14.9315 14.8753 14.5051 15.2365C14.0934 15.5855 13.6355 15.7066 13.3174 15.7463C12.892 15.7413 12.4928 15.5687 12.1915 15.2591C11.8857 14.945 11.7173 14.5274 11.7173 14.0832V13.4574C11.8137 13.4146 11.9043 13.3534 11.983 13.2725L13.0742 12.1513C13.2724 11.9476 13.3618 11.6567 13.3132 11.3731C13.2646 11.0896 13.0842 10.8477 12.8305 10.7259C12.3828 10.5108 11.9085 10.3984 11.4209 10.3917C10.9051 10.3841 10.3997 10.4966 9.92318 10.7246C9.66775 10.8468 9.48608 11.0896 9.43722 11.3741C9.38855 11.6574 9.47778 11.9481 9.67587 12.1516L10.7667 13.2725V13.2725C10.8456 13.3536 10.9363 13.4148 11.033 13.4577V14.0832C11.033 14.9938 10.3168 15.7358 9.43262 15.7462C9.25962 15.725 9.08804 15.6844 8.92334 15.6259C8.67051 15.535 8.44245 15.404 8.24504 15.2364C7.85507 14.9053 7.42837 14.2113 7.40871 13.2824C7.39671 12.7162 7.26313 12.1715 7.02234 11.7073C6.85514 11.3846 6.64053 11.0828 6.3845 10.81C6.222 10.6369 6.0699 10.4541 5.93025 10.2651C6.1616 9.80374 6.34668 9.32534 6.48232 8.83536C6.71316 8.00178 6.74049 7.35608 6.76695 6.73166C6.77384 6.56962 6.78096 6.40204 6.79159 6.23409C6.88064 4.82765 7.22244 3.37514 7.80639 1.91513C8.86892 1.28607 10.1 0.953122 11.3752 0.953122C12.6498 0.953122 13.8806 1.28603 14.9434 1.91504C15.5275 3.37514 15.8693 4.8277 15.9584 6.23413C15.969 6.40213 15.9761 6.56971 15.983 6.73176C16.0095 7.35618 16.0368 8.00188 16.2676 8.83545C16.4034 9.32567 16.5885 9.80421 16.8199 10.2657C16.6801 10.4547 16.528 10.6373 16.3658 10.8101C16.1098 11.0829 15.8952 11.3847 15.728 11.7073Z" fill="white"/>
</svg>
