<svg width="37" height="41" viewBox="0 0 37 41" fill="none" xmlns="http://www.w3.org/2000/svg">
<path d="M14.1408 8.5302C13.8258 8.5302 13.5705 8.79247 13.5705 9.11614V10.5157C13.5705 10.8393 13.8258 11.1016 14.1408 11.1016C14.4558 11.1016 14.711 10.8393 14.711 10.5157V9.11614C14.711 8.79247 14.4557 8.5302 14.1408 8.5302ZM23.1099 8.5302C22.7949 8.5302 22.5396 8.79247 22.5396 9.11614V10.5157C22.5396 10.8393 22.7949 11.1016 23.1099 11.1016C23.4249 11.1016 23.6802 10.8393 23.6802 10.5157V9.11614C23.6802 8.79247 23.4249 8.5302 23.1099 8.5302ZM26.8865 20.3965C27.1155 19.9548 27.4107 19.5401 27.7638 19.1638C27.9543 18.961 28.137 18.7506 28.3117 18.5348C28.3822 18.6482 28.7686 19.3323 29.6418 19.3323C30.0549 19.3323 30.4477 19.1605 30.7365 18.849L35.4157 13.8032C37.0008 12.0939 37.1961 9.46551 35.881 7.55458L35.8515 7.51185C34.3955 5.41787 32.248 3.95022 29.4689 3.14968C27.5997 2.61124 25.938 2.53382 25.1777 2.53109C23.2251 1.3664 20.9639 0.75 18.6253 0.75C16.2858 0.75 14.0246 1.3664 12.0725 2.53109C11.0105 2.5339 8.60666 2.67366 6.1361 3.7346C5.84557 3.85944 5.7084 4.20256 5.82991 4.50116C5.95134 4.79959 6.28544 4.94037 6.57597 4.81577C8.4206 4.02366 10.2645 3.79014 11.372 3.72569C10.5033 6.06037 9.9912 8.38474 9.84787 10.6475C9.82939 10.94 9.81731 11.2257 9.80552 11.502C9.76241 12.5199 9.72158 13.4814 9.37348 14.7385C9.06075 15.8682 8.57465 16.9594 7.92888 17.9818C7.84136 18.1204 7.71362 18.1521 7.64534 18.1586C7.57812 18.1651 7.44841 18.1584 7.33922 18.0406L2.6599 12.9948C1.44986 11.69 1.29893 9.68606 2.30169 8.22888L2.3264 8.1931C2.88504 7.38974 3.57309 6.67865 4.37146 6.07959C4.62588 5.88881 4.68146 5.52217 4.49571 5.26092C4.30995 4.99951 3.95319 4.94248 3.69893 5.13326C2.80193 5.80623 2.02788 6.60646 1.39816 7.51224L1.36964 7.55341C0.0537651 9.46551 0.249101 12.0939 1.83415 13.8032L6.51347 18.849C6.80225 19.1604 7.19498 19.3323 7.60808 19.3323C8.38623 19.3323 8.77546 18.7966 8.93848 18.5342C9.11306 18.7502 9.29593 18.9606 9.48663 19.1638C9.83989 19.5401 10.135 19.9548 10.364 20.3966C10.6817 21.0091 10.8581 21.7352 10.8743 22.4967C10.8855 23.008 10.9616 23.7497 11.2418 24.5248C10.8209 25.0649 8.73661 27.7901 7.17665 31.1475C5.84451 34.0146 4.95671 37.0206 4.5376 40.0823C4.49373 40.4029 4.71096 40.6991 5.02286 40.7442C5.04978 40.7481 5.07662 40.75 5.10308 40.75C5.38282 40.75 5.62704 40.5384 5.66704 40.2456C6.06988 37.3024 6.92406 34.4113 8.20603 31.6523C8.88381 30.1928 9.6828 28.7683 10.5935 27.394C11.9629 29.223 13.8588 30.5125 15.9885 31.0989C15.7989 31.5021 15.698 31.9468 15.698 32.4063C15.698 34.0648 17.0112 35.4141 18.6254 35.4141C20.2395 35.4141 21.5528 34.0648 21.5528 32.4063C21.5528 31.9461 21.4516 31.501 21.2615 31.0976C22.0961 30.8674 22.9012 30.5284 23.6539 30.086C23.9274 29.9253 24.0222 29.5674 23.8658 29.2865C23.7094 29.0057 23.3607 28.9081 23.0877 29.0689C21.7354 29.8636 20.1924 30.2837 18.6254 30.2837C15.6916 30.2837 12.9774 28.8344 11.2876 26.388C11.461 26.1458 11.6378 25.9052 11.8182 25.6665C12.0479 26.0065 12.3314 26.3341 12.6827 26.6315C13.1154 26.999 13.6132 27.2854 14.1644 27.4836C14.6031 27.6414 15.3301 27.7489 15.3517 27.749C15.4906 27.9585 15.6472 28.1563 15.8233 28.3379C16.5714 29.1065 17.5666 29.5298 18.6255 29.5298C19.943 29.5298 21.1677 28.8557 21.902 27.7489C21.9267 27.7486 23.3557 27.6583 24.5677 26.632C24.9191 26.3344 25.2029 26.0066 25.4327 25.6665C25.6132 25.9052 25.7899 26.1458 25.9634 26.3882C25.6936 26.7793 25.3911 27.1526 25.0599 27.5009C24.8399 27.7325 24.8442 28.1034 25.0695 28.3295C25.1804 28.4408 25.3242 28.4962 25.4678 28.4962C25.616 28.4962 25.7642 28.4372 25.8759 28.3197C26.155 28.026 26.4159 27.7162 26.6574 27.3942C27.568 28.7685 28.3669 30.193 29.0447 31.6525C30.3266 34.4114 31.1809 37.3025 31.5837 40.2457C31.6602 40.8047 32.1938 40.7492 32.2279 40.7443C32.5398 40.6992 32.757 40.403 32.7132 40.0824C32.294 37.0207 31.4063 34.0146 30.0741 31.1478C28.4374 27.6253 26.5065 25.1633 26.009 24.5249C26.2891 23.7497 26.3654 23.008 26.3765 22.4965C26.3924 21.7352 26.5689 21.0091 26.8865 20.3965ZM17.1676 31.3472C17.6461 31.4179 18.1328 31.4554 18.6253 31.4554C19.1143 31.4554 19.601 31.4178 20.0818 31.3462C20.2952 31.6545 20.4121 32.0214 20.4121 32.4062C20.4121 33.4185 19.6106 34.2421 18.6253 34.2421C17.64 34.2421 16.8385 33.4185 16.8385 32.4062C16.8385 32.0218 16.9549 31.6553 17.1676 31.3472ZM34.9246 8.19466L34.949 8.22997C35.9511 9.68606 35.8001 11.6899 34.59 12.9947L29.9108 18.0406C29.8016 18.1583 29.6721 18.1649 29.6046 18.1585C29.5363 18.152 29.4086 18.1204 29.321 17.9817C28.6753 16.9595 28.1892 15.8683 27.8764 14.7383C27.5283 13.4813 27.4876 12.5199 27.4444 11.5019C27.4327 11.2257 27.4206 10.94 27.4021 10.6474C27.2587 8.38481 26.7467 6.0606 25.8781 3.72608C27.8982 3.84585 32.3807 4.53608 34.9246 8.19466ZM18.6253 28.3577C17.876 28.3577 17.172 28.06 16.6413 27.5204C17.4695 27.2172 18.1681 26.6309 18.6239 25.874C18.7794 26.1323 18.965 26.3738 19.1793 26.594C19.5891 27.015 20.0752 27.3289 20.6057 27.5224C20.0843 28.0493 19.3762 28.3577 18.6253 28.3577ZM18.4179 21.6256L16.5997 19.7575C16.5063 19.6615 16.5088 19.5512 16.5187 19.494C16.5267 19.447 16.5593 19.3311 16.6869 19.27C17.3244 18.9651 17.9975 18.8175 18.6864 18.8247C19.3363 18.8336 19.9693 18.984 20.5681 19.2716C20.6879 19.3291 20.7224 19.4341 20.7322 19.4916C20.7421 19.5493 20.7446 19.6605 20.6507 19.757L18.832 21.6256C18.7178 21.743 18.5319 21.743 18.4179 21.6256ZM25.88 19.8455C25.4787 20.6192 25.256 21.527 25.236 22.4705C25.2032 24.0178 24.5525 25.1255 23.8419 25.7276C23.1557 26.3091 22.3926 26.5111 21.8624 26.5771C21.1533 26.5688 20.488 26.2812 19.9858 25.7652C19.4762 25.2416 19.1955 24.5456 19.1955 23.8054V22.7624C19.3562 22.6909 19.5072 22.589 19.6383 22.4542L21.457 20.5855C21.7874 20.246 21.9363 19.7612 21.8553 19.2884C21.7744 18.816 21.4736 18.4128 21.0508 18.2098C20.3046 17.8513 19.5142 17.664 18.7016 17.6528C17.8419 17.6402 16.9996 17.8276 16.2053 18.2076C15.7796 18.4113 15.4768 18.8159 15.3954 19.2901C15.3142 19.7623 15.463 20.2468 15.7931 20.586L17.6112 22.4541V22.4542C17.7427 22.5893 17.8939 22.6913 18.055 22.7628V23.8053C18.055 25.323 16.8613 26.5597 15.3877 26.577C15.0994 26.5416 14.8134 26.474 14.5389 26.3765C14.1175 26.225 13.7374 26.0067 13.4084 25.7273C12.7584 25.1755 12.0473 24.0189 12.0145 22.4707C11.9945 21.527 11.7719 20.6191 11.3706 19.8455C11.0919 19.3077 10.7342 18.8047 10.3075 18.35C10.0367 18.0615 9.78317 17.7569 9.55042 17.4419C9.936 16.6729 10.2445 15.8756 10.4705 15.0589C10.8553 13.6696 10.9008 12.5935 10.9449 11.5528C10.9564 11.2827 10.9683 11.0034 10.986 10.7235C11.1344 8.37942 11.7041 5.95857 12.6773 3.52522C14.4482 2.47679 16.4999 1.92187 18.6253 1.92187C20.7496 1.92187 22.801 2.47671 24.5724 3.52507C25.5458 5.95857 26.1155 8.3795 26.2639 10.7236C26.2817 11.0036 26.2935 11.2828 26.305 11.5529C26.3491 12.5936 26.3947 13.6698 26.7794 15.0591C27.0056 15.8761 27.3142 16.6737 27.6999 17.4428C27.4668 17.7579 27.2134 18.0622 26.9429 18.3502C26.5163 18.8049 26.1586 19.3079 25.88 19.8455Z" fill="white"/>
</svg>
