<svg width="66" height="55" viewBox="0 0 66 55" fill="none" xmlns="http://www.w3.org/2000/svg">
<path d="M48.8049 31.8724C44.3643 26.6756 38.7515 23.8136 32.9999 23.8136C27.2484 23.8136 21.6354 26.6756 17.1951 31.8724C13.2037 36.5435 10.821 42.4304 10.821 47.6199C10.821 50.1408 11.616 52.061 13.1841 53.3273C14.7317 54.5773 16.775 55.0001 19.0546 55C21.4802 55 24.1736 54.5212 26.8199 54.0507C29.1324 53.6395 31.3166 53.2511 33.0001 53.2511C34.4531 53.2511 36.5018 53.6197 38.6704 54.0099C43.7386 54.922 49.4832 55.9556 52.8016 53.2812C54.3792 52.0099 55.1791 50.1051 55.1791 47.6199C55.1792 42.4304 52.7964 36.5435 48.8049 31.8724ZM50.3292 50.399C48.4055 51.9494 43.3989 51.0485 39.376 50.3246C37.0272 49.902 34.8088 49.5027 32.9998 49.5027C30.9645 49.5027 28.6124 49.9211 26.1219 50.3639C22.2636 51.0498 17.4618 51.9037 15.6592 50.4477C15.4189 50.2537 14.6878 49.6632 14.6878 47.6198C14.6878 43.3409 16.7897 38.2229 20.1731 34.2632C23.8656 29.9418 28.4209 27.5618 32.9997 27.5618C37.5784 27.5618 42.1337 29.9418 45.8263 34.2632C49.2098 38.2229 51.3116 43.3409 51.3116 47.6198C51.312 49.6071 50.5723 50.2032 50.3292 50.399Z" fill="#AC46EC"/>
<path d="M49.2589 3.65355C47.6342 1.33168 45.3077 0.000250231 42.8759 0.000250231C40.4439 0.000250231 38.1175 1.33193 36.4928 3.65355C35.0003 5.7865 34.1783 8.58754 34.1783 11.5408C34.1783 14.494 35.0002 17.295 36.4928 19.428C38.1175 21.7497 40.444 23.0814 42.8759 23.0814C45.3078 23.0814 47.6342 21.7497 49.2589 19.428C50.7514 17.295 51.5734 14.494 51.5734 11.5408C51.5734 8.58754 50.7515 5.78638 49.2589 3.65355ZM46.0585 17.324C45.5335 18.0743 44.4218 19.3332 42.8759 19.3332C41.3299 19.3332 40.2183 18.0744 39.6931 17.324C38.6459 15.8274 38.0453 13.7194 38.0453 11.5408C38.0453 9.36196 38.646 7.25412 39.6931 5.75751C40.2182 5.00721 41.3299 3.74838 42.8759 3.74838C44.4218 3.74838 45.5335 5.00709 46.0585 5.75751C47.1058 7.25412 47.7064 9.36208 47.7064 11.5408C47.7062 13.7194 47.1058 15.8274 46.0585 17.324Z" fill="#AC46EC"/>
<path d="M29.5072 3.65342C27.8825 1.33155 25.5561 0 23.1242 0C20.6922 0 18.3657 1.33167 16.7411 3.65342C15.2486 5.78638 14.4266 8.58742 14.4266 11.5406C14.4266 14.4939 15.2485 17.2949 16.7411 19.4279C18.3658 21.7497 20.6922 23.0814 23.1242 23.0814C25.5561 23.0814 27.8825 21.7497 29.5072 19.4279C30.9997 17.2949 31.8217 14.494 31.8217 11.5406C31.8216 8.58742 30.9997 5.78625 29.5072 3.65342ZM26.3066 17.324C25.7816 18.0743 24.6699 19.3332 23.124 19.3332C21.5781 19.3332 20.4664 18.0743 19.9413 17.324C18.8941 15.8274 18.2935 13.7194 18.2935 11.5408C18.2935 9.36196 18.8942 7.25412 19.9413 5.75751C20.4664 5.00721 21.5781 3.74838 23.124 3.74838C24.67 3.74838 25.7816 5.00709 26.3066 5.75751C27.3538 7.25412 27.9544 9.36208 27.9544 11.5408C27.9544 13.7194 27.3538 15.8274 26.3066 17.324Z" fill="#AC46EC"/>
<path d="M65.6157 21.7691C64.9607 19.6095 63.5568 18.0403 61.6628 17.3508C60.1386 16.7959 58.4181 16.89 56.8181 17.6158C54.6132 18.6158 52.8109 20.6809 51.8738 23.2814C51.1079 25.4065 51.0124 27.6527 51.605 29.6065C52.26 31.766 53.6639 33.3352 55.558 34.0248C56.2135 34.2635 56.9051 34.382 57.6079 34.382C58.5395 34.382 59.4908 34.1735 60.4029 33.7598C62.6078 32.7597 64.41 30.6946 65.3472 28.0942V28.0941C66.1129 25.9692 66.2084 23.7229 65.6157 21.7691ZM61.6963 26.858C61.109 28.4874 60.0127 29.7984 58.7637 30.3649C58.3044 30.573 57.6115 30.7683 56.9178 30.5158C55.2435 29.9062 54.5923 27.1032 55.5243 24.5175C56.1116 22.8881 57.2079 21.5772 58.457 21.0106C58.7615 20.8725 59.1686 20.7402 59.6105 20.7402C59.8353 20.7402 60.0691 20.7744 60.3028 20.8595C61.9771 21.4692 62.6283 24.2723 61.6963 26.858Z" fill="#AC46EC"/>
<path d="M14.1264 23.2812C13.1891 20.6807 11.3869 18.6157 9.18204 17.6156C7.58192 16.8898 5.86128 16.7959 4.33722 17.3506C2.44307 18.0403 1.03915 19.6095 0.384174 21.769C-0.208408 23.7228 -0.112889 25.969 0.652944 28.094V28.0941C1.59035 30.6946 3.39246 32.7596 5.59728 33.7597C6.50942 34.1734 7.46062 34.3819 8.39223 34.3819C9.09502 34.3819 9.78674 34.2632 10.4421 34.0247C12.3365 33.335 13.7403 31.7658 14.3953 29.6063C14.9876 27.6527 14.8921 25.4064 14.1264 23.2812ZM9.08213 30.5158C8.38849 30.7683 7.69549 30.573 7.23632 30.3649C5.98735 29.7984 4.89087 28.4874 4.3037 26.858V26.8582C3.37184 24.2724 4.02294 21.4695 5.69718 20.8597C6.3907 20.6072 7.08383 20.8025 7.54312 21.0107C8.79222 21.5773 9.88857 22.8882 10.4757 24.5175C11.4076 27.1033 10.7564 29.9062 9.08213 30.5158Z" fill="#AC46EC"/>
</svg>
