<svg width="19" height="24" viewBox="0 0 19 24" fill="none" xmlns="http://www.w3.org/2000/svg">
<path d="M11.2486 11.0702C11.5453 11.0702 11.8352 10.9823 12.0819 10.8175C12.3286 10.6527 12.5208 10.4184 12.6343 10.1444C12.7479 9.87037 12.7776 9.56882 12.7197 9.27791C12.6618 8.98699 12.519 8.71976 12.3092 8.51002C12.0994 8.30028 11.8322 8.15745 11.5412 8.09958C11.2503 8.04172 10.9487 8.07141 10.6746 8.18492C10.4005 8.29844 10.1663 8.49066 10.0015 8.73729C9.83667 8.98391 9.7487 9.27387 9.7487 9.57049C9.7487 9.96824 9.90673 10.3497 10.188 10.631C10.4693 10.9122 10.8508 11.0702 11.2486 11.0702ZM11.2486 8.82063C11.3969 8.82063 11.5419 8.86461 11.6653 8.947C11.7886 9.0294 11.8847 9.14651 11.9415 9.28353C11.9982 9.42055 12.0131 9.57132 11.9841 9.71678C11.9552 9.86224 11.8838 9.99585 11.7789 10.1007C11.674 10.2056 11.5404 10.277 11.3949 10.3059C11.2494 10.3349 11.0986 10.32 10.9616 10.2633C10.8246 10.2065 10.7074 10.1104 10.625 9.98709C10.5426 9.86377 10.4987 9.7188 10.4987 9.57049C10.4987 9.37161 10.5777 9.18088 10.7183 9.04026C10.859 8.89963 11.0497 8.82063 11.2486 8.82063Z" fill="white"/>
<path d="M0.56179 16.6053C0.395766 16.7439 0.260294 16.9154 0.163933 17.109C0.0675719 17.3026 0.0124163 17.5141 0.00195096 17.7301C-0.00878868 17.9402 0.0249002 18.1502 0.100819 18.3464C0.176738 18.5426 0.293181 18.7206 0.442548 18.8688C0.677256 19.0934 0.975714 19.24 1.29701 19.2884C1.6183 19.3368 1.9467 19.2846 2.23718 19.1391C2.65993 18.8726 3.03467 18.5367 3.34561 18.1455C3.32086 18.6839 3.27549 19.3386 3.19037 19.9021C3.1416 20.2169 3.1878 20.5392 3.32306 20.8277C3.45832 21.1162 3.67651 21.3579 3.94976 21.5218C4.22302 21.6857 4.53894 21.7645 4.85718 21.7481C5.17542 21.7316 5.48154 21.6207 5.73646 21.4295C6.27823 21.0301 6.77176 20.5691 7.20711 20.0558C7.26742 20.5425 7.3572 21.025 7.47597 21.5008C7.58784 21.9497 7.84709 22.3481 8.21223 22.6322C8.57737 22.9164 9.02728 23.0698 9.48997 23.068C9.88037 23.0659 10.2624 22.9547 10.593 22.7471C10.9236 22.5395 11.1897 22.2437 11.3611 21.893C11.51 21.5779 11.6419 21.2551 11.7563 20.926C12.198 21.5729 12.7027 22.1745 13.263 22.7219C13.5246 22.945 13.8564 23.0688 14.2002 23.0716C14.544 23.0744 14.8778 22.9559 15.143 22.7371C15.4081 22.5183 15.5877 22.213 15.6501 21.8749C15.7125 21.5369 15.6538 21.1876 15.4843 20.8885C14.5544 19.2471 14.1063 18.1197 13.9469 17.0076C14.3338 16.9243 14.6827 16.7166 14.9403 16.4162C15.1979 16.1159 15.35 15.7394 15.3733 15.3444C15.3713 14.968 15.2479 14.6022 15.0216 14.3014C14.808 13.9929 14.6523 13.6483 14.5619 13.2842C14.7611 13.3073 14.9614 13.3191 15.1619 13.3198C16.0026 13.3198 17.0315 13.1016 17.6464 12.2122L17.7214 12.2377C17.808 12.2711 17.8998 12.2882 17.9925 12.2884C18.0939 12.2881 18.1941 12.267 18.2871 12.2265C18.38 12.186 18.4637 12.1269 18.5329 12.0529C18.6402 11.94 18.7116 11.7979 18.7383 11.6444C18.765 11.491 18.7457 11.3331 18.6829 11.1906C17.9179 9.42839 15.8803 8.97585 14.8019 8.86112C14.7143 8.5358 14.5974 8.21907 14.4528 7.91479C15.0127 7.52837 15.4247 6.9631 15.621 6.31174C15.8174 5.66038 15.7864 4.96163 15.5333 4.33018C15.2801 3.69872 14.8198 3.17207 14.2279 2.83665C13.6359 2.50124 12.9475 2.37699 12.2757 2.4843C12.1379 1.99547 11.8612 1.55711 11.4792 1.22238C11.0973 0.887647 10.6263 0.670922 10.1236 0.598488C9.62086 0.526053 9.10791 0.601021 8.64694 0.814299C8.18597 1.02758 7.79679 1.37 7.52659 1.80005C7.27309 1.73128 7.01156 1.6966 6.74889 1.69695C5.95357 1.69784 5.19108 2.01414 4.6287 2.57645C4.06632 3.13876 3.74998 3.90116 3.74909 4.69639C3.74757 5.3609 3.96899 6.00673 4.37792 6.53055C2.71978 8.07414 1.87421 10.4797 1.87421 13.6947C1.87717 14.2456 1.7615 14.7907 1.53504 15.2929C1.30858 15.7952 0.976643 16.2428 0.56179 16.6053ZM13.4985 16.3192C13.2001 16.3192 12.914 16.2007 12.703 15.9898C12.4921 15.7789 12.3735 15.4928 12.3735 15.1944C12.3735 13.8016 13.2735 13.3817 13.7804 13.2557C13.8897 13.7906 14.1066 14.2978 14.4179 14.7464C14.5488 14.9185 14.6209 15.1282 14.6234 15.3444C14.6234 15.8933 14.0189 16.3192 13.4985 16.3192ZM14.5698 12.5324C14.641 12.3161 14.71 12.1009 14.7704 11.8823C15.0686 11.8415 15.3693 11.8207 15.6703 11.8201C16.0777 11.8261 16.483 11.8795 16.8781 11.979C16.2587 12.6217 15.2155 12.6145 14.5698 12.5324ZM17.9933 11.4901C18.0079 11.5243 17.985 11.5389 17.9813 11.5351C17.8666 11.4935 17.7443 11.4515 17.6029 11.4028C16.744 11.1231 15.8372 11.021 14.9376 11.1028C14.9774 10.8439 14.9977 10.5823 14.9984 10.3203C14.997 10.0918 14.9817 9.86355 14.9526 9.63685C15.8533 9.76845 17.426 10.1835 17.9933 11.4901ZM6.74889 2.44681C7.02817 2.44586 7.30499 2.49895 7.56409 2.60315C7.65344 2.63939 7.75332 2.63982 7.84298 2.60435C7.93264 2.56888 8.00519 2.50024 8.04556 2.41269C8.21635 2.04122 8.50392 1.73576 8.86444 1.54286C9.22496 1.34996 9.63867 1.28019 10.0425 1.34418C10.4464 1.40818 10.8182 1.60243 11.1014 1.89734C11.3846 2.19224 11.5637 2.57164 11.6112 2.97771C11.6175 3.03199 11.6357 3.08424 11.6643 3.13078C11.693 3.17733 11.7315 3.21704 11.7771 3.24715C11.8227 3.27726 11.8743 3.29704 11.9284 3.30509C11.9825 3.31315 12.0376 3.30928 12.0901 3.29378C12.3037 3.22983 12.5255 3.19712 12.7485 3.19667C13.2221 3.1968 13.6836 3.34637 14.0672 3.62406C14.4508 3.90175 14.737 4.2934 14.885 4.74323C15.033 5.19305 15.0353 5.6781 14.8915 6.12929C14.7477 6.58047 14.4652 6.97478 14.0842 7.25604C13.5743 6.47094 12.8764 5.8256 12.0538 5.37861C11.2312 4.93161 10.31 4.69711 9.37372 4.69639C7.79401 4.66677 6.24578 5.14011 4.95276 6.04801C4.65743 5.65938 4.49801 5.18448 4.49904 4.69639C4.49963 4.09995 4.73686 3.5281 5.15866 3.10635C5.58046 2.6846 6.15238 2.4474 6.74889 2.44681ZM9.37372 5.44625C10.6661 5.44774 11.9051 5.96174 12.819 6.87549C13.7329 7.78923 14.2469 9.02811 14.2484 10.3203C14.222 11.0631 14.0686 11.7958 13.7947 12.4867C13.16 12.5854 12.5851 12.918 12.1833 13.4191C11.7815 13.9202 11.5819 14.5535 11.6236 15.1944C11.6251 15.6386 11.7842 16.0678 12.0726 16.4055C12.361 16.7433 12.76 16.9677 13.1985 17.0387C13.3616 18.276 13.8359 19.4923 14.8345 21.2574C14.8954 21.366 14.9267 21.4886 14.9254 21.6131C14.9242 21.7375 14.8903 21.8595 14.8272 21.9668C14.7641 22.0741 14.674 22.163 14.5659 22.2246C14.4578 22.2862 14.3354 22.3185 14.2109 22.3181C14.0454 22.3202 13.8846 22.263 13.7576 22.1569C13.0779 21.4532 12.4683 20.6851 11.9374 19.8635C11.8977 19.8024 11.8409 19.7543 11.7743 19.725C11.7076 19.6957 11.6338 19.6864 11.5619 19.6983C11.49 19.7103 11.4232 19.7429 11.3695 19.7922C11.3159 19.8415 11.2778 19.9053 11.2599 19.9759C11.1199 20.5257 10.927 21.0606 10.6839 21.5731C10.5741 21.7963 10.4042 21.9843 10.1932 22.1159C9.98222 22.2475 9.73865 22.3176 9.48997 22.3181C9.19469 22.3197 8.90741 22.2222 8.67414 22.0412C8.44088 21.8602 8.27512 21.6061 8.20342 21.3197C8.00753 20.542 7.89701 19.7454 7.87382 18.9438C7.87373 18.8594 7.84517 18.7775 7.79275 18.7113C7.74033 18.6452 7.66713 18.5986 7.58498 18.5792C7.50283 18.5599 7.41654 18.5688 7.34007 18.6045C7.26361 18.6402 7.20144 18.7007 7.16362 18.7762C6.68986 19.5876 6.04867 20.2887 5.28274 20.833C5.14651 20.9339 4.98334 20.9918 4.81403 20.9995C4.64472 21.0073 4.47695 20.9644 4.33211 20.8764C4.18728 20.7883 4.07195 20.6592 4.00083 20.5054C3.92972 20.3515 3.90604 20.18 3.93282 20.0127C4.05804 19.0364 4.12191 18.0533 4.12406 17.0691C4.12404 16.9914 4.09985 16.9155 4.05484 16.8522C4.00983 16.7888 3.94623 16.7409 3.87284 16.7153C3.79944 16.6896 3.71989 16.6874 3.64518 16.709C3.57048 16.7305 3.50431 16.7747 3.45585 16.8355C2.77302 17.6919 2.27131 18.2655 1.88096 18.4781C1.73297 18.5474 1.56767 18.5711 1.40616 18.5461C1.24466 18.521 1.09429 18.4484 0.974264 18.3375C0.898632 18.263 0.839516 18.1734 0.800755 18.0746C0.761995 17.9758 0.744456 17.8699 0.749278 17.7638C0.754746 17.6519 0.783439 17.5424 0.833533 17.4421C0.883627 17.3419 0.954027 17.2532 1.04026 17.1816C1.53889 16.7479 1.9384 16.2121 2.21169 15.6105C2.48497 15.0089 2.62565 14.3555 2.62416 13.6947C2.62416 6.2501 7.34436 5.44625 9.37372 5.44625Z" fill="white"/>
</svg>
