<svg width="41" height="43" viewBox="0 0 41 43" fill="none" xmlns="http://www.w3.org/2000/svg">
<path d="M10.9471 13.4689C10.9471 12.4547 10.287 11.6599 9.44429 11.6599C8.60192 11.6599 7.94185 12.4543 7.94185 13.4689C7.94185 14.4832 8.60192 15.2777 9.44429 15.2777C10.287 15.2777 10.9471 14.4832 10.9471 13.4689Z" fill="white"/>
<path d="M23.3722 13.4689C23.3722 12.4547 22.7122 11.6599 21.8698 11.6599C21.027 11.6599 20.367 12.4543 20.367 13.4689C20.367 14.4832 21.027 15.2777 21.8698 15.2777C22.7122 15.2777 23.3722 14.4832 23.3722 13.4689Z" fill="white"/>
<path d="M15.657 18.9933C16.0661 18.9933 16.3973 18.6723 16.3973 18.2758V16.6672C17.2619 16.4269 17.9316 15.7924 17.9316 15.1103C17.9316 14.8603 17.8322 14.256 16.9123 14.0451C16.6107 13.9759 16.2354 13.9461 15.657 13.9461C15.0791 13.9461 14.7038 13.9759 14.4017 14.0451C13.4819 14.256 13.3825 14.8603 13.3825 15.1103C13.3825 15.7924 14.0521 16.4269 14.9168 16.6672V18.2758C14.9168 18.6723 15.2483 18.9933 15.657 18.9933Z" fill="white"/>
<path d="M32.7652 20.423C33.6782 22.4839 34.8145 25.0483 34.5923 27.9133C34.4177 30.1617 33.7642 32.5015 32.7518 34.5017C32.5718 34.8577 32.7234 35.2873 33.0907 35.4617C33.1954 35.5115 33.3067 35.5354 33.4161 35.5354C33.6897 35.5354 33.9526 35.3877 34.0815 35.1337C35.1745 32.9731 35.8802 30.4473 36.0687 28.0208C36.3185 24.8051 35.1027 22.0613 34.1257 19.8565C33.5669 18.5953 33.0841 17.5059 33.0415 16.6903C32.9963 15.8222 33.7626 14.9381 34.6821 14.7982C35.2156 14.7168 37.0457 14.7744 38.1901 18.9259C38.2957 19.3087 38.7013 19.5359 39.0966 19.434C39.4915 19.3317 39.7263 18.9382 39.6208 18.5555C39.1008 16.6705 38.3551 15.2672 37.4038 14.3846C36.5361 13.5794 35.4869 13.2231 34.4519 13.3804C32.7748 13.6359 31.4785 15.1531 31.5629 16.7628C31.6189 17.8358 32.1501 19.0349 32.7652 20.423Z" fill="white"/>
<path d="M40.5 26.6651C40.5004 24.7474 40.3975 22.9997 40.1941 21.4703C40.1423 21.0772 39.7705 20.8001 39.3656 20.8503C38.96 20.9009 38.6737 21.2606 38.7255 21.6533C38.9208 23.1225 39.0194 24.8084 39.0191 26.6648C39.0183 30.2197 38.2323 33.4135 36.6831 36.158C35.4447 38.3524 33.7143 40.273 31.5403 41.8664C30.5889 42.5638 29.633 43.1373 28.7357 43.6055C29.0765 42.8721 29.2446 42.03 29.2446 41.069C29.2446 40.9734 29.2423 40.8722 29.2384 40.7684C30.4216 39.9799 31.4904 38.9761 32.4195 37.777C32.6651 37.4601 32.5991 37.0104 32.2721 36.7724C31.9451 36.5344 31.4812 36.5983 31.2356 36.9152C30.5858 37.7536 29.8628 38.4833 29.0773 39.0966C28.3738 34.0565 25.6495 24.9037 24.8528 22.2867C26.1511 21.8144 27.3971 20.7774 28.177 19.2811L29.2312 19.8364C29.5861 20.0228 30.0428 19.8919 30.2351 19.5482C30.4304 19.2001 30.2973 18.7645 29.938 18.5752L28.7096 17.9284C28.8558 17.407 28.9495 16.8472 28.9806 16.2517L30.1982 16.0502C30.6016 15.9836 30.8725 15.6131 30.8038 15.2222C30.7347 14.8317 30.3525 14.5695 29.9492 14.6357L28.8754 14.8131C28.3293 11.8443 25.9903 8.11126 25.4012 7.20485C25.4204 6.7232 25.4472 5.57802 25.3379 4.38932C25.1199 2.01937 24.4698 0.758144 23.3507 0.533869C22.252 0.314056 21.1468 1.16541 19.9717 3.13814C19.4774 3.96755 19.0825 4.80663 18.8611 5.30651H12.453C12.2316 4.80663 11.8367 3.96755 11.3424 3.13814C10.1673 1.16541 9.06206 0.313684 7.96334 0.533869C6.84429 0.758144 6.19419 2.01937 5.97621 4.38932C5.86684 5.57765 5.8937 6.7232 5.91327 7.20485C5.32381 8.11126 2.98516 11.8443 2.43868 14.8131L1.3649 14.6357C0.961952 14.5691 0.57934 14.8317 0.510646 15.2222C0.441952 15.6131 0.712889 15.9836 1.11584 16.0502L2.33352 16.2517C2.36461 16.8472 2.45863 17.407 2.60446 17.9284L1.37603 18.5752C1.01683 18.7645 0.884048 19.2001 1.079 19.5482C1.27165 19.8919 1.72795 20.0231 2.08293 19.8364L3.13713 19.2811C3.91732 20.7778 5.1634 21.8147 6.46206 22.2867C6.25099 22.9815 5.90099 24.1479 5.49113 25.5676C5.38099 25.9492 5.61087 26.3453 6.00461 26.452C6.39835 26.5591 6.80706 26.336 6.9172 25.9544C7.58188 23.6506 8.08806 22.0201 8.09305 22.0037C8.21816 21.602 7.94799 21.1709 7.52316 21.0921C5.75823 20.7652 3.91502 18.939 3.80679 16.0821C3.76228 14.9039 4.33946 13.1097 5.47617 10.8941C6.36113 9.16978 7.27487 7.80441 7.28408 7.79102C7.37043 7.66233 7.41187 7.51058 7.40266 7.35735C7.40189 7.34359 7.32015 5.94326 7.45102 4.5169C7.63676 2.49879 8.10034 1.97176 8.26344 1.9394C8.42539 1.90593 9.06283 2.18562 10.0529 3.8437C10.7575 5.02347 11.2641 6.27242 11.2691 6.28507C11.3796 6.5603 11.6536 6.74143 11.9587 6.74143H19.3558C19.6609 6.74143 19.9345 6.5603 20.0454 6.28507C20.0504 6.27242 20.5508 5.03612 21.2539 3.85597C22.2482 2.18748 22.8887 1.90667 23.051 1.9394C23.2134 1.97176 23.6754 2.49619 23.8619 4.50351C23.9943 5.93024 23.9126 7.34359 23.9114 7.35772C23.9026 7.51058 23.944 7.6627 24.0304 7.79102C24.0396 7.80441 24.9533 9.16978 25.8383 10.8944C26.975 13.1097 27.5522 14.9039 27.5073 16.0821C27.3995 18.939 25.5558 20.7652 23.7909 21.0921C23.3661 21.1709 23.0963 21.6024 23.221 22.0041C23.2667 22.1502 27.764 36.6709 27.764 41.069C27.764 42.5403 27.292 43.5862 26.2789 44.3606C25.4173 45.0189 24.1417 45.4938 22.4017 45.8029C22.8123 44.2319 23.1765 42.0542 23.4847 39.3309C24.0066 34.7186 24.1919 30.0464 24.1939 29.9999C24.2092 29.6038 23.8907 29.2705 23.482 29.2556C23.0763 29.2389 22.7298 29.5495 22.7141 29.9456C22.7125 29.9887 22.5406 34.3143 22.0632 38.7198C21.7842 41.2914 21.458 43.3831 21.0934 44.9367C20.5661 47.1821 20.1006 47.6931 19.9675 47.798C19.7664 47.6537 18.7966 46.6074 18.2367 39.7114C17.9143 35.7407 17.8952 31.8368 17.8952 31.7978C17.8936 31.4024 17.5624 31.0829 17.1549 31.0829C17.1541 31.0829 17.153 31.0829 17.1518 31.0829C16.7431 31.0844 16.4131 31.4069 16.4146 31.803C16.4146 31.8454 16.4349 36.0631 16.7945 40.2262C17.0071 42.6917 17.2961 44.6637 17.6534 46.0878C17.6649 46.1339 17.6772 46.1804 17.6891 46.2277C17.0539 46.2466 16.3824 46.2563 15.657 46.2563C14.9317 46.2563 14.2605 46.2466 13.625 46.2277C13.6373 46.1804 13.6492 46.1336 13.6607 46.0878C14.018 44.6637 14.3073 42.6917 14.5199 40.2262C14.8792 36.0631 14.8995 31.8454 14.8999 31.803C14.9014 31.4069 14.571 31.0844 14.1623 31.0829C14.1611 31.0829 14.1604 31.0829 14.1592 31.0829C13.7517 31.0829 13.4205 31.4024 13.4189 31.7978C13.4189 31.8368 13.4001 35.7336 13.0781 39.7043C12.5182 46.607 11.5477 47.6537 11.3466 47.798C11.2541 47.7251 11.002 47.4565 10.6804 46.5505C10.6677 46.4877 10.647 46.4274 10.6186 46.3712C10.4935 45.9963 10.3592 45.527 10.2206 44.9367C9.85607 43.3831 9.52987 41.2914 9.25087 38.7198C8.77347 34.3143 8.60154 29.9887 8.60001 29.9456C8.58427 29.5495 8.24042 29.2385 7.83209 29.2556C7.42339 29.2705 7.10486 29.6038 7.12021 29.9999C7.12213 30.0464 7.30787 34.7186 7.82941 39.3309C8.13757 42.0546 8.50215 44.2319 8.91277 45.8029C7.17624 45.4946 5.90253 45.0215 5.04136 44.3654C4.024 43.5903 3.55006 42.5429 3.55006 41.069C3.55006 39.1293 4.44576 34.8551 6.1397 28.7085C6.24523 28.3254 6.01075 27.9323 5.61547 27.83C5.22096 27.7281 4.81494 27.955 4.70902 28.3381C2.95752 34.6929 2.06949 38.9765 2.06949 41.069C2.06949 42.9919 2.74223 44.439 4.12609 45.4935C5.30578 46.3921 7.03348 46.9961 9.39747 47.3349C9.81692 48.3905 10.4148 49.25 11.3378 49.25C12.2066 49.25 12.7704 48.5244 13.1534 47.6477C13.929 47.6767 14.7529 47.6912 15.657 47.6912C16.5612 47.6912 17.3851 47.6767 18.1607 47.6477C18.5437 48.5244 19.1075 49.25 19.9763 49.25C20.8996 49.25 21.4972 48.3905 21.917 47.3349C22.7789 47.2111 23.5553 47.0515 24.2522 46.8559C24.5784 46.79 40.4962 43.2745 40.5 26.6651Z" fill="white"/>
</svg>
