<svg width="43" height="65" viewBox="0 0 43 65" fill="none" xmlns="http://www.w3.org/2000/svg">
<path d="M38.3536 31.3155C39.6175 26.9757 41.2236 20.955 42.1678 15.4886C43.4412 8.11264 43.2342 3.65632 41.5161 1.46492C40.8838 0.658529 39.7264 -0.240731 37.8005 0.0590227C35.0757 0.483372 32.4638 3.48245 29.8154 9.22833C28.1584 12.8232 26.5053 17.4445 24.895 22.9778C22.6452 22.5991 20.3548 22.5991 18.105 22.9778C16.4947 17.4445 14.8416 12.8232 13.1846 9.22833C10.5362 3.4822 7.9243 0.483372 5.19942 0.0590227C3.27373 -0.240215 2.1162 0.6584 1.48386 1.46492C-0.234231 3.65632 -0.441228 8.11264 0.832647 15.4886C1.77686 20.955 3.38302 26.9757 4.64687 31.3155C1.64262 35.2907 0.00121994 40.2639 0 45.3948C0 51.4284 2.22346 56.4872 6.43005 60.0256C10.2443 63.233 15.5962 65 21.5 65C27.4038 65 32.7557 63.233 36.5699 60.0256C40.7765 56.4872 43 51.4284 43 45.3948C42.9989 40.2639 41.3577 35.2908 38.3536 31.3155ZM32.3814 10.6084C35.2231 4.44311 37.2522 3.27273 38.2087 3.12401C38.8755 3.02083 39.1404 3.2272 39.3278 3.46582C40.7473 5.27633 40.5853 12.8726 36.0918 28.74C33.6839 26.3877 30.8164 24.6511 27.702 23.6591C29.2439 18.3921 30.8158 14.0054 32.3814 10.6084ZM3.67184 3.46517C3.85913 3.2263 4.12454 3.02031 4.7908 3.12324C5.74743 3.27208 7.77691 4.44221 10.6183 10.6078C12.1842 14.0054 13.7561 18.3921 15.2976 23.6584C12.1832 24.6505 9.31572 26.3871 6.90783 28.7394C2.41433 12.8719 2.25236 5.27569 3.67184 3.46517ZM21.5 52.6178C19.4252 52.6178 18.1556 51.6156 18.1556 51.07C18.1556 50.5244 19.4252 49.5222 21.5 49.5222C23.5748 49.5222 24.8444 50.5244 24.8444 51.07C24.8444 51.6156 23.5748 52.6178 21.5 52.6178ZM22.9333 61.8636V55.5926C25.7028 55.1207 27.7111 53.3034 27.7111 51.07C27.7111 48.4662 24.9829 46.4266 21.5 46.4266C18.0171 46.4266 15.2889 48.4662 15.2889 51.07C15.2889 53.3034 17.2972 55.12 20.0667 55.5926V61.8636C11.8276 61.4028 2.86667 56.9087 2.86667 45.3948C2.86667 34.5844 11.2255 25.7896 21.5 25.7896C31.7745 25.7896 40.1333 34.5844 40.1333 45.3948C40.1333 56.9087 31.1724 61.4028 22.9333 61.8636Z" fill="#3D68FF"/>
<path d="M30.5778 44.3629C31.3694 44.3629 32.0111 43.67 32.0111 42.8152C32.0111 41.9603 31.3694 41.2674 30.5778 41.2674C29.7862 41.2674 29.1444 41.9603 29.1444 42.8152C29.1444 43.67 29.7862 44.3629 30.5778 44.3629Z" fill="#3D68FF"/>
<path d="M12.4222 44.3629C13.2138 44.3629 13.8556 43.67 13.8556 42.8152C13.8556 41.9603 13.2138 41.2674 12.4222 41.2674C11.6306 41.2674 10.9889 41.9603 10.9889 42.8152C10.9889 43.67 11.6306 44.3629 12.4222 44.3629Z" fill="#3D68FF"/>
</svg>
