<svg width="18" height="16" viewBox="0 0 18 16" fill="none" xmlns="http://www.w3.org/2000/svg">
<path d="M12.3559 4.7289C12.7772 4.7289 13.1186 4.39956 13.1186 3.99329C13.1186 3.58703 12.7772 3.25768 12.3559 3.25768C11.9347 3.25768 11.5932 3.58703 11.5932 3.99329C11.5932 4.39956 11.9347 4.7289 12.3559 4.7289Z" fill="white"/>
<path fill-rule="evenodd" clip-rule="evenodd" d="M9.29294 8.65634C9.48716 8.8124 9.51334 9.0907 9.35158 9.27796L6.30073 12.8089C6.13891 12.9961 5.85035 13.0214 5.65619 12.8654C5.46203 12.7094 5.4358 12.4311 5.5976 12.2438L8.64842 8.71289C8.81024 8.52564 9.09879 8.50033 9.29294 8.65634Z" fill="white"/>
<path fill-rule="evenodd" clip-rule="evenodd" d="M13.708 1.7831C13.0014 1.32335 12.1455 1.12739 11.3001 1.2318C10.4547 1.33621 9.67765 1.73386 9.11398 2.35047C8.55043 2.967 8.23881 3.76029 8.23729 4.58219V6.05299C8.23729 6.15321 8.2019 6.25043 8.13704 6.3287L1.40978 14.4389H8.38983C10.2104 14.4389 11.9564 13.7414 13.2437 12.4999C14.531 11.2583 15.2542 9.57432 15.2542 7.81845V6.05299C15.2542 5.9054 15.3307 5.76763 15.458 5.68578L16.7168 4.87637L15.3287 3.98558C15.2353 3.92565 15.168 3.83472 15.1395 3.73006C14.9234 2.93491 14.4145 2.24283 13.708 1.7831ZM11.1839 0.356223C12.2498 0.224573 13.329 0.471661 14.2199 1.05133C15.0614 1.59889 15.6805 2.40786 15.9762 3.34084L17.7959 4.50856C17.9233 4.59035 17.9999 4.72818 18 4.87582C18.0001 5.02343 17.9236 5.16138 17.7962 5.24323L16.1695 6.28921V7.81845C16.1695 9.80842 15.3499 11.7169 13.8909 13.124C12.4319 14.5311 10.4531 15.3217 8.38983 15.3217H0.457633C0.281717 15.3217 0.121375 15.2244 0.0451708 15.0715C-0.0310333 14.9185 -0.0096084 14.7371 0.100284 14.6046L7.32203 5.89816V4.58103C7.32386 3.54457 7.71675 2.54419 8.42742 1.76672C9.13814 0.989252 10.118 0.487867 11.1839 0.356223Z" fill="white"/>
</svg>
