<svg width="37" height="26" viewBox="0 0 37 26" fill="none" xmlns="http://www.w3.org/2000/svg">
<path d="M1.27253 14.8754C0.0144779 17.149 0.599248 19.4886 0.909021 20.3888C1.07828 20.851 1.50783 20.8521 1.9534 20.8434C3.15644 20.8434 4.32155 20.5298 5.31977 19.9374C6.30471 19.3579 7.11264 18.5308 7.7227 17.4781C7.9945 16.9761 8.70915 16.8003 9.12868 17.2012C10.9987 18.9019 12.9307 20.1853 14.9061 21.0699C13.5749 23.4168 15.2358 25.5724 17.8301 25.4981C20.0328 25.4421 21.8693 24.3373 23.7299 22.3596C29.3768 21.6291 33.5125 18.2349 35.6551 16.0258C37.1148 14.5232 37.1148 12.078 35.6558 10.5764C33.5159 8.13194 28.2146 4.63961 23.8478 4.25342C21.8295 2.1308 19.7033 0.886376 17.5235 0.568574C13.0098 -0.032732 10.9318 3.42443 13.5029 6.86625C13.7402 7.19351 14.0614 7.382 14.4504 7.20492C17.1837 5.71267 20.3943 5.13499 23.4641 5.52858C24.401 5.64509 25.343 5.85037 26.2675 6.13128C25.8517 6.90207 25.5026 7.71133 25.2273 8.54619C24.2086 11.6014 24.1894 14.9826 25.2279 18.0499C25.5109 18.8627 26.7183 18.4494 26.453 17.6236C25.2188 13.9967 25.6381 9.88557 27.5123 6.57505C30.7402 7.84913 33.1977 9.91384 34.7347 11.5027C35.6975 12.4943 35.6975 14.1069 34.734 15.0989C32.3267 17.5821 27.2629 21.6679 20.3146 21.1422C16.7642 20.8753 13.291 19.2185 9.99161 16.2176C9.50863 15.7779 8.86443 15.5844 8.21644 15.6871C7.54253 15.7946 6.95586 16.2041 6.60689 16.8094C6.11253 17.6629 5.46138 18.3309 4.67051 18.7968C3.88091 19.2649 2.95982 19.516 2.00333 19.5244C1.78585 18.6783 1.55574 17.0499 2.40034 15.5235C2.86373 14.6874 3.49212 14.1514 3.93718 13.849C4.31831 13.6068 4.31588 12.994 3.93716 12.7518C2.0928 11.6224 1.40721 9.04734 2.00215 7.07419C2.94747 7.0836 3.844 7.3243 4.67241 7.80539C5.46138 8.26996 6.11253 8.93801 6.60626 9.78989C7.25965 11.0009 8.99367 11.3348 9.98845 10.3858C10.6238 9.81371 11.206 9.33208 11.7674 8.91387C12.0557 8.69881 12.1183 8.28639 11.9071 7.99244C11.6966 7.69818 11.292 7.63444 11.0025 7.8495C10.4088 8.29218 9.7969 8.79828 9.12804 9.40001C8.93269 9.57773 8.67982 9.65242 8.41683 9.61088C8.12792 9.56485 7.87505 9.38681 7.72206 9.12119C7.11264 8.07002 6.30471 7.24294 5.2654 6.63219C4.11815 5.97488 2.8352 5.68005 1.47482 5.77226C1.21942 5.7903 0.998156 5.96029 0.910912 6.20626C0.78827 6.55203 0.503155 7.4828 0.503155 8.65212C0.495749 10.4504 1.21266 12.1277 2.52109 13.3024C2.09625 13.6887 1.64362 14.2058 1.27253 14.8754ZM20.2223 4.14351C18.2158 4.28702 16.163 4.88139 14.3553 5.78224C13.6838 4.66836 13.5004 3.79918 13.8087 3.13869C14.3448 1.98675 15.9683 1.67446 17.3401 1.87375C18.8422 2.09288 20.3359 2.84367 21.7967 4.09875C21.2705 4.09078 20.7444 4.10394 20.2223 4.14351ZM21.5397 22.5076C21.5961 22.5076 21.6498 22.5021 21.706 22.5015C20.7947 23.2705 19.6695 23.953 18.4016 24.1383C16.8774 24.4007 14.879 23.6049 16.1213 21.5659C17.8917 22.2074 19.6989 22.5138 21.5397 22.5076Z" fill="white"/>
<path d="M19.927 11.3655L21.254 12.0381C21.5732 12.1997 21.9627 12.067 22.122 11.7412C22.2813 11.4154 22.151 11.0194 21.8305 10.8571L20.5017 10.1836C17.5541 9.10485 17.1178 13.9157 18.2581 15.694C18.6827 16.511 19.7068 16.8216 20.5036 16.4163L21.8305 15.7437C22.151 15.5815 22.2813 15.1855 22.122 14.8596C21.9627 14.5338 21.5732 14.4015 21.254 14.5628L19.9289 15.2344C19.7361 15.3316 19.4984 15.2608 19.3966 15.066C18.808 13.9772 18.808 12.624 19.401 11.5271C19.4978 11.3414 19.7348 11.2686 19.927 11.3655Z" fill="white"/>
<path d="M30.2816 12.5487V11.23C30.2674 10.3637 29.001 10.3631 28.9869 11.23V12.5487C29.001 13.415 30.2674 13.4156 30.2816 12.5487Z" fill="white"/>
</svg>
