<svg width="11" height="7" viewBox="0 0 11 7" fill="none" xmlns="http://www.w3.org/2000/svg">
<path d="M3.52691 4.48105L9.34753 0.288629C9.5284 0.0962095 9.75859 0 10.0381 0C10.3176 0 10.5478 0.0962095 10.7287 0.288629C10.9096 0.481049 11 0.725947 11 1.02332C11 1.3207 10.9096 1.5656 10.7287 1.75802L4.21749 6.68513C4.02018 6.89504 3.78998 7 3.52691 7C3.26383 7 3.03363 6.89504 2.83632 6.68513L0.2713 3.95627C0.0904331 3.76385 0 3.51895 0 3.22157C0 2.9242 0.0904331 2.6793 0.2713 2.48688C0.452167 2.29446 0.682362 2.19825 0.961883 2.19825C1.24141 2.19825 1.4716 2.29446 1.65247 2.48688L3.52691 4.48105Z" fill="white"/>
</svg>
