<svg width="62" height="50" viewBox="0 0 62 50" fill="none" xmlns="http://www.w3.org/2000/svg">
<path d="M56.7401 42.8375C52.3921 47.5906 45.8129 50 37.1883 50L34.0893 50L34.0893 41.1906L36.5809 40.6875C40.8266 39.8312 43.7799 38.1469 45.3604 35.675C46.1851 34.3433 46.6528 32.8186 46.7178 31.25L37.1883 31.25C36.3664 31.25 35.5781 30.9208 34.997 30.3347C34.4158 29.7487 34.0893 28.9538 34.0893 28.125L34.0893 6.25C34.0893 2.80312 36.8691 1.61768e-06 40.2873 1.91652e-06L58.8815 3.54207e-06C59.7034 3.61392e-06 60.4917 0.329243 61.0728 0.915291C61.654 1.50134 61.9805 2.2962 61.9805 3.125L61.9805 18.75L61.9712 27.8719C61.9991 28.2187 62.5879 36.4375 56.7401 42.8375ZM6.19805 -1.06366e-06L24.7922 5.61889e-07C25.6141 6.33743e-07 26.4024 0.32924 26.9836 0.915288C27.5647 1.50134 27.8912 2.2962 27.8912 3.125L27.8912 18.75L27.8819 27.8719C27.9098 28.2187 28.4986 36.4375 22.6508 42.8375C18.3028 47.5906 11.7236 50 3.09902 50L-3.8147e-06 50L-3.04456e-06 41.1906L2.49162 40.6875C6.73728 39.8312 9.69065 38.1469 11.2712 35.675C12.0958 34.3433 12.5635 32.8186 12.6285 31.25L3.09902 31.25C2.27711 31.25 1.48886 30.9208 0.907678 30.3347C0.326502 29.7487 -1.97478e-06 28.9538 -1.90232e-06 28.125L1.00489e-08 6.25C3.11384e-07 2.80312 2.77983 -1.3625e-06 6.19805 -1.06366e-06Z" fill="#02C5BD"/>
</svg>
